<?xml version="1.0" encoding="UTF-8"?><svg id="Layer_1" xmlns="http://www.w3.org/2000/svg" viewBox="0 0 57 57"><defs><style>.cls-1{fill:#231f20;}.cls-1,.cls-2,.cls-3{stroke-width:0px;}.cls-2{fill:#414042;}.cls-3{fill:#f1f2f2;}</style></defs><path class="cls-3" d="M31.06,40.92L6.65,27.66s0-.02,0-.02l13.32-2.51,29.35,8.45c.23.41.68.38.47.78l-18.1,6.61c-.2.07-.43.06-.61-.05Z"/><path class="cls-2" d="M6.67,27.63h0s0,0-.02,0h.02Z"/><path class="cls-1" d="M49.41,33.9c.06.02.58.06.37.46l-18.1,6.61c-.2.07-.43.06-.61-.05L6.65,27.66s0-.02,0-.02c-.02,0-.05.04-.03.19v2.28c0,.13.07.26.19.33l24.3,14.57c.16.09.35.11.52.03l18.49-8.07c.14-.06.23-.2.23-.35l.04-2.18c-.05-.35-.83-.53-.98-.55Z"/><path class="cls-3" d="M19.49,13.27c.2.2.38.43.51.68.04.07.12.12.2.11l.91-.11-1.62-.69Z"/><path class="cls-3" d="M18.69,12.72s0,0,0,0c-.15-.09-.32-.19-.51-.28-.02,0-.03-.01-.05-.02-.18-.08-.38-.16-.59-.23-.03,0-.05-.02-.08-.03-.21-.07-.43-.12-.65-.16-.03,0-.05,0-.08-.01-.23-.04-.47-.07-.7-.07,0,0-1.93-.12-2.9,1.71l-.36.62s0,0,0,0l-1.11.1h0c-.1.01-.2.09-.2.15v10.16l1.27.66v-10.21s.02-.06.03-.09h0s.09.04.09.04c0,0,.02,0,.03,0l1.28-.16s.05-.07.01-.09l.16.06c.2-1.24,1.42-2.35,2.85-2.35.32,0,1.42.22,1.71.31-.06-.04-.12-.09-.19-.13,0,0,0,0,0,0Z"/><path class="cls-3" d="M22.65,24.44l-1.25-.45v-9.86c0-.12-.1-.21-.22-.2l-.98.11c-.08,0-.16-.04-.2-.11-.49-.95-1.56-1.57-2.73-1.57-1.45,0-2.7.96-2.96,2.22-.02.08-.08.15-.17.16l-1.24.14c-.1.01-.17.1-.17.2v9.2l-2.87.29c-.11.01-.13.09-.03.14l2.59,1.31s.04.02.07.01l9.97-1.54c.1-.02.3-.03.2-.08ZM21.12,24l-8.06,1.2v-10l1.53-.18v-.12c.13-1.24,1.31-2.21,2.71-2.21,1.14,0,2.17.65,2.55,1.61l.04.11,1.23-.14v9.74Z"/><path class="cls-1" d="M22.82,24.6c-.03-.08-.09-.12-.16-.15.02.03-.12.05-.22.06l-9.97,1.54s-.05,0-.07-.01l-2.59-1.31c-.08-.04-.06-.1,0-.12-.05.02-.11.05-.11.09v2.97s.01.05.03.06l2.62,1.45s0,0,0,0c.02.01.05.03.17,0l10.22-2.69c.07-.01.12-.07.11-.14l-.05-1.74Z"/><polygon class="cls-3" points="11.46 20.04 11.46 24.66 12.73 25.32 12.73 20.04 11.46 20.04"/><path class="cls-1" d="M19.84,14.29c-.38-.96-1.41-1.61-2.55-1.61-1.39,0-2.58.97-2.69,2.21v.12s-1.54.18-1.54.18v9.99l8.05-1.2v-9.73l-1.23.14-.04-.11Z"/><path class="cls-1" d="M50.3,34.19c.35,1.4-3.37,3.99-8.62,5.87-5.25,1.88-10.39,2.4-10.39.95,0-.45,3.67-5.31,8.96-7.08,4.71-1.57,9.84-.59,10.05.25Z"/><path class="cls-3" d="M23.49,26.31c.11.82-2.05,2.23-5.16,2.96-3.11.74-6.07.7-5.98-.12.03-.26,3.02-2.13,6.15-2.79,2.78-.59,4.93-.54,4.99-.05Z"/></svg>