<?xml version="1.0" encoding="UTF-8"?><svg id="Layer_1" xmlns="http://www.w3.org/2000/svg" xmlns:xlink="http://www.w3.org/1999/xlink" viewBox="0 0 57 57"><defs><style>.cls-1{clip-path:url(#clippath);}.cls-2{fill:none;}.cls-2,.cls-3,.cls-4,.cls-5{stroke-width:0px;}.cls-3{fill:#231f20;}.cls-4{fill:#414042;}.cls-5{fill:#f1f2f2;}</style><clipPath id="clippath"><path class="cls-2" d="M30.29,37.58s.77.77,1.65.36l2.74-.85-1.65-7.64-2.46-1.34-3.22-.99-4.63-1.36.72,7.73,6.85,4.08Z"/></clipPath></defs><path class="cls-5" d="M31.06,40.58L6.65,27.31s0-.02,0-.02l13.32-2.51,29.44,8.77c.06.02.58.06.37.46l-18.1,6.61c-.2.07-.43.06-.61-.05Z"/><path class="cls-4" d="M6.67,27.29h0s0,0-.02,0h.02Z"/><path class="cls-3" d="M49.41,33.55c.06.02.58.06.37.46l-18.1,6.61c-.2.07-.43.06-.61-.05L6.65,27.31s0-.02,0-.02c-.02,0-.05.04-.03.19v2.28c0,.13.07.26.19.33l24.3,14.57c.16.09.35.11.52.03l18.49-8.07c.14-.06.23-.2.23-.35l.04-2.18c-.05-.35-.83-.53-.98-.55Z"/><path class="cls-5" d="M31.05,37.26L6.9,26.49s0-.01,0-.01l12.97-1.98,28.98,8.1c.07.01.67.17.56.37l-17.67,4.34c-.23.05-.47.04-.68-.04Z"/><path class="cls-4" d="M6.92,26.48h0s0,0-.02,0h.02Z"/><path class="cls-3" d="M48.85,32.6c.07.01.75.24.41.35l-17.5,5.91c-.23.05-.47.04-.68-.04L6.9,26.49s0-.01,0-.01c-.02,0-.05.03-.03.14h0v.4q0,.1.03.14l24.21,13.06c.17.07.39.08.57.03l17.61-6.41c.15-.04.31-.14.31-.25v-.53c-.06-.27-.6-.44-.76-.46Z"/><path class="cls-5" d="M19.15,12.99c.2.2.38.43.51.68.04.07.12.12.2.11l.91-.11-1.62-.69Z"/><path class="cls-5" d="M18.35,12.43s0,0,0,0c-.15-.09-.32-.19-.51-.28-.02,0-.03-.01-.05-.02-.18-.08-.38-.16-.59-.23-.03,0-.05-.02-.08-.03-.21-.07-.43-.12-.65-.16-.03,0-.05,0-.08-.01-.23-.04-.47-.07-.7-.07,0,0-1.93-.12-2.9,1.71l-.36.62s0,0,0,0l-1.11.1h0c-.1.01-.2.09-.2.15v10.16l1.27.66v-10.21s.02-.06.03-.09h0s.09.04.09.04c0,0,.02,0,.03,0l1.28-.16s.05-.07.01-.09l.16.06c.2-1.24,1.42-2.35,2.85-2.35.32,0,1.42.22,1.71.31-.06-.04-.12-.09-.19-.13,0,0,0,0,0,0Z"/><path class="cls-5" d="M22.31,24.15l-1.25-.45v-9.86c0-.12-.1-.21-.22-.2l-.98.11c-.08,0-.16-.04-.2-.11-.49-.95-1.56-1.57-2.73-1.57-1.45,0-2.7.96-2.96,2.22-.02.08-.08.15-.17.16l-1.24.14c-.1.01-.17.1-.17.2v9.2l-2.87.29c-.11.01-.13.09-.03.14l2.59,1.31s.04.02.07.01l9.97-1.54c.1-.02.3-.03.2-.08ZM20.78,23.71l-8.06,1.2v-10l1.53-.18v-.12c.13-1.24,1.31-2.21,2.71-2.21,1.14,0,2.17.65,2.55,1.61l.04.11,1.23-.14v9.74Z"/><path class="cls-3" d="M22.48,24.32c-.03-.08-.09-.12-.16-.15.02.03-.12.05-.22.06l-9.97,1.54s-.05,0-.07-.01l-2.59-1.31c-.08-.04-.06-.1,0-.12-.05.02-.11.05-.11.09v2.18s.01.05.03.06l2.62,1.45s0,0,0,0c.02.01.05.03.17,0l10.22-1.9c.07-.01.12-.07.11-.14l-.05-1.74Z"/><polygon class="cls-5" points="11.12 19.76 11.12 24.37 12.39 25.03 12.39 19.76 11.12 19.76"/><path class="cls-3" d="M19.5,14.01c-.38-.96-1.41-1.61-2.55-1.61-1.39,0-2.58.97-2.69,2.21v.12s-1.54.18-1.54.18v9.99l8.05-1.2v-9.73l-1.23.14-.04-.11Z"/><g class="cls-1"><path class="cls-3" d="M28.95,31.13c-.78,0-1.42-.64-1.42-1.42,0-.32-.26-.58-.58-.58h-.13c-.32,0-.58.26-.58.58,0,.78-.64,1.42-1.42,1.42-.32,0-.58.26-.58.58v.13c0,.32.26.58.58.58.78,0,1.42.64,1.42,1.42,0,.32.26.58.58.58h.13c.32,0,.58-.26.58-.58,0-.78.64-1.42,1.42-1.42.32,0,.58-.26.58-.58v-.13c0-.32-.26-.58-.58-.58ZM28.76,31.84c-1,0-1.82.81-1.82,1.82h-.12c0-1-.81-1.82-1.82-1.82v-.12c1,0,1.82-.81,1.82-1.82h.12c0,1,.81,1.82,1.82,1.82v.12Z"/><path class="cls-3" d="M30.63,29.47c-.35,0-.64-.29-.64-.64,0-.14-.12-.26-.26-.26h-.06c-.14,0-.26.12-.26.26,0,.35-.29.64-.64.64-.14,0-.26.12-.26.26v.06c0,.14.12.26.26.26.35,0,.64.29.64.64,0,.14.12.26.26.26h.06c.14,0,.26-.12.26-.26,0-.35.29-.64.64-.64.14,0,.26-.12.26-.26v-.06c0-.14-.12-.26-.26-.26ZM30.11,29.77c-.22,0-.4.18-.4.4h-.03c0-.22-.18-.4-.4-.4v-.03c.22,0,.4-.18.4-.4h.03c0,.22.18.4.4.4v.03Z"/><polygon class="cls-3" points="32.86 39.64 32.16 40.08 28.63 34.76 29.33 34.31 32.86 39.64"/><polygon class="cls-3" points="34.07 39.42 33.64 39.69 29.29 33.18 29.72 32.91 34.07 39.42"/><polygon class="cls-3" points="23.05 25.02 22.44 25.02 24.68 28.44 25.1 28.16 23.05 25.02"/><polygon class="cls-3" points="24.38 24.64 23.38 24.64 25.89 28.44 26.6 27.99 24.38 24.64"/></g></svg>