<?xml version="1.0" encoding="UTF-8"?><svg id="a" xmlns="http://www.w3.org/2000/svg" viewBox="0 0 57 57"><path d="M20.36,14.43c.94-1.82-.58-4.43-2.54-4.37-.76,2.07.4,4.06,2.54,4.37Z" fill="#f1f2f2" stroke-width="0"/><path d="M39.18,10.05c-2.22.31-3.32,2.25-2.56,4.39,2.22-.4,3.38-2.41,2.56-4.39Z" fill="#f1f2f2" stroke-width="0"/><path d="M36.65,42.57c-.77,1.88.14,4,2.54,4.4.77-2.1-.42-4.13-2.54-4.4Z" fill="#f1f2f2" stroke-width="0"/><path d="M17.82,46.97c2.11-.2,3.43-2.5,2.55-4.39-2.25.38-3.28,2.29-2.55,4.39Z" fill="#f1f2f2" stroke-width="0"/><path d="M12.26,28.5c-1.23-1.72-3.75-1.72-5.09,0,1.28,1.71,3.79,1.72,5.09,0Z" fill="#f1f2f2" stroke-width="0"/><path d="M44.74,28.49c1.36,1.63,3.58,1.86,5.09,0-1.32-1.71-3.61-1.72-5.09,0Z" fill="#f1f2f2" stroke-width="0"/><path d="M42.72,29.22c-.52-.08-1.06-.12-1.63-.12-1.19,0-2.36.18-3.46.37-.61.11-1.21.25-1.84.4-.04.01-.09.02-.13.03v-2.8c1.93.52,3.85.79,5.71.79h.36c3.62-.07,6.65-3.07,6.74-6.69.08-3.16-1.94-5.97-4.91-6.85-.67-.2-1.35-.3-2.04-.3-2.44,0-4.66,1.27-5.92,3.39-.96,1.61-1.7,3.38-2.21,5.26l-.1.36-2.46-1.43c1.42-1.39,2.65-2.97,3.66-4.7,1.7-2.93,1.07-6.62-1.5-8.77-1.27-1.06-2.87-1.64-4.5-1.64s-3.14.56-4.35,1.57c-2.67,2.23-3.33,5.85-1.61,8.82,1.02,1.76,2.25,3.35,3.67,4.73l-2.46,1.42c-.5-1.91-1.23-3.73-2.2-5.43-1.29-2.26-3.49-3.56-6.05-3.56-.3,0-.61.02-.91.06-3.55.43-6.19,3.57-6.02,7.16.17,3.68,3.11,6.57,6.72,6.58,1.28,0,2.57-.17,3.81-.33l.88-.11c.48-.06.92-.18,1.4-.3v2.79c-.52-.13-1.02-.25-1.51-.35-1.23-.24-2.55-.46-3.88-.46-.58,0-1.13.04-1.67.12-3.16.49-5.52,3.14-5.74,6.43-.21,3.08,1.81,6.02,4.81,6.98.68.22,1.39.33,2.1.33,2.42,0,4.68-1.27,5.91-3.31.96-1.59,1.71-3.36,2.24-5.25l.12-.43c.9.43,1.7.9,2.45,1.41-1.51,1.49-2.72,3.07-3.71,4.82-1.2,2.13-1.18,4.68.06,6.83,1.24,2.14,3.44,3.44,5.89,3.47h.08c2.5,0,4.75-1.29,6-3.45,1.25-2.15,1.26-4.72.03-6.88-.64-1.11-1.42-2.15-2.23-3.19-.4-.52-.85-.98-1.32-1.47-.04-.04-.09-.09-.13-.13l2.45-1.41c.48,1.86,1.22,3.68,2.18,5.41,1.24,2.22,3.56,3.6,6.06,3.6.57,0,1.14-.07,1.69-.21,3.22-.8,5.38-3.7,5.24-7.04-.13-3.25-2.55-5.98-5.75-6.49ZM44.8,38.29c-.25.36-.54.67-.89.92-.17.13-.36.24-.55.35-.2.1-.41.19-.63.26-.38.12-.78.18-1.18.18h-.12c-.43-.01-.86-.1-1.26-.25-.83-.31-1.53-.88-1.98-1.63-.5-.82-.93-1.7-1.29-2.62-.18-.45-.34-.92-.48-1.38-.12-.41-.24-.83-.33-1.25.13-.03.26-.06.39-.09.69-.16,1.37-.32,2.06-.44.94-.16,1.73-.27,2.53-.27.46,0,.88.04,1.28.11.64.12,1.25.41,1.75.83.85.71,1.36,1.72,1.41,2.78.02.46-.03.91-.16,1.34-.12.42-.31.81-.55,1.17ZM38.35,18.66c.12-.19.27-.36.43-.52.31-.31.67-.57,1.08-.76.52-.24,1.1-.37,1.69-.37.09,0,.18,0,.26,0,.46.03.9.14,1.32.32.42.18.8.43,1.13.74,1,.95,1.44,2.32,1.18,3.68-.04.22-.11.44-.19.65-.16.42-.39.8-.68,1.14-.29.33-.63.62-1.01.84-.59.34-1.26.53-1.95.54h-.22c-.88,0-1.78-.07-2.67-.2-.87-.13-1.74-.33-2.61-.59.23-.96.49-1.82.8-2.63.41-1.05.88-1.98,1.46-2.84ZM25.36,11.05c.26-.33.55-.62.86-.85.15-.11.3-.21.46-.3.47-.26.99-.4,1.54-.42h.18c.33,0,.67.04,1.02.11.97.21,1.81.78,2.37,1.6.33.49.55,1.04.64,1.64.14.92-.02,1.79-.48,2.58-.25.43-.51.84-.78,1.25-.55.8-1.17,1.57-1.83,2.28-.26.28-.53.55-.83.82-.09-.1-.18-.19-.27-.29-.48-.5-.98-1.02-1.41-1.56-.6-.74-1.18-1.58-1.73-2.5-.2-.34-.35-.71-.45-1.09-.28-1.15-.02-2.35.72-3.28ZM32.73,30.94c-1.5.67-2.92,1.49-4.22,2.44-1.33-.97-2.76-1.79-4.24-2.44.17-1.6.17-3.2.01-4.88,1.5-.68,2.92-1.5,4.22-2.44,1.31.95,2.73,1.77,4.22,2.44-.16,1.64-.16,3.28,0,4.88ZM32.09,41.9c.83,1.65.31,3.68-1.23,4.84-.67.5-1.5.78-2.35.78-.96,0-1.88-.34-2.59-.95-1.43-1.23-1.79-3.31-.87-4.93.93-1.63,2.06-3.07,3.45-4.38,1.63,1.54,2.77,3.03,3.59,4.65ZM15.7,24.92h-.28c-1.08-.01-2.08-.45-2.83-1.22-.73-.76-1.12-1.76-1.09-2.81.06-2.17,1.8-3.87,3.96-3.87h.18c1.33.06,2.36.63,3.05,1.68,1,1.52,1.72,3.27,2.25,5.47-.19.04-.38.08-.58.12-.92.19-1.78.37-2.66.51-.58.09-1.22.13-2,.13ZM18.92,37.95c-.54.94-1.31,1.57-2.3,1.85-.44.13-.87.19-1.28.19-1.07,0-2-.44-2.79-1.31-1.15-1.27-1.38-2.71-.69-4.26.67-1.49,1.84-2.27,3.47-2.33.17,0,.35,0,.52,0,1.59,0,3.25.26,5.07.79-.43,1.81-1.09,3.48-2,5.09Z" fill="#f1f2f2" stroke-width="0"/><path d="M43.25,19.97c-2.6-.86-4.22.86-4.38,2.57,1.98.8,4.05-.4,4.38-2.57Z" fill="#f1f2f2" stroke-width="0"/><path d="M28.51,45.53c1.78-1.55,1.68-3.76-.03-5.1-1.7,1.46-1.69,3.69.03,5.1Z" fill="#f1f2f2" stroke-width="0"/><path d="M28.5,11.48c-1.7,1.3-1.71,3.62,0,5.09,1.77-1.49,1.72-3.71,0-5.09Z" fill="#f1f2f2" stroke-width="0"/><path d="M13.75,20.02c.49,2.32,2.36,3.24,4.42,2.51-.42-2.24-2.33-3.35-4.42-2.51Z" fill="#f1f2f2" stroke-width="0"/><path d="M13.76,37.02c2.16.76,4.39-.56,4.38-2.57-2.04-.78-3.99.35-4.38,2.57Z" fill="#f1f2f2" stroke-width="0"/><path d="M38.83,34.47c.39,2.2,2.42,3.36,4.4,2.54-.38-2.4-2.48-3.28-4.4-2.54Z" fill="#f1f2f2" stroke-width="0"/></svg>