<?xml version="1.0" encoding="UTF-8"?><svg id="a" xmlns="http://www.w3.org/2000/svg" viewBox="0 0 57 57"><path d="M24.65,12.74c-1.09-1.46-2.83-2.32-4.65-2.32-1.72,0-3.34.76-4.45,2.07-1.11,1.32-1.57,3.05-1.28,4.74l4.64,26.49,11.45-23.37-5.71-7.62ZM18.21,16.54c-.19-1.11.66-2.13,1.79-2.13.57,0,1.11.27,1.45.73l4.24,5.65-4.96,10.13-2.52-14.38Z" fill="#f1f2f2" stroke-width="0"/><path d="M42.96,10.81c-.27-3.12-2.83-5.48-5.97-5.48-2.27,0-4.38,1.32-5.38,3.35L10.56,51.66h35.87l-3.47-40.85ZM16.98,47.66L35.21,10.45c.33-.68,1.03-1.11,1.79-1.11,1.03,0,1.89.79,1.98,1.82l3.1,36.51h-25.11Z" fill="#f1f2f2" stroke-width="0"/></svg>