<?xml version="1.0" encoding="UTF-8"?><svg id="a" xmlns="http://www.w3.org/2000/svg" viewBox="0 0 57 57"><polygon points="25.43 14.84 26.06 14.84 30.94 14.84 31.56 14.84 28.5 13.45 25.43 14.84" fill="#f1f2f2" stroke-width="0"/><path d="M28.53,4.17l-15.19,6.58c-3.19,1.45-4.69,5.21-3.43,8.56l2.28,6.06,5.29-2.4v6.07c-.58.51-1.04,1.16-1.35,1.89-1.53.99-2.54,2.74-2.54,4.73v.23c-1.72,1.11-2.87,3.09-2.87,5.34v.76h-1.9c-2.55,0-4.62,2.15-4.62,4.78v1.27c0,2.64,2.07,4.78,4.62,4.78h39.36c2.55,0,4.62-2.15,4.62-4.78v-1.27c0-2.64-2.07-4.78-4.62-4.78h-1.9v-.76c0-2.25-1.15-4.23-2.87-5.34v-.23c0-1.99-1.02-3.75-2.54-4.73-.31-.73-.77-1.37-1.35-1.89v-6.07l5.29,2.4,2.28-6.06c1.26-3.35-.24-7.12-3.43-8.56l-15.13-6.58h0ZM48.8,48.05c0,.36-.28.64-.62.64H8.82c-.34,0-.62-.29-.62-.64v-1.27c0-.36.28-.64.62-.64h5.9v-4.89c0-1.19.93-2.15,2.08-2.15h.79v-3.42c0-.8.62-1.44,1.4-1.44h.73v-1.22c0-.59.47-1.08,1.04-1.08h.72v-15.29l-7.08,3.21-.77-2.04c-.48-1.28.1-2.72,1.31-3.27l13.58-6.12v-.06.03-.03.06l13.52,6.12c1.22.55,1.79,2,1.31,3.27l-.77,2.04-7.08-3.21v15.29h.73c.57,0,1.04.48,1.04,1.08v1.22h.73c.77,0,1.4.65,1.4,1.44v3.42h.79c1.15,0,2.08.96,2.08,2.15v4.89h5.9c.34,0,.62.29.62.64v1.27Z" fill="#f1f2f2" stroke-width="0"/></svg>