<?xml version="1.0" encoding="UTF-8"?><svg id="Layer_1" xmlns="http://www.w3.org/2000/svg" viewBox="0 0 57 57"><defs><style>.cls-1{fill:#231f20;stroke-width:0px;}</style></defs><polygon class="cls-1" points="33.32 37.75 36.47 38.77 36.47 15.67 33.26 14.15 33.26 36.7 23.75 36.7 23.75 14.15 20.54 15.67 20.54 38.79 23.75 37.75 33.32 37.75"/><path class="cls-1" d="M47.73,40.09c-.36-1.25-1.3-2.3-2.6-2.72l-.67-.22v-14.75c1.25-.26,2.36-1.11,2.88-2.38l.93-2.23c1.04-2.51-.15-5.39-2.66-6.43l-15.57-6.47c-.42-.17-.85-.27-1.29-.3-.09,0-.18,0-.26,0-.52,0-1.04.1-1.54.31l-15.57,6.47c-1.21.5-2.16,1.45-2.66,2.67-.5,1.22-.5,2.55,0,3.77l.93,2.23c.53,1.27,1.63,2.12,2.89,2.38v14.75l-.66.21c-1.31.42-2.25,1.47-2.61,2.72-.91.83-1.5,2.01-1.5,3.34v4.7c0,.1-.01.2-.01.3,0,.04.01.07.01.11v3.89h41.44v-9.01c0-1.32-.59-2.5-1.5-3.33ZM12.43,16.25c-.2-.47.03-1.01.5-1.21l15.57-6.47v.02s.01-.02.01-.02l15.57,6.47c.47.2.69.74.5,1.21l-.93,2.23-3.19-1.33v22.91l3.44,1.11H13.12l3.44-1.11v-22.91l-3.19,1.33-.93-2.23ZM45.23,48.43H11.79v-5c0-.29.24-.53.53-.53h32.38c.29,0,.53.24.53.53v5Z"/></svg>