<?xml version="1.0" encoding="UTF-8"?><svg id="Layer_1" xmlns="http://www.w3.org/2000/svg" viewBox="0 0 57 57"><defs><style>.cls-1{fill:#231f20;fill-rule:evenodd;stroke-width:0px;}</style></defs><path class="cls-1" d="M49.61,40.45c-.43-3.38-2.23-5.92-4.81-6.81-.18-.06-.36-.11-.53-.15.13-2.55.65-5.12,1.19-7.84l.23-1.18c.75-3.83,1.38-7.89.16-11.85-.73-2.37-2.19-4.36-4.09-5.6-1.61-1.05-3.49-1.61-5.72-1.72-.58-.03-1.16-.04-1.74-.04-.42,0-.85,0-1.27,0-.39,0-.78,0-1.17,0h-15.86c-1.06,0-3.89,0-6.19,2.07-2.12,1.91-2.99,5.04-2.27,8.18.69,3.01,2.62,5.25,5.18,5.99,0,0,.02,0,.03,0-.13.55-.26,1.11-.39,1.68-.24,1-.47,2-.69,3.01-.88,4.12-1.22,7.72-1.04,10.99.26,4.9,1.79,8.79,4.42,11.24,1.54,1.44,3.48,2.4,5.61,2.78,1.3.23,2.55.27,3.65.3.31,0,.61.02.91.03,2.82.12,5.4.18,7.88.18h.34c2.92,0,5.64-.1,8.32-.27h.18c.8-.06,2-.13,3.3-.8,1.23-.64,2.28-1.67,3.05-2.98,1.18-2.02,1.66-4.65,1.33-7.23ZM44.82,45.67c-.37.63-.85,1.14-1.43,1.44-.61.31-1.25.32-1.9.36-2.69.18-5.38.25-8.07.26-2.68,0-5.36-.06-8.04-.17-1.33-.06-2.7-.03-4.02-.27-1.29-.23-2.54-.79-3.58-1.77-2.14-2-2.98-5.33-3.16-8.53-.18-3.34.27-6.72.96-9.94.69-3.23,1.61-6.4,1.99-9.71.17-1.48.32-3.3-.36-4.62-.33-.63-.84-1.04-1.42-1.23-.56-.19-1.19-.26-1.74.01-.77.38-1.21,1.39-1.13,2.4.08.97.71,1.87,1.51,1.93.87.07,1.19-1.18,1.01-2.06-.05-.23-.12-.44-.23-.64-.1-.18-.24-.33-.34-.51-.18-.34.28-.19.4-.15,1.23.35,1.82,2.07,1.43,3.5-.41,1.47-1.72,2.05-2.87,1.71-2.52-.74-3.53-5.41-1.35-7.37,1.01-.91,2.3-1.04,3.51-1.04h15.86c1.33,0,2.66-.05,3.99.01,1.28.06,2.59.33,3.74,1.08,1.13.74,1.99,1.94,2.45,3.43.97,3.15.36,6.75-.26,9.9-.64,3.25-1.36,6.54-1.51,9.89-.03.79,0,1.56.03,2.34,0,.17.01.38-.14.46-.22.12-.52.07-.75.07-1.34,0-2.69,0-4.03,0-2.69,0-5.37.01-8.06.01-1.34,0-2.69,0-4.03-.01-.67,0-1.34,0-2.01-.01-.64,0-1.26,0-1.87.28-2.33,1.11-3.37,5.61-1.37,7.78.89.96,2.38,1.36,3.47.77,1.15-.62,1.9-2.2,1.95-3.73.03-.74-.12-1.53-.54-2.08-.41-.53-1-.72-1.58-.7-.56.02-1.12.22-1.53.7-.42.5-.63,1.25-.54,1.97.08.68.45,1.27,1.02,1.37.58.1,1.09-.19,1.34-.87.12-.33.17-.7.17-1.07,0-.11-.04-.56.07-.63.09-.06.24.26.27.31.18.3.31.62.33,1.01.1,1.54-1.17,2.95-2.37,2.78-.58-.08-1.16-.35-1.57-.88-.43-.56-.63-1.33-.62-2.1.02-1.56.8-3.06,1.97-3.66.6-.3,1.22-.29,1.85-.29.66,0,1.33,0,1.99-.01,2.65-.01,5.3-.03,7.95-.04,2.65-.01,5.3-.03,7.95-.04.66,0,1.33,0,1.99-.01.63,0,1.3-.1,1.91.11,1.26.43,1.94,2.01,2.14,3.53.2,1.6-.05,3.38-.82,4.71Z"/></svg>