<?xml version="1.0" encoding="UTF-8"?><svg id="Layer_1" xmlns="http://www.w3.org/2000/svg" viewBox="0 0 57 57"><defs><style>.cls-1{fill:#231f20;stroke-width:0px;}</style></defs><path class="cls-1" d="M47.2,25.49c1.91-.86,3.22-2.69,3.43-4.78.21-2.08-.72-4.14-2.42-5.36-1-.72-2.19-1.1-3.43-1.1-.84,0-1.66.18-2.43.52l-1.44.65c.33-.88.51-1.83.51-2.8,0-4.38-3.58-7.94-7.97-7.94-2.12,0-4.12.83-5.62,2.34-1.5,1.5-2.33,3.5-2.32,5.63,0,.36.03.72.08,1.08l-3.87.83-2.41.51c-1.2.26-2.28.87-3.15,1.81l-6.26,6.96c-2.12,2.41-1.91,6.11.48,8.26,1.08.97,2.48,1.5,3.93,1.5.09,0,.18,0,.27,0l-6.69,7.9c-1.51,1.79-1.96,4.27-1.17,6.47.79,2.2,2.71,3.83,5.02,4.24.38.07.77.1,1.16.1,1.94,0,3.77-.85,5.02-2.32,0,0,7.67-9.06,7.7-9.08.24-.3.46-.63.68-1.01l1.12-2.05.63.31.47,7.97c.2,3.47,3.07,6.19,6.55,6.19h.03c.16,0,.31,0,.47-.02,1.71-.13,3.28-.9,4.42-2.19.14-.16.28-.33.4-.5.24.02.47.04.71.04,4.48,0,8.12-3.64,8.12-8.12s-3.64-8.12-8.12-8.12c-.06,0-.12,0-.18,0-.14-1.62-.87-3.12-2.03-4.22.23-.07.46-.16.68-.26l7.62-3.46ZM30.66,9.84c.75-.75,1.74-1.16,2.8-1.16h0c2.18,0,3.96,1.77,3.96,3.95,0,1.06-.41,2.05-1.16,2.8-.75.75-1.74,1.16-2.8,1.16h0c-1.06,0-2.05-.41-2.8-1.15-.75-.75-1.16-1.74-1.16-2.8,0-1.06.41-2.05,1.16-2.8ZM33.32,23.2l-3.16,5.79h.03s5.35,2.69,5.35,2.69c.82.41,1.36,1.24,1.41,2.15l.36,6.1c.63-1.48,2.09-2.51,3.79-2.51,2.27,0,4.12,1.84,4.12,4.12s-1.84,4.12-4.12,4.12c-1.55,0-2.88-.86-3.58-2.12l.12,2.06c.04.69-.19,1.35-.65,1.86-.46.51-1.08.82-1.77.86-.04,0-.09,0-.13,0,0,0-.02,0-.03,0h0c-1.35,0-2.48-1.06-2.56-2.42l-.61-10.29-4.47-2.24c-.93-.47-2.06-.12-2.56.8l-2.08,3.81c-.09.15-.18.29-.29.43l-7.63,9c-.59.7-1.52,1.03-2.42.87-.9-.16-1.65-.8-1.96-1.66-.31-.86-.14-1.83.46-2.53l7.45-8.8,3.37-6.18v-.03s.59-1.43.59-1.43l2.09-5.22-2.93.12-5.82,6.46c-.69.76-1.88.81-2.64.13-.76-.69-.83-1.87-.15-2.64l6.23-6.93c.27-.29.62-.49,1.01-.57l2.42-.51,6.62-1.42.06.05c1.13.94,2.56,1.47,4.03,1.5h.05s3.17,2.22,3.17,2.22l.89.62,6.66-3.02c.61-.28,1.33-.2,1.87.19.54.39.84,1.05.78,1.71-.07.67-.49,1.25-1.1,1.53l-7.63,3.46c-.6.27-1.31.2-1.85-.17h0s-1.93-1.35-1.93-1.35h0s-.83-.59-.83-.59Z"/></svg>