<?xml version="1.0" encoding="UTF-8"?><svg id="Layer_1" xmlns="http://www.w3.org/2000/svg" viewBox="0 0 57 57"><defs><style>.cls-1{fill:#231f20;stroke-width:0px;}</style></defs><path class="cls-1" d="M42.38,14.36h-6.38v-5.64c0-2.14-1.74-3.88-3.88-3.88h-7.25c-2.14,0-3.88,1.74-3.88,3.88v5.64h-6.38c-2.14,0-3.88,1.74-3.88,3.88v7.25c0,2.14,1.74,3.88,3.88,3.88h6.38v18.91c0,2.14,1.74,3.88,3.88,3.88h7.25c2.14,0,3.88-1.74,3.88-3.88v-18.91h6.38c2.14,0,3.88-1.74,3.88-3.88v-7.25c0-2.14-1.74-3.88-3.88-3.88ZM42.65,25.49c0,.15-.12.27-.27.27h-9.98v22.51c0,.15-.12.27-.27.27h-7.25c-.15,0-.27-.12-.27-.27v-22.51h-9.98c-.15,0-.27-.12-.27-.27v-7.25c0-.15.12-.27.27-.27h9.98v-9.24c0-.15.12-.27.27-.27h7.25c.15,0,.27.12.27.27v9.24h9.98c.15,0,.27.12.27.27v7.25Z"/></svg>