<?xml version="1.0" encoding="UTF-8"?><svg id="Layer_1" xmlns="http://www.w3.org/2000/svg" viewBox="0 0 57 57"><defs><style>.cls-1{fill:#231f20;}.cls-1,.cls-2{stroke-width:0px;}.cls-2{fill:#f1f2f2;}</style></defs><path class="cls-2" d="M39.12,18.51c-.43-.13-.83-.02-1.22.09.41.09.81.16,1.22-.09Z"/><path class="cls-2" d="M37.14,18.86c-.22-.11-.49-.18-.72-.07.99.63.95.66,2.08.29,0-.01,0-.03,0-.04-.45-.07-.93.06-1.35-.18Z"/><path class="cls-2" d="M37.96,17.62c-.35.22-.71.36-1.08.5-.5.19-1.1.3-1.31.86.68-.67,1.98-.38,2.39-1.36Z"/><path class="cls-1" d="M43.76,20.51c.53-1.7.03-3.63-1.3-4.89,0,0-.05-.07-.07-.1-.87-1.27-2.18-2.12-3.63-2.4-.22-.08-.44-.14-.68-.18-.31-.06-.62-.08-.94-.08-1.41,0-2.77.57-3.81,1.55-.94-1.56-1.81-3.31-2-5.09-.16-1.53-1.19-2.83-2.64-3.34-.44-.16-.89-.23-1.34-.23-1.04,0-2.05.4-2.82,1.16-1.02,1.01-1.51,2.19-1.77,3.12-.13-.16-.25-.33-.37-.5-.59-.79-1.11-1.62-1.54-2.46-.66-1.58-2.13-2.6-3.84-2.6-2.06,0-3.78,1.52-4.11,3.57-.26,1.34-.26,2.68,0,3.99-.13.33-.24.7-.31,1.12-.02.14-.04.28-.06.43-.01.09-.02.18-.03.28,0,.04,0,.09,0,.13-.04,1.01.11,2.09.24,2.63.09.4.2.8.33,1.19-.05.29-.08.59-.09.89,0,.11,0,.28,0,.41,0,.21,0,.43.04.71.02.17.05.32.09.47.12.6.32,1.21.59,1.8,0,.35.04.73.12,1.13.06.36.15.71.27,1.05,0,.01,0,.02.01.03.05.14.1.27.16.4.14.33.31.65.5.96.01.06.02.12.04.18.02.07.04.16.07.24.15.58.37,1.12.66,1.58.02.03.04.06.06.09.08.13.17.26.26.39.03.1.06.2.1.3.04.11.08.21.13.31.07.17.15.34.25.52l.03.06c.06.13.15.28.22.39.07.11.14.21.21.3.19.26.39.51.61.73.19.44.43.86.72,1.25.32.44.68.84,1.09,1.18.01.02.02.03.03.05.11.2.24.4.38.59,0,.01.02.03.03.05.12.16.24.31.36.44.04.04.08.08.12.13.37.39.79.72,1.24,1,.33.43.71.81,1.14,1.13.14.11.29.21.43.3.08.05.16.09.24.13.11.06.22.11.33.16.08.08.15.15.24.22.03.03.14.12.17.14.15.12.31.24.48.34.04.02.18.11.22.12.34.19.7.34,1.07.45.38.26.8.46,1.24.59-.99,2.1-2.34,3.78-3.95,4.36-1.32.51-2.97.62-4.71.74-.89.06-1.8.12-2.75.23-1.96.24-3.46,1.91-3.52,3.89-.07,2.13,1.55,3.95,3.67,4.12,1.54.12,3.16.18,5.27.18.87,0,1.74,0,2.61-.02.84,0,1.69-.02,2.53-.02.58,0,1.17,0,1.75.02.03,0,.12,0,.14,0,.85-.01,1.69-.02,2.54-.02,1.07,0,2.14,0,3.22.01,1.09,0,2.18.01,3.27.01.81,0,1.63,0,2.44-.02,2.06-.03,3.76-1.62,3.93-3.67.11-1.35-.45-2.86-1.85-3.85.32-3.03.6-6.13.66-9.27,0-.42,0-.84,0-1.26.18-.39.32-.8.42-1.24.39-1.66.47-3.28.46-4.83.82-.96,1.44-2.15,1.78-3.48.09-.35.13-.71.12-1.08.09-1.08-.22-2.31-1.23-3.33ZM40.99,23.93c-.23.91-.72,1.82-1.5,2.38-.19.17-.49.28-.44.58.07,1.82.1,3.65-.32,5.44-.07.32-.19.63-.46.85-.05.04-.06.15-.06.23,0,.75,0,1.5,0,2.25-.07,3.73-.48,7.44-.88,11.15-.04.37.14.62.43.8.24.15.5.28.77.38,0,0,.91.19.88.53-3.82.05-7.66-.05-11.48,0-3.97-.08-7.97.17-11.92-.15,0-.02,0-.03,0-.05,2.82-.34,5.74-.17,8.43-1.21,5.18-1.87,7.76-9.09,8.17-14.17-.26.8-.53,1.78-1.29,2.25-.01,0-.02.01-.03.02-.04.02-.07.05-.12.07,0,0,0-.01,0-.02-.26.1-.47-.03-.59-.17-.22.17-.46.28-.74.29,0,0,0,0-.01,0-.32.02-.63-.13-.79-.22-.28.12-.57.16-.86.05-.01,0-.02,0-.03,0-.3-.08-.49-.4-.58-.6-.37.08-.73.05-1.05-.16-.01,0-.02,0-.03-.02-.03-.02-.05-.04-.08-.06-.01-.01-.03-.02-.04-.03-.04-.03-.07-.06-.1-.1-.03-.03-.06-.06-.09-.09,0,0,0,0,.01,0-.12-.16-.2-.34-.26-.48-.33,0-.64-.07-.91-.25h-.01s-.03-.03-.05-.04c-.02-.01-.03-.03-.05-.04-.42-.31-.6-.76-.67-1.05-.47-.07-.89-.28-1.24-.68-.01-.01-.03-.02-.04-.04-.03-.03-.05-.06-.07-.1,0-.01-.02-.02-.02-.03-.06-.08-.1-.15-.14-.23-.02-.04-.05-.07-.07-.12,0,0,0,0,.01,0-.09-.21-.12-.43-.14-.6-.45-.14-.85-.41-1.16-.86-.36-.45-.41-.87-.39-1.16-.37-.19-.69-.47-.95-.84-.02-.03-.04-.05-.07-.09-.02-.02-.02-.04-.04-.07-.02-.03-.04-.07-.05-.1-.04-.08-.08-.16-.11-.24-.02-.04-.04-.08-.05-.12,0,0,.01,0,.02,0-.07-.28-.04-.49.03-.63-.32-.2-.58-.47-.78-.82-.01-.02-.02-.03-.03-.05-.09-.15-.16-.33-.2-.52,0-.03-.02-.06-.03-.09,0,0,0,0,.01,0-.05-.27-.05-.55-.05-.76-.33-.33-.6-.72-.76-1.15h0s0-.02,0-.03c-.06-.16-.1-.33-.13-.5-.13-.64-.02-.99.13-1.17-.44-.59-.76-1.27-.87-1.93,0-.04-.02-.07-.03-.11-.01-.11,0-.2-.01-.29,0-.04,0-.09,0-.13.01-.63.25-.94.49-1.09-.37-.6-.66-1.27-.82-2.02-.08-.32-.18-1.03-.16-1.62,0-.02,0-.03,0-.05,0-.05,0-.09.01-.13,0-.05.01-.11.02-.15.04-.24.11-.43.24-.53,0,0,0,0,.01-.01,0,0,0,0,0,0,0,0,0,0,0,0,.17-.2.4-.3.59-.35-.59-1.27-.84-2.65-.53-4.22.03-.27.25-.37.34-.04.57,1.14,1.24,2.21,2,3.24,1.92,2.71,4.64,4.6,7.08,6.79.04-.58-.48-1.54-.48-1.54,0,0-.51-.85-.38-2.25.01-.66.15-1.3.51-1.85.17-.32.34-.49.48-.57,0-.23.02-.46.06-.69.14-.74.32-1.49.88-2.05.3,2.79,1.62,5.3,3.12,7.64.04.05.07.11.11.17.51.74,1.08,1.49,1.51,1.8.69.51.92,1.17.99,1.51.12.4.21.79.12,1.2-.02.07-.04.14-.07.2.18-.29.39-.44.58-.52.57-.52,1.25-.86,1.63-1.55-.31.05-.65-.1-.47-.45.16-.17.19-.33.1-.55-.29-.76.67-.91.81-1.52.34-.55.95-.92,1.59-.8-.39.07-.68.27-.98.57.4-.18.75-.41,1.2-.42.59-.04,1.16.28,1.49.76.13.32.39.52.62.75.43.41.36,1.26-.38,1.05-.11.19-.18.44-.38.57-.46.25.05,1.35-.67.95-.01.07-.02.13-.03.2-.68.2-.48,1.07-1.37.16-.32.31-.6.74-.29,1.15.23.35.45.71.64,1.08.37.68.63,1.39.77,2.16.5-.21.24-.79.42-1.18.18-.35.38-.68.57-1.03.3.22.1.51.02.79.65-.32,1.02-1.04,1.74-1.25.52.36.11.34.25.75Z"/><path class="cls-2" d="M36.58,20.11c-.09-.27-.06-.49.06-.73-.44-.14-.35.59-.06.73Z"/></svg>