<?xml version="1.0" encoding="UTF-8"?><svg id="Layer_1" xmlns="http://www.w3.org/2000/svg" viewBox="0 0 57 57"><defs><style>.cls-1{fill:#231f20;stroke-width:0px;}</style></defs><path class="cls-1" d="M39.81,30.23c-2.04,0-3.69,1.65-3.69,3.69s1.65,3.68,3.69,3.68,3.69-1.65,3.69-3.68-1.65-3.69-3.69-3.69Z"/><path class="cls-1" d="M31.2,22.31s-2.74-2.11-5.68-2.87c0,0,0,0,0,0,0,0,0,0,0,0-.45-.11-.9-.2-1.34-.24-.4-.04-.8-.03-1.2,0-.01,0-.02,0-.04,0-.39.03-.77.09-1.14.16-.02,0-.03,0-.05,0-.37.08-.73.17-1.08.28-.01,0-.02,0-.03,0-1.85.58-3.2,1.47-3.2,1.47l-.1.08c-1.07.95-1.28,1.5-1.28,1.8-.1.61.47,1.05,2.06,1.05h11.64c1.44,0,2.06-.21,2.19-.53.02-.04.03-.09.03-.14,0,0,0,0,0,0,0-.44-.79-1.06-.79-1.06Z"/><path class="cls-1" d="M54.25,27.77c-.08-1.79-.73-4.56-4.38-5.63-.7-.2-1.19-.41-1.76-.65-1.36-.57-2.89-1.22-5.96-1.31-.6-.02-2.48-.39-3.17-.53-1.21-.24-2.31-1.02-3.71-2-.48-.34-.98-.69-1.49-1.02-.08-.05-.16-.1-.24-.15-2.56-1.44-4.98-2.34-7.19-2.69-.76-.12-1.55-.18-2.34-.18-2.69,0-5.08.7-6.61,1.29-.07.03-.36.16-.36.16-.22.1-.44.19-.66.3-.78.38-1.58.79-2.4,1.22-2.28,1.19-4.86,2.55-6.67,2.55-2.21,0-4,1.79-4,4,0,1.71-.34,2.55-.77,3.6-.45,1.1-1,2.48-1,4.37,0,4.59,3.74,8.33,8.33,8.33h.4c1.75,2.42,4.6,3.96,7.7,3.96s5.95-1.53,7.69-3.96h6.44c1.75,2.42,4.6,3.96,7.7,3.96s5.95-1.53,7.69-3.96h1.59c1.49,0,3.51-.61,4.74-3.49.28-.66.47-1.16.66-1.66.15-.4.3-.8.53-1.34.65-1.52.71-3.54-.77-5.17ZM51.34,31.38c-.51,1.19-.68,1.8-1.18,2.99-.23.54-.48,1.06-1.06,1.06h-4.03c-.66,2.29-2.76,3.96-5.26,3.96s-4.6-1.67-5.26-3.96h-11.32c-.66,2.29-2.76,3.96-5.26,3.96s-4.6-1.67-5.26-3.96h-2.84c-2.38,0-4.33-1.95-4.33-4.33,0-2.58,1.77-3.58,1.77-7.98,3.58,0,7.42-2.53,10.81-4.16.24-.12.48-.22.72-.33,1.61-.62,4.18-1.32,6.89-.89,2.07.33,4.18,1.29,5.85,2.23,2.24,1.47,4.04,3.1,6.63,3.61,1.03.2,2.88.57,3.84.6,3.48.1,3.98,1.01,6.7,1.8,1.61.47,1.56,1.41,1.49,2.78-.1,1.81,1.72,1.16,1.1,2.62Z"/><path class="cls-1" d="M17.97,30.23c-2.03,0-3.69,1.65-3.69,3.69s1.65,3.68,3.69,3.68,3.68-1.65,3.68-3.68-1.65-3.69-3.68-3.69Z"/></svg>