<?xml version="1.0" encoding="UTF-8"?><svg id="a" xmlns="http://www.w3.org/2000/svg" xmlns:xlink="http://www.w3.org/1999/xlink" viewBox="0 0 57 57"><defs><clipPath id="b"><path d="M47.85,47.85H9.15V9.15h38.69v38.69Z" fill="none" stroke-width="0"/></clipPath></defs><g clip-path="url(#b)"><path d="M35.91,17.56c.7-.45.98-1.28.62-1.84s-1.23-.65-1.93-.2-.98,1.28-.62,1.84c.36.56,1.23.65,1.93.2Z" fill="#231f20" stroke="#231f20" stroke-miterlimit="10"/><path d="M25.26,40.14c-.11-.32-.84-.34-1.63-.06-.79.28-1.34.77-1.22,1.08s.84.34,1.63.06c.79-.28,1.34-.77,1.22-1.08Z" fill="#231f20" stroke="#231f20" stroke-miterlimit="10"/><path d="M30.45,11.05c-.11-.32-.84-.34-1.63-.06-.79.28-1.34.77-1.22,1.08.11.32.84.34,1.63.06.79-.28,1.34-.77,1.22-1.08Z" fill="#231f20" stroke="#231f20" stroke-miterlimit="10"/><path d="M20.25,31.26c-.79.28-1.34.77-1.22,1.08s.84.34,1.63.06c.79-.28,1.34-.77,1.22-1.08-.11-.32-.84-.34-1.63-.06Z" fill="#231f20" stroke="#231f20" stroke-miterlimit="10"/><path d="M13.65,41.02c-.26-.62-1.1-.85-1.87-.52-.77.33-1.18,1.09-.92,1.71.26.62,1.1.85,1.87.52.77-.33,1.18-1.09.92-1.71Z" fill="#231f20" stroke="#231f20" stroke-miterlimit="10"/><path d="M25.05,18.74c1-.42,1.62-1.19,1.4-1.7-.22-.51-1.2-.59-2.2-.16-1,.42-1.62,1.19-1.4,1.7.22.51,1.2.59,2.2.16Z" fill="#231f20" stroke="#231f20" stroke-miterlimit="10"/><path d="M12.74,10.22c.77-.33,1.23-.99,1.02-1.48-.21-.49-1-.61-1.77-.29-.77.33-1.23.99-1.02,1.48.21.49,1,.61,1.77.29Z" fill="#231f20" stroke="#231f20" stroke-miterlimit="10"/><path d="M46.73,10.67c.7-.45,1.06-1.15.8-1.56-.26-.41-1.04-.37-1.75.08s-1.06,1.15-.8,1.56c.26.41,1.04.37,1.75-.08Z" fill="#231f20" stroke="#231f20" stroke-miterlimit="10"/><path d="M43.29,33.96c-.26-.41-1.04-.37-1.75.08-.7.45-1.06,1.15-.8,1.56.26.41,1.04.37,1.75-.08.7-.45,1.06-1.15.8-1.56Z" fill="#231f20" stroke="#231f20" stroke-miterlimit="10"/><path d="M25.93,46.64c-.7.45-.98,1.28-.62,1.84s1.23.65,1.93.2.98-1.28.62-1.84c-.36-.56-1.23-.65-1.93-.2Z" fill="#231f20" stroke="#231f20" stroke-miterlimit="10"/><path d="M42.49,29c-.77.33-1.23.99-1.02,1.48.21.49,1,.61,1.77.29.77-.33,1.23-.99,1.02-1.48-.21-.49-1-.61-1.77-.29Z" fill="#231f20" stroke="#231f20" stroke-miterlimit="10"/><path d="M40.87,23.99c.77-.33,1.23-.99,1.02-1.48-.21-.49-1-.61-1.77-.29-.77.33-1.23.99-1.02,1.48s1,.61,1.77.29Z" fill="#231f20" stroke="#231f20" stroke-miterlimit="10"/><path d="M48.86,47.94c-.21-.49-1-.61-1.77-.29-.77.33-1.23.99-1.02,1.48.21.49,1,.61,1.77.29.77-.33,1.23-.99,1.02-1.48Z" fill="#231f20" stroke="#231f20" stroke-miterlimit="10"/><path d="M25.65,13.84c.35-.18.5-.58.34-.89s-.57-.42-.92-.25c-.35.18-.5.58-.34.89.16.31.57.42.92.25Z" fill="#231f20" stroke="#231f20" stroke-miterlimit="10"/><path d="M45.59,24.09c0,.41.39.74.88.74s.88-.33.88-.74-.39-.74-.88-.74-.88.33-.88.74Z" fill="#231f20" stroke="#231f20" stroke-miterlimit="10"/><path d="M47.04,43.06c.16.27.56.34.9.14.34-.2.48-.58.33-.85-.16-.27-.56-.34-.9-.14-.34.2-.48.58-.33.85Z" fill="#231f20" stroke="#231f20" stroke-miterlimit="10"/><path d="M37.06,47.93c-.81.52-1.36,1.12-1.22,1.34.14.22.91-.03,1.73-.55.81-.52,1.36-1.12,1.22-1.34-.14-.22-.91.03-1.73.55Z" fill="#231f20" stroke="#231f20" stroke-miterlimit="10"/><path d="M25.76,34.46c.14.24.75.15,1.36-.2.61-.35,1-.84.86-1.08-.14-.24-.75-.15-1.36.2s-1,.84-.86,1.08Z" fill="#231f20" stroke="#231f20" stroke-miterlimit="10"/><path d="M11.47,35.91c.11.19.85-.03,1.66-.49.81-.46,1.37-1,1.26-1.19s-.85.03-1.66.49-1.37,1-1.26,1.19Z" fill="#231f20" stroke="#231f20" stroke-miterlimit="10"/><path d="M13.69,28.43c.17.33.63.43,1.03.23s.58-.64.41-.97c-.17-.33-.63-.43-1.03-.23s-.58.64-.41.97Z" fill="#231f20" stroke="#231f20" stroke-miterlimit="10"/><path d="M45.5,19.75c.78-.5,1.28-1.13,1.11-1.39-.17-.27-.94-.07-1.73.43s-1.28,1.13-1.11,1.39c.17.27.94.07,1.73-.43Z" fill="#231f20" stroke="#231f20" stroke-miterlimit="10"/><path d="M47.47,14.48c-.13-.2-.66-.1-1.19.24-.52.34-.84.77-.71.98.13.2.66.1,1.19-.24.52-.34.84-.77.71-.98Z" fill="#231f20" stroke="#231f20" stroke-miterlimit="10"/><path d="M40.73,15.43c.38,0,.69-.31.69-.69s-.31-.69-.69-.69-.69.31-.69.69.31.69.69.69Z" fill="#231f20" stroke="#231f20" stroke-miterlimit="10"/><circle cx="35.17" cy="10.79" r=".86" fill="#231f20" stroke="#231f20" stroke-miterlimit="10"/><ellipse cx="19.5" cy="10.28" rx="1.25" ry=".74" fill="#231f20" stroke="#231f20" stroke-miterlimit="10"/><path d="M13.14,12.84c-.16-.27-.55-.34-.87-.16s-.46.56-.3.83c.16.27.55.35.87.16.32-.19.46-.56.3-.83Z" fill="#231f20" stroke="#231f20" stroke-miterlimit="10"/><path d="M11.63,20.25c.51,0,.93-.38.93-.84s-.41-.84-.93-.84-.93.38-.93.84.41.84.93.84Z" fill="#231f20" stroke="#231f20" stroke-miterlimit="10"/><circle cx="17.41" cy="15.9" r=".64" fill="#231f20" stroke="#231f20" stroke-miterlimit="10"/><path d="M22.44,21.68c-.15-.23-.56-.24-.92,0-.36.23-.53.61-.38.84.15.23.56.24.92,0,.36-.23.53-.61.38-.84Z" fill="#231f20" stroke="#231f20" stroke-miterlimit="10"/><path d="M27.15,28.19c-.46.24-.72.66-.58.94.14.28.64.32,1.1.08s.72-.66.58-.94c-.14-.28-.64-.32-1.1-.08Z" fill="#231f20" stroke="#231f20" stroke-miterlimit="10"/><ellipse cx="39.8" cy="42.14" rx="1.35" ry=".67" fill="#231f20" stroke="#231f20" stroke-miterlimit="10"/><path d="M13.96,45.51c-.63.36-1.01.88-.85,1.15.16.27.8.2,1.42-.16s1.01-.88.85-1.15c-.16-.27-.8-.2-1.42.16Z" fill="#231f20" stroke="#231f20" stroke-miterlimit="10"/><path d="M42.97,45.95c-.38.16-.59.5-.48.76.11.26.5.33.88.17.38-.16.59-.5.48-.76-.11-.26-.5-.33-.88-.17Z" fill="#231f20" stroke="#231f20" stroke-miterlimit="10"/><path d="M32.36,46.08c-.36.19-.53.6-.36.92.17.32.59.43.96.25.36-.19.53-.6.36-.92-.17-.32-.59-.43-.96-.25Z" fill="#231f20" stroke="#231f20" stroke-miterlimit="10"/><path d="M46.63,34.41c-.13-.35-.54-.52-.92-.38-.39.14-.6.53-.47.88.13.35.54.52.92.38s.6-.53.47-.88Z" fill="#231f20" stroke="#231f20" stroke-miterlimit="10"/><path d="M33.26,22.09c.36-.23.49-.67.29-.99-.2-.31-.66-.38-1.02-.15-.36.23-.49.67-.29.99s.66.38,1.02.15Z" fill="#231f20" stroke="#231f20" stroke-miterlimit="10"/><ellipse cx="9.9" cy="25.77" rx="1.21" ry=".61" fill="#231f20" stroke="#231f20" stroke-miterlimit="10"/></g><path d="M15.14,39.18v-1.87l7.39-11.09h-7.01v-2.79h10.98v1.87l-7.39,11.09h7.67v2.79h-11.63Z" fill="#231f20" stroke="#231f20" stroke-miterlimit="10"/><path d="M31.88,39.18h-2.9v-15.75h5.23c1.04,0,1.9.11,2.6.34.7.22,1.26.54,1.68.94.42.41.72.9.9,1.49s.27,1.25.27,1.97c0,.99-.17,1.85-.5,2.56s-.94,1.27-1.81,1.66c.15.34.33.68.51,1.02.19.34.38.69.58,1.04.2.35.4.74.62,1.17.22.43.44.85.66,1.27s.44.83.64,1.23.39.75.56,1.06h-3.51l-3.04-6.22h-2.5v6.22ZM31.88,30.17h2.6c.46,0,.83-.05,1.11-.16s.49-.24.64-.42c.15-.17.25-.38.29-.63s.07-.51.07-.79-.02-.54-.07-.77-.15-.44-.29-.62c-.15-.18-.36-.32-.64-.42-.28-.1-.65-.15-1.11-.15h-2.6v3.95Z" fill="#231f20" stroke="#231f20" stroke-miterlimit="10"/></svg>