<?xml version="1.0" encoding="UTF-8"?><svg id="a" xmlns="http://www.w3.org/2000/svg" viewBox="0 0 57 57"><path d="M19.76,48.15c-.88,0-1.69-.26-2.39-.69.49.4,1.38.82,3,.76.29-.01.56-.04.81-.07h-1.42Z" fill="#f1f2f2" stroke-width="0"/><path d="M13.77,29.96c.49,0,.98.05,1.46.14v-15.88c0-2.51,2.03-4.54,4.54-4.54h16.42s.04-.03.06-.05c.59-.48,2.43-1.73,6.24-2.14-1.45-1.13-3.27-1.81-5.25-1.81h-17.47c-4.72,0-8.54,3.82-8.54,8.54v16.19c.82-.29,1.68-.45,2.54-.45Z" fill="#f1f2f2" stroke-width="0"/><path d="M41.78,23.09v20.52c0,2.51-2.03,4.54-4.54,4.54h-9.3c-.64,1.42-17.77,2.14-8.68,4h17.98c4.72,0,8.54-3.82,8.54-8.54v-25.5c-1.06,1.21-2.43,2.87-4,4.98Z" fill="#f1f2f2" stroke-width="0"/><path d="M50.18,10.67c-.37-1.65-1.66-2.94-3.37-3.37l-.43-.11h-.44c-.25-.02-.5-.02-.74-.02-5.54,0-8.06,1.7-8.76,2.27-6.86,5.83-12.8,16.49-16.08,23.14-2-1.86-4.14-2.81-6.4-2.81-1.62,0-3.22.52-4.61,1.51-3.12,2.21-3.57,5.8-2.67,8.2l.33.88.69.64c2.83,2.63,5.27,6.58,5.77,7.42.86,1.77,3.04,3.61,6.77,3.61.16,0,.32,0,.48,0,5.23-.21,6.97-2.9,7.54-4.38h0c8.86-21.7,19.96-32.12,20.04-32.2,2.24-1.84,2.05-3.96,1.87-4.78ZM45.78,12.36c-1.11.92-12.31,11.98-21.21,33.78,0,0-.26,1.75-3.99,1.9-3.01.12-3.53-1.44-3.53-1.44,0,0-2.95-5.11-6.61-8.51,0,0-.79-2.09,1.24-3.53,2.03-1.44,4.91-1.18,8.12,3.53l1.57,1.9s8.05-19.31,17.67-27.49c0,0,1.77-1.44,6.81-1.31,0,0,1.05.26-.07,1.18Z" fill="#f1f2f2" stroke-width="0"/></svg>