<?xml version="1.0" encoding="UTF-8"?><svg id="a" xmlns="http://www.w3.org/2000/svg" viewBox="0 0 57 57"><path d="M26.76,4.07v12.48h3.45s0-8.73,0-8.73v-3.76" fill="#f1f2f2" stroke-width="0"/><path d="M32.55,6.91h-8.1v2.56s5.66,0,5.66,0h2.44" fill="#f1f2f2" stroke-width="0"/><path d="M10.95,52.93v-29.73c0-.77.44-1.47,1.13-1.8l15.25-7.32c1-.48,2.19-.06,2.67.94.48,1,.06,2.19-.94,2.67l-14.11,6.77v28.47h-4Z" fill="#f1f2f2" stroke-width="0"/><path d="M46.05,52.93v-29.73c0-.77-.44-1.47-1.13-1.8l-15.25-7.32c-1-.48-2.19-.06-2.67.94-.48,1-.06,2.19.94,2.67l14.11,6.77v28.47s4,0,4,0Z" fill="#f1f2f2" stroke-width="0"/><path d="M17.58,52.93v-18.18c0-.47.28-.9.72-1.1l9.64-4.47c.63-.29,1.38-.04,1.69.57.3.61.04,1.34-.59,1.63l-8.92,4.14v17.41h-2.53Z" fill="#f1f2f2" stroke-width="0"/><path d="M39.42,52.93v-18.18c0-.47-.28-.9-.72-1.1l-9.64-4.47c-.63-.29-1.38-.04-1.69.57-.3.61-.04,1.34.59,1.63l8.92,4.14v17.41s2.53,0,2.53,0Z" fill="#f1f2f2" stroke-width="0"/></svg>