<?xml version="1.0" encoding="UTF-8"?><svg id="a" xmlns="http://www.w3.org/2000/svg" viewBox="0 0 57 57"><path d="M10.95,52.93V17.67c0-.77.44-1.47,1.13-1.8l15.25-5.07c1-.48,2.19-.06,2.67.94.48,1,.06,2.19-.94,2.67l-14.11,4.53v34.01h-4Z" fill="#f1f2f2" stroke-width="0"/><path d="M46.05,52.93V17.67c0-.77-.44-1.47-1.13-1.8l-15.25-5.07c-1-.48-2.19-.06-2.67.94-.48,1-.06,2.19.94,2.67l14.11,4.53v34.01s4,0,4,0Z" fill="#f1f2f2" stroke-width="0"/><path d="M7.9,21.58c-2.01-2.2.52-4.67,1.33-5.06l17.86-5.95c1.17-.56,2.57-.07,3.13,1.1.56,1.17.07,2.57-1.1,3.13l-16.53,5.31-4.69,1.48Z" fill="#f1f2f2" stroke-width="0"/><path d="M49.03,21.68c2.17-2.59-.52-4.77-1.33-5.16l-17.86-5.95c-1.17-.56-2.57-.07-3.13,1.1-.56,1.17-.07,2.57,1.1,3.13l16.53,5.31,4.69,1.58Z" fill="#f1f2f2" stroke-width="0"/></svg>