<?xml version="1.0" encoding="UTF-8"?><svg id="a" xmlns="http://www.w3.org/2000/svg" viewBox="0 0 57 57"><path d="M49.71,18.43c-.48-2.32-2.27-3.58-3.04-4.13-2.64-1.86-5.5-3.41-8.49-4.61-1.62-.65-4.09-1.52-6.73-1.52-.74,0-1.47.07-2.18.2-3.85.73-6.91,3.68-7.48,7.19-.19.9-.18,1.74-.18,2.43,0,.38,0,.81-.04,1.01-.28,1.32-1.77,2.7-4.09,3.77-.47.22-.94.41-1.41.61-1.07.45-2.18.92-3.3,1.56-2.36,1.36-4,3.1-4.87,5.18-1.13,2.7-.92,5.92.61,9.32,1.8,4,4.96,7.68,9.37,10.95,2.07,1.53,4.9,3.36,8.38,3.85.59.08,1.19.13,1.79.13h0c2.49,0,4.97-.75,6.96-2.11,1.55-1.06,2.72-2.39,3.56-3.44,1.65-2.05,2.71-3.88,3.35-5.77,1.29-3.82.8-7.66.08-11.25l-.03-.13c-.15-.77-.32-1.57-.24-1.99.04-.23.3-.89,1.71-1.96.33-.25.68-.5,1.03-.75,1.2-.85,2.55-1.82,3.7-3.21,1.75-2.13,1.81-4.08,1.55-5.34ZM45.33,21.46c-1.13,1.37-2.7,2.29-4.11,3.37-1.41,1.08-2.76,2.45-3.09,4.19-.22,1.16.04,2.36.27,3.52.62,3.1,1.05,6.37.04,9.37-.58,1.71-1.6,3.24-2.73,4.65-.81,1.01-1.7,1.98-2.77,2.71-1.79,1.22-4.05,1.69-6.19,1.38-2.48-.35-4.71-1.69-6.72-3.18-3.4-2.52-6.47-5.65-8.21-9.51-.91-2.01-1.43-4.38-.57-6.41.63-1.5,1.92-2.62,3.33-3.43s2.95-1.35,4.42-2.03c2.77-1.28,5.5-3.34,6.13-6.33.24-1.16-.02-2.43.23-3.52.31-2.17,2.39-3.85,4.57-4.27,2.31-.44,4.69.24,6.87,1.12,2.73,1.1,5.34,2.51,7.75,4.21.68.48,1.4,1.06,1.57,1.88.17.82-.27,1.64-.8,2.29Z" fill="#f1f2f2" stroke-width="0"/></svg>