<?xml version="1.0" encoding="UTF-8"?><svg id="a" xmlns="http://www.w3.org/2000/svg" viewBox="0 0 57 57"><path d="M12.98,30.07c1.83-1.14,7.29-3.81,10.52-2.46,1.32.55,2.19,1.81,2.65,3.85.92,4.05-6.81,15.31-16.03,21.48h7.07c7.36-6.45,14.6-16.23,13.19-22.44-.98-4.31-3.38-6.13-5.23-6.9-1.49-.62-3.11-.78-4.7-.66,3.45-1.53,8.41-2.06,15.28.68,3.57,1.42,5.77,3.62,6.72,6.71,2.48,8.04-4.08,19.51-6,22.61h5.04c2.89-5.18,7.67-15.57,5.11-23.89-1.34-4.37-4.46-7.55-9.27-9.47-15.86-6.33-24.91,2.28-27.48,7.72-.41.87-.2,1.91.52,2.55.72.64,1.78.73,2.59.22Z" fill="#f1f2f2" stroke-width="0"/></svg>