<?xml version="1.0" encoding="UTF-8"?><svg id="Layer_1" xmlns="http://www.w3.org/2000/svg" viewBox="0 0 57 57"><defs><style>.cls-1{fill:#231f20;stroke-width:0px;}</style></defs><path class="cls-1" d="M33.39,5.68h-7.89c-7.35,0-13.33,5.98-13.33,13.33v33.14h34.56V19.01c0-7.35-5.98-13.33-13.33-13.33ZM42.72,48.15h-26.56v-29.14c0-5.15,4.18-9.33,9.33-9.33h7.89c5.15,0,9.33,4.18,9.33,9.33v29.14Z"/><path class="cls-1" d="M32.87,27.52c-2.11,0-3.83-1.72-3.83-3.83,0-.86-.7-1.55-1.55-1.55h-.36c-.86,0-1.55.7-1.55,1.55,0,2.11-1.72,3.83-3.83,3.83-.86,0-1.55.7-1.55,1.55v.36c0,.86.7,1.55,1.55,1.55,2.11,0,3.83,1.72,3.83,3.83,0,.86.7,1.55,1.55,1.55h.36c.86,0,1.55-.7,1.55-1.55,0-2.11,1.72-3.83,3.83-3.83.86,0,1.55-.7,1.55-1.55v-.36c0-.86-.7-1.55-1.55-1.55ZM32.36,29.42c-2.7,0-4.89,2.19-4.89,4.89h-.33c0-2.7-2.19-4.89-4.89-4.89v-.33c2.7,0,4.89-2.19,4.89-4.89h.33c0,2.7,2.19,4.89,4.89,4.89v.33Z"/><path class="cls-1" d="M37.38,23.05c-.95,0-1.72-.77-1.72-1.72,0-.39-.31-.7-.7-.7h-.16c-.39,0-.7.31-.7.7,0,.95-.77,1.72-1.72,1.72-.39,0-.7.31-.7.7v.16c0,.39.31.7.7.7.95,0,1.72.77,1.72,1.72,0,.39.31.7.7.7h.16c.39,0,.7-.31.7-.7,0-.95.77-1.72,1.72-1.72.39,0,.7-.31.7-.7v-.16c0-.39-.31-.7-.7-.7ZM35.99,23.87c-.6,0-1.08.48-1.08,1.08h-.07c0-.6-.48-1.08-1.08-1.08v-.07c.6,0,1.08-.48,1.08-1.08h.07c0,.6.48,1.08,1.08,1.08v.07Z"/><polygon class="cls-1" points="43.4 50.43 41.5 51.64 32 37.31 33.89 36.09 43.4 50.43"/><polygon class="cls-1" points="44.35 46.71 43.2 47.45 33.79 33.05 34.94 32.32 44.35 46.71"/><polygon class="cls-1" points="16.97 11.05 15.34 11.05 21.36 20.27 22.51 19.53 16.97 11.05"/><polygon class="cls-1" points="20.55 10.04 17.85 10.04 24.63 20.27 26.53 19.06 20.55 10.04"/></svg>