<?xml version="1.0" encoding="UTF-8"?><svg id="Layer_1" xmlns="http://www.w3.org/2000/svg" viewBox="0 0 57 57"><defs><style>.cls-1{fill:#231f20;}.cls-1,.cls-2{fill-rule:evenodd;stroke-width:0px;}.cls-2{fill:#f1f2f2;}</style></defs><path class="cls-1" d="M40.08,5.65c-3.93-1.02-7.86-.12-10.98,2.31-.35.28-.84.28-1.19,0-3.12-2.44-7.05-3.33-10.98-2.31-6.05,1.57-10.11,7.26-10.11,14.16,0,6.55,5.48,12.26,10.78,17.79,2.87,2.99,5.83,6.08,7.71,9.07l3.2,5.09,3.2-5.09c1.88-2.99,4.84-6.08,7.71-9.07,5.3-5.53,10.78-11.25,10.78-17.79,0-6.9-4.06-12.59-10.11-14.16ZM28.5,44.67h0s0,0,0,0h0c-5.49-8.75-17.92-16.76-17.92-24.86,0-11.18,12.67-14.83,17.92-5.39,5.24-9.43,17.92-5.78,17.92,5.39,0,8.1-12.43,16.11-17.92,24.86Z"/><polygon class="cls-2" points="28.5 14.41 28.5 14.41 28.5 14.41 28.5 14.41"/></svg>