<?xml version="1.0" encoding="UTF-8"?><svg id="Layer_1" xmlns="http://www.w3.org/2000/svg" viewBox="0 0 57 57"><defs><style>.cls-1{fill:#231f20;stroke-width:0px;}</style></defs><path class="cls-1" d="M51.28,14.1c-1-1.95-2.86-3.28-5.24-3.73-.66-.13-1.34-.19-2.02-.19-1.76,0-3.44.4-5.01,1.03l-.02-.14c0-.06-.03-.19-.05-.25-.01-.07-.08-.33-.08-.33,0-.03-.11-.35-.11-.35-.44-1.23-1.33-2.18-2.51-2.69-.55-.23-1.13-.35-1.73-.35-1.09,0-2.14.41-2.94,1.15-.37.34-.65.7-.86,1.06-.32.24-.68.52-1.05.88-.42.4-.82.85-1.2,1.33l-.31-.37-.22-.25-.2-.22-.22-.23-.21-.21-.23-.21s-.37-.33-.45-.4c0,0-.3-.25-.35-.29-.21-.35-.49-.71-.85-1.05-.82-.75-1.88-1.16-2.98-1.16-.56,0-1.11.11-1.64.32-1.15.46-2.08,1.41-2.55,2.6-.16.4-.26.83-.31,1.26-.95-.36-1.92-.63-2.9-.81-.86-.16-1.64-.23-2.38-.23-.84,0-1.66.1-2.43.3-2.75.72-4.06,2.45-4.68,3.78-.6,1.29-.78,2.75-.57,4.46.02.12.04.25.06.37.38,1.7.99,3.09,1.85,4.22.39,3.51,1.51,6.54,3.28,8.84.64.83,1.31,1.49,1.98,2.01-.16.44-.29.91-.39,1.4-.56,2.64-.04,5.02.5,6.55,1.12,3.19,3.35,5.83,5.98,7.04.89.41,1.81.62,2.73.62,1.34,0,2.6-.44,3.65-1.27.38-.3.74-.65,1.09-1.04.76.67,1.73,1.05,2.75,1.05.17,0,.36-.01.53-.03.83-.11,1.58-.45,2.19-.98.98,1.12,2.48,2.31,4.57,2.33.02,0,.06,0,.08,0,4.01,0,7.02-4.21,7.35-4.69,1.44-2.09,2.2-4.53,2.22-7.06,0-1.36-.2-2.63-.62-3.84.14-.11.28-.22.42-.33,2.25-1.89,3.94-5.13,4.65-8.9.12-.64.21-1.19.27-1.67,1.01-1.33,1.48-2.84,1.63-3.41.05-.21.15-.58.2-1.06.06-.28.09-.51.1-.64.14-1.42-.14-2.95-.78-4.2ZM48.08,17.9c-.02.15-.04.29-.12.38.06.21,0,.49-.06.69-.27,1.02-.88,2.19-1.57,2.63-.04.03-.09.05-.13.08.15.39-.18,2.21-.26,2.67-.5,2.65-1.66,5.2-3.29,6.57-.98.82-2.13,1.13-3.25,1.02-.42-.04-.84-.16-1.26-.17,0,0,.01.02.02.03.06.1.73.66.88.82,1.32,1.33,2.41,2.98,2.39,5.5-.01,1.88-.63,3.54-1.52,4.83-.92,1.33-2.76,2.98-4.08,2.96-.96-.01-1.79-1.1-2.42-2.07-1.43-2.21-2.63-5.46-3.36-8.33-.26-1.01-.45-2.06-.67-3.1-.03.38-.03.76-.03,1.14l-.03,2.28c-.02,1.56-.11,7.53-.64,8.59-.05.09-.1.16-.18.17-.06,0-.12-.03-.16-.09-.75-.96-.63-10.11-.79-12.14-.09.46-.18.91-.27,1.36-.27,1.31-.57,2.6-.95,3.85-.8,2.58-2.48,6.54-4.16,7.87-.69.54-1.5.5-2.23.16-1.61-.75-3.1-2.49-3.88-4.74-.47-1.35-.68-2.93-.36-4.41.47-2.23,1.88-3.62,3.2-4.64-.41-.01-.82.11-1.23.15-1.64.18-3.07-.58-4.31-2.19-1.6-2.08-2.42-4.98-2.57-8.11-.95-.76-1.49-1.86-1.82-3.37-.1-.8-.09-1.58.23-2.28.46-.98,1.31-1.39,2.06-1.59,1.02-.27,2.06-.19,3.09,0,3.4.62,6.38,2.68,9.16,5.61.26.28.52.56.77.85.25.29.5.59.75.9s.48.62.72.94c.24.32.47.65.69.98.39.57.75,1.2,1.16,1.75.09-.17.2-.31.32-.45-.19-.17-.34-.35-.44-.66-.11-.35-.11-.77-.02-1.13.13-.51.39-.76.71-.97-.04-.28-.08-.56-.12-.84-.05-.28-.1-.56-.15-.83-.06-.27-.12-.55-.18-.82-.07-.27-.14-.54-.21-.8-.03-.09-.06-.19-.09-.28s-.06-.18-.09-.27-.06-.18-.09-.27c-.03-.09-.07-.18-.1-.27-.03-.09-.07-.18-.1-.26-.03-.09-.07-.17-.11-.26-.04-.09-.07-.17-.11-.26-.04-.08-.08-.17-.12-.25-.04-.08-.08-.17-.12-.25-.04-.08-.08-.16-.12-.24-.04-.08-.08-.16-.13-.24-.04-.08-.09-.16-.13-.23-.04-.08-.09-.15-.13-.23-.05-.08-.09-.15-.14-.22-.05-.07-.09-.15-.14-.22-.05-.07-.1-.14-.15-.21-.05-.07-.1-.14-.15-.21-.05-.07-.1-.14-.15-.2-.05-.07-.1-.13-.16-.2s-.11-.13-.16-.19c-.05-.06-.11-.13-.16-.19-.05-.06-.11-.12-.16-.18-.06-.06-.11-.12-.17-.17-.06-.06-.11-.11-.17-.17-.06-.06-.11-.11-.17-.16s-.12-.11-.18-.16c-.06-.05-.12-.1-.18-.15-.06-.05-.12-.1-.18-.14-.06-.05-.12-.09-.18-.14s-.12-.09-.18-.13c-.06-.04-.12-.08-.19-.12s-.13-.08-.19-.12c-.08.13-.16.22-.27.28-.12.06-.24.04-.35-.04-.14-.11-.26-.33-.31-.55-.04-.19-.03-.39.04-.56.07-.17.18-.29.31-.34.14-.06.3-.03.42.08.16.15.23.39.27.65.31.18.61.42.9.66.05.04.11.09.16.13s.11.09.16.14c.05.05.1.09.16.14.05.05.1.1.15.15.05.05.1.1.15.15.05.05.1.1.15.16.05.05.1.11.15.16.05.05.1.11.15.17.05.06.1.11.14.17.05.06.09.12.14.17.05.06.09.12.14.18.05.06.09.12.14.18.05.06.09.12.13.19.04.06.09.13.13.19.04.06.09.13.13.2s.08.13.13.2.08.14.12.2.08.14.12.21c.04.07.08.14.12.21.04.07.08.14.11.21.04.07.07.14.11.22s.07.15.11.22c.04.07.07.15.1.23.03.08.07.15.1.23.03.08.07.15.1.23.03.08.06.16.1.23s.06.16.09.24c.03.08.06.16.09.24.03.08.06.16.09.24.03.08.06.16.08.25.03.08.05.16.08.25s.05.17.07.25c.3,1.06.49,2.17.66,3.29h.03c.07-.46.15-.91.23-1.36.6-3.11,1.87-5.99,3.72-7.75.51-.49,1.06-.81,1.58-1.24.04-.26.1-.49.26-.64.12-.11.27-.12.4-.06.13.06.24.18.31.36,0,.01,0,.02.01.04,0,.01,0,.02.01.04,0,.01,0,.02,0,.04,0,.01,0,.02,0,.04,0,.01,0,.03,0,.04,0,.01,0,.03,0,.04,0,.01,0,.03,0,.04,0,.01,0,.03,0,.04,0,.01,0,.03,0,.04,0,.01,0,.03,0,.04,0,.01,0,.03,0,.04,0,.01,0,.03,0,.04s0,.03,0,.04c0,.01,0,.03,0,.04,0,.01,0,.03,0,.04,0,.01,0,.03,0,.04-.05.2-.15.38-.28.46-.12.09-.26.08-.39,0-.09-.05-.18-.14-.25-.22-.43.26-.86.53-1.26.89-1.5,1.33-2.72,3.52-3.4,5.91-.28.98-.5,2.04-.64,3.09.32.22.6.48.72,1.01,0,.02.01.05.02.07,0,.02,0,.05.01.07,0,.02,0,.05.01.07,0,.02,0,.05,0,.07,0,.02,0,.05,0,.07s0,.05,0,.07c0,.02,0,.05,0,.07s0,.05,0,.07c0,.02,0,.05,0,.07,0,.02,0,.05,0,.07,0,.02,0,.05,0,.07,0,.02,0,.05-.01.07,0,.02,0,.05-.01.07,0,.02,0,.05-.02.07,0,.02-.01.05-.02.07s-.01.04-.02.07c-.09.28-.22.49-.39.68.1.13.2.26.29.41.99-1.64,2.04-3.12,3.21-4.48,3.34-3.87,8.36-7.52,12.69-6.69.84.16,1.88.56,2.43,1.62.27.53.43,1.31.36,1.98Z"/></svg>