<?xml version="1.0" encoding="UTF-8"?><svg id="Layer_1" xmlns="http://www.w3.org/2000/svg" viewBox="0 0 57 57"><defs><style>.cls-1{fill:#231f20;stroke-width:0px;}</style></defs><path class="cls-1" d="M48.47,33.81c-.83-2.74-3.57-5.25-6.07-7.06,1.08-2.09,1.52-4.43,1.31-6.88.55-.53,1.02-1.15,1.4-1.83,1.07-1.95,1.33-4.27.69-6.38-.65-2.16-2.23-4.03-4.33-5.15-1.15-.61-2.42-.93-3.69-.93-.79,0-1.58.12-2.34.36-.89.28-1.63.69-2.24,1.14-1.49-.47-3.09-.71-4.78-.71s-3.37.25-4.91.72c-.49-.35-1.02-.63-1.59-.85-.9-.36-1.86-.54-2.85-.54-1.14,0-2.31.25-3.38.72-2.04.9-3.62,2.57-4.44,4.7-.78,2.03-.68,4.29.27,6.36.4.88.96,1.66,1.63,2.33-.05.74-.03,1.54.08,2.38.21,1.65.72,3.21,1.49,4.62-1.51,1.12-4.78,3.75-5.87,6.18-.8,1.78-.87,3.78-.19,5.5.35.88.86,1.61,1.45,2.23-.32,1.93-.04,3.94.82,5.83.1.31.25.6.42.88.26.41,2.69,3.99,7.34,3.99,2.33,0,4.19-.92,5.47-1.83,1.39.24,3.23.49,4.69.49,1.3,0,2.75-.21,3.95-.45,1.35,1.03,3.22,1.78,5.58,1.78,3.79,0,6.39-2.29,7.49-4.29.48-.89.99-1.99,1.23-3.34.18-1.06.18-2.14,0-3.19.34-.38.64-.8.88-1.25.88-1.64,1.06-3.66.49-5.54ZM44.46,37.45c-.41.76-1.21,1.23-2.02,1.47-.08.02-.17.05-.25.07.85,1.22,1.23,2.64.97,4.12-.14.78-.45,1.45-.82,2.15,0,0-1.19,2.17-3.95,2.17-3.19,0-4.21-2.2-4.21-2.2,0,0-3.11.87-5.31.87s-5.87-.79-5.87-.79c0,0-1.69,2.13-4.29,2.13s-3.97-2.15-3.97-2.15c.01,0,.02,0,.03-.01-.75-1.43-1.01-3.05-.53-4.61.16-.52.41-.99.66-1.47-.98-.42-2.1-1.13-2.5-2.15-.29-.75-.21-1.66.12-2.39.69-1.53,3.83-4.11,5.25-5.07.96-.65,1.96-1.19,2.95-1.78-1.96-1.51-3.18-3.65-3.5-6.11-.17-1.29,0-2.5.29-3.76-1.02-.38-1.87-1.11-2.33-2.11-.48-1.04-.58-2.18-.17-3.26.42-1.1,1.22-1.99,2.31-2.47.99-.44,2.14-.53,3.16-.12.94.37,1.57,1.05,2.1,1.88.63-.32,1.26-.63,1.93-.85,2.35-.78,5.22-.83,7.57-.07.8.26,1.48.66,2.23,1.02.54-1.05,1.19-1.82,2.36-2.19.99-.32,2.01-.2,2.93.29,1.09.58,2.02,1.59,2.38,2.78.33,1.08.18,2.3-.36,3.29-.51.92-1.31,1.55-2.32,1.84.71,2.39.72,4.83-.49,7.07-.61,1.13-1.39,1.87-2.34,2.7,2.44,1.32,7.38,4.57,8.19,7.24.25.81.22,1.73-.18,2.49Z"/></svg>