<?xml version="1.0" encoding="UTF-8"?><svg id="Layer_1" xmlns="http://www.w3.org/2000/svg" viewBox="0 0 57 57"><defs><style>.cls-1{fill:#231f20;fill-rule:evenodd;stroke-width:0px;}</style></defs><path class="cls-1" d="M44.38,20.56l-15.88-15.88-7.86,7.85-8.02,8.03c-2.12,2.12-3.29,4.94-3.29,7.94s1.17,5.82,3.29,7.94l15.88,15.88,15.88-15.88c2.12-2.12,3.29-4.94,3.29-7.94s-1.17-5.82-3.29-7.94ZM41.22,33.27l-12.72,12.72-12.72-12.72c-2.64-2.64-2.64-6.91,0-9.54l1.26-1.26c.2,2.29,1.03,4.9,2.48,7.43,1.59,2.78,3.64,4.96,5.7,6.27-1.32-1.34-2.57-2.96-3.63-4.82-2.08-3.64-3.05-7.41-2.93-10.5l9.84-9.84,5.85,5.85c-.7,1.79-.95,3.78-.61,5.81.11.67.29,1.32.52,1.94-.02-2.26.54-4.42,1.52-6.32l5.44,5.44c2.64,2.64,2.64,6.91,0,9.54Z"/><path class="cls-1" d="M28.5,20.25l-6,6c-1.24,1.24-1.24,3.26,0,4.5l6,6,6-6c1.24-1.24,1.24-3.26,0-4.5l-6-6ZM28.5,30.42l-1.92-1.92,1.92-1.92,1.92,1.92-1.92,1.92Z"/></svg>