<?xml version="1.0" encoding="UTF-8"?><svg id="Layer_1" xmlns="http://www.w3.org/2000/svg" viewBox="0 0 57 57"><defs><style>.cls-1{fill:#231f20;stroke-width:0px;}</style></defs><path class="cls-1" d="M41.23,36.28c1.08-2.78,1.61-5.58,1.57-8.36-.04-2.87-.68-5.72-1.92-8.52,1.17-1.19,2.37-3.29,3.2-4.88,2.07-4,1.99-5.24,1.95-5.91-.08-1.26-.7-2.4-1.7-3.12l-1.14-.79h-1.3c-2.33,0-5.46,2.86-7.6,5.28-.86-.89-1.79-1.79-2.78-2.68l-2.46-2.16-2.62,1.97c-1.3.98-2.5,1.98-3.6,3.01-2.13-2.45-5.34-5.42-7.72-5.42l-1.38.02-1.05.76c-1,.73-1.62,1.86-1.7,3.13-.04.67-.13,1.91,1.94,5.91.8,1.54,1.96,3.57,3.09,4.77-1.07,2.4-1.67,4.89-1.79,7.42-.15,3.09.43,6.22,1.71,9.34l-4.04,5.43c-.72.95-1.04,2.17-.88,3.4.17,1.2.83,2.3,1.76,2.97.78.59,1.75.91,2.73.91h.38s.29-.05.29-.05c1.21-.18,2.31-.85,2.97-1.78l1.9-2.55c1.47,1.79,3.16,3.56,5.07,5.3l2.86,2.61,2.69-2.68c1.7-1.62,3.21-3.25,4.53-4.9l1.62,2.17c.71.98,1.81,1.65,2.98,1.83l.39.05h.31c.97,0,1.94-.32,2.68-.88.97-.71,1.63-1.81,1.82-3.06.16-1.19-.17-2.41-.86-3.31l-3.9-5.24ZM41.82,44.67c-.11.09-.26.12-.4.1-.14-.02-.27-.1-.35-.22l-4.99-6.71c-1.65,2.94-4.07,5.93-7.2,8.91l-.02.02-.02-.02c-3.34-3.05-5.93-6.13-7.7-9.18l-5.19,6.98c-.08.12-.21.2-.35.22-.14.02-.29-.01-.4-.1-.11-.08-.19-.22-.21-.36-.02-.14.02-.29.11-.4l5.48-7.37c-1.7-3.25-2.5-6.49-2.35-9.63.15-3.07,1.18-6.05,3.08-8.92l-.63-.84c-.5.14-1.11.02-1.65-.49-1.42-1.35-4.54-7.54-3.99-7.93.54-.4,5.58,4.4,6.46,6.14.31.62.27,1.19.03,1.61l.43.58c1.72-2.33,4.01-4.59,6.89-6.75h.02s.02,0,.02,0c2.54,2.29,4.58,4.55,6.14,6.81l.47-.63c-.24-.42-.28-.99.03-1.61.88-1.75,5.92-6.54,6.46-6.14.54.39-2.57,6.58-4,7.93-.54.51-1.14.63-1.65.49l-.69.92c2.07,3.29,3.11,6.57,3.16,9.91.04,2.9-.69,5.86-2.17,8.82,0,0,0,0,0,0l5.29,7.11c.09.11.12.26.11.4-.02.14-.1.27-.21.36Z"/></svg>