<?xml version="1.0" encoding="UTF-8"?><svg id="Layer_1" xmlns="http://www.w3.org/2000/svg" viewBox="0 0 57 57"><defs><style>.cls-1{fill:#231f20;stroke-width:0px;}</style></defs><path class="cls-1" d="M39.23,42.11c-.51-.77-1.27-1.34-2.16-1.65l-1.26-25.74-7.56-10.86-7.08,10.92-1.26,25.68c-.89.31-1.64.89-2.16,1.65h-2.21v11.03h25.88v-11.03h-2.21ZM25.02,16.02l3.36-5.18,3.61,5.19,1.18,24.18h-9.33l1.18-24.19ZM20.94,44.59c0-.21.17-.38.38-.38h14.36c.21,0,.38.17.38.38v.74h-15.11v-.74ZM37.55,49.25h-18.09v-3.24h18.09v3.24Z"/></svg>