<?xml version="1.0" encoding="UTF-8"?><svg id="Layer_1" xmlns="http://www.w3.org/2000/svg" viewBox="0 0 57 57"><defs><style>.cls-1{fill:#231f20;stroke-width:0px;}</style></defs><path class="cls-1" d="M46.17,43.14h0V7.16h-29.46c-2.67,0-4.24,1.17-5.08,2.15-1.23,1.43-1.55,3.23-1.44,4.58v28.36c0,5.36,4.1,7.5,6.68,7.59h25.33c2.56,0,4.64-2.08,4.64-4.65,0-.73-.36-1.43-.67-2.05ZM42.19,45.84h-25.19s-2.82-.1-2.82-3.59V13.68s-.39-2.53,2.53-2.53h25.46v28.86h-.09c-.32.01-1.4.21-1.4,2.25s1.16,2.26,1.5,2.28c0,0,.02,0,.02,0,.01,0,.02,0,.03,0h.04,0c.32.04.57.31.57.64,0,.36-.29.65-.64.65Z"/><path class="cls-1" d="M39.88,40.01h-21.81s-2.23,0-2.23,2.23,2.3,2.3,2.3,2.3h21.79c-.4-.51-.7-1.25-.68-2.31.03-1.07.29-1.77.63-2.23Z"/><polygon class="cls-1" points="28.01 33.8 30.22 33.8 30.22 21.49 35.72 21.49 35.72 19.29 30.22 19.29 30.22 15.14 28.01 15.14 28.01 19.29 22.51 19.29 22.51 21.49 28.01 21.49 28.01 33.8"/></svg>