<?xml version="1.0" encoding="UTF-8"?><svg id="Layer_1" xmlns="http://www.w3.org/2000/svg" viewBox="0 0 57 57"><defs><style>.cls-1{fill:#231f20;stroke-width:0px;}</style></defs><path class="cls-1" d="M50.61,26.33c.03-.4,0-.8-.08-1.2-.44-2.15-1.55-4.13-2.37-5.34-.37-1.16-1.18-2.18-2.18-2.88-.78-.98-1.7-2.02-2.23-2.46-.88-.73-1.87-1.08-3.03-1.08-.04,0-.18,0-.23,0-3.71.12-4.84.93-5.33,1.28-.43.31-.78.67-1.06,1.08-1.89-.48-3.88-.75-4.85-.75-.58,0-1.1.05-1.59.16-2.08.45-3.88,1.82-5.17,3.4-.15-.02-.32-.04-.5-.06-.7-.09-1.24-.29-1.58-.45-.64-.98-1.61-1.88-3.04-2.19-.9-.2-5.27-.61-5.77-.61-1.01,0-1.94.3-2.69.85-.6.36-1.03.8-1.3,1.08-.88.91-1.31,2.15-1.19,3.41.15,1.49.98,2.54,1.9,3.35-3,1.9-4.99,5.25-4.99,9.05,0,5.9,4.8,10.71,10.71,10.71,3.16,0,6.03-1.37,8-3.58,1.5.23,3.65.33,6.92.33,2.86,0,5.7-.08,7.11-.13,1.85,2.07,4.54,3.38,7.53,3.38,5.56,0,10.08-4.52,10.08-10.08,0-2.83-1.18-5.4-3.07-7.23ZM43.59,39.64c-3.36,0-6.08-2.72-6.08-6.08,0-.57.08-1.13.23-1.65-.27.26-.6.66-.63,1.17-.06.9-.07,2,.02,2.47.09.47.13.69-.36.69s-15.43.6-15.29-.62c.09-.81-.45-1.3-.83-1.54-.54,3.16-3.3,5.56-6.61,5.56-3.7,0-6.71-3-6.71-6.71s3-6.71,6.71-6.71c1.22,0,2.37.33,3.35.9l.36-.37c.08-.09-.5-.72.58-.25s1.49.68,2.16.9c1.45.06,1.63.29,2,.29.37,0,.6-.18.69-.38-.7-.2-1.76-.67-4.07-2.05-2.31-1.39-3.67-2.44-4.61-2.56-.95-.12-1.18-.09-1.97-.68-.8-.59-2.53-1.61-2.05-2.11.48-.5.52-.46.7-.44-.02-.18.19-.26.42-.26s4.32.39,4.9.52c.58.13.97,1.3,1,1.57.05-.26.18-.21.47-.04.3.17,1.54.92,3.5,1.18,1.97.26,2.79.29,3.11.23.6-1.36,2.18-3.25,3.93-3.63,1.75-.38,6.55,1.02,6.89,1.33.34.31.86,1.05.86,1.05l.13-.08s-.01-.37.02-.44c.03-.08.22-.16.22-.16,0,0-.04-.1-.05-.16-.02-.06,0-.09.05-.12.05-.03,1.07-.48,1.15-.51.08-.04.13-.03.17.03.03-.02.18-.08.18-.08,0,0-.02-.04,0-.05.02,0,.43-.21.52-.23.08-.02.14-.01.24.12.09.13.66,1.2.66,1.2,0,0,.24.02.29.1.05.08.07.14.07.28,0,.14.03.29.34.3.31,0,.58.08.67-.07.1-.15.12-.23.14-.28.02-.05.02-.09-.04-.13-.06-.03-.37-.36-.41-.47-.05-.11.58-.96.76-1.1-.34-.19-.66-.48-1.82-.87-1.16-.39-2.65-.39-2.04-.82.61-.44,2.87-.52,3.12-.53.3,0,.4.02.57.16.19.16,1.1,1.13,2.1,2.44.53.22,1.21.9,1.05,1.37.29.32,1.82,2.43,2.27,4.6.01.06,0,.19-.1.19-.93.03-2.68.48-4.03,1.46.36-.07.72-.1,1.1-.1,3.36,0,6.08,2.72,6.08,6.08s-2.72,6.08-6.08,6.08Z"/><path class="cls-1" d="M14.03,35.09c-1.19,0-2.15-.96-2.15-2.15,0-1.1.82-2.01,1.89-2.14l1.96-1.99c-.52-.21-1.09-.33-1.69-.33-2.46,0-4.46,2-4.46,4.46s2,4.46,4.46,4.46c2.17,0,3.98-1.56,4.38-3.62l-2.34-.16c-.28.86-1.09,1.47-2.04,1.47Z"/><path class="cls-1" d="M43.59,29.28c-2.36,0-4.28,1.92-4.28,4.28s1.92,4.28,4.28,4.28,4.28-1.92,4.28-4.28-1.92-4.28-4.28-4.28ZM43.59,33.84c-.15,0-.28-.13-.28-.28s.13-.28.28-.28.28.13.28.28-.13.28-.28.28Z"/></svg>