<?xml version="1.0" encoding="UTF-8"?><svg id="Layer_1" xmlns="http://www.w3.org/2000/svg" viewBox="0 0 57 57"><defs><style>.cls-1{fill:#231f20;}.cls-1,.cls-2{stroke-width:0px;}.cls-2{fill:#f1f2f2;}</style></defs><path class="cls-2" d="M24.23,44.09c-.51-.01-.95-.21-1.46-.17.16.12.32.23.49.33.48.09.92.21,1.41.19.73-.02,1.53-.16,2.16-.57.15-.09.21-.23.29-.37-.22,0-.43.02-.63.1-.71.27-1.48.53-2.25.48Z"/><path class="cls-1" d="M46.26,37.84c-.25-.31-.52-.6-.8-.89-.1-.1-.2-.2-.29-.31-.02-.03-.05-.06-.07-.09-.18-.21-.3-.42-.34-.59-.1-.46-.11-1.19-.12-1.89,0-.41-.01-.83-.03-1.29-.05-.75-.07-1.49-.09-2.24-.02-.82-.05-1.64-.1-2.46v-.11c-.05-1.18-.12-2.96-1.32-4.64-.27-.39-.55-.71-.77-.96-.1-.11-.2-.22-.27-.32-.34-.56-.78-1.28-1.08-2l-.04-.12c-.08-.23-.17-.45-.28-.67-.03-.08-.05-.17-.09-.25-.09-.28-.2-.53-.32-.76-.09-.28-.2-.56-.31-.84-.02-.05-.03-.09-.05-.13,0-.41,0-.84-.02-1.3v-.15c-.01-.4-.03-1.06-.28-1.84-.28-.87-.87-1.59-1.64-2.06-.45-.33-.96-.56-1.53-.67-.35-.07-.7-.1-1.04-.1-.74,0-1.78.16-2.88.89-.26.02-.52.06-.77.12-.65-.77-1.35-1.32-2-1.77-.5-.35-.99-.8-1.63-1.4-.02-.02-.05-.04-.07-.07-.28-.25-.55-.5-.81-.76-.64-.6-1.29-1.22-2.07-1.82-.17-.13-.35-.25-.53-.35-.24-.28-.55-.61-.97-.93-.73-.55-1.58-.84-2.48-.84-.5,0-1,.1-1.47.28-.28-.17-.57-.3-.88-.4-.6-.39-1.31-.63-2.06-.63-.06,0-.13,0-.19,0-1.45.07-2.73.65-3.7,1.68-1.09,1.12-1.58,2.71-1.33,4.33-.19.29-.36.59-.49.92-.45,1.18-.35,2.29-.3,2.89v.11c.07.71.17,1.41.27,2.11l.19,1.28s.01.05.02.08c-.04.15-.08.3-.14.51l-.14.47c-.2.68-.46,1.53-.54,2.46-.03.34-.06.68-.09,1.03l-.05.62c-.03.28-.06.56-.1.84-.09.69-.2,1.47-.19,2.26-.02,1.37.51,2.35.77,2.82l.08.15c.26.55.52,1.12.69,1.66l.1.31c.13.41.24.75.31,1.1.04.17.06.33.08.5.06.41.13.91.29,1.48.18.66.5,1.65,1.18,2.61.12.16.24.32.36.48.07.09.15.19.24.34.14.23.28.62.44,1.07l.32.89c.38,1.04.81,2.23,1.55,3.45.41.65.87,1.25,1.34,1.8,0,.43.01.9.06,1.38.06.71-.07,1.67-.2,2.69,0,.04,0,.08-.01.11-.05.52-.15,1.49.21,2.63.46,1.37,1.56,2.39,3.08,2.8.44.11.9.17,1.38.17s.85-.05,1.21-.1c.03,0,.3-.04.3-.04.73-.11,1.55-.23,2.39-.52.54-.17,1.01-.38,1.44-.59.96-.41,1.75-.94,2.5-1.47.79-.58,1.44-1.18,1.98-1.8.05.06.1.11.15.18.09.11.17.23.25.34.23.32.47.63.72.93.72.84,1.76,1.32,2.87,1.32h0c1.11,0,2.15-.49,2.87-1.33.18-.22.46-.55.73-.95.3-.44.62-.86.95-1.29l.12-.15c.2-.24.4-.49.6-.73.32-.39.64-.79.99-1.16l.29-.32c.28-.31.55-.6.76-.79.19-.16.37-.33.55-.5.15-.14.3-.29.46-.41.03-.02.06-.05.09-.07.2-.16.47-.34.79-.55l.24-.16c.88-.58,1.48-1.51,1.64-2.56.16-1.05-.12-2.11-.78-2.94ZM36.09,16.21c.02.45.03.89,0,1.34-.21,0-.41,0-.62,0-.2-.48-.31-1.03-.26-1.55.06-.38.47-.65.77-.84.11.35.09.69.11,1.05ZM31.78,16.61c.18-.67.94-1.01,1.56-.7-.19.69-.34,1.38-.38,2.1-.02.4-.02.81-.03,1.21-.39-.38-.69-.82-1.04-1.24-.12-.16-.28-.35-.29-.55,0-.27.09-.56.17-.81ZM21,8.05c.13-.05.24-.04.35.05.27.2.47.49.68.75.13.17.3.37.34.58-.01.2-.22.37-.37.48-.16.11-.39.24-.59.19-.24-.08-.45-.27-.64-.43-.22-.2-.45-.44-.48-.75.04-.39.37-.72.71-.87ZM17.83,7.83c.25.28.46.59.66.91.11.19.25.4.26.62-.13.46-.74.85-1.2.75-.38-.14-.67-.57-.9-.89-.13-.21-.36-.53-.2-.77.22-.32.58-.57.94-.72.18-.08.3-.02.43.1ZM15.54,7.8c.33-.35.71-.51,1.18-.53-.34.21-.69.38-.95.69-.33.39-.42.94-.32,1.43.1.52.36.93.6,1.39-.18-.12-.36-.19-.43-.4-.17-.44-.32-.94-.41-1.4-.08-.43,0-.87.32-1.19ZM14.53,11.79c.14-.35.47-.67.85-.72.18-.04.38.07.54.13-.14.19-.29.38-.42.58-.28,1.09.13,2.2.68,3.13.2.34.43.66.57,1.04-.28-.09-.57-.25-.87-.27-.46.01-.7.31-.99.61-.03-.23-.07-.47-.1-.7-.11-.82-.24-1.64-.31-2.46-.04-.42-.1-.93.05-1.33ZM30.11,44.23c-.13.73-.33,1.42-.77,2.02-.43.58-1,1.07-1.58,1.5-.57.41-1.15.8-1.8,1.07-.34.16-.69.32-1.05.44-.66.23-1.32.31-2.01.41-.39.05-.81.11-1.2.02-.19-.05-.37-.15-.43-.34-.1-.33-.06-.71-.03-1.04.15-1.14.32-2.35.22-3.5-.05-.55-.05-1.09-.04-1.64.23.13.45.26.68.38.03-.13.07-.26.1-.39-.3-.3-.55-.65-.87-.94-.66-.71-1.32-1.47-1.85-2.3-.62-1.03-1-2.25-1.42-3.37-.24-.67-.46-1.34-.83-1.95-.22-.37-.5-.69-.74-1.04-.3-.43-.49-.94-.63-1.45-.16-.59-.19-1.17-.31-1.76-.12-.6-.31-1.15-.49-1.73-.23-.75-.55-1.47-.89-2.18-.21-.44-.48-.77-.48-1.28,0-.94.2-1.88.28-2.81.05-.53.09-1.07.14-1.6.07-.77.35-1.55.56-2.29.15-.52.27-1.04.45-1.55.12-.33.33-.68.69-.76.22-.06.38.06.57.14-.14.33-.28.65-.28,1.01-.03.55.12,1.06.29,1.57.09.28.26.56.3.86-.02.32-.17.64-.34.91-.17.27-.46.34-.74.41-.27.03-.53.02-.8,0,.01.05.02.1.03.16.2.08.38.15.59.18.32.01.64-.02.95-.08.26.66.28,1.36.22,2.06-.04.37-.1.81-.31,1.12-.24.33-.61.41-.99.52-.13.05-.22.11-.32.2.46.09.91.07,1.32-.16.13-.07.25-.14.37-.2.15.14.28.31.38.49.34.63.64,1.28.82,1.97.11.41.17.8.01,1.2-.15.4-.43.62-.69.94l-.04.13c.53-.08.83-.47,1.14-.87.04-.14.07-.27.1-.41.03-.13.05-.27.08-.4h.11c.12-.03.25-.05.35-.1.03-.07.04-.13.06-.2-.2-.05-.4-.09-.59-.14-.22-.57-.36-1.16-.64-1.71-.2-.45-.48-.84-.78-1.22-.14-.16-.08-.3-.04-.48.19-.74.19-1.51.06-2.26-.05-.27-.15-.53-.19-.81-.04-.19.1-.37.19-.53.43.63.75,1.34,1.1,2.02.44.83.83,1.68,1.3,2.49.27.48.5.97.72,1.47-.29.17-.58.34-.85.56.36.04.66-.09.97-.24.26.41.43.86.62,1.31.29.7.46,1.42.64,2.15.23.86.46,1.73.8,2.56.3.9.75,1.74,1.25,2.54.95,1.5,1.87,2.99,2.98,4.38.64.82,1.36,1.54,2.07,2.3-.05.09-.11.18-.16.27-.15.14-.26.28-.36.46.36-.03.57-.24.83-.46.32.22.62.47.93.7.13.1.25.19.29.36.06.29.03.6-.02.89ZM42,41.11c-.43.33-.8.72-1.21,1.08-.47.42-.9.91-1.33,1.38-.62.67-1.17,1.39-1.76,2.09-.42.56-.85,1.11-1.25,1.69-.15.22-.31.42-.48.62-.31-.36-.57-.75-.86-1.12-.39-.51-.84-.96-1.25-1.46-.28-.34-.6-.63-.85-1,.21-.03.43-.07.64-.09.19-.09.37-.2.53-.33-.49-.1-.92.16-1.42.06-.41-.08-.8-.4-1.16-.61-.73-.45-1.44-.93-2.13-1.44-.78-.76-1.54-1.51-2.21-2.36-1.29-1.57-2.34-3.24-3.4-4.96-.72-1.17-1.14-2.43-1.56-3.73-.36-1.12-.53-2.21-1-3.29-.35-.79-.72-1.56-1.1-2.33-.44-.9-.99-1.75-1.42-2.65-.42-.88-.95-1.69-1.36-2.57-.39-.84-.78-1.67-.84-2.6-.02-.34,0-.73.23-1,.21-.25.49-.33.78-.43-.24.22-.7.46-.74.81-.02.42.21.86.46,1.19.2.25.47.34.78.29.36-.04.6-.25.86-.48.49.73.94,1.49,1.38,2.24.53.89,1.21,1.57,1.86,2.35.57.75,1,1.61,1.53,2.4.39.63.84,1.27,1.11,1.96.16.4.14.79.21,1.21.07-.11.16-.21.17-.35.04-.32-.01-.67-.05-.99.19.11.38.21.58.3-.12-.26-.31-.4-.55-.55-.3-.18-.37-.47-.53-.76-.28-.54-.63-1.04-.95-1.55-.34-.54-.66-1.1-1.01-1.63-.24-.36-.51-.67-.78-1.01-.74-.94-1.35-1.94-1.98-2.95-.36-.59-.78-1.14-1.13-1.73-.22-.36-.4-.72-.75-.96-.27-.19-.65-.17-.97-.18-.5-.82-.99-1.69-1.23-2.63-.13-.53-.1-1.07.3-1.47.29-.3.65-.37,1.05-.37-.41.22-.83.36-1.04.82-.14.29-.03.56.09.83.17.35.41.69.71.94.33.29.85.2,1.21.03.3-.14.45-.38.63-.65.39.45.72.94,1.1,1.39.86,1.04,1.64,2.09,2.63,3.01.49.46.99.85,1.42,1.37.49.57.82,1.22,1.22,1.86.7,1.04,1.26,2.08,2.19,2.96.16.15.29.24.51.26-.21-.36-.49-.64-.73-.97-.77-1.07-1.41-2.25-2.19-3.31-.41-.57-.79-1.13-1.31-1.62-1.21-1.14-2.16-2.43-3.24-3.69-.58-.74-1.23-1.46-1.76-2.24-.27-.4-.52-.94-.92-1.22-.34-.25-.72-.12-1.11-.18-.23-.25-.38-.59-.53-.9-.16-.36-.35-.83-.25-1.23.13-.46.48-.83.94-.99-.19.24-.48.48-.58.78-.11.35.03.68.22.98.24.35.55.74.94.92.51.22,1.08-.08,1.45-.43.22-.19.27-.44.34-.71.8.76,1.51,1.59,2.29,2.36.75.82,1.53,1.61,2.34,2.38.74.7,1.66,1.29,2.25,2.11.3.42.57.86.87,1.27.56.76,1.03,1.58,1.59,2.34.5.69.97,1.48,1.59,2.05.41.37.82.69,1.4.7-.05-.11-.07-.21-.18-.27-.26-.17-.53-.3-.75-.54-.42-.44-.74-.99-1.08-1.49-.96-1.47-1.95-2.94-3.01-4.35-.48-.63-1.06-1.13-1.67-1.62-.5-.41-.97-.84-1.42-1.29-.8-.81-1.59-1.62-2.37-2.45-.36-.36-.78-.7-1.07-1.12-.2-.32.07-.7.27-.96-.07.31-.11.63.05.94.21.42.84.79,1.19,1.12.15,0,.3,0,.43-.05.22-.09.44-.23.6-.41.16-.17.24-.4.33-.61.95.75,1.78,1.6,2.68,2.41.67.63,1.33,1.25,2.08,1.77.57.39,1.09.8,1.48,1.38.41.59.8,1.19,1.23,1.77.93,1.33,1.92,2.64,3.03,3.83.52.56,1.12,1.09,1.59,1.69.33.42.55.92.61,1.46.06.37-.01.77.09,1.13.08,0,.13-.03.15-.11.12-.32.1-.7.14-1.03.67.59,1.37,1.15,2.03,1.75.72.62,1.35,1.36,1.81,2.19.17.3.26.64.45.93.08.04.12,0,.11-.08,0-.32-.13-.65-.26-.94-.26-.59-.62-1.12-1.03-1.61-.23-.27-.49-.52-.72-.78.15-.02.29-.04.44-.07l.03-.1c-.16-.19-.42-.22-.66-.25-.23-.03-.43-.03-.61-.19-.48-.42-.91-.9-1.38-1.34-.43-.4-.59-.9-.93-1.36-.42-.58-.92-1.02-1.4-1.53-.18-.2-.29-.4-.3-.68-.01-.78-.05-1.53.08-2.3.07-.71.24-1.43.8-1.93.4-.34.81-.46,1.33-.36-.28.24-.7.46-.77.85-.08.43,0,.91.08,1.34.05.21.11.5.29.64.24.13.56.12.83.15.13.55.4,1.04.56,1.57-.36-.01-.69-.07-1.04.08.35.1.72.1,1.05.21.22.07.26.34.34.53-.5-.07-.9-.27-1.42-.14.33.28.71.24,1.12.35.16.04.4.08.47.25.12.23.19.48.29.71.37.87.85,1.71,1.35,2.51.34.53.8.95,1.16,1.46.61.85.61,1.79.65,2.79.1,1.58.09,3.17.19,4.75.06,1.23-.03,2.58.24,3.77.18.83.6,1.56,1.15,2.21.34.42.75.76,1.08,1.18-.45.3-.9.58-1.32.92ZM17.77,16.32c.1-.03.19-.04.29-.02.18.16.28.42.38.63.09.24.2.51.19.77-.06.18-.31.29-.48.34-.21.05-.43.1-.58-.09-.23-.3-.43-.72-.49-1.1.12-.26.45-.43.71-.53ZM17.26,11.53c.14-.04.38-.13.47.03.22.29.36.65.53.97.09.2.23.48.14.7-.14.2-.39.32-.62.39-.19.05-.4.09-.56-.05-.29-.25-.52-.6-.71-.94-.07-.16-.2-.35-.08-.51.18-.29.52-.49.83-.6Z"/></svg>