<?xml version="1.0" encoding="UTF-8"?><svg id="a" xmlns="http://www.w3.org/2000/svg" viewBox="0 0 57 57"><path d="M53.01,41.14l-10.57-27.96c-1.1-2.91-3.93-4.87-7.04-4.87h-11.72c-2.95,0-5.64,1.74-6.86,4.42l-12.69,28.05c-.84,1.86-.68,3.99.42,5.7,1.1,1.71,2.98,2.73,5.02,2.73h37.84c1.96,0,3.8-.96,4.91-2.58s1.37-3.67.67-5.51ZM47.42,45.22H9.58c-1.43,0-2.39-1.48-1.8-2.78l12.69-28.05c.57-1.26,1.83-2.07,3.21-2.07h11.72c1.47,0,2.78.91,3.3,2.28l10.57,27.96c.49,1.29-.47,2.67-1.84,2.67Z" fill="#231f20" stroke-width="0"/><path d="M46.04,36.89l-7.48-20.6c-.78-2.14-2.78-3.59-4.98-3.59h-8.29c-2.09,0-3.99,1.28-4.85,3.26l-8.98,20.67c-.59,1.37-.48,2.94.3,4.2.78,1.26,2.11,2.01,3.55,2.01h26.78c1.39,0,2.69-.71,3.48-1.9s.97-2.71.48-4.06ZM42.09,39.9H15.31c-1.01,0-1.69-1.09-1.27-2.05l8.98-20.67c.4-.93,1.29-1.53,2.27-1.53h8.29c1.04,0,1.97.67,2.33,1.68l7.48,20.6c.35.95-.33,1.97-1.31,1.97Z" fill="#231f20" stroke-width="0"/></svg>