<?xml version="1.0" encoding="UTF-8"?><svg id="a" xmlns="http://www.w3.org/2000/svg" viewBox="0 0 57 57"><path d="M53.01,41.37l-10.57-27.96c-1.1-2.91-3.93-4.87-7.04-4.87h-11.72c-2.95,0-5.64,1.74-6.86,4.42l-12.69,28.05c-.84,1.86-.68,3.99.42,5.7,1.1,1.71,2.98,2.73,5.02,2.73h37.84c1.96,0,3.8-.96,4.91-2.58s1.37-3.67.67-5.51ZM47.42,45.45H9.58c-1.43,0-2.39-1.48-1.8-2.78l12.69-28.05c.57-1.26,1.83-2.07,3.21-2.07h11.72c1.47,0,2.78.91,3.3,2.28l10.57,27.96c.49,1.29-.47,2.67-1.84,2.67Z" fill="#f1f2f2" stroke-width="0"/></svg>