<?xml version="1.0" encoding="UTF-8"?><svg id="a" xmlns="http://www.w3.org/2000/svg" viewBox="0 0 57 57"><path d="M49.27,43.05l-4.49-12.02h2.92s-5.25-14.15-5.25-14.15c-1.1-2.91-3.93-4.87-7.04-4.87h-11.72c-2.95,0-5.64,1.74-6.86,4.42l-6.76,14.67h3.33s-5.61,11.83-5.61,11.83c-.59,1.3.36,2.78,1.8,2.78h37.84c1.38,0,2.33-1.38,1.84-2.67ZM20.47,18.08c.57-1.26,1.83-2.07,3.21-2.07h11.72c1.47,0,2.78.91,3.3,2.28l2.78,6.97c-3.43-1.02-8.01-1.36-12.66-1.36-4.16,0-8.17.14-11.39.96l3.04-6.78Z" fill="#f1f2f2" stroke-width="0"/></svg>