<?xml version="1.0" encoding="UTF-8"?><svg id="a" xmlns="http://www.w3.org/2000/svg" viewBox="0 0 57 57"><path d="M53.01,41.37l-1.81-4.79c.52-1.28.56-2.73.06-4.05l-1.49-3.12c.99-1.13,1.21-2.56.59-3.84l-9.42-15.52c-.98-2.03-3.5-3.4-6.28-3.4h-10.45c-2.63,0-5.03,1.21-6.12,3.09l-11.32,15.58c-.75,1.3-.61,2.79.38,3.98.07.09.16.17.24.25l-1.51,2.65c-.69,1.53-.65,3.27.09,4.75l-1.83,4.05c-.84,1.86-.68,3.99.42,5.7,1.1,1.71,2.98,2.73,5.02,2.73h37.84c1.96,0,3.8-.96,4.91-2.58s1.37-3.67.67-5.51ZM10.02,25.7l11.32-15.58c.51-.88,1.63-1.45,2.87-1.45h10.45c1.31,0,2.48.63,2.94,1.59l9.43,15.52c.43.9-.42,1.87-1.65,1.87H11.62c-1.28,0-2.13-1.03-1.6-1.95ZM9.26,33.98l1.59-2.8c.25.03.51.05.76.05h33.76c.34,0,.67-.03,1-.08l1.4,2.94c.06.17.09.34.11.5-.05.93-.8,1.74-1.82,1.74H10.93c-.99,0-1.73-.76-1.82-1.65,0-.23.05-.47.15-.7ZM47.42,45.45H9.58c-1.43,0-2.39-1.48-1.8-2.78l1.33-2.94c.58.2,1.19.31,1.82.31h35.14c.7,0,1.38-.13,2.02-.38l1.18,3.13c.49,1.29-.47,2.67-1.84,2.67Z" fill="#f1f2f2" stroke-width="0"/></svg>