<?xml version="1.0" encoding="UTF-8"?><svg id="a" xmlns="http://www.w3.org/2000/svg" viewBox="0 0 57 57"><path d="M53.01,41.37l-10.57-27.96c-1.1-2.91-3.93-4.87-7.04-4.87h-11.72c-2.95,0-5.64,1.74-6.86,4.42l-12.69,28.05c-.84,1.86-.68,3.99.42,5.7,1.1,1.71,2.98,2.73,5.02,2.73h37.84c1.96,0,3.8-.96,4.91-2.58s1.37-3.67.67-5.51ZM16.2,24.06h11.27v9.35h-15.5l4.23-9.35ZM31.47,24.06h10.72l3.53,9.35h-14.25v-9.35ZM38.7,14.83l2.25,5.95h-9.48v-8.23h3.93c1.47,0,2.78.91,3.3,2.28ZM20.47,14.62c.57-1.26,1.83-2.07,3.21-2.07h3.79v8.23h-9.79l2.78-6.15ZM9.58,45.45c-1.43,0-2.39-1.48-1.8-2.78l2.38-5.26h17.31v8.05H9.58ZM47.42,45.45h-15.95v-8.05h15.76l2.03,5.38c.49,1.29-.47,2.67-1.84,2.67Z" fill="#231f20" stroke-width="0"/></svg>