<?xml version="1.0" encoding="UTF-8"?><svg id="a" xmlns="http://www.w3.org/2000/svg" viewBox="0 0 57 57"><path d="M40.2,39.2l-.28.09c-.63-2.54-3.04-4.03-5.38-3.33l-.08-.31c2.34-.71,3.73-3.34,3.1-5.89l.28-.09c.63,2.54,3.04,4.03,5.38,3.33l.08.31c-2.34.71-3.73,3.34-3.1,5.89Z" fill="#f1f2f2" stroke-width="0"/><path d="M53.01,41.14l-10.57-27.96c-1.1-2.91-3.93-4.87-7.04-4.87h-11.72c-2.95,0-5.64,1.74-6.86,4.42l-12.69,28.05c-.84,1.86-.68,3.99.42,5.7,1.1,1.71,2.98,2.73,5.02,2.73h37.84c1.96,0,3.8-.96,4.91-2.58s1.37-3.67.67-5.51ZM33.08,45.22h-3.02l-11.25-27.18,1.5-3.31,12.77,30.49ZM9.58,45.22c-1.43,0-2.39-1.48-1.8-2.78l9.68-21.4,10.01,24.18H9.58ZM47.42,45.22h-10.33L23.33,12.35c.12-.01.23-.03.35-.03h11.72c1.47,0,2.78.91,3.3,2.28l10.57,27.96c.49,1.29-.47,2.67-1.84,2.67Z" fill="#f1f2f2" stroke-width="0"/></svg>