<?xml version="1.0" encoding="UTF-8"?><svg id="Layer_1" xmlns="http://www.w3.org/2000/svg" viewBox="0 0 57 57"><defs><style>.cls-1{fill:#231f20;}.cls-1,.cls-2,.cls-3{stroke-width:0px;}.cls-2{fill:#414042;}.cls-3{fill:#f1f2f2;}</style></defs><path class="cls-3" d="M31.06,39.24L6.65,25.98s0-.02,0-.02l13.32-2.51,29.44,8.77c.06.02.58.06.37.46l-18.1,6.61c-.2.07-.43.06-.61-.05Z"/><path class="cls-2" d="M6.67,25.96h0s0,0-.02,0h.02Z"/><path class="cls-1" d="M49.41,32.22c.06.02.58.06.37.46l-18.1,6.61c-.2.07-.43.06-.61-.05L6.65,25.98s0-.02,0-.02c-.02,0-.05.04-.03.19v2.28c0,.13.07.26.19.33l24.3,14.57c.16.09.35.11.52.03l18.49-8.07c.14-.06.23-.2.23-.35l.04-2.18c-.05-.35-.83-.53-.98-.55Z"/><path class="cls-3" d="M30.9,34.9l-22.04-9.9s0-.01,0-.01l12.02-1.88,24.42,7.08c.05.01.65.06.45.36l-14.3,4.39c-.18.05-.38.04-.55-.03Z"/><path class="cls-2" d="M11.09,24.58h0s0,0-.01,0h.01Z"/><path class="cls-1" d="M45.3,30.19c.05.01.53.04.33.34l-14.18,4.41c-.18.05-.38.04-.55-.03l-22.04-9.9s0-.01,0-.01c-.02,0-.04.03-.02.14h0v.78c0,.1.06.19.17.24l21.94,10.87c.14.07.31.08.47.02l15.1-5.33c.12-.04.21-.15.21-.26l.03-.7c-.04-.26-1.31-.56-1.44-.57Z"/><path class="cls-3" d="M29.53,32.54l-18.07-8.06s0,0,0-.01l9.7-1.48,21.68,6.06s.5.13.42.27l-13.22,3.25c-.17.04-.35.03-.51-.03Z"/><path class="cls-2" d="M11.47,24.47h0s0,0-.01,0h.01Z"/><path class="cls-1" d="M42.84,29.05s.56.18.31.26l-11.67,2.98c-.17.04-.35.03-.51-.03l-19.51-7.78s0,0,0,0c-.02,0-.04.02-.02.11h0v.3c0,.08.06.15.15.19l19.41,8.25c.13.05.29.06.43.02l11.75-3.36c.12-.03.23-.1.23-.19v-.4c-.04-.2-.45-.33-.57-.35Z"/><path class="cls-3" d="M23.67,22.76l-.92-.33v-7.21c0-.09-.08-.15-.16-.14l-.72.08c-.06,0-.12-.03-.15-.08-.36-.69-1.14-1.15-2-1.15-1.06,0-1.98.7-2.17,1.63-.01.06-.06.11-.12.12l-.91.11c-.07,0-.13.07-.13.14v6.73l-2.1.21c-.08,0-.09.07-.02.1l1.9.96s.03.01.05,0l7.29-1.12c.08-.01.22-.02.15-.06ZM22.55,22.44l-5.9.88v-7.32l1.12-.13v-.09c.09-.91.96-1.62,1.98-1.62.84,0,1.59.47,1.87,1.18l.03.08.9-.1v7.13Z"/><path class="cls-3" d="M21.36,14.59c.15.15.28.31.37.5.03.05.09.09.15.08l.66-.08-1.18-.5Z"/><path class="cls-3" d="M20.77,14.18s0,0,0,0c-.11-.07-.23-.14-.37-.2-.01,0-.02-.01-.03-.02-.13-.06-.28-.12-.43-.17-.02,0-.04-.01-.06-.02-.15-.05-.31-.09-.47-.12-.02,0-.04,0-.06,0-.17-.03-.34-.05-.51-.05,0,0-1.41-.09-2.12,1.25l-.26.46s0,0,0,0l-.82.07h0c-.07,0-.15.07-.15.11v7.43l.93.48v-7.47s.01-.04.02-.06h0s.06.03.06.03c0,0,.01,0,.02,0l.94-.11s.04-.05,0-.06l.11.04c.15-.91,1.04-1.72,2.09-1.72.24,0,1.04.16,1.25.23-.04-.03-.09-.07-.14-.1,0,0,0,0,0,0Z"/><path class="cls-1" d="M23.79,22.88c-.02-.06-.07-.09-.12-.11.02.03-.09.03-.16.04l-7.29,1.12s-.03,0-.05,0l-1.9-.96c-.06-.03-.05-.07,0-.09-.04.01-.08.04-.08.06v1.6s0,.03.03.04l1.92,1.06s0,0,0,0c.01,0,.04.02.13,0l7.48-1.39s.08-.05.08-.1l-.04-1.27Z"/><polygon class="cls-3" points="15.48 19.54 15.48 22.92 16.41 23.4 16.41 19.54 15.48 19.54"/><path class="cls-1" d="M21.61,15.33c-.28-.7-1.03-1.18-1.86-1.18-1.02,0-1.89.71-1.97,1.62v.09s-1.13.13-1.13.13v7.31l5.89-.88v-7.12l-.9.1-.03-.08Z"/></svg>