<?xml version="1.0" encoding="UTF-8"?><svg id="Layer_1" xmlns="http://www.w3.org/2000/svg" viewBox="0 0 57 57"><defs><style>.cls-2{fill:#414042;stroke-width:0px;}.cls-3{fill:#f1f2f2;stroke-width:0px;}</style></defs><path class="cls-2" d="M14,17h29c1.1,0,2,.9,2,2v8.4c0,1.1-.9,2-2,2H14c-1.1,0-2-.9-2-2v-8.4c0-1.1.9-2,2-2Z"/><path class="cls-3" d="M15.2,18.6h26.6c.8,0,1.4.6,1.4,1.4v6.5c0,.8-.6,1.4-1.4,1.4H15.2c-.8,0-1.4-.6-1.4-1.4v-6.5c0-.8.6-1.4,1.4-1.4Z"/><path class="cls-2" d="M14,34.6h29c1.1,0,2,.9,2,2v8.4c0,1.1-.9,2-2,2H14c-1.1,0-2-.9-2-2v-8.4c0-1.1.9-2,2-2Z"/><path class="cls-3" d="M15.2,36.2h26.6c.8,0,1.4.6,1.4,1.4v6.5c0,.8-.6,1.4-1.4,1.4H15.2c-.8,0-1.4-.6-1.4-1.4v-6.5c0-.8.6-1.4,1.4-1.4Z"/></svg>
