<?xml version="1.0" encoding="UTF-8"?><svg id="Layer_1" xmlns="http://www.w3.org/2000/svg" viewBox="0 0 26.52 26.52"><defs><style>.cls-1{fill:#d1d3d4;stroke-width:0px;}</style></defs><path class="cls-1" d="M17.95,3.18h-1.81c-.13-1.47-1.37-2.62-2.88-2.62s-2.74,1.15-2.88,2.62h-1.81c-.16,0-.29.13-.29.29v13.71h9.95V3.46c0-.16-.13-.29-.29-.29ZM16.23,15.18h-5.95V5.18h1.92l.17-1.82c.04-.45.43-.81.89-.81s.84.35.89.81l.17,1.82h1.92v10Z"/><path class="cls-1" d="M.85,21.47h24.83c.22,0,.41.18.41.41v4.09H.44v-4.09c0-.22.18-.41.41-.41Z"/><polygon class="cls-1" points="25.06 20.02 1.46 20.02 8.28 17.16 18.23 17.16 25.06 20.02"/></svg>