<?xml version="1.0" encoding="UTF-8"?><svg id="Layer_1" xmlns="http://www.w3.org/2000/svg" viewBox="0 0 39.49 29.89"><defs><style>.cls-1{fill:#d1d3d4;stroke-width:0px;}</style></defs><path class="cls-1" d="M30.96,23.66v1.47H8.53v-1.47h22.44M31.42,22.16H8.07c-.58,0-1.04.47-1.04,1.04v3.43h25.44v-3.43c0-.58-.47-1.04-1.04-1.04h0Z"/><path class="cls-1" d="M19.65,4.83c1.03,0,1.97.53,2.51,1.42.27.44.76.72,1.28.72h1.57v11.77h-10.52V6.97h1.37c.52,0,1.01-.27,1.28-.72.55-.89,1.49-1.42,2.51-1.42M19.65,3.33c-1.61,0-3.01.86-3.79,2.14h-1.57c-.72,0-1.3.58-1.3,1.3v13.47h13.52V6.77c0-.72-.58-1.3-1.3-1.3h-1.77c-.78-1.28-2.18-2.14-3.79-2.14h0Z"/></svg>