<?xml version="1.0" encoding="UTF-8"?><svg id="Layer_1" xmlns="http://www.w3.org/2000/svg" viewBox="0 0 39.49 29.89"><defs><style>.cls-1{fill:#58595b;}.cls-1,.cls-2{stroke-width:0px;}.cls-2{fill:#fff;}</style></defs><path class="cls-1" d="M30.07,20.2c-1.51,0-2.77,1.1-3.02,2.54-.03.17-.05.35-.05.53,0,1.69,1.37,3.06,3.06,3.06s3.06-1.37,3.06-3.06c0-.18-.02-.36-.05-.53-.25-1.44-1.5-2.54-3.02-2.54h0Z"/><path class="cls-2" d="M30.07,24.86c-.88,0-1.59-.71-1.59-1.59,0-.1.01-.19.03-.28.13-.75.79-1.31,1.57-1.31s1.43.55,1.57,1.32c.02.09.02.18.02.28,0,.88-.71,1.59-1.59,1.59Z"/><path class="cls-1" d="M8.83,20.2c-1.51,0-2.77,1.1-3.02,2.54-.03.17-.05.35-.05.53,0,1.69,1.37,3.06,3.06,3.06s3.06-1.37,3.06-3.06c0-.18-.02-.36-.05-.53-.25-1.44-1.5-2.54-3.02-2.54h0Z"/><path class="cls-2" d="M8.83,24.86c-.88,0-1.59-.71-1.59-1.59,0-.09,0-.19.02-.28.13-.76.79-1.32,1.57-1.32s1.43.55,1.57,1.32c.02.09.02.18.02.28,0,.88-.71,1.59-1.59,1.59Z"/><path class="cls-1" d="M26.81,7.63h3.96c.99,0,1.88.58,2.28,1.48l1.27,2.84h-7.51v-4.32h0ZM29.6,14.82c0,.25-.2.44-.44.44h-1.4c-.25,0-.44-.2-.44-.44v-.51h2.29v.51h0ZM3.17,22.74h1.65c.26-1.99,1.96-3.52,4.01-3.52s3.76,1.54,4.02,3.52h13.21c.26-1.99,1.96-3.52,4.02-3.52s3.76,1.54,4.01,3.52h2.23c.37,0,.66-.3.66-.66v-.35c0-.37-.3-.66-.66-.66h-.56v-2.56c.36-.03.65-.34.65-.71v-.51c0-.37-.29-.68-.65-.71v-3.47c0-.24-.05-.48-.14-.7l-1.54-3.72c-.6-1.44-2-2.37-3.55-2.37h-4.48c-.2,0-.36.16-.36.36v10.54H4.36c-.43,0-.77.35-.77.77v3.08h-.42c-.37,0-.66.3-.66.66v.35c0,.37.3.66.66.66h0Z"/><path class="cls-2" d="M13.98,21.27c-.41-1.06-1.15-1.96-2.07-2.58h13.78c.81,0,1.47-.66,1.47-1.47v-.57c.19.06.39.09.6.09h1.4c1.06,0,1.92-.86,1.92-1.92v-.51c0-.34-.11-.64-.3-.89h3.52v3.16c0,.37.14.71.36.96-.22.26-.36.6-.36.96v1.19c-1.02-1.2-2.54-1.96-4.21-1.96-2.31,0-4.34,1.45-5.15,3.52h-10.95ZM5.06,19.24v-.56h.7"/><path class="cls-1" d="M23.82,14.52h-.07V6.25h-1.72c-.6,0-1.09.49-1.09,1.09v7.18H6.52c-.72,0-1.3.58-1.3,1.3v2.84h19.47v-3.27c0-.48-.39-.87-.87-.87Z"/><polyline class="cls-1" points="6.69 17.18 6.69 15.99 23.22 15.99 23.22 17.18"/></svg>