<?xml version="1.0" encoding="UTF-8"?><svg id="Layer_1" xmlns="http://www.w3.org/2000/svg" viewBox="0 0 39.49 29.89"><defs><style>.cls-1{fill:#58595b;stroke-width:0px;}</style></defs><path class="cls-1" d="M21.65,6.47c.05.21.14.41.27.58-.17.58.02,1.21.49,1.59,2.13,1.74,2.68,6.05,1.31,10.25-.32.99-.75,1.94-1.27,2.83h-5.4c-.52-.89-.94-1.84-1.27-2.83-1.37-4.2-.82-8.51,1.31-10.25.47-.39.66-1.01.49-1.59.13-.17.22-.37.27-.58h3.8M22.34,4.97h-5.18c-.43,0-.77.35-.77.77v.4h-.62c-.17,0-.31.14-.31.31v.35c0,.37.3.68.68.68-2.57,2.1-3.4,6.94-1.79,11.88.47,1.44,1.11,2.73,1.86,3.87h7.07c.75-1.13,1.39-2.43,1.86-3.87,1.61-4.94.78-9.78-1.79-11.88.37,0,.68-.3.68-.68v-.35c0-.17-.14-.31-.31-.31h-.61v-.4c0-.43-.35-.77-.77-.77h0Z"/><path class="cls-1" d="M22.74,22.85c.06.31.05.87.05,1.23,0,.14,0,.28,0,.42v.64h-6.08v-.64c0-.14,0-.28,0-.42,0-.36-.01-.92.05-1.23h6M23.28,21.34s0,0,0,0c0,0,0,0,0,0,0,0,0,0,0,0h0ZM16.21,21.34s0,0,0,0h0s0,0,0,0h0ZM23.28,21.35h-7.07s0,0,0,0h0c-1.16.39-1.01,1.86-1.01,3.15v2.14h9.08v-2.14c0-1.29.15-2.76-1.01-3.15h0s0,0,0,0h0Z"/></svg>