<?xml version="1.0" encoding="UTF-8"?><svg id="Layer_1" xmlns="http://www.w3.org/2000/svg" viewBox="0 0 9.99 20.92"><defs><style>.cls-1{fill:#c9a14a;stroke-width:0px;}</style></defs><path class="cls-1" d="M7.25,2.66c.3,0,.54-.24.54-.54v-.28c0-.13-.11-.24-.24-.24h-.49v-.32c0-.34-.28-.62-.62-.62h-2.94c-.34,0-.62.28-.62.62v.32h-.49c-.13,0-.24.11-.24.24v.28c0,.3.24.54.54.54C.62,4.34-.04,8.22,1.25,12.16c.38,1.15,1.09,2.19,1.69,3.09h4.05c.6-.91,1.31-1.94,1.69-3.09,1.29-3.95.63-7.82-1.43-9.5ZM6.77,11.54c-.19.57-.51,1.15-.87,1.71h-1.88c-.36-.57-.68-1.14-.87-1.71-1.12-3.42-.43-6.33.79-7.33.47-.39.74-.96.73-1.56h.57c0,.59.26,1.17.73,1.56,1.22,1,1.91,3.91.79,7.33Z"/><path class="cls-1" d="M6.41,16.7h-2.9c-.92.32-1.58,1.18-1.58,2.21v1.53h6.06v-1.53c0-1.03-.67-1.9-1.58-2.21Z"/></svg>