<?xml version="1.0" encoding="UTF-8"?><svg id="Layer_1" xmlns="http://www.w3.org/2000/svg" viewBox="0 0 35.79 29.35"><defs><style>.cls-1{fill:#c9a14a;stroke-width:0px;}</style></defs><path class="cls-1" d="M.93,23.6h33.93c.28,0,.5.23.5.5v4.56H.43v-4.56c0-.28.23-.5.5-.5Z"/><path class="cls-1" d="M27.81,19.62v-1.74c0-.17-.14-.31-.31-.31l-2.51-1.31V5.59l1.89.79.55-1.32c.12-.28-.02-.6-.3-.72L17.9.5h0s0,0,0,0l-9.24,3.84c-.28.12-.41.44-.29.72l.55,1.32,1.89-.79v10.66l-2.51,1.31c-.17,0-.31.14-.31.31v1.74l-3.91,2.54h27.65l-3.91-2.54ZM10.96,18.37l.65-.34c.66-.34,1.08-1.03,1.08-1.77V5.59c0-.26-.05-.52-.15-.75l5.24-2.18,5.24,2.18c-.1.24-.15.49-.15.75v10.66c0,.75.42,1.43,1.08,1.77l.66.34h-13.65Z"/></svg>