<?xml version="1.0" encoding="UTF-8"?><svg id="Layer_1" xmlns="http://www.w3.org/2000/svg" viewBox="0 0 54.12 26.79"><defs><style>.cls-1{fill:#c9a14a;stroke-width:0px;}</style></defs><polygon class="cls-1" points="51.5 20.16 2.69 20.16 12.38 17.3 42.17 17.3 51.5 20.16"/><path class="cls-1" d="M1.76,21.61h50.66c.66,0,1.19.53,1.19,1.19v3.31H.58v-3.31c0-.66.53-1.19,1.19-1.19Z"/><path class="cls-1" d="M37.89,2.6h-.64c-.25-1.35-1.41-2.37-2.83-2.37s-2.59,1.03-2.83,2.37h-.61c-2.05,0-3.71,1.63-3.71,3.64h-.36c0-2.01-1.66-3.64-3.71-3.64h-.61c-.25-1.35-1.41-2.37-2.83-2.37s-2.59,1.03-2.83,2.37h-.64c-2.26,0-4.1,1.8-4.1,4.02v10.69h29.79V6.63c0-2.22-1.83-4.02-4.1-4.02ZM39.99,15.85H14.2V6.63c0-1.11.94-2.02,2.1-2.02h2.31l.3-1.64c.08-.42.44-.73.86-.73s.79.31.86.73l.3,1.64h2.28c.94,0,1.71.74,1.71,1.64v2h4.36v-2c0-.91.77-1.64,1.71-1.64h2.28l.3-1.64c.08-.42.44-.73.86-.73s.79.31.86.73l.3,1.64h2.31c1.16,0,2.1.91,2.1,2.02v9.22Z"/></svg>