<?xml version="1.0" encoding="UTF-8"?><svg id="Layer_1" xmlns="http://www.w3.org/2000/svg" viewBox="0 0 19.19 25.49"><defs><style>.cls-1{fill:#c9a14a;stroke-width:0px;}</style></defs><path class="cls-1" d="M15.12,3.6h-2.1c-.16-1.71-1.59-3.05-3.35-3.05s-3.19,1.34-3.35,3.05h-2.1c-.19,0-.34.15-.34.34v15.95h11.57V3.93c0-.19-.15-.34-.34-.34ZM13.45,17.88h-7.57V5.6h.44c1.03,0,1.9-.79,1.99-1.82.06-.7.65-1.23,1.35-1.23s1.29.54,1.35,1.23c.09,1.03.96,1.82,1.99,1.82h.44v12.28Z"/><path class="cls-1" d="M2.79,21.33h13.75c1.19,0,2.16.97,2.16,2.16v1.58H.63v-1.58c0-1.19.97-2.16,2.16-2.16Z"/></svg>