<?xml version="1.0" encoding="UTF-8"?><svg id="a" xmlns="http://www.w3.org/2000/svg" viewBox="0 0 246.65 88.87"><rect x="11.4" y="19.84" width="223.85" height="47.41" rx="5.94" ry="5.94" fill="none" stroke="#e6e7e8" stroke-miterlimit="10"/><path d="M85.94,48.64h-2.49l-3.9-11.33h2.8l2.39,8.03h.06l2.37-8.03h2.75l-3.97,11.33Z" fill="#c89211" stroke-width="0"/><path d="M92.96,38.13c0,.2-.04.39-.11.57-.07.18-.17.33-.29.46-.12.13-.27.23-.44.3-.17.07-.35.11-.53.11-.39,0-.71-.14-.98-.42-.26-.28-.39-.62-.39-1.02,0-.19.03-.38.1-.55.07-.18.17-.33.29-.46.13-.13.27-.23.44-.31s.34-.12.54-.12c.18,0,.36.04.53.11s.32.18.44.3.22.28.29.46c.07.18.11.37.11.57ZM90.39,48.64v-7.97h2.39v7.97h-2.39Z" fill="#c89211" stroke-width="0"/><path d="M101.87,44.75v.32c0,.11,0,.21-.01.3h-5.26c.02.22.08.43.18.61.1.18.23.34.39.47.16.13.34.24.54.31.2.07.41.11.62.11.38,0,.7-.08.96-.23.26-.15.48-.35.64-.6l1.66,1.15c-.34.54-.79.96-1.35,1.26-.56.29-1.21.44-1.94.44-.54,0-1.06-.09-1.54-.28s-.91-.46-1.27-.82c-.36-.36-.65-.8-.86-1.32-.21-.52-.31-1.12-.31-1.79s.1-1.24.31-1.77c.2-.53.48-.98.83-1.34.35-.37.76-.65,1.24-.86s.99-.3,1.54-.3,1.02.1,1.47.3c.45.2.83.48,1.15.86.32.37.57.83.75,1.36.18.53.27,1.14.27,1.82ZM99.67,43.75c0-.42-.12-.77-.36-1.07-.24-.3-.59-.45-1.07-.45-.23,0-.45.04-.64.12s-.36.19-.51.33-.26.3-.35.49c-.09.19-.14.38-.15.58h3.07Z" fill="#c89211" stroke-width="0"/><path d="M112.58,48.64h-2.4l-1.43-4.96h-.03l-1.4,4.96h-2.4l-2.5-7.97h2.58l1.25,5.04h.04l1.3-5.04h2.4l1.34,5.04h.03l1.27-5.04h2.47l-2.52,7.97Z" fill="#c89211" stroke-width="0"/><path d="M119.8,48.64v-11.33h2.5v8.94h3.99v2.38h-6.49Z" fill="#005470" stroke-width="0"/><path d="M134.45,48.64l-.8-2.22h-3.99l-.76,2.22h-2.71l4.32-11.33h2.42l4.28,11.33h-2.77ZM131.68,40.34l-1.31,3.89h2.59l-1.28-3.89Z" fill="#005470" stroke-width="0"/><path d="M142.21,43.84v4.8h-2.49v-4.8l-3.87-6.53h3.01l2.2,4.19,2.2-4.19h2.91l-3.96,6.53Z" fill="#005470" stroke-width="0"/><path d="M145.09,45.49v-2.08h3.7v2.08h-3.7Z" fill="#005470" stroke-width="0"/><path d="M158.41,45.35c0,.62-.11,1.14-.33,1.56-.22.42-.52.76-.89,1.02-.37.26-.79.44-1.26.55s-.95.17-1.45.17h-4.11v-11.33h4.11c.4,0,.81.05,1.22.14s.8.25,1.14.46c.34.22.62.51.83.89s.32.85.32,1.42c0,.63-.16,1.15-.47,1.56s-.72.71-1.22.89v.03c.29.05.56.15.82.3.26.14.48.33.67.55s.34.49.45.78c.11.3.17.63.17,1.01ZM155.59,40.59c0-.38-.13-.66-.4-.84-.27-.18-.66-.26-1.19-.26h-1.22v2.34h1.34c.47,0,.83-.1,1.08-.31.26-.21.39-.51.39-.92ZM155.93,45.09c0-.47-.16-.79-.48-.98-.32-.18-.75-.27-1.28-.27h-1.38v2.59h1.4c.19,0,.4-.02.6-.06.21-.04.4-.1.57-.2.17-.1.31-.23.42-.41.11-.18.16-.4.16-.68Z" fill="#005470" stroke-width="0"/><path d="M165.07,43.84v4.8h-2.49v-4.8l-3.87-6.53h3.01l2.2,4.19,2.2-4.19h2.91l-3.96,6.53Z" fill="#005470" stroke-width="0"/><path d="M183.84,42.93c0,.9-.14,1.71-.42,2.46s-.67,1.38-1.17,1.9-1.09.94-1.78,1.22c-.69.29-1.44.43-2.24.43s-1.55-.14-2.24-.43-1.28-.7-1.78-1.22-.89-1.16-1.17-1.9c-.28-.74-.42-1.56-.42-2.46s.14-1.73.42-2.46c.28-.73.67-1.35,1.17-1.86.5-.51,1.09-.91,1.78-1.18s1.43-.42,2.24-.42,1.55.14,2.24.42c.69.28,1.28.67,1.78,1.18.5.51.89,1.13,1.17,1.86.28.73.42,1.55.42,2.46ZM181.17,42.93c0-.49-.07-.95-.22-1.38-.15-.43-.35-.79-.6-1.1-.26-.3-.57-.54-.93-.72-.36-.18-.76-.26-1.2-.26s-.83.09-1.19.26c-.36.18-.67.42-.93.72-.26.3-.46.67-.6,1.1s-.21.89-.21,1.38.07.98.22,1.42c.15.43.35.8.6,1.11.26.31.57.55.92.73.36.18.76.26,1.19.26s.83-.09,1.19-.26c.36-.18.67-.42.93-.73.26-.31.47-.68.61-1.11.15-.43.22-.9.22-1.42Z" fill="#c89211" stroke-width="0"/><path d="M193.42,44.63c0,.55-.08,1.09-.23,1.6s-.38.96-.68,1.35c-.3.39-.66.7-1.08.94-.43.23-.91.35-1.46.35-.45,0-.87-.1-1.27-.3-.4-.2-.71-.47-.93-.81h-.03v4.72h-2.39v-11.81h2.27v.98h.04c.22-.32.53-.6.92-.84.39-.24.86-.36,1.39-.36s1,.11,1.43.34c.43.22.79.53,1.08.91.3.38.52.83.68,1.34.16.51.24,1.04.24,1.59ZM191.1,44.63c0-.26-.04-.51-.11-.75-.07-.25-.18-.46-.32-.65-.14-.19-.32-.34-.53-.46-.21-.12-.46-.18-.74-.18s-.51.06-.73.18c-.21.12-.4.27-.55.46-.15.19-.27.41-.35.66-.08.25-.12.5-.12.75s.04.51.12.75c.08.25.2.46.35.66.15.19.33.35.55.46.21.12.46.18.73.18s.53-.06.74-.18c.21-.12.39-.27.53-.46.14-.19.25-.41.32-.66.07-.25.11-.5.11-.76Z" fill="#c89211" stroke-width="0"/><path d="M197.51,42.63v3.05c0,.38.07.66.2.84.13.19.37.28.71.28.12,0,.24-.01.37-.03.13-.02.24-.05.33-.1l.03,1.92c-.17.06-.37.12-.63.17-.25.05-.5.07-.76.07-.49,0-.89-.07-1.22-.2-.33-.13-.59-.33-.79-.58-.2-.25-.34-.55-.43-.9-.09-.35-.13-.74-.13-1.16v-3.37h-1.17v-1.95h1.15v-2.1h2.34v2.1h1.7v1.95h-1.7Z" fill="#c89211" stroke-width="0"/><path d="M202.92,38.13c0,.2-.04.39-.11.57-.07.18-.17.33-.29.46-.12.13-.27.23-.44.3-.17.07-.35.11-.53.11-.39,0-.71-.14-.98-.42-.26-.28-.39-.62-.39-1.02,0-.19.03-.38.1-.55.07-.18.17-.33.29-.46.13-.13.27-.23.44-.31s.34-.12.54-.12c.18,0,.36.04.53.11s.32.18.44.3.22.28.29.46c.07.18.11.37.11.57ZM200.36,48.64v-7.97h2.39v7.97h-2.39Z" fill="#c89211" stroke-width="0"/><path d="M212.33,44.63c0,.65-.11,1.24-.32,1.77-.21.53-.5.98-.87,1.34-.37.37-.8.65-1.28.86-.49.2-1,.3-1.56.3s-1.06-.1-1.55-.3c-.49-.2-.92-.49-1.28-.86-.36-.37-.65-.82-.87-1.34-.21-.53-.32-1.12-.32-1.77s.11-1.24.32-1.76c.21-.52.5-.97.87-1.33.36-.36.79-.64,1.28-.83.49-.19,1.01-.29,1.55-.29s1.07.1,1.56.29.91.47,1.28.83c.37.36.66.81.87,1.33.21.52.32,1.11.32,1.76ZM210.03,44.63c0-.26-.04-.51-.12-.75-.08-.25-.19-.46-.33-.65-.15-.19-.33-.34-.54-.46-.21-.12-.46-.18-.74-.18s-.53.06-.74.18c-.21.12-.39.27-.53.46s-.25.4-.32.65c-.07.25-.11.5-.11.75s.04.51.11.75c.07.25.18.47.33.66.15.2.33.35.54.47s.46.18.74.18.53-.06.74-.18c.21-.12.39-.27.54-.47.15-.2.25-.42.33-.66.07-.25.11-.5.11-.75Z" fill="#c89211" stroke-width="0"/><path d="M218.61,48.64v-4.35c0-.22-.02-.44-.05-.64-.03-.2-.09-.38-.17-.54-.08-.15-.19-.28-.33-.37-.14-.09-.32-.14-.53-.14s-.4.05-.56.14c-.16.09-.29.22-.4.38-.11.16-.19.34-.24.55-.05.21-.08.42-.08.65v4.32h-2.4v-7.97h2.32v1.1h.03c.09-.17.2-.34.34-.5.14-.17.31-.31.5-.42.19-.12.4-.21.62-.29.22-.07.46-.11.71-.11.49,0,.9.1,1.24.29.34.19.61.44.82.74.21.3.36.65.45,1.05.09.39.14.79.14,1.18v4.93h-2.4Z" fill="#c89211" stroke-width="0"/><path d="M227.08,43.03c-.19-.2-.42-.37-.68-.51s-.54-.21-.83-.21c-.22,0-.43.05-.62.14-.19.1-.28.26-.28.5s.1.38.31.48c.21.1.55.2,1.01.32.27.06.55.15.82.27.28.12.53.27.75.46.22.19.4.43.54.7s.2.61.2.99c0,.5-.09.93-.28,1.27-.18.35-.42.63-.72.84-.3.21-.63.37-1,.46-.37.1-.74.14-1.11.14-.59,0-1.17-.1-1.74-.31-.57-.21-1.04-.51-1.42-.92l1.34-1.55c.21.26.48.47.79.64.31.17.64.26.99.26.19,0,.39-.05.58-.15.19-.1.28-.28.28-.54s-.12-.43-.35-.54c-.23-.12-.6-.24-1.09-.37-.25-.06-.5-.15-.76-.26-.25-.11-.48-.25-.68-.43-.2-.18-.36-.41-.49-.67s-.19-.59-.19-.96c0-.48.09-.89.28-1.22.18-.34.42-.61.71-.82s.61-.37.97-.47c.35-.1.71-.15,1.06-.15.54,0,1.07.09,1.59.28s.96.47,1.32.84l-1.31,1.49Z" fill="#c89211" stroke-width="0"/><path d="M29.09,48.39v-11.14c.05-.03.09-.06.12-.06,1.19.12,2.26-.35,3.37-.65,1.92-.52,3.83-1.06,5.73-1.63,1.54-.46,3.07-.31,4.61-.04,1.81.32,3.63.64,5.44.96.05,0,.1.04.19.08-.25.31-.49.61-.73.9-1.48,1.77-2.97,3.53-4.46,5.29-.11.13-.32.23-.49.24-.48.03-.95,0-1.43,0-.73,0-1.26.4-1.42,1.03-.16.62.11,1.19.76,1.55,2.39,1.34,4.78,2.68,7.17,4.03.85.47,1.26,1.32,1.15,2.31-.09.84-.75,1.62-1.62,1.82-.37.09-.81.11-1.17,0-2.67-.82-5.32-1.71-7.99-2.54-1.39-.43-2.44-1.3-3.36-2.37-.62-.73-1.34-1-2.3-.7-1.01.32-2.04.55-3.07.82-.15.04-.3.06-.51.11Z" fill="#c89211" stroke-width="0"/><path d="M23.96,35.84c.61,0,1.22,0,1.82,0,.4,0,.8.02,1.19,0,.31-.02.41.08.41.4-.01,1.56,0,3.13,0,4.69,0,3.14,0,6.28,0,9.42,0,.35-.09.47-.44.45-.41-.03-.82-.03-1.23,0-.34.02-.43-.14-.45-.43-.08-.96-.17-1.92-.26-2.89-.22-2.41-.45-4.83-.67-7.24-.13-1.4-.26-2.79-.39-4.19,0-.05.01-.1.02-.2Z" fill="#005470" stroke-width="0"/><path d="M60.63,26.5c-.68-.57-1.7-.48-2.28.2-5,5.96-9.97,11.89-14.98,17.86.14.08.21.13.28.16,1.72.97,3.46,1.92,5.15,2.93.49.29.94.71,1.26,1.18.94,1.35.87,3.06-.09,4.36-.96,1.3-2.56,1.86-4.13,1.4-1.36-.4-2.7-.85-4.06-1.28-.6-.19-1.2-.38-1.8-.57-.01.03-.03.05-.04.08,3.37,2.83,6.74,5.65,10.12,8.49.68.57,1.71.48,2.28-.2,6.48-7.73,12.94-15.43,19.41-23.15.57-.68.48-1.7-.2-2.28-3.66-3.07-7.29-6.12-10.93-9.17ZM53.89,49.25c-2.51-.84-4.23-3.15-4.23-5.71,0-3.42,3.14-5.91,6.5-5.15,2.76.63,4.82,2.99,4.89,5.64.11,3.82-3.49,6.44-7.16,5.22Z" fill="#005470" stroke-width="0"/><path d="M52.38,40.64c.27.19.5.46.73.46.21,0,.42-.29.62-.45.02-.02.04-.03.07-.05q.56-.36.95.19c.17.25.35.49.56.78-.17.09-.33.15-.46.25-.37.33-.74.67-1.07,1.03-.07.07-.05.31.02.39.07.08.27.1.39.06.33-.13.65-.3.97-.45.25-.12.49-.26.76-.35.75-.23,1.43-.14,2.02.44.59.58.76,1.3.51,2.04-.16.48-.1.76.31,1.01.1.06.18.16.3.27-.29.35-.58.69-.86,1.02-.28-.19-.53-.5-.78-.49-.25,0-.48.33-.73.51-.71.49-.74.48-1.23-.19-.16-.22-.33-.45-.47-.65.46-.32.92-.6,1.34-.94.19-.15.33-.38.43-.61.15-.34-.07-.6-.43-.53-.23.04-.44.16-.66.27-.33.16-.65.37-.99.5-.71.27-1.41.27-2.01-.27-.62-.55-.81-1.27-.55-2.02.17-.48.04-.74-.33-.97-.09-.06-.15-.14-.25-.23.29-.35.57-.68.87-1.03Z" fill="#c89211" stroke-width="0"/></svg>