<?xml version="1.0" encoding="UTF-8"?><svg id="a" xmlns="http://www.w3.org/2000/svg" xmlns:xlink="http://www.w3.org/1999/xlink" viewBox="0 0 57 57"><defs><clipPath id="b"><path d="M47.8,47.2H9.11V8.5h38.69v38.69Z" fill="none" stroke-width="0"/></clipPath></defs><g clip-path="url(#b)"><path d="M35.87,16.91c.7-.45.98-1.28.62-1.84s-1.23-.65-1.93-.2-.98,1.28-.62,1.84c.36.56,1.23.65,1.93.2Z" fill="#f1f2f2" stroke="#f1f2f2" stroke-miterlimit="10"/><path d="M30.41,10.39c-.11-.32-.84-.34-1.63-.06-.79.28-1.34.77-1.22,1.08.11.32.84.34,1.63.06.79-.28,1.34-.77,1.22-1.08Z" fill="#f1f2f2" stroke="#f1f2f2" stroke-miterlimit="10"/><path d="M20.21,30.61c-.79.28-1.34.77-1.22,1.08s.84.34,1.63.06c.79-.28,1.34-.77,1.22-1.08-.11-.32-.84-.34-1.63-.06Z" fill="#f1f2f2" stroke="#f1f2f2" stroke-miterlimit="10"/><path d="M13.6,40.37c-.26-.62-1.1-.85-1.87-.52-.77.33-1.18,1.09-.92,1.71.26.62,1.1.85,1.87.52.77-.33,1.18-1.09.92-1.71Z" fill="#f1f2f2" stroke="#f1f2f2" stroke-miterlimit="10"/><path d="M25.01,18.09c1-.42,1.62-1.19,1.4-1.7-.22-.51-1.2-.59-2.2-.16-1,.42-1.62,1.19-1.4,1.7.22.51,1.2.59,2.2.16Z" fill="#f1f2f2" stroke="#f1f2f2" stroke-miterlimit="10"/><path d="M12.69,9.57c.77-.33,1.23-.99,1.02-1.48-.21-.49-1-.61-1.77-.29-.77.33-1.23.99-1.02,1.48.21.49,1,.61,1.77.29Z" fill="#f1f2f2" stroke="#f1f2f2" stroke-miterlimit="10"/><path d="M46.68,10.01c.7-.45,1.06-1.15.8-1.56-.26-.41-1.04-.37-1.75.08s-1.06,1.15-.8,1.56c.26.41,1.04.37,1.75-.08Z" fill="#f1f2f2" stroke="#f1f2f2" stroke-miterlimit="10"/><path d="M40.82,23.34c.77-.33,1.23-.99,1.02-1.48-.21-.49-1-.61-1.77-.29-.77.33-1.23.99-1.02,1.48.21.49,1,.61,1.77.29Z" fill="#f1f2f2" stroke="#f1f2f2" stroke-miterlimit="10"/><path d="M25.6,13.19c.35-.18.5-.58.34-.89s-.57-.42-.92-.25c-.35.18-.5.58-.34.89.16.31.57.42.92.25Z" fill="#f1f2f2" stroke="#f1f2f2" stroke-miterlimit="10"/><path d="M11.42,35.25c.11.19.85-.03,1.66-.49.81-.46,1.37-1,1.26-1.19s-.85.03-1.66.49-1.37,1-1.26,1.19Z" fill="#f1f2f2" stroke="#f1f2f2" stroke-miterlimit="10"/><path d="M13.65,27.78c.17.33.63.43,1.03.23s.58-.64.41-.97c-.17-.33-.63-.43-1.03-.23s-.58.64-.41.97Z" fill="#f1f2f2" stroke="#f1f2f2" stroke-miterlimit="10"/><path d="M45.45,19.1c.78-.5,1.28-1.13,1.11-1.39-.17-.27-.94-.07-1.73.43-.78.5-1.28,1.13-1.11,1.39.17.27.94.07,1.73-.43Z" fill="#f1f2f2" stroke="#f1f2f2" stroke-miterlimit="10"/><path d="M47.42,13.83c-.13-.2-.66-.1-1.19.24-.52.34-.84.77-.71.98.13.2.66.1,1.19-.24.52-.34.84-.77.71-.98Z" fill="#f1f2f2" stroke="#f1f2f2" stroke-miterlimit="10"/><path d="M40.68,14.78c.38,0,.69-.31.69-.69s-.31-.69-.69-.69-.69.31-.69.69.31.69.69.69Z" fill="#f1f2f2" stroke="#f1f2f2" stroke-miterlimit="10"/><circle cx="35.12" cy="10.14" r=".86" fill="#f1f2f2" stroke="#f1f2f2" stroke-miterlimit="10"/><ellipse cx="19.45" cy="9.63" rx="1.25" ry=".74" fill="#f1f2f2" stroke="#f1f2f2" stroke-miterlimit="10"/><path d="M13.1,12.19c-.16-.27-.55-.34-.87-.16s-.46.56-.3.83c.16.27.55.35.87.16.32-.19.46-.56.3-.83Z" fill="#f1f2f2" stroke="#f1f2f2" stroke-miterlimit="10"/><path d="M11.59,19.59c.51,0,.93-.38.93-.84s-.41-.84-.93-.84-.93.38-.93.84.41.84.93.84Z" fill="#f1f2f2" stroke="#f1f2f2" stroke-miterlimit="10"/><circle cx="17.36" cy="15.25" r=".64" fill="#f1f2f2" stroke="#f1f2f2" stroke-miterlimit="10"/><path d="M22.39,21.03c-.15-.23-.56-.24-.92,0-.36.23-.53.61-.38.84.15.23.56.24.92,0,.36-.23.53-.61.38-.84Z" fill="#f1f2f2" stroke="#f1f2f2" stroke-miterlimit="10"/><path d="M27.1,27.54c-.46.24-.72.66-.58.94.14.28.64.32,1.1.08s.72-.66.58-.94c-.14-.28-.64-.32-1.1-.08Z" fill="#f1f2f2" stroke="#f1f2f2" stroke-miterlimit="10"/><path d="M13.91,44.86c-.63.36-1.01.88-.85,1.15.16.27.8.2,1.42-.16.63-.36,1.01-.88.85-1.15-.16-.27-.8-.2-1.42.16Z" fill="#f1f2f2" stroke="#f1f2f2" stroke-miterlimit="10"/><path d="M33.22,21.44c.36-.23.49-.67.29-.99-.2-.31-.66-.38-1.02-.15-.36.23-.49.67-.29.99s.66.38,1.02.15Z" fill="#f1f2f2" stroke="#f1f2f2" stroke-miterlimit="10"/><ellipse cx="9.85" cy="25.12" rx="1.21" ry=".61" fill="#f1f2f2" stroke="#f1f2f2" stroke-miterlimit="10"/></g><path d="M47.61,41.29c.06-.52.14-1.04.2-1.56.11-.96.15-1.96-.17-2.89-.25-.74-1.15-1.02-1.73-.46-.61.59-1.38.99-1.74,1.81-.24.56-.24,1.13-.2,1.73,0,.13.02.27.02.4,0,.06,0,.13,0,.19,0,.01,0,.02,0,.04-.03.13-.08.25-.12.38-.31.81-.52,1.73.2,2.41.47.44,1.12.5,1.72.38.2-.04.38-.11.57-.17.05,0,.11.01.17.01.21-.01.41-.08.58-.2.41-.15.73-.53.71-.98-.01-.23-.1-.45-.24-.63,0-.1.02-.2.02-.29,0-.04.01-.13.02-.16Z" fill="#f1f2f2" stroke="#f1f2f2" stroke-miterlimit="10"/><path d="M30.81,30.91c-.04-.09-.07-.17-.11-.26-.09-.16-.22-.29-.39-.38-.23-.11-.47-.2-.72-.27-.25-.07-.51-.1-.76-.12-.14,0-.27.02-.4.09-.13.04-.25.12-.35.22-.1.1-.17.21-.21.34-.06.12-.09.25-.08.39l.03.27c.05.18.14.34.28.48.07.05.14.11.22.16.14.08.28.11.44.13.2.03.39.08.58.15.11.06.22.09.34.1.13.03.27.02.4-.02.14-.03.26-.1.37-.19.12-.07.21-.18.27-.3.03-.08.07-.16.1-.25.05-.18.05-.35,0-.53Z" fill="#f1f2f2" stroke="#f1f2f2" stroke-miterlimit="10"/><path d="M38.91,26.18c-.52-.09-1.06.07-1.53.31-1.17.59-2.08,1.7-2.42,2.97-.12.44-.17.93.03,1.34.23.48.77.75,1.31.78s1.05-.16,1.52-.42c.81-.44,1.53-1.1,1.87-1.96s.27-1.91-.33-2.61" fill="#f1f2f2" stroke-width="0"/><path d="M39.46,24.19c-.67-.09-1.17-.11-1.83.02-.46.09-.91.3-1.32.51-.61.31-1.19.76-1.66,1.26s-.89,1.06-1.18,1.67c-.37.79-.68,1.64-.66,2.52.02,1.21.62,2.26,1.63,2.91.89.57,1.97.63,2.97.42.71-.15,1.44-.51,2.02-.94.71-.52,1.3-1.07,1.77-1.82s.77-1.76.75-2.67c-.01-.45-.07-.92-.21-1.34-.22-.65-.49-1.08-.92-1.61-.31-.39-.98-.6-1.46-.6-.51,0-1.11.22-1.46.6s-.63.91-.6,1.46c.03.58.24,1.01.6,1.46l.05.06-.32-.42c.11.15.21.31.28.48l-.21-.49c.08.2.14.41.17.62l-.07-.55c.03.24.03.49,0,.73l.07-.55c-.04.27-.11.53-.22.79l.21-.49c-.12.25-.26.49-.43.71l.32-.42c-.21.26-.45.5-.71.71l.42-.32c-.35.27-.72.49-1.13.66l.49-.21c-.23.09-.47.16-.72.2l.55-.07c-.18.02-.35.02-.52,0l.55.07c-.15-.02-.3-.06-.44-.12l.49.21c-.12-.05-.22-.11-.33-.19l.42.32c-.1-.08-.19-.16-.27-.26l.32.42c-.06-.09-.11-.18-.15-.28l.21.49c-.04-.12-.07-.23-.09-.35l.07.55c-.02-.19-.01-.36.01-.55l-.07.55c.06-.33.16-.66.29-.97l-.21.49c.16-.37.37-.71.61-1.04l-.32.42c.25-.32.53-.6.85-.85l-.42.32c.31-.24.64-.43,1-.59l-.49.21c.23-.09.47-.16.72-.2l-.55.07c.16-.02.31-.02.46,0l-.55-.07h.09c.58.09,1.07.11,1.59-.2.43-.25.84-.74.95-1.23.12-.53.09-1.12-.21-1.59-.27-.42-.72-.88-1.23-.95h0Z" fill="#f1f2f2" stroke-width="0"/><path d="M35.56,36.93c-.99-.3-2.14-.05-2.91.64-.38.34-.69.86-.54,1.34.07.23.24.43.42.58.56.47,1.31.66,2.03.64s1.43-.25,2.1-.55c.57-.26,1.12-.57,1.57-1.01.23-.22.44-.58.26-.84-.08-.13-.23-.2-.37-.25-.38-.15-.77-.27-1.17-.35" fill="#f1f2f2" stroke-width="0"/><path d="M36.11,34.94c-1.39-.39-3.04-.19-4.23.64-.8.56-1.42,1.25-1.73,2.19-.35,1.07.01,2.25.78,3.04,2.34,2.4,6.36,1.34,8.61-.62,1.12-.98,1.53-2.75.42-3.91-.62-.65-1.59-.95-2.46-1.13-.54-.11-1.1-.08-1.59.21-.43.25-.84.74-.95,1.23-.24,1.03.31,2.3,1.44,2.54.43.09.85.21,1.26.38l-.49-.21c.06.02.11.05.16.09l-.42-.32c.05.03.09.08.13.13l-.32-.42.04.08-.21-.49.02.09-.07-.55v.09c.03-.18.05-.37.08-.55,0,.06-.02.12-.04.18l.21-.49c-.04.09-.09.17-.15.26l.32-.42c-.14.16-.3.3-.46.44l.42-.32c-.45.34-.94.59-1.45.81l.49-.21c-.46.19-.93.34-1.43.42l.55-.07c-.36.05-.72.05-1.08,0l.55.07c-.28-.04-.54-.12-.8-.23l.49.21c-.19-.09-.36-.19-.53-.31l.42.32c-.11-.09-.21-.18-.3-.29l.32.42c-.07-.09-.12-.17-.16-.26l.21.49c-.04-.1-.06-.18-.07-.28l.07.55c0-.06,0-.12,0-.18l-.07.55c.02-.13.05-.24.1-.36l-.21.49c.06-.12.12-.23.2-.33l-.32.42c.12-.15.26-.29.42-.41l-.42.32c.21-.16.43-.29.67-.39l-.49.21c.27-.11.55-.19.84-.23l-.55.07c.26-.03.52-.03.78,0l-.55-.07c.16.02.32.06.48.1,1.04.29,2.29-.36,2.54-1.44.25-1.1-.33-2.22-1.44-2.54h0Z" fill="#f1f2f2" stroke-width="0"/><path d="M45.21,26.99c-.82.28-1.54.91-1.77,1.74s.11,1.83.88,2.21c.57.28,1.28.2,1.83-.12s.96-.85,1.23-1.42c.29-.6.44-1.3.21-1.92-.24-.62-.97-1.07-1.58-.82" fill="#f1f2f2" stroke-width="0"/><path d="M45.08,26.49c-.97.34-1.82,1.06-2.13,2.07-.27.91.02,2,.77,2.59.92.73,2.2.54,3.08-.16.82-.66,1.43-1.82,1.42-2.88,0-.61-.24-1.22-.72-1.61-.45-.37-1.06-.56-1.63-.35-.26.1-.44.35-.36.63.07.25.37.46.63.36.13-.05.23-.06.31-.05.15.03.25.08.37.17.11.08.18.17.25.3.06.1.11.3.12.47.03.74-.38,1.54-.91,2.04-.49.46-1.24.7-1.84.32-.07-.04-.19-.15-.27-.26-.03-.04-.15-.26-.17-.32-.03-.07-.05-.15-.07-.22s-.03-.16-.03-.18c-.01-.17,0-.33.01-.44.15-.73.77-1.28,1.45-1.52.26-.09.44-.35.36-.63-.07-.25-.37-.45-.63-.36h0Z" fill="#f1f2f2" stroke-width="0"/><path d="M43.52,33.56c-.97-.41-2.22-.01-2.77.89-.07.11-.12.22-.13.35-.04.41.39.7.77.84.61.23,1.27.34,1.9.22s1.24-.51,1.53-1.08c.1-.19.16-.41.13-.62-.03-.28-.2-.52-.4-.71-.55-.53-1.37-.76-2.11-.59-.07.02-.16.09-.11.14" fill="#f1f2f2" stroke-width="0"/><path d="M43.66,33.06c-.87-.35-1.92-.17-2.66.38-.42.32-.86.8-.89,1.36s.4.99.86,1.22c1.02.49,2.31.59,3.32.02.47-.27.86-.68,1.07-1.19.24-.6.09-1.19-.33-1.67-.4-.45-.99-.75-1.57-.84-.55-.09-1.86-.11-1.61.8.18.64,1.17.37.99-.27v-.04c-.03.13-.05.26-.06.4l.02-.04-.18.18s.02-.01.04-.02c.13-.03.08-.01.06-.01.09-.01.18-.01.27-.01.16,0,.3.02.46.07.3.08.58.24.81.47s.26.44.11.71-.39.47-.67.62c-.64.33-1.45.21-2.11-.03-.08-.03-.24-.11-.34-.19.03.03-.11-.12-.06-.06,0,0-.06-.08-.02-.02-.02-.03,0-.08-.01-.02.07-.23.29-.46.46-.58.27-.2.56-.31.86-.36.32-.05.61,0,.94.13.26.11.57-.11.63-.36.08-.3-.1-.53-.36-.63h0Z" fill="#f1f2f2" stroke-width="0"/><path d="M28.42,44.3c1.05-.88,2.74-.89,3.8-.03.29.23.54.54.6.91.05.33-.06.66-.19.96-.39.92-1.03,1.8-1.98,2.11-.66.21-1.39.11-2.06-.07-.56-.15-1.14-.38-1.46-.86-.31-.46-.31-1.08-.17-1.62.22-.85.86-1.68,1.74-1.76" fill="#f1f2f2" stroke-width="0"/><path d="M28.79,44.67c.67-.54,1.62-.64,2.43-.37.38.13.79.38,1.01.72.25.41-.04.93-.24,1.31-.45.84-1.13,1.54-2.14,1.54-.53,0-1.08-.12-1.57-.31-.41-.16-.76-.41-.86-.86-.18-.8.36-2.11,1.28-2.22.28-.03.52-.21.52-.52,0-.25-.24-.55-.52-.52-1.39.16-2.25,1.46-2.34,2.78-.05.7.2,1.4.76,1.84s1.27.65,1.96.76c.74.12,1.48.09,2.16-.25.6-.3,1.08-.82,1.43-1.38s.73-1.28.68-1.96c-.06-.73-.6-1.29-1.2-1.64-1.29-.75-2.94-.58-4.08.35-.22.18-.18.55,0,.73.21.21.51.18.73,0h0Z" fill="#f1f2f2" stroke-width="0"/><path d="M40.38,43.06c-.93.04-1.87.22-2.69.65s-1.53,1.14-1.84,2.01c-.15.43-.21.92-.03,1.34.17.4.55.7.96.84s.87.14,1.3.07c1.74-.3,3.18-1.87,3.32-3.63.02-.18.02-.37-.04-.55-.19-.55-.87-.7-1.36-1" fill="#f1f2f2" stroke-width="0"/><path d="M40.38,42.55c-1.43.07-2.88.44-3.96,1.43-.91.84-1.72,2.43-.91,3.6s2.52,1.11,3.73.57c1.1-.5,1.97-1.47,2.41-2.59.24-.62.43-1.45.13-2.08s-.98-.8-1.52-1.12c-.57-.34-1.09.55-.52.89.32.19.85.32,1.08.63.2.28.03.82-.06,1.11-.25.82-.82,1.55-1.55,2.01s-1.89.81-2.63.23c-.81-.63-.09-1.85.46-2.4.88-.88,2.14-1.19,3.35-1.25.66-.03.66-1.06,0-1.03h0Z" fill="#f1f2f2" stroke-width="0"/><path d="M44.43,45.21c-.65.11-1.26.46-1.7.95-.18.21-.34.45-.39.72s0,.57.21.76c.15.14.37.21.57.25.38.09.77.14,1.16.17.3.02.62.02.88-.13.24-.13.41-.37.56-.6.24-.39.45-.81.62-1.23.07-.18.14-.4.03-.56-.09-.15-.27-.2-.44-.24-.45-.1-.9-.18-1.35-.24" fill="#f1f2f2" stroke-width="0"/><path d="M44.3,44.72c-.82.15-1.58.62-2.08,1.28-.29.38-.45.83-.38,1.31s.4.82.85.99.91.22,1.36.26c.47.05.98.05,1.4-.2.38-.23.63-.62.85-.99.23-.39.46-.83.59-1.26.18-.59-.11-1.11-.7-1.28-.52-.15-1.07-.22-1.6-.29-.28-.04-.52.26-.52.52,0,.31.24.48.52.52.33.04.66.1.99.17.12.03.29.07.38.09-.03,0,.04.02.04.03,0-.01-.07-.1-.08-.11-.04-.05.02-.07-.01.02,0,.02-.02.07-.03.09-.1.29-.24.56-.39.83-.14.25-.28.55-.49.73-.18.15-.45.14-.69.13-.34-.02-.68-.07-1.02-.14-.12-.03-.24-.05-.33-.1s-.1-.07-.12-.15c-.02-.09-.01-.13.01-.23s.09-.21.15-.3c.37-.51.95-.8,1.55-.92.27-.05.43-.38.36-.63-.08-.29-.36-.41-.63-.36h0Z" fill="#f1f2f2" stroke-width="0"/><path d="M26.12,37.51c-.64-.08-1.31.08-1.83.46-.27.2-.52.47-.56.8-.03.24.04.48.12.71.11.31.23.62.36.92.07.17.15.33.28.46.17.16.4.24.62.29.53.13,1.08.2,1.61.08s1.03-.46,1.24-.96c.16-.36.15-.76.12-1.15-.07-.73-.25-1.45-.43-2.16-.02-.09-.05-.19-.11-.26-.07-.08-.18-.11-.28-.13-1.13-.24-2.39.33-2.95,1.34" fill="#f1f2f2" stroke-width="0"/><path d="M26.12,36.99c-1.24-.14-3.12.65-2.89,2.16.05.31.16.6.28.9.13.35.26.73.49,1.03.42.56,1.23.69,1.88.74s1.32-.08,1.85-.46c.56-.4.85-.98.89-1.67s-.12-1.41-.27-2.08c-.08-.33-.13-.72-.28-1.03s-.46-.46-.79-.51c-1.33-.22-2.73.42-3.4,1.6-.33.58.56,1.1.89.52.37-.65,1.08-1.09,1.81-1.13.18-.01.36,0,.52.03.02,0,.16.04.16.04-.01.02-.08-.11-.11-.07-.03.05.09.35.1.41.13.52.26,1.05.32,1.59.04.4.08.87-.17,1.22-.22.3-.61.47-.97.51-.45.06-1.02,0-1.44-.19-.16-.07-.22-.21-.3-.37-.12-.26-.22-.52-.31-.79-.07-.2-.19-.45-.12-.66.06-.18.24-.32.39-.42.45-.29.95-.39,1.47-.33.28.03.52-.26.52-.52,0-.31-.24-.48-.52-.52h0Z" fill="#f1f2f2" stroke-width="0"/><path d="M21.05,43.9c.6-.02,1.19.45,1.29,1.05.09.51-.16,1.04-.57,1.35s-.95.41-1.46.33c-.61-.1-1.24-.6-1.18-1.22.23.03.46.09.67.19" fill="#f1f2f2" stroke-width="0"/><path d="M21.05,45.96c.06,0,.12,0,.18,0l-.55-.07c.12.02.23.05.35.1l-.49-.21c.1.04.19.1.27.16l-.42-.32c.1.08.18.16.26.25l-.32-.42c.06.09.12.17.16.27l-.21-.49c.04.1.07.2.08.31l-.07-.55c.01.11.01.22,0,.33l.07-.55c-.02.13-.05.25-.1.37l.21-.49c-.05.12-.12.23-.2.33l.32-.42c-.08.1-.17.19-.27.27l.42-.32c-.11.08-.23.15-.35.2l.49-.21c-.16.07-.32.11-.49.13l.55-.07c-.19.02-.38.02-.56,0l.55.07c-.14-.02-.27-.06-.4-.11l.49.21c-.14-.06-.27-.13-.39-.23l.42.32c-.08-.07-.15-.14-.22-.22l.32.42c-.06-.08-.11-.16-.15-.26l.21.49c-.03-.07-.04-.13-.06-.2l.07.55c0-.07-.01-.14,0-.22l-2.61,1.99c.19.03.38.08.56.15l-.49-.21s.07.03.11.05c.24.15.49.23.77.24.27.06.55.05.82-.04.48-.13,1-.5,1.23-.95.25-.48.38-1.06.21-1.59-.16-.48-.47-1.01-.95-1.23-.38-.17-.75-.35-1.16-.4-.37-.1-.73-.1-1.1,0-.27.06-.5.19-.7.37-.22.15-.4.34-.53.58-.19.32-.28.67-.28,1.04-.02.28.03.58.09.85.03.13.09.25.14.37.06.13.1.27.18.4.3.48.69.85,1.17,1.15.23.15.5.25.76.34.12.05.24.08.37.1.29.05.59.1.88.1s.61-.05.91-.11c.14-.03.26-.07.39-.12.27-.11.56-.21.8-.38.48-.33.88-.71,1.17-1.22s.44-1.08.47-1.68c.01-.28-.04-.58-.1-.85s-.19-.55-.31-.79c-.27-.52-.74-.96-1.23-1.26s-1.14-.48-1.73-.47c-.53,0-1.08.22-1.46.6-.36.36-.63.94-.6,1.46s.2,1.09.6,1.46.9.61,1.46.6h0Z" fill="#f1f2f2" stroke-width="0"/><path d="M19.81,44.44l.55.31" fill="#f1f2f2" stroke-width="0"/><path d="M18.77,46.22l.55.31c.24.15.49.23.77.24.27.06.55.05.82-.04.27-.06.5-.19.7-.37.22-.15.4-.34.53-.58l.21-.49c.1-.37.1-.73,0-1.1l-.21-.49c-.18-.31-.43-.56-.74-.74l-.55-.31c-.24-.15-.49-.23-.77-.24-.27-.06-.55-.05-.82.04-.27.06-.5.19-.7.37-.22.15-.4.34-.53.58l-.21.49c-.1.37-.1.73,0,1.1l.21.49c.18.31.43.56.74.74h0Z" fill="#f1f2f2" stroke-width="0"/><path d="M42.56,21.43c-.29-.04-.59-.06-.86.05s-.49.39-.44.67c.04.28.3.47.55.62.53.31,1.1.55,1.7.73.53.16,1.19.23,1.57-.18.44-.47.17-1.3-.37-1.65s-1.24-.33-1.88-.27c-.27.03-.63.19-.54.45" fill="#f1f2f2" stroke-width="0"/><path d="M42.7,20.93c-.56-.08-1.15-.08-1.59.33-.4.38-.49.98-.17,1.43.29.4.78.63,1.22.84s.92.4,1.4.51c.42.1.9.15,1.32,0,.45-.16.81-.52.91-.99.2-.96-.5-1.81-1.39-2.08-.5-.15-1.05-.14-1.57-.08-.57.06-1.21.43-1.03,1.1.07.27.37.43.63.36s.43-.36.36-.63c0,.03-.07.31-.1.27,0,0,.09-.05.08-.05,0,0-.07.02-.01,0,.03-.01.06-.02.09-.03.08-.02-.09,0,.01,0,.08,0,.17-.01.25-.02.31-.02.62-.02.89.04.16.04.27.08.39.15.02.01.05.03.07.05.07.04-.05-.05.01,0,.06.05.11.1.15.16-.05-.06.03.06.05.08.01.02.07.15.04.08.02.06.04.12.06.19,0,.02.01.1,0,0,0,.04,0,.08,0,.12,0,.02,0,.05,0,.07,0-.1,0-.02,0,0,0,.03-.02.06-.03.09,0-.02.02-.09,0,0,0,.01-.06.08,0,.01-.01.02-.03.04-.05.05,0,0-.09.07-.05.04.04-.03-.07.04-.08.04.07-.04-.07.02-.09.03-.01,0-.12.02-.06.01s-.05,0-.06,0c-.06,0-.13,0-.19,0-.04,0-.07,0-.11,0,.07,0-.03,0-.06,0-.64-.12-1.27-.39-1.83-.71-.16-.09-.26-.14-.36-.25-.04-.05,0,0,0,0-.03-.05-.03-.06-.02-.03,0,.03,0,.02-.01-.04,0,.05,0,0,0,0,0-.04,0-.04,0,0v.02s.02-.07.04-.09c-.04.05.06-.04.02-.01.02-.02.09-.05.14-.06.14-.03.32-.03.46,0,.28.04.55-.07.63-.36.07-.24-.08-.6-.36-.63h0Z" fill="#f1f2f2" stroke-width="0"/><path d="M28.59,34.18c-.11.1-.11.29-.02.41s.22.2.37.25c.8.29,1.79-.11,2.17-.88-.78-.13-1.6-.03-2.33.27" fill="#f1f2f2" stroke-width="0"/><path d="M28.23,33.82c-.43.46-.21,1.14.31,1.42.35.18.76.25,1.15.21.77-.08,1.51-.51,1.87-1.22.13-.27.04-.7-.31-.76-.88-.14-1.78-.07-2.61.27-.13.05-.23.11-.31.24-.06.11-.09.27-.05.4.08.24.37.47.63.36.18-.07.36-.13.54-.18.1-.03.19-.05.29-.07.04,0,.09-.02.14-.02.11-.02-.08,0,.04,0,.18-.02.36-.03.55-.03.09,0,.18,0,.27.01.05,0,.11.01.16.02.04,0,.03,0-.02,0,.03,0,.06,0,.09.01l-.31-.76c-.03.06-.06.11-.09.16,0,.01-.03.07-.05.07.04-.05.05-.07.03-.04-.01.01-.02.03-.03.04-.04.04-.08.08-.12.12-.03.02-.05.05-.08.07-.07.06.06-.04,0,0-.1.07-.2.13-.31.18s.11-.04,0,0c-.03,0-.05.02-.08.03-.06.02-.12.04-.18.05-.03,0-.06.01-.08.02-.08.01-.03,0,.02,0-.06,0-.13.01-.19.01s-.13-.02-.19,0c.05,0,.1.02.02,0-.03,0-.06-.01-.08-.02-.06-.02-.12-.04-.18-.06-.06-.02.08.05,0,0,0,0-.1-.06-.1-.06l.05.03s-.03-.04,0,0c.02.03.02.03,0,0l.03.06c-.04-.1,0,.11,0,0,0,.07-.02.13-.07.18.18-.2.21-.54,0-.73s-.53-.21-.73,0h0Z" fill="#f1f2f2" stroke-width="0"/><path d="M20.34,37.22c-1.27.53-2.49,1.2-3.62,1.98-.69.47-1.36,1.01-1.79,1.73-.08.13-.15.28-.16.43-.01.26.17.51.4.64s.51.14.77.12c.54-.05,1.04-.27,1.53-.51,1.08-.53,2.11-1.19,3.04-1.96.39-.32.78-.68.96-1.15s.09-1.09-.34-1.36c-.46-.29-1.17,0-1.29.52" fill="#f1f2f2" stroke-width="0"/><path d="M20.08,36.77c-1.43.61-2.82,1.36-4.07,2.3-.89.67-2.74,2.44-1.09,3.37.68.38,1.56.16,2.23-.12.72-.3,1.41-.68,2.07-1.1s1.26-.86,1.84-1.35c.52-.45.97-1.02,1.03-1.73s-.35-1.48-1.1-1.62-1.42.3-1.63.99c-.19.64.81.91.99.27.07-.22.38-.36.57-.19.29.26.1.75-.08,1.01-.29.42-.75.74-1.15,1.04-.45.34-.92.65-1.41.94s-.96.55-1.47.76c-.35.15-1.09.45-1.44.17-.29-.24.41-.9.59-1.07.37-.36.78-.66,1.21-.94,1.08-.72,2.22-1.34,3.42-1.84.26-.11.31-.49.18-.71-.15-.27-.45-.29-.71-.18h0Z" fill="#f1f2f2" stroke-width="0"/><path d="M28.8,31c-.47.62-.42,1.47-.35,2.25.04.42.12.92.5,1.11.2.1.44.09.67.07.49-.03.99-.07,1.43-.29s.79-.68.73-1.17c-.04-.32-.25-.6-.47-.84-.41-.45-.88-.83-1.38-1.18" fill="#f1f2f2" stroke-width="0"/><path d="M28.36,30.74c-.46.64-.5,1.47-.44,2.23s.15,1.62.96,1.91c.38.14.82.07,1.21.03.44-.05.88-.13,1.27-.35.69-.39,1.15-1.22.85-2-.18-.46-.53-.82-.88-1.15s-.74-.62-1.13-.9c-.23-.16-.57-.04-.71.18-.15.26-.04.54.18.71.5.35,1.02.75,1.41,1.25.02.02.05.07.09.13.02.03.04.07.06.1.03.05,0,.02,0,0,.01.04.02.07.03.11.03.11,0,.05,0,.03,0,.03,0,.07,0,.1,0,.09,0-.02,0,.03,0,.02-.06.16-.02.09-.03.06-.06.12-.1.17.04-.06-.07.08-.08.09-.02.02-.15.12-.09.08-.24.16-.5.23-.81.28-.07.01-.27.03-.38.04-.16.01-.31.02-.47.02-.09,0,.06.02-.03,0,0,0-.12-.03-.07-.02,0,0-.1-.08-.04-.02-.02-.02-.04-.04-.06-.06.06.07.01.01,0,0-.01-.03-.03-.05-.04-.08.03.07,0,0,0-.03-.04-.12-.06-.24-.08-.36.01.1,0-.08,0-.1,0-.07-.01-.15-.02-.22-.03-.34-.04-.68,0-1.01,0,.07.02-.11.03-.13.02-.08.04-.16.06-.24,0,0,.04-.11.02-.06-.02.04.04-.07.04-.09.04-.08.09-.16.15-.23.16-.23.04-.57-.18-.71-.26-.15-.54-.04-.71.18h0Z" fill="#f1f2f2" stroke-width="0"/><path d="M13.17,43.9c-.69.25-1.38.54-1.96,1s-1.02,1.13-1.05,1.87.43,1.51,1.14,1.69c.85.21,1.65-.41,2.3-.99.4-.36.8-.72,1.06-1.19s.38-1.04.17-1.53-.81-.82-1.3-.63" fill="#f1f2f2" stroke-width="0"/><path d="M13.03,43.41c-1.1.41-2.18.9-2.87,1.88-.64.9-.7,2.12,0,3,.34.42.83.68,1.36.72.57.04,1.13-.19,1.6-.51s.91-.71,1.31-1.11.77-.9.93-1.47c.17-.62.09-1.31-.34-1.81-.39-.45-1.05-.69-1.63-.49-.26.09-.44.35-.36.63.07.26.37.45.63.36.22-.08.46-.01.63.22.19.26.14.63.05.92-.13.38-.41.69-.69.96s-.59.57-.92.8c-.55.4-1.29.72-1.78.12-.43-.52-.31-1.22.05-1.77.52-.78,1.45-1.16,2.3-1.47.26-.1.44-.35.36-.63-.07-.25-.37-.46-.63-.36h0Z" fill="#f1f2f2" stroke-width="0"/><path d="M24.14,33.02c-.5.06-1.02.12-1.43.43s-.61.92-.3,1.32c.21.27.59.35.93.38.44.03.9.01,1.29-.2s.68-.64.62-1.08-.58-.78-.97-.59" fill="#f1f2f2" stroke-width="0"/><path d="M24.14,32.39c-.73.08-1.57.2-2.07.81-.25.31-.42.68-.43,1.09,0,.38.15.78.45,1.03.33.28.72.38,1.14.43.37.04.76.03,1.13-.05.81-.17,1.5-.82,1.55-1.68.03-.48-.23-.92-.62-1.2s-.87-.29-1.3-.1c-.3.13-.39.59-.22.86.2.31.53.37.86.22-.15.07-.09.04-.05.03.1-.03-.05.01-.06,0,0,0,.07,0,.07,0-.01,0-.16-.04-.06,0,0,0,.07.02.07.02-.01,0-.14-.07-.05-.02.02,0,.03.02.05.03.1.05-.02.01-.02-.02,0,0,.1.1.1.1-.06-.01-.07-.11-.03-.04,0,0,.03.06.04.06-.01,0-.04-.15-.02-.05,0,0,.02.07.02.07,0,0,0-.14,0-.07,0,.03,0,.07,0,.11,0,.11,0-.03,0-.04,0,0-.02.07-.02.08,0,0-.02.08-.03.08s.08-.14.01-.03c-.02.04-.08.1-.09.14,0-.02.09-.1.02-.03-.02.02-.04.04-.06.06,0,0-.05.06-.06.06.03,0,.09-.06.02-.02-.05.03-.1.06-.15.09-.04.02-.08.06.02,0-.02.01-.07.03-.09.03-.07.02-.14.04-.21.05,0,0-.07.02-.07.01.01.01.12-.01.02,0-.07,0-.13.01-.2.01-.14,0-.28,0-.42-.01-.03,0-.06,0-.08,0-.07,0,.06,0,.06,0-.05-.02-.11-.02-.17-.03-.03,0-.13-.05-.16-.05.02,0,.13.07.04.01-.03-.02-.06-.04-.09-.05-.07-.03.09.08.03.03-.01-.01-.03-.03-.04-.04-.09-.07.03.02.02.03,0,0-.03-.05-.04-.06-.06-.08.02.03.02.05,0,0-.02-.06-.02-.07-.02-.06.03-.06,0,.06,0-.03,0-.06,0-.09,0-.02,0-.05,0-.07,0-.08-.04.13,0,.06.02-.04.02-.09.03-.13.03-.1-.01.03-.02.04.01-.02.02-.05.03-.07.01-.02.02-.04.04-.07.01-.02.09-.1.02-.03s0,0,.01-.01c.02-.02.04-.05.07-.07,0,0,.06-.05.06-.05,0,0-.12.09,0,0,.06-.04.12-.07.18-.1.05-.03.04-.05-.02,0,.02-.02.08-.03.11-.04.14-.04.27-.07.41-.1.03,0,.06-.01.09-.02.08-.01.08-.01,0,0,.08-.01.16-.02.24-.03.32-.04.64-.26.62-.62-.01-.31-.28-.66-.62-.62h0Z" fill="#f1f2f2" stroke-width="0"/><path d="M32.05,26.37c-.36.04-.68.31-.77.66" fill="#f1f2f2" stroke-width="0"/><path d="M32.05,25.75c-.1.01-.2.02-.3.05s-.19.07-.27.11c-.13.06-.25.15-.35.24s-.2.21-.27.33c-.03.04-.05.08-.07.13-.04.09-.08.18-.11.27-.04.16-.02.34.06.48.04.07.09.13.16.18.06.06.13.09.21.11.16.04.34.03.48-.06s.25-.21.29-.37c.01-.04.02-.08.04-.11l-.06.15c.03-.07.07-.14.12-.2l-.1.13c.05-.06.11-.12.17-.17l-.13.1c.06-.05.13-.09.2-.12l-.15.06c.07-.03.14-.05.22-.06l-.17.02s.01,0,.02,0c.09,0,.17-.01.24-.05.08-.03.14-.07.2-.13.06-.06.1-.12.13-.2.04-.07.06-.15.05-.24,0-.16-.06-.33-.18-.44l-.13-.1c-.1-.06-.2-.08-.32-.09h0Z" fill="#f1f2f2" stroke-width="0"/><path d="M31.79,27.66c.8,0,.81-1.25,0-1.25s-.81,1.25,0,1.25h0Z" fill="#f1f2f2" stroke-width="0"/><path d="M21.69,24.96c-.3.02-.58.24-.66.53.51.27,1.19.17,1.59-.24" fill="#f1f2f2" stroke-width="0"/><path d="M21.69,24.33c-.13.01-.26.03-.38.07-.18.07-.31.14-.46.27-.2.16-.34.4-.42.65-.04.13-.02.28.03.41s.14.24.26.3c.76.4,1.74.28,2.35-.34.23-.23.25-.65,0-.88s-.64-.25-.88,0c-.04.04-.09.08-.14.12l.13-.1c-.09.07-.19.12-.29.17l.15-.06c-.11.05-.23.08-.35.09l.17-.02c-.13.02-.26.02-.38,0l.17.02c-.11-.02-.22-.05-.33-.09l.15.06s-.07-.03-.1-.05l.29.71s.01-.04.02-.06l-.06.15c.03-.06.06-.12.1-.17l-.1.13c.04-.05.09-.1.14-.14l-.13.1c.06-.04.11-.07.18-.1l-.15.06c.06-.02.11-.04.17-.05l-.17.02s.03,0,.04,0c.17-.02.32-.06.44-.18.11-.11.19-.29.18-.44s-.06-.33-.18-.44c-.12-.11-.28-.2-.44-.18h0Z" fill="#f1f2f2" stroke-width="0"/><path d="M27.52,22.61l-.91-.13" fill="#f1f2f2" stroke-width="0"/><path d="M27.69,22.01l-.91-.13c-.08-.03-.17-.03-.25-.01-.08,0-.16.03-.23.07-.13.08-.25.22-.29.37-.04.16-.03.34.06.48l.1.13c.08.08.17.13.28.16l.91.13c.08.03.17.03.25.01.08,0,.16-.03.23-.07.13-.08.25-.22.29-.37.04-.16.03-.34-.06-.48l-.1-.13c-.08-.08-.17-.13-.28-.16h0Z" fill="#f1f2f2" stroke-width="0"/><path d="M28.55,17.7c-.29.22-.06.73.29.82s.71-.1,1.02-.27c-.02-.13-.14-.25-.27-.27" fill="#f1f2f2" stroke-width="0"/><path d="M28.11,17.26s-.04.04-.06.06c-.05.06-.1.12-.14.19-.07.15-.11.28-.12.45,0,.08.01.16.03.24,0,.03.01.06.02.09.03.1.08.21.14.3s.13.19.21.26c.14.12.25.18.42.25.12.05.26.06.39.07.14,0,.29-.02.43-.05.26-.06.51-.2.75-.33.12-.07.2-.18.26-.3.06-.14.06-.26.03-.41-.03-.16-.13-.34-.25-.45-.06-.06-.13-.11-.2-.15-.08-.04-.17-.08-.25-.1-.17-.03-.33-.03-.48.06-.13.08-.25.22-.29.37-.04.16-.03.34.06.48.08.13.22.26.37.29.02,0,.05.01.07.02l-.15-.06s.05.03.08.05l-.13-.1s.04.03.05.05l-.1-.13s.03.05.05.08l-.06-.15s.02.05.02.07l.29-.71c-.12.07-.24.13-.36.18l.15-.06c-.12.05-.23.09-.36.1l.17-.02c-.08,0-.15,0-.23,0l.17.02s-.09-.02-.14-.04l.15.06s-.08-.04-.12-.07l.13.1s-.08-.07-.11-.11l.1.13s-.06-.09-.08-.14l.06.15s-.03-.09-.04-.14l.02.17s0-.07,0-.11l-.02.17s.01-.06.02-.09l-.06.15s.03-.05.04-.07l-.1.13s.04-.04.06-.06c.12-.09.18-.3.18-.44,0-.15-.07-.34-.18-.44s-.28-.19-.44-.18l-.17.02c-.11.03-.2.08-.28.16h0Z" fill="#f1f2f2" stroke-width="0"/><path d="M17.8,21.22c-.38-.12-.83.19-.85.59.21.11.49,0,.57-.23" fill="#f1f2f2" stroke-width="0"/><path d="M17.96,20.62c-.21-.06-.42-.06-.62-.01-.1.02-.19.06-.29.11-.05.02-.09.05-.13.08-.17.12-.31.25-.42.43s-.16.38-.17.59.12.45.31.54c.16.08.29.12.48.13.11,0,.24-.01.35-.06.16-.06.29-.13.42-.25.06-.06.11-.12.15-.19.05-.07.08-.15.1-.23.03-.08.03-.17.01-.25,0-.08-.03-.16-.07-.23-.04-.07-.09-.13-.16-.18-.06-.06-.13-.09-.21-.11-.16-.04-.34-.03-.48.06l-.13.1c-.08.08-.13.17-.16.28,0,0,0,.01,0,.02l.06-.15s-.03.06-.05.08l.1-.13s-.04.05-.07.07l.13-.1s-.07.04-.1.06l.15-.06s-.07.03-.11.03l.17-.02s-.07,0-.11,0l.17.02s-.07-.01-.1-.03l.15.06s-.01,0-.02,0l.31.54s0-.03,0-.04l-.02.17c0-.05.02-.1.04-.15l-.06.15c.02-.05.05-.1.08-.14l-.1.13s.08-.09.13-.13l-.13.1c.05-.04.1-.07.16-.09l-.15.06c.06-.02.12-.04.18-.05l-.17.02c.05,0,.1,0,.15,0l-.17-.02s.06.01.1.02c.08.03.17.03.25.01.08,0,.16-.03.23-.07.07-.04.13-.09.18-.16.06-.06.09-.13.11-.21.04-.16.03-.34-.06-.48s-.21-.24-.37-.29h0Z" fill="#f1f2f2" stroke-width="0"/><path d="M10.55,31.43c-.33-.13-.69-.17-1.04-.11" fill="#f1f2f2" stroke-width="0"/><path d="M10.72,30.82c-.22-.09-.44-.13-.68-.15s-.46,0-.69.04c-.08.02-.15.06-.21.11-.07.04-.12.1-.16.18-.08.13-.11.33-.06.48s.14.3.29.37l.15.06c.11.03.22.03.33,0,.02,0,.05,0,.07-.01l-.17.02c.17-.02.33-.02.5,0l-.17-.02c.16.02.32.06.47.12.08.03.17.03.25.01.08,0,.16-.03.23-.07.13-.08.25-.22.29-.37.04-.16.03-.34-.06-.48l-.1-.13c-.08-.08-.17-.13-.28-.16h0Z" fill="#f1f2f2" stroke-width="0"/></svg>