<?xml version="1.0" encoding="UTF-8"?><svg id="Layer_1" xmlns="http://www.w3.org/2000/svg" viewBox="0 0 464.14 69.85"><defs><style>.cls-1{fill:#c89211;}.cls-1,.cls-2{stroke-width:0px;}.cls-2{fill:#005470;}</style></defs><path class="cls-2" d="M12.98,51.32v4.74h-1.61v-10.59h2.4c.7,0,1.25.05,1.64.14.39.09.72.24.99.46.33.26.58.59.76.99.18.4.27.85.27,1.33,0,.85-.2,1.51-.61,1.99-.41.48-1.02.77-1.82.86l3.65,4.82h-1.95l-3.52-4.74h-.19ZM13.08,49.98h.31c.91,0,1.52-.11,1.81-.32.3-.21.45-.59.45-1.13,0-.58-.16-.99-.48-1.23s-.91-.36-1.78-.36h-.31v3.04Z"/><path class="cls-2" d="M21.45,56.05v-10.59h1.72v10.59h-1.72Z"/><path class="cls-2" d="M33.27,50.63h4.19c0,.07,0,.17,0,.3.01.34.02.57.02.69,0,1.49-.43,2.65-1.28,3.47-.85.82-2.06,1.24-3.61,1.24-.87,0-1.64-.13-2.32-.38-.68-.26-1.27-.64-1.79-1.16-.5-.51-.89-1.11-1.15-1.8s-.4-1.43-.4-2.21.14-1.54.41-2.21.68-1.27,1.21-1.79c.52-.51,1.12-.89,1.81-1.16s1.44-.4,2.23-.4c.83,0,1.58.15,2.24.46.66.3,1.24.77,1.76,1.4l-1.26.95c-.36-.41-.76-.72-1.21-.93-.45-.2-.95-.3-1.5-.3-1.15,0-2.08.37-2.81,1.1-.73.74-1.09,1.69-1.09,2.87s.36,2.17,1.09,2.91,1.67,1.12,2.82,1.12c.98,0,1.76-.23,2.32-.69s.85-1.08.85-1.87v-.15h-2.55v-1.45Z"/><path class="cls-2" d="M41.06,56.05v-10.59h1.72v3.9h5.21v-3.9h1.72v10.59h-1.72v-5.14h-5.21v5.14h-1.72Z"/><path class="cls-2" d="M57.32,46.93v9.13h-1.72v-9.13h-2.81v-1.46h7.33v1.46h-2.8Z"/><path class="cls-2" d="M72.85,46.93v9.13h-1.72v-9.13h-2.81v-1.46h7.33v1.46h-2.8Z"/><path class="cls-2" d="M89.06,50.78c0,.75-.14,1.46-.42,2.13-.28.67-.69,1.27-1.23,1.79-.54.53-1.16.93-1.84,1.21-.68.28-1.4.42-2.15.42s-1.49-.14-2.18-.42c-.69-.28-1.3-.68-1.83-1.2-.54-.53-.95-1.12-1.23-1.79-.28-.67-.42-1.38-.42-2.14s.14-1.47.42-2.14c.28-.67.69-1.27,1.23-1.8.54-.53,1.15-.93,1.84-1.2s1.41-.41,2.18-.41,1.48.14,2.17.41c.68.27,1.29.68,1.83,1.2.54.53.95,1.14,1.23,1.81.28.67.42,1.38.42,2.13ZM87.26,50.78c0-.54-.1-1.04-.29-1.53s-.48-.91-.84-1.29c-.36-.37-.77-.66-1.24-.86-.47-.2-.97-.3-1.49-.3s-1.02.1-1.49.3c-.47.2-.89.48-1.25.86-.37.37-.65.8-.84,1.28-.19.48-.29.99-.29,1.53s.1,1.04.29,1.52c.19.48.47.9.84,1.28s.78.66,1.25.86c.47.2.96.3,1.49.3s1.01-.1,1.47-.3c.47-.2.88-.48,1.25-.86.37-.38.65-.8.84-1.28.2-.48.29-.98.29-1.51Z"/><path class="cls-2" d="M101.43,50.83c-.02-.08-.05-.31-.09-.68-.04-.31-.07-.56-.1-.77-.04.24-.1.48-.18.72-.08.24-.18.49-.3.74l-2.77,5.64-2.77-5.76c-.12-.24-.22-.46-.3-.69-.08-.22-.16-.44-.22-.66,0,.22-.02.45-.05.7s-.08.5-.14.76l-1.14,5.21h-1.58l2.5-11.04,3.12,6.68c.05.11.12.28.22.53.1.25.22.55.36.91.1-.3.26-.69.48-1.16.06-.12.1-.22.13-.29l3.05-6.67,2.56,11.04h-1.6l-1.17-5.23Z"/><path class="cls-2" d="M107.33,56.05v-10.59h2.67c.76,0,1.32.04,1.69.12.36.08.67.22.93.41.33.24.58.56.76.95.18.39.27.82.27,1.29,0,.56-.13,1.04-.39,1.41s-.64.64-1.14.79c.62.1,1.1.38,1.46.84s.53,1.05.53,1.76c0,.43-.07.84-.22,1.22s-.36.71-.64.98c-.29.29-.65.5-1.08.62-.43.12-1.15.18-2.16.18h-2.68ZM109.02,49.94h.66c.82,0,1.4-.11,1.74-.34s.51-.6.51-1.13c0-.58-.16-.98-.47-1.22-.31-.23-.91-.35-1.78-.35h-.66v3.04ZM109.02,54.62h.59c.6,0,1.05-.02,1.35-.07.3-.05.54-.13.71-.25.21-.14.38-.33.49-.56.12-.24.17-.5.17-.78,0-.34-.07-.63-.21-.88-.14-.25-.34-.45-.6-.59-.16-.08-.35-.14-.56-.18-.21-.04-.49-.06-.84-.06h-1.11v3.38Z"/><path class="cls-2" d="M117.02,53.94l1.37-.64c.13.47.37.83.72,1.08.35.25.79.37,1.33.37.51,0,.92-.14,1.22-.43.3-.28.45-.67.45-1.14,0-.62-.52-1.18-1.55-1.66-.14-.07-.26-.12-.33-.16-1.17-.57-1.94-1.08-2.33-1.54-.39-.46-.58-1.02-.58-1.69,0-.86.29-1.56.88-2.1.59-.54,1.35-.8,2.3-.8.78,0,1.43.15,1.96.45s.89.73,1.09,1.3l-1.34.69c-.21-.33-.44-.58-.7-.73-.25-.15-.54-.23-.87-.23-.46,0-.83.12-1.1.36-.27.24-.41.56-.41.97,0,.64.6,1.23,1.79,1.78.09.04.16.08.22.1,1.05.48,1.76.95,2.15,1.41s.59,1.04.59,1.72c0,1-.32,1.8-.95,2.39-.63.59-1.48.89-2.56.89-.9,0-1.64-.21-2.22-.62-.58-.41-.95-1.01-1.13-1.78Z"/><path class="cls-2" d="M130.94,46.93v9.13h-1.72v-9.13h-2.81v-1.46h7.33v1.46h-2.8Z"/><path class="cls-2" d="M147.14,50.78c0,.75-.14,1.46-.42,2.13-.28.67-.69,1.27-1.23,1.79-.54.53-1.16.93-1.84,1.21-.68.28-1.4.42-2.15.42s-1.49-.14-2.18-.42c-.69-.28-1.3-.68-1.83-1.2-.54-.53-.95-1.12-1.23-1.79-.28-.67-.42-1.38-.42-2.14s.14-1.47.42-2.14c.28-.67.69-1.27,1.23-1.8.54-.53,1.15-.93,1.84-1.2s1.41-.41,2.18-.41,1.48.14,2.17.41c.68.27,1.29.68,1.83,1.2.54.53.95,1.14,1.23,1.81.28.67.42,1.38.42,2.13ZM145.35,50.78c0-.54-.1-1.04-.29-1.53s-.48-.91-.84-1.29c-.36-.37-.77-.66-1.24-.86-.47-.2-.97-.3-1.49-.3s-1.02.1-1.49.3c-.47.2-.89.48-1.25.86-.37.37-.65.8-.84,1.28-.19.48-.29.99-.29,1.53s.1,1.04.29,1.52c.19.48.47.9.84,1.28s.78.66,1.25.86c.47.2.96.3,1.49.3s1.01-.1,1.47-.3c.47-.2.88-.48,1.25-.86.37-.38.65-.8.84-1.28.2-.48.29-.98.29-1.51Z"/><path class="cls-2" d="M150.88,56.05v-11.01l6.73,6.47c.18.18.37.38.56.59.19.21.39.44.59.7v-7.34h1.59v11l-6.86-6.59c-.18-.18-.36-.37-.53-.56-.17-.2-.33-.4-.49-.62v7.36h-1.58Z"/><path class="cls-2" d="M164.54,56.05v-10.59h5.91v1.46h-4.19v2.65h4.19v1.51h-4.19v3.42h4.19v1.54h-5.91Z"/><path class="cls-2" d="M173.65,55.25c0-.27.09-.49.27-.68s.41-.28.67-.28.49.09.67.28c.18.19.27.41.27.68s-.09.48-.27.66c-.18.18-.41.27-.67.27s-.49-.09-.67-.27-.27-.4-.27-.66Z"/><path class="cls-2" d="M187.65,51.32v4.74h-1.61v-10.59h2.4c.7,0,1.25.05,1.64.14.39.09.72.24.99.46.33.26.58.59.76.99.18.4.27.85.27,1.33,0,.85-.2,1.51-.61,1.99-.41.48-1.02.77-1.82.86l3.65,4.82h-1.95l-3.52-4.74h-.19ZM187.76,49.98h.31c.91,0,1.52-.11,1.81-.32.3-.21.45-.59.45-1.13,0-.58-.16-.99-.48-1.23s-.91-.36-1.78-.36h-.31v3.04Z"/><path class="cls-2" d="M196.12,56.05v-10.59h1.72v10.59h-1.72Z"/><path class="cls-2" d="M207.94,50.63h4.19c0,.07,0,.17,0,.3.01.34.02.57.02.69,0,1.49-.43,2.65-1.28,3.47-.85.82-2.06,1.24-3.61,1.24-.87,0-1.64-.13-2.32-.38-.68-.26-1.27-.64-1.79-1.16-.5-.51-.89-1.11-1.15-1.8s-.4-1.43-.4-2.21.14-1.54.41-2.21.68-1.27,1.21-1.79c.52-.51,1.12-.89,1.81-1.16s1.44-.4,2.23-.4c.83,0,1.58.15,2.24.46.66.3,1.24.77,1.76,1.4l-1.26.95c-.36-.41-.76-.72-1.21-.93-.45-.2-.95-.3-1.5-.3-1.15,0-2.08.37-2.81,1.1-.73.74-1.09,1.69-1.09,2.87s.36,2.17,1.09,2.91,1.67,1.12,2.82,1.12c.98,0,1.76-.23,2.32-.69s.85-1.08.85-1.87v-.15h-2.55v-1.45Z"/><path class="cls-2" d="M215.74,56.05v-10.59h1.72v3.9h5.21v-3.9h1.72v10.59h-1.72v-5.14h-5.21v5.14h-1.72Z"/><path class="cls-2" d="M232,46.93v9.13h-1.72v-9.13h-2.81v-1.46h7.33v1.46h-2.8Z"/><path class="cls-2" d="M245.72,51.3v4.75h-1.61v-10.59h2.6c.77,0,1.34.04,1.7.13s.68.22.95.42c.33.25.59.58.78.99s.28.88.28,1.38-.09.96-.28,1.39c-.19.42-.45.76-.78,1-.27.19-.59.33-.95.41-.36.08-.93.12-1.7.12h-.99ZM245.83,49.89h.44c.95,0,1.59-.1,1.91-.31.32-.21.48-.57.48-1.1,0-.56-.17-.96-.51-1.19s-.97-.35-1.88-.35h-.44v2.95Z"/><path class="cls-2" d="M255.36,51.32v4.74h-1.61v-10.59h2.4c.7,0,1.25.05,1.64.14.39.09.72.24.99.46.33.26.58.59.76.99.18.4.27.85.27,1.33,0,.85-.2,1.51-.61,1.99-.41.48-1.02.77-1.82.86l3.65,4.82h-1.95l-3.52-4.74h-.19ZM255.47,49.98h.31c.91,0,1.52-.11,1.81-.32.3-.21.45-.59.45-1.13,0-.58-.16-.99-.48-1.23s-.91-.36-1.78-.36h-.31v3.04Z"/><path class="cls-2" d="M263.83,56.05v-10.59h1.72v10.59h-1.72Z"/><path class="cls-2" d="M278.29,48.04c-.49-.41-1-.73-1.54-.93-.54-.21-1.11-.31-1.71-.31-1.16,0-2.1.37-2.82,1.11-.73.74-1.09,1.7-1.09,2.89s.35,2.09,1.06,2.83c.71.74,1.6,1.11,2.67,1.11.63,0,1.22-.11,1.79-.33.57-.22,1.11-.56,1.63-1v1.95c-.46.33-.97.58-1.51.74-.54.16-1.14.25-1.77.25-.81,0-1.56-.13-2.25-.4s-1.29-.66-1.81-1.17c-.52-.51-.91-1.1-1.19-1.79-.28-.69-.42-1.42-.42-2.19s.14-1.51.42-2.19c.28-.68.68-1.28,1.2-1.8.53-.52,1.13-.92,1.81-1.18s1.42-.4,2.21-.4c.62,0,1.21.09,1.78.27.56.18,1.11.45,1.64.82l-.09,1.74Z"/><path class="cls-2" d="M282.18,56.05v-10.59h5.91v1.46h-4.19v2.65h4.19v1.51h-4.19v3.42h4.19v1.54h-5.91Z"/><path class="cls-2" d="M290.7,55.25c0-.27.09-.49.27-.68s.41-.28.67-.28.49.09.67.28c.18.19.27.41.27.68s-.09.48-.27.66c-.18.18-.41.27-.67.27s-.49-.09-.67-.27-.27-.4-.27-.66Z"/><path class="cls-2" d="M303.09,56.05v-11.01l6.73,6.47c.18.18.37.38.56.59.19.21.39.44.59.7v-7.34h1.59v11l-6.86-6.59c-.18-.18-.36-.37-.53-.56-.17-.2-.33-.4-.49-.62v7.36h-1.58Z"/><path class="cls-2" d="M316.75,56.05v-10.59h5.91v1.46h-4.19v2.65h4.19v1.51h-4.19v3.42h4.19v1.54h-5.91Z"/><path class="cls-2" d="M333.38,56.05l-1.2-2.73h-4.19l-1.23,2.73h-1.81l5.13-11.01,5.12,11.01h-1.81ZM328.63,51.9h2.95l-1.08-2.42c-.06-.15-.13-.33-.2-.53-.07-.2-.13-.42-.2-.67-.06.23-.12.45-.18.65-.06.2-.13.38-.2.55l-1.08,2.42Z"/><path class="cls-2" d="M339.57,51.32v4.74h-1.61v-10.59h2.4c.7,0,1.25.05,1.64.14.39.09.72.24.99.46.33.26.58.59.76.99.18.4.27.85.27,1.33,0,.85-.2,1.51-.61,1.99-.41.48-1.02.77-1.82.86l3.65,4.82h-1.95l-3.52-4.74h-.19ZM339.68,49.98h.31c.91,0,1.52-.11,1.81-.32.3-.21.45-.59.45-1.13,0-.58-.16-.99-.48-1.23s-.91-.36-1.78-.36h-.31v3.04Z"/><path class="cls-2" d="M356.53,56.05v-4.84l-3.56-5.74h1.81l2.22,3.59c.05.09.12.21.2.36s.16.31.24.48c.07-.17.14-.33.21-.48.07-.15.15-.29.23-.41l2.28-3.55h1.72l-3.64,5.74v4.84h-1.71Z"/><path class="cls-2" d="M375.12,50.78c0,.75-.14,1.46-.42,2.13-.28.67-.69,1.27-1.23,1.79-.54.53-1.16.93-1.84,1.21-.68.28-1.4.42-2.15.42s-1.49-.14-2.18-.42c-.69-.28-1.3-.68-1.83-1.2-.54-.53-.95-1.12-1.23-1.79-.28-.67-.42-1.38-.42-2.14s.14-1.47.42-2.14c.28-.67.69-1.27,1.23-1.8.54-.53,1.15-.93,1.84-1.2s1.41-.41,2.18-.41,1.48.14,2.17.41c.68.27,1.29.68,1.83,1.2.54.53.95,1.14,1.23,1.81.28.67.42,1.38.42,2.13ZM373.32,50.78c0-.54-.1-1.04-.29-1.53s-.48-.91-.84-1.29c-.36-.37-.77-.66-1.24-.86-.47-.2-.97-.3-1.49-.3s-1.02.1-1.49.3c-.47.2-.89.48-1.25.86-.37.37-.65.8-.84,1.28-.19.48-.29.99-.29,1.53s.1,1.04.29,1.52c.19.48.47.9.84,1.28s.78.66,1.25.86c.47.2.96.3,1.49.3s1.01-.1,1.47-.3c.47-.2.88-.48,1.25-.86.37-.38.65-.8.84-1.28.2-.48.29-.98.29-1.51Z"/><path class="cls-2" d="M378.81,45.47h1.7v6.43c0,.95.22,1.67.66,2.15.44.48,1.1.72,1.98.72s1.53-.24,1.97-.72c.44-.48.66-1.2.66-2.15v-6.43h1.72v6.59c0,1.43-.36,2.5-1.08,3.21-.72.71-1.81,1.07-3.27,1.07s-2.54-.35-3.26-1.06c-.72-.71-1.08-1.78-1.08-3.22v-6.59Z"/><path class="cls-2" d="M389.06,55.25c0-.27.09-.49.27-.68s.41-.28.67-.28.49.09.67.28c.18.19.27.41.27.68s-.09.48-.27.66c-.18.18-.41.27-.67.27s-.49-.09-.67-.27-.27-.4-.27-.66Z"/><path class="cls-2" d="M18.4,13.13v20.58h-6.86V13.13h-5.64v-5.81h18.13v5.81h-5.64Z"/><path class="cls-2" d="M22.6,24.57c0-1.33.27-2.57.81-3.73.54-1.16,1.28-2.16,2.24-3.01.96-.85,2.09-1.52,3.41-2.01,1.32-.49,2.76-.74,4.32-.74s2.97.24,4.29.72c1.32.48,2.46,1.14,3.43,2,.97.85,1.72,1.87,2.26,3.05.54,1.18.81,2.48.81,3.9s-.27,2.72-.82,3.9c-.55,1.18-1.3,2.19-2.26,3.05-.96.85-2.11,1.51-3.45,1.98-1.34.47-2.79.7-4.36.7s-2.96-.23-4.27-.7c-1.31-.47-2.43-1.13-3.38-2-.95-.86-1.69-1.9-2.22-3.1-.54-1.2-.81-2.54-.81-4.01ZM29.29,24.64c0,.61.11,1.16.33,1.66.22.5.51.94.88,1.31.36.37.79.67,1.29.88s1.03.31,1.59.31,1.09-.1,1.59-.31c.5-.21.93-.5,1.3-.88.36-.37.65-.81.88-1.31.22-.5.33-1.04.33-1.63s-.11-1.09-.33-1.59c-.22-.5-.51-.94-.88-1.31-.36-.37-.79-.67-1.3-.88-.5-.21-1.03-.32-1.59-.32s-1.09.11-1.59.32-.93.5-1.29.88c-.36.37-.65.81-.88,1.29-.22.49-.33,1.02-.33,1.58Z"/><path class="cls-2" d="M46.61,15.75h6.34v2.21c1.73-1.66,3.66-2.49,5.81-2.49,2.66,0,4.69,1.12,6.09,3.36,1.42-2.26,3.45-3.4,6.09-3.4.84,0,1.63.12,2.38.37.75.25,1.39.63,1.93,1.16.54.52.96,1.21,1.28,2.05.32.84.47,1.86.47,3.05v11.66h-6.34v-8.86c0-.91-.06-1.66-.19-2.24-.13-.58-.31-1.04-.56-1.36s-.53-.55-.86-.67c-.33-.12-.68-.17-1.05-.17-2.03,0-3.05,1.48-3.05,4.45v8.86h-6.34v-8.86c0-.91-.06-1.66-.17-2.26-.12-.6-.29-1.07-.51-1.42-.22-.35-.51-.59-.86-.72s-.76-.19-1.23-.19c-.4,0-.77.06-1.12.18s-.66.34-.93.68c-.27.34-.48.81-.63,1.4-.15.6-.23,1.37-.23,2.33v8.86h-6.34V15.75Z"/><path class="cls-2" d="M85.78,4.66v12.88c1.49-1.56,3.36-2.35,5.6-2.35,1.33,0,2.55.25,3.66.75s2.05,1.18,2.84,2.03c.78.85,1.39,1.85,1.84,3.01.44,1.16.67,2.39.67,3.69s-.23,2.58-.68,3.75c-.46,1.17-1.09,2.18-1.91,3.05-.82.86-1.78,1.55-2.89,2.05-1.11.5-2.31.75-3.59.75-2.33,0-4.18-.85-5.53-2.56v2h-6.34V4.66h6.34ZM93.76,24.78c0-.56-.1-1.09-.31-1.59-.21-.5-.5-.94-.88-1.31-.37-.37-.81-.67-1.29-.89-.49-.22-1.03-.33-1.61-.33s-1.08.1-1.58.31-.92.5-1.28.88c-.36.37-.65.81-.88,1.31-.22.5-.33,1.03-.33,1.59s.1,1.08.31,1.58c.21.49.5.92.88,1.28.37.36.81.65,1.31.88.5.22,1.03.33,1.59.33s1.08-.1,1.58-.31c.49-.21.92-.5,1.28-.88.36-.37.65-.81.88-1.29.22-.49.33-1,.33-1.54Z"/><path class="cls-2" d="M113.99,20.37c-1.17-.61-2.31-.91-3.43-.91-.58,0-1.06.12-1.42.35-.36.23-.54.55-.54.95,0,.21.03.38.09.51.06.13.19.25.39.37.2.12.49.22.88.31.39.09.89.21,1.52.35,1.75.35,3.06.97,3.92,1.87.86.9,1.29,2.05,1.29,3.45,0,1.05-.21,2-.63,2.84-.42.84-1,1.55-1.75,2.12-.75.57-1.65,1.02-2.7,1.33-1.05.31-2.21.47-3.47.47-2.43,0-4.82-.69-7.18-2.07l2.31-4.48c1.77,1.21,3.45,1.82,5.04,1.82.58,0,1.06-.13,1.44-.39.37-.26.56-.58.56-.98,0-.23-.03-.43-.09-.58-.06-.15-.18-.29-.37-.42-.19-.13-.46-.25-.82-.35s-.83-.22-1.42-.33c-1.96-.4-3.33-.99-4.11-1.77-.78-.78-1.17-1.86-1.17-3.24,0-1,.19-1.91.56-2.71.37-.81.91-1.49,1.61-2.05.7-.56,1.55-.99,2.54-1.3.99-.3,2.09-.46,3.31-.46,1.98,0,3.91.39,5.78,1.16l-2.14,4.13Z"/><path class="cls-2" d="M125.58,21.04v12.67h-6.34v-12.67h-2.1v-5.29h2.1v-5.39h6.34v5.39h3.61v5.29h-3.61Z"/><path class="cls-2" d="M129.29,24.57c0-1.33.27-2.57.81-3.73.54-1.16,1.28-2.16,2.24-3.01.96-.85,2.09-1.52,3.41-2.01,1.32-.49,2.76-.74,4.32-.74s2.97.24,4.29.72c1.32.48,2.46,1.14,3.43,2,.97.85,1.72,1.87,2.26,3.05.54,1.18.81,2.48.81,3.9s-.27,2.72-.82,3.9c-.55,1.18-1.3,2.19-2.26,3.05-.96.85-2.11,1.51-3.45,1.98-1.34.47-2.79.7-4.36.7s-2.96-.23-4.27-.7c-1.31-.47-2.43-1.13-3.38-2-.95-.86-1.69-1.9-2.22-3.1-.54-1.2-.81-2.54-.81-4.01ZM135.98,24.64c0,.61.11,1.16.33,1.66.22.5.51.94.88,1.31.36.37.79.67,1.29.88s1.03.31,1.59.31,1.09-.1,1.59-.31c.5-.21.93-.5,1.3-.88.36-.37.65-.81.88-1.31.22-.5.33-1.04.33-1.63s-.11-1.09-.33-1.59c-.22-.5-.51-.94-.88-1.31-.36-.37-.79-.67-1.3-.88-.5-.21-1.03-.32-1.59-.32s-1.09.11-1.59.32-.93.5-1.29.88c-.36.37-.65.81-.88,1.29-.22.49-.33,1.02-.33,1.58Z"/><path class="cls-2" d="M152.6,15.75h6.34v2.28c.86-1.05,1.74-1.76,2.62-2.12.89-.36,1.93-.54,3.12-.54,1.26,0,2.34.2,3.24.61.9.41,1.66.99,2.29,1.73.51.61.86,1.28,1.05,2.03.19.75.28,1.6.28,2.56v11.41h-6.34v-9.07c0-.89-.06-1.6-.19-2.15-.13-.55-.36-.99-.68-1.31-.28-.28-.6-.48-.95-.6-.35-.12-.72-.17-1.12-.17-1.07,0-1.9.32-2.47.96-.57.64-.86,1.56-.86,2.75v9.59h-6.34V15.75Z"/><path class="cls-2" d="M179.66,25.8c0,2.73,1.28,4.1,3.85,4.1,1.38,0,2.42-.56,3.12-1.68h6.13c-1.24,4.11-4.33,6.16-9.28,6.16-1.52,0-2.91-.23-4.17-.68s-2.34-1.1-3.24-1.94c-.9-.84-1.59-1.84-2.08-3.01-.49-1.17-.73-2.47-.73-3.92s.23-2.84.7-4.04c.47-1.2,1.13-2.22,2-3.06.86-.84,1.91-1.49,3.13-1.94s2.61-.68,4.15-.68,2.88.23,4.1.68c1.21.46,2.24,1.11,3.08,1.98.84.86,1.48,1.92,1.93,3.17.44,1.25.67,2.65.67,4.22v.67h-13.34ZM187.08,22.12c-.21-.89-.64-1.6-1.29-2.14-.65-.54-1.45-.81-2.38-.81-.98,0-1.78.26-2.4.77-.62.51-1.01,1.24-1.17,2.17h7.25Z"/><path class="cls-2" d="M206.61,20.37c-1.17-.61-2.31-.91-3.43-.91-.58,0-1.06.12-1.42.35-.36.23-.54.55-.54.95,0,.21.03.38.09.51.06.13.19.25.39.37.2.12.49.22.88.31.39.09.89.21,1.52.35,1.75.35,3.06.97,3.92,1.87.86.9,1.29,2.05,1.29,3.45,0,1.05-.21,2-.63,2.84-.42.84-1,1.55-1.75,2.12-.75.57-1.65,1.02-2.7,1.33-1.05.31-2.21.47-3.47.47-2.43,0-4.82-.69-7.18-2.07l2.31-4.48c1.77,1.21,3.45,1.82,5.04,1.82.58,0,1.06-.13,1.44-.39.37-.26.56-.58.56-.98,0-.23-.03-.43-.09-.58-.06-.15-.18-.29-.37-.42-.19-.13-.46-.25-.82-.35s-.83-.22-1.42-.33c-1.96-.4-3.33-.99-4.11-1.77-.78-.78-1.17-1.86-1.17-3.24,0-1,.19-1.91.56-2.71.37-.81.91-1.49,1.61-2.05.7-.56,1.55-.99,2.54-1.3.99-.3,2.09-.46,3.31-.46,1.98,0,3.91.39,5.78,1.16l-2.14,4.13Z"/><path class="cls-1" d="M227.76,13.13h-8.26v4.41h7.53v5.81h-7.53v10.36h-6.86V7.32h15.12v5.81Z"/><path class="cls-1" d="M230.8,8.86c0-.49.09-.95.28-1.38.19-.43.44-.81.77-1.14s.71-.58,1.14-.77c.43-.19.89-.28,1.38-.28s.95.09,1.38.28c.43.19.81.44,1.14.77.33.33.58.71.77,1.14.19.43.28.89.28,1.38s-.09.95-.28,1.38c-.19.43-.44.81-.77,1.14-.33.33-.71.58-1.14.77-.43.19-.89.28-1.38.28s-.95-.09-1.38-.28c-.43-.19-.81-.44-1.14-.77-.33-.33-.58-.71-.77-1.14-.19-.43-.28-.89-.28-1.38ZM237.56,15.75v17.96h-6.34V15.75h6.34Z"/><path class="cls-1" d="M241.9,15.75h6.34v2.28c.86-1.05,1.74-1.76,2.62-2.12.89-.36,1.93-.54,3.12-.54,1.26,0,2.34.2,3.24.61.9.41,1.66.99,2.29,1.73.51.61.86,1.28,1.05,2.03.19.75.28,1.6.28,2.56v11.41h-6.34v-9.07c0-.89-.06-1.6-.19-2.15-.13-.55-.36-.99-.68-1.31-.28-.28-.6-.48-.95-.6-.35-.12-.72-.17-1.12-.17-1.07,0-1.9.32-2.47.96-.57.64-.86,1.56-.86,2.75v9.59h-6.34V15.75Z"/><path class="cls-1" d="M278.3,4.66h6.37v29.05h-6.37v-2c-1.35,1.7-3.19,2.56-5.5,2.56-1.31,0-2.51-.25-3.61-.73-1.1-.49-2.05-1.17-2.87-2.03-.82-.86-1.45-1.88-1.91-3.05s-.68-2.43-.68-3.78c0-1.28.22-2.5.65-3.66.43-1.16,1.04-2.16,1.84-3.03.79-.86,1.74-1.55,2.85-2.05,1.11-.5,2.33-.75,3.66-.75,2.24,0,4.1.78,5.57,2.35V4.66ZM270.32,24.68c0,.58.1,1.13.31,1.63.21.5.5.94.86,1.31.36.37.79.67,1.3.88.5.21,1.04.31,1.63.31s1.09-.1,1.59-.31c.5-.21.93-.5,1.3-.88.36-.37.65-.81.88-1.29.22-.49.33-1.02.33-1.58s-.11-1.09-.33-1.59c-.22-.5-.51-.94-.88-1.31-.36-.37-.79-.67-1.3-.88-.5-.21-1.03-.31-1.59-.31s-1.09.1-1.59.31-.93.5-1.29.88c-.36.37-.65.8-.88,1.28-.22.48-.33,1-.33,1.56Z"/><path class="cls-1" d="M293.98,25.8c0,2.73,1.28,4.1,3.85,4.1,1.38,0,2.42-.56,3.12-1.68h6.13c-1.24,4.11-4.33,6.16-9.28,6.16-1.52,0-2.91-.23-4.17-.68s-2.34-1.1-3.24-1.94c-.9-.84-1.59-1.84-2.08-3.01-.49-1.17-.73-2.47-.73-3.92s.23-2.84.7-4.04c.47-1.2,1.13-2.22,2-3.06.86-.84,1.91-1.49,3.13-1.94s2.61-.68,4.15-.68,2.88.23,4.1.68c1.21.46,2.24,1.11,3.08,1.98.84.86,1.48,1.92,1.93,3.17.44,1.25.67,2.65.67,4.22v.67h-13.34ZM301.41,22.12c-.21-.89-.64-1.6-1.29-2.14-.65-.54-1.45-.81-2.38-.81-.98,0-1.78.26-2.4.77-.62.51-1.01,1.24-1.17,2.17h7.25Z"/><path class="cls-1" d="M310.23,15.75h6.34v2.94c.68-1.07,1.5-1.9,2.48-2.47.98-.57,2.12-.86,3.43-.86h.54c.2,0,.43.02.68.07v6.06c-.84-.42-1.75-.63-2.73-.63-1.47,0-2.57.44-3.31,1.31-.74.88-1.1,2.15-1.1,3.83v7.7h-6.34V15.75Z"/><path class="cls-2" d="M322.67,31.64c0-.34.06-.67.19-.98.13-.31.31-.58.54-.81s.5-.41.81-.54c.31-.13.64-.19.98-.19s.67.06.98.19c.31.13.58.31.81.54s.41.5.54.81c.13.31.19.64.19.98s-.06.67-.19.98c-.13.31-.31.58-.54.81-.23.23-.5.41-.81.54-.31.13-.64.19-.98.19s-.67-.06-.98-.19c-.31-.13-.58-.31-.81-.54-.23-.23-.41-.5-.54-.81-.13-.31-.19-.64-.19-.98Z"/><path class="cls-2" d="M338.96,26.24c-.67-.46-1.36-.69-2.05-.69-.37,0-.72.06-1.04.19-.32.13-.61.31-.85.55s-.43.52-.57.84c-.14.32-.2.69-.2,1.09s.07.74.2,1.07c.14.32.32.6.56.84.24.24.52.42.85.55.33.13.68.19,1.06.19.73,0,1.41-.25,2.05-.75v3.32c-.96.42-1.87.62-2.74.62-.8,0-1.57-.14-2.29-.41-.73-.27-1.36-.66-1.92-1.17-.55-.51-.99-1.12-1.32-1.83-.33-.71-.5-1.5-.5-2.38s.16-1.68.47-2.4.75-1.35,1.29-1.87c.55-.52,1.2-.93,1.95-1.23s1.56-.44,2.42-.44c.95,0,1.82.2,2.63.6v3.32Z"/><path class="cls-2" d="M341.61,28.09c0-.82.17-1.58.5-2.29.33-.71.79-1.33,1.38-1.85.59-.52,1.29-.94,2.1-1.24.81-.3,1.7-.45,2.66-.45s1.83.15,2.64.44c.81.29,1.52.7,2.11,1.23.6.52,1.06,1.15,1.39,1.87.33.73.5,1.53.5,2.4s-.17,1.68-.51,2.4c-.34.73-.8,1.35-1.39,1.87-.59.52-1.3.93-2.12,1.22-.83.29-1.72.43-2.68.43s-1.82-.14-2.63-.43-1.5-.7-2.08-1.23c-.58-.53-1.04-1.17-1.37-1.91-.33-.74-.5-1.56-.5-2.47ZM345.72,28.13c0,.37.07.71.2,1.02.14.31.32.58.54.81.22.23.49.41.8.54.31.13.64.19.98.19s.67-.06.98-.19c.31-.13.57-.31.8-.54.22-.23.4-.5.54-.81.14-.31.2-.64.2-1s-.07-.67-.2-.98c-.14-.31-.32-.58-.54-.81-.22-.23-.49-.41-.8-.54-.31-.13-.64-.19-.98-.19s-.67.06-.98.19c-.31.13-.57.31-.8.54-.22.23-.4.5-.54.8-.14.3-.2.62-.2.97Z"/><path class="cls-2" d="M356.49,31.64c0-.34.06-.67.19-.98.13-.31.31-.58.54-.81s.5-.41.81-.54c.31-.13.64-.19.98-.19s.67.06.98.19c.31.13.58.31.81.54s.41.5.54.81c.13.31.19.64.19.98s-.06.67-.19.98c-.13.31-.31.58-.54.81-.23.23-.5.41-.81.54-.31.13-.64.19-.98.19s-.67-.06-.98-.19c-.31-.13-.58-.31-.81-.54-.23-.23-.41-.5-.54-.81-.13-.31-.19-.64-.19-.98Z"/><path class="cls-2" d="M369.7,30.46h4.65v3.25h-11.2l5.21-7.8h-4.5v-3.25h11.01l-5.17,7.8Z"/><path class="cls-2" d="M385.23,22.66h3.92v11.05h-3.92v-1.23c-.83,1.05-1.96,1.57-3.38,1.57-.8,0-1.54-.15-2.22-.44-.68-.29-1.26-.71-1.77-1.24-.5-.53-.89-1.16-1.17-1.87-.28-.72-.42-1.5-.42-2.35,0-.79.14-1.54.41-2.25.27-.71.65-1.33,1.14-1.86s1.07-.95,1.75-1.26c.67-.31,1.42-.46,2.24-.46,1.38,0,2.52.48,3.42,1.44v-1.1ZM380.32,28.15c0,.36.06.69.19,1,.13.31.3.58.53.81.22.23.49.41.8.54.31.13.64.19,1,.19s.67-.06.98-.19c.31-.13.57-.31.8-.54.22-.23.4-.5.54-.8.14-.3.2-.62.2-.97s-.07-.67-.2-.98c-.14-.31-.32-.58-.54-.81-.22-.23-.49-.41-.8-.54-.31-.13-.64-.19-.98-.19s-.69.06-1,.19c-.31.13-.57.31-.8.54-.22.23-.4.49-.53.79s-.19.61-.19.96Z"/><path class="cls-2" d="M457.02,58.08l-11.56-11.56c-.26-.26-.55-.47-.85-.65-1.34,2-3.3,4.33-5.7,5.68.18.31.4.6.66.87l11.56,11.56c1.62,1.62,4.28,1.62,5.9,0,1.62-1.62,1.62-4.28,0-5.9Z"/><path class="cls-2" d="M439.46,43.38c7.34-8.88,6.86-22.09-1.45-30.39-8.82-8.82-23.17-8.82-31.99,0-8.82,8.82-8.82,23.17,0,31.99.41.41.83.79,1.26,1.16.67.41,5.83,3.4,6.64-2.28h0v-.84l-.05-.84h1.82v-21.59c.81-.23,1.58-.6,2.26-1.11,1.08-.81,2.43-1.26,3.79-1.26h.53c1.36,0,2.7.45,3.79,1.26.68.51,1.45.88,2.26,1.11v19.76l-.05,1.78h1.82v1.73h0s-.09,5.55,6.25,2.61c1.83-1.55,3.1-3.08,3.1-3.08ZM433.9,41.89c-.05-.04-.1-.09-.16-.13-.12-1.17-.79-2.18-1.76-2.75v-21.83h-1.82c-.68,0-1.35-.22-1.9-.63-1.71-1.28-3.83-1.99-5.97-1.99h-.53c-2.14,0-4.26.71-5.97,1.99-.54.41-1.22.63-1.9.63h-1.82v21.83c-.97.57-1.64,1.58-1.76,2.75-.06.04-.11.08-.16.13-.18-.17-.37-.32-.55-.49-6.85-6.85-6.85-17.99,0-24.84,6.85-6.85,17.99-6.85,24.84,0,6.85,6.85,6.85,17.99,0,24.84-.18.18-.36.33-.55.49Z"/></svg>