<?xml version="1.0" encoding="UTF-8"?><svg id="a" xmlns="http://www.w3.org/2000/svg" viewBox="0 0 57 57"><path d="M38.21,18.92c0,.31-.01.66-.13,1-.06.17,0,.3.11.43.16.18.32.35.46.55.08.12.31.23.16.39-.13.15-.29-.03-.42-.09-.74-.36-1.47-.73-2.2-1.1-1.64-.84-3.28-1.68-4.93-2.51-.26-.13-.3-.22-.13-.47.84-1.23,1.94-1.99,3.47-1.94,2.01.06,3.69,1.7,3.61,3.74Z" fill="#414042" stroke-width="0"/><path d="M33.51,23.58c-2.3,0-3.73-2.07-2.99-4.32.25-.77.25-.77.96-.42,1.61.82,3.22,1.65,4.83,2.45.27.13.27.24.13.48-.72,1.21-1.69,1.81-2.92,1.81Z" fill="#414042" stroke-width="0"/><path d="M14.25,44.33h29.88c.37,0,.66.3.66.66v2.3c0,.37-.3.66-.66.66H12.87c-.37,0-.66-.3-.66-.66v-.93c0-1.13.91-2.04,2.04-2.04Z" fill="#414042" stroke-width="0"/><path d="M37.01,34.68c-.15-.67-.1-1.34.1-1.95-.07-.04-.13-.07-.21-.1-1.11-.44-2.19-.94-3.29-1.41-.45-.19-.79-.47-.99-.93-.18-.41-.4-.79-.6-1.19-.51-1.03-1.02-2.06-1.52-3.09-.28-.57-.7-.96-1.33-1.07-.58-.1-1.09.05-1.47.52-.36.45-.47.97-.2,1.5.91,1.8,1.82,3.59,2.75,5.38.19.36.46.65.85.81,1.57.67,3.13,1.34,4.7,2.02.19.08.38.14.6.13.27,0,.5-.07.72-.19l-.11-.44Z" fill="#414042" stroke-width="0"/><path d="M43.38,42.14l-2.46-10.34c-.05-.22-.27-.36-.49-.31l-.43.1c-1.26.28-2.06,1.54-1.78,2.8l2.04,8.45c.05.22.27.36.49.31l2.32-.52c.22-.05.36-.27.31-.49Z" fill="#414042" stroke-width="0"/><path d="M26.97,32.64c-.13-.18-.12-.27.03-.42.39-.4.76-.82,1.14-1.24-.58-1.13-1.17-2.28-1.76-3.45-.47-.93-.35-1.97.34-2.84.52-.66,1.27-1.03,2.11-1.03.18,0,.36.02.55.05.62.11,1.45.45,2.05,1.42-.25-1.22-1.36-2.32-2.64-2.22-.43.03-.87.01-1.3,0-.65-.01-1.17.24-1.59.73-1.75,2.07-3.49,4.15-5.25,6.21-.47.55-.66,1.17-.69,1.88-.03.75.13,1.47.25,2.2.31,1.93.64,3.86.96,5.79.06.34,0,.65-.21.94-.25.37-.49.74-.72,1.12-.27.43-.55.87-.83,1.3h4.73c.21-.31.41-.63.62-.94.2-.3.31-.64.33-.99.02-.32.02-.64,0-.96-.1-1.85-.21-3.71-.32-5.56-.01-.22,0-.44.28-.46.28-.02.32.18.33.41.06,1.05.13,2.09.19,3.14.01.2.08.34.22.48.45.47.89.95,1.35,1.41.3.31.45.65.45,1.1,0,.79,0,1.58,0,2.38h3.75c0-1.24,0-2.48,0-3.72,0-.45-.13-.84-.39-1.21-1.33-1.84-2.65-3.68-3.98-5.51Z" fill="#414042" stroke-width="0"/><path d="M37.7,31.64c.49-.62,1.19-1.08,2.02-1.27l.15-.03c-.18-.5-.66-.92-1.32-.95l-2.71-.18c-.57-.03-1.05-.2-1.48-.59-.63-.55-1.3-1.07-1.97-1.58.25.5.49,1.01.74,1.51.07.14.14.28.21.41.14.26.28.53.41.82.04.09.1.18.33.28.44.19.89.38,1.33.57.64.28,1.3.57,1.94.82.12.05.23.11.34.17Z" fill="#414042" stroke-width="0"/></svg>