<?xml version="1.0" encoding="UTF-8"?><svg id="a" xmlns="http://www.w3.org/2000/svg" viewBox="0 0 39.49 29.89"><path d="M19.75,26.41c-1.55,0-3.05-.3-4.47-.9-1.37-.58-2.59-1.4-3.65-2.46-1.05-1.05-1.88-2.28-2.46-3.65-.6-1.41-.9-2.92-.9-4.46s.3-3.05.9-4.47c.58-1.37,1.4-2.59,2.46-3.65,1.05-1.05,2.28-1.88,3.65-2.46,2.83-1.2,6.1-1.2,8.93,0,1.37.58,2.59,1.41,3.65,2.46,1.05,1.05,1.88,2.28,2.46,3.65.6,1.42.9,2.92.9,4.47s-.3,3.05-.9,4.46c-.21.51-.8.75-1.31.53-.51-.21-.75-.8-.53-1.31.49-1.17.74-2.41.74-3.69s-.25-2.52-.74-3.69c-.48-1.13-1.16-2.14-2.03-3.01s-1.88-1.55-3.01-2.03c-2.33-.99-5.04-.99-7.37,0-1.13.48-2.14,1.16-3.01,2.03-.87.87-1.55,1.88-2.03,3.01-.49,1.17-.74,2.41-.74,3.69s.25,2.52.74,3.69c.48,1.13,1.16,2.14,2.03,3.01.87.87,1.88,1.55,3.01,2.03,2.33.99,5.04.99,7.37,0,.5-.21,1.09.02,1.31.53.21.51-.02,1.1-.53,1.31-1.41.6-2.92.9-4.46.9Z" fill="#58595b" stroke-width="0"/><path d="M27.99,21.42l-1.01-3.65c-.11-.4.12-.81.52-.92.41-.11.81.12.92.52l.61,2.21,2.21-.61c.41-.11.81.12.92.52.11.4-.12.81-.52.92l-3.65,1.01Z" fill="#58595b" stroke-width="0"/><path d="M19.75,15.64c-.39,0-.7-.31-.7-.7v-6.28c0-.39.31-.7.7-.7s.7.31.7.7v6.28c0,.39-.31.7-.7.7Z" fill="#58595b" stroke-width="0"/><path d="M19.48,15.94h-4.3c-.55,0-1-.45-1-1s.45-1,1-1h4.3c.55,0,1,.45,1,1s-.45,1-1,1Z" fill="#58595b" stroke-width="0"/><path d="M11.22,15.69h-1.55c-.41,0-.75-.34-.75-.75s.34-.75.75-.75h1.55c.41,0,.75.34.75.75s-.34.75-.75.75Z" fill="#58595b" stroke-width="0"/><path d="M29.57,15.69h-1.55c-.41,0-.75-.34-.75-.75s.34-.75.75-.75h1.55c.41,0,.75.34.75.75s-.34.75-.75.75Z" fill="#58595b" stroke-width="0"/><path d="M13.81,9.75c-.19,0-.38-.07-.53-.22l-1.1-1.1c-.29-.29-.29-.77,0-1.06.29-.29.77-.29,1.06,0l1.1,1.1c.29.29.29.77,0,1.06-.15.15-.34.22-.53.22Z" fill="#58595b" stroke-width="0"/><path d="M25.69,9.75c-.19,0-.38-.07-.53-.22-.29-.29-.29-.77,0-1.06l1.1-1.1c.29-.29.77-.29,1.06,0,.29.29.29.77,0,1.06l-1.1,1.1c-.15.15-.34.22-.53.22Z" fill="#58595b" stroke-width="0"/><path d="M12.71,22.73c-.19,0-.38-.07-.53-.22-.29-.29-.29-.77,0-1.06l1.1-1.1c.29-.29.77-.29,1.06,0,.29.29.29.77,0,1.06l-1.1,1.1c-.15.15-.34.22-.53.22Z" fill="#58595b" stroke-width="0"/><path d="M19.62,7.29c-.41,0-.75-.34-.75-.75v-1.55c0-.41.34-.75.75-.75s.75.34.75.75v1.55c0,.41-.34.75-.75.75Z" fill="#58595b" stroke-width="0"/><path d="M19.62,25.64c-.41,0-.75-.34-.75-.75v-1.55c0-.41.34-.75.75-.75s.75.34.75.75v1.55c0,.41-.34.75-.75.75Z" fill="#58595b" stroke-width="0"/></svg>