<?xml version="1.0" encoding="UTF-8"?><svg id="a" xmlns="http://www.w3.org/2000/svg" viewBox="0 0 57 57"><path d="M47.7,42.8c-.36-2.07-2.16-3.65-4.34-3.65s-3.98,1.58-4.34,3.65c-.04.24-.07.5-.07.76,0,2.43,1.97,4.4,4.4,4.4s4.4-1.97,4.4-4.4c0-.26-.03-.52-.07-.76h.03ZM43.35,45.83c-1.27,0-2.29-1.02-2.29-2.29,0-.14.01-.27.04-.4.19-1.08,1.14-1.88,2.26-1.88s2.06.79,2.26,1.9c.03.13.03.26.03.4,0,1.27-1.02,2.29-2.29,2.29h-.01Z" fill="#414042" stroke-width="0"/><path d="M17.14,42.8c-.36-2.07-2.16-3.65-4.34-3.65s-3.98,1.58-4.34,3.65c-.04.24-.07.5-.07.76,0,2.43,1.97,4.4,4.4,4.4s4.4-1.97,4.4-4.4c0-.26-.03-.52-.07-.76h.03ZM12.8,45.83c-1.27,0-2.29-1.02-2.29-2.29,0-.13,0-.27.03-.4.19-1.09,1.14-1.9,2.26-1.9s2.07.79,2.26,1.9c.03.13.03.26.03.4,0,1.27-1.02,2.29-2.29,2.29Z" fill="#414042" stroke-width="0"/><path d="M38.66,21.06h5.7c1.42,0,2.7.83,3.28,2.13l1.83,4.09h-10.8v-6.21h0ZM42.68,31.41c0,.36-.29.63-.63.63h-2.01c-.36,0-.63-.29-.63-.63v-.73h3.29v.73h-.01ZM4.66,42.8h2.37c.37-2.86,2.82-5.06,5.77-5.06s5.41,2.22,5.78,5.06h19c.37-2.86,2.82-5.06,5.78-5.06s5.41,2.22,5.77,5.06h3.21c.53,0,.95-.43.95-.95v-.5c0-.53-.43-.95-.95-.95h-.81v-3.68c.52-.04.93-.49.93-1.02v-.73c0-.53-.42-.98-.93-1.02v-4.99c0-.35-.07-.69-.2-1.01l-2.22-5.35c-.86-2.07-2.88-3.41-5.11-3.41h-6.44c-.29,0-.52.23-.52.52v15.16H6.37c-.62,0-1.11.5-1.11,1.11v4.43h-.6c-.53,0-.95.43-.95.95v.5c0,.53.43.95.95.95h0Z" fill="#414042" stroke-width="0"/><path d="M34.26,29.55v-10.49h-2.47c-.86,0-1.57.7-1.57,1.57v8.92h4.04Z" fill="#414042" stroke-width="0"/><path d="M34.36,30.97H9.48c-1.04,0-1.87.82-1.87,1.86v.78h28.01v-1.4c0-.69-.56-1.24-1.25-1.24Z" fill="#414042" stroke-width="0"/></svg>