<?xml version="1.0" encoding="UTF-8"?><svg id="Layer_1" xmlns="http://www.w3.org/2000/svg" viewBox="0 0 39.49 29.89"><defs><style>.cls-1{stroke-width:0px;}.cls-1,.cls-2{fill:#d1d3d4;}.cls-2{stroke:#d1d3d4;stroke-miterlimit:10;}</style></defs><path class="cls-1" d="M30.96,23.66v1.47H8.53v-1.47h22.44M31.42,22.16H8.07c-.58,0-1.04.47-1.04,1.04v3.43h25.44v-3.43c0-.58-.47-1.04-1.04-1.04h0Z"/><path class="cls-1" d="M23.76,6.07s.05,0,.08.02c.16.08.27.22.3.31.02.08,0,.19-.03.26-.02.04-.04.06-.1.08-.39.11-.71.37-.9.72s-.24.77-.12,1.15c.22.75.19,1.38-.1,1.92-.14.26-.32.44-.68.75-.37.32-.56.81-.51,1.3s.34.92.78,1.16c1.26.69,2.41,1.62,2.75,2.12-.44.14-.79.47-.96.91-.17.46-.11.98.18,1.38.15.22.21.44.17.66-.02.12-.09.27-.17.43-.06.08-.18.19-.41.19-.29,0-.42-.08-.48-.14-.19-.57-.65-.84-1.21-.84-.17,0-.35.03-.54.08-.45.12-1.36.32-1.9.32-.58,0-1.67-.19-2.22-.31-.11-.02-.22-.04-.33-.04-.44,0-.86.19-1.14.55-.08.1-.39.37-.7.37-.18,0-.33-.11-.4-.18-.1-.21-.19-.5-.1-.8.03-.1.1-.23.18-.38.2-.37.23-.81.09-1.2-.14-.4-.44-.72-.83-.88-.07-.03-.12-.06-.17-.08.3-.37,1.09-1.07,1.66-1.45.25-.17.52-.33.81-.5.13-.07.26-.15.39-.23.43-.25.7-.7.73-1.2s-.19-.97-.58-1.28c-.53-.41-.86-.98-.94-1.65-.04-.3,0-.63.1-1.09.17-.73-.23-1.48-.93-1.75-.04-.02-.14-.06-.17-.13-.07-.15-.04-.22-.03-.25.03-.08.09-.18.2-.23.05-.02.1-.03.17-.03.01,0,.03,0,.04,0,.06.02.14.13.2.22.28.45.77.69,1.27.69.23,0,.46-.05.68-.16.22-.11.43-.22.62-.28.37-.12.8-.19,1.23-.19.4,0,.78.06,1.11.16.14.05.3.13.49.23.09.05.19.09.28.14.21.1.43.15.65.15.55,0,1.07-.3,1.34-.82.08-.16.12-.2.14-.2.02,0,.03,0,.03,0M23.56,19.35h0s0,0,0,0M23.76,4.57c-.16,0-.32.02-.49.08-.5.16-.79.49-1.02.95-.32-.16-.62-.33-.97-.44-.49-.16-1.03-.23-1.57-.23-.59,0-1.18.09-1.7.26-.29.1-.56.23-.83.37-.23-.36-.5-.65-.91-.81-.19-.08-.39-.11-.6-.11-.26,0-.52.06-.77.17-.47.21-.82.59-1,1.07-.18.47-.14.96.07,1.41.2.43.57.75,1.01.91-.13.54-.2,1.07-.13,1.63.14,1.06.67,1.99,1.51,2.64-.43.26-.86.49-1.28.77-.61.42-1.97,1.53-2.27,2.19-.14.31-.18.71-.05,1.03.17.44.66.75,1.08.93-.11.21-.22.41-.29.64-.21.68-.1,1.38.23,1.99,0,0,0,0-.01,0,0,0,.59.93,1.72.93s1.86-.92,1.86-.92c0,0,1.58.34,2.54.34s2.3-.37,2.3-.37c0,0,.44.95,1.82.95,1.19,0,1.71-.94,1.71-.94.16-.3.3-.59.35-.93.11-.64-.05-1.25-.42-1.78.04,0,.07-.02.11-.03.35-.1.69-.3.87-.63.18-.33.19-.73.08-1.07-.35-1.16-2.49-2.56-3.54-3.13.41-.36.75-.68,1.01-1.17.52-.97.52-2.02.21-3.06.44-.12.78-.4,1.01-.79.24-.43.3-.96.16-1.42-.16-.52-.56-.95-1.03-1.2-.25-.13-.51-.2-.78-.2h0Z"/><path class="cls-2" d="M20.61,6.47s1.24.48,1.82,1.09.69,1.79.69,1.79l.58-1.27.83-1.66-.13-.57-.9-.09-1.57.77-1.33-.05Z"/><path class="cls-2" d="M18.82,6.47s-1.24.48-1.82,1.09-.69,1.79-.69,1.79l-.58-1.27-.83-1.66.13-.57.9-.09,1.57.77,1.33-.05Z"/></svg>