<?xml version="1.0" encoding="UTF-8"?><svg id="Layer_1" xmlns="http://www.w3.org/2000/svg" viewBox="0 0 39.49 29.89"><defs><style>.cls-1{fill:#d1d3d4;stroke-width:0px;}</style></defs><path class="cls-1" d="M30.96,23.66v1.47H8.53v-1.47h22.44M31.42,22.16H8.07c-.58,0-1.04.47-1.04,1.04v3.43h25.44v-3.43c0-.58-.47-1.04-1.04-1.04h0Z"/><path class="cls-1" d="M23.94,5.47c.64,0,1.25.46,1.63,1.23.25.51.77.83,1.34.83h.9v11.2H11.68V7.53h.75c.57,0,1.09-.32,1.34-.83.38-.77.99-1.23,1.63-1.23s1.25.46,1.63,1.23c.25.51.77.83,1.34.83h2.59c.57,0,1.09-.32,1.34-.83.38-.77.99-1.23,1.63-1.23M11.68,7.28h0,0M23.94,3.97c-1.26,0-2.36.83-2.97,2.06h-2.59c-.61-1.23-1.71-2.06-2.97-2.06s-2.36.83-2.97,2.06h-1.23c-.56,0-1.02.56-1.02,1.25v12.96h19.14V7.28c0-.69-.46-1.25-1.02-1.25h-1.39c-.61-1.23-1.71-2.06-2.97-2.06h0Z"/></svg>