<?xml version="1.0" encoding="UTF-8"?><svg id="Layer_1" xmlns="http://www.w3.org/2000/svg" viewBox="0 0 39.49 29.89"><defs><style>.cls-1{fill:#6d6e71;stroke-width:0px;}</style></defs><path class="cls-1" d="M28.21,24.63v.51H11.28v-.51h16.94M28.9,23.13H10.59c-.45,0-.82.37-.82.82v2.69h19.94v-2.69c0-.45-.37-.82-.82-.82h0Z"/><path class="cls-1" d="M19.67,9.87c.69,0,1.32.36,1.69.96.27.44.76.72,1.28.72h.9v8.57h-7.6v-8.57h.75c.52,0,1.01-.27,1.28-.72.37-.6,1-.96,1.69-.96M19.67,8.37c-1.26,0-2.36.67-2.97,1.68h-1.23c-.56,0-1.02.46-1.02,1.02v10.56h10.6v-10.56c0-.56-.46-1.02-1.02-1.02h-1.39c-.61-1-1.71-1.68-2.97-1.68h0Z"/></svg>