<?xml version="1.0" encoding="UTF-8"?><svg id="Layer_1" xmlns="http://www.w3.org/2000/svg" xmlns:xlink="http://www.w3.org/1999/xlink" viewBox="0 0 57 57"><defs><style>.cls-1,.cls-2{fill:#fff;}.cls-1,.cls-3{stroke:#2e3192;stroke-miterlimit:10;stroke-width:.25px;}.cls-4{clip-path:url(#clippath);}.cls-5{fill:#414042;stroke-width:0px;}.cls-3{fill:none;}</style><clipPath id="clippath"><path class="cls-1" d="M38.82,47.85h-20.65c-4.98,0-9.02-4.04-9.02-9.02v-20.65c0-4.98,4.04-9.02,9.02-9.02h20.65c4.98,0,9.02,4.04,9.02,9.02v20.65c0,4.98-4.04,9.02-9.02,9.02Z"/></clipPath></defs><path class="cls-2" d="M38.82,47.85h-20.65c-4.98,0-9.02-4.04-9.02-9.02v-20.65c0-4.98,4.04-9.02,9.02-9.02h20.65c4.98,0,9.02,4.04,9.02,9.02v20.65c0,4.98-4.04,9.02-9.02,9.02Z"/><g class="cls-4"><rect class="cls-5" x="-28.17" y="19.92" width="68.37" height="68.37" transform="translate(40.02 11.6) rotate(45)"/></g><path class="cls-3" d="M38.82,47.85h-20.65c-4.98,0-9.02-4.04-9.02-9.02v-20.65c0-4.98,4.04-9.02,9.02-9.02h20.65c4.98,0,9.02,4.04,9.02,9.02v20.65c0,4.98-4.04,9.02-9.02,9.02Z"/></svg>