<?xml version="1.0" encoding="UTF-8"?><svg id="Layer_1" xmlns="http://www.w3.org/2000/svg" xmlns:xlink="http://www.w3.org/1999/xlink" viewBox="0 0 57 57"><defs><style>.cls-1{clip-path:url(#clippath);}.cls-2{fill:none;}.cls-2,.cls-3{stroke-width:0px;}.cls-3{fill:#231f20;}</style><clipPath id="clippath"><path class="cls-2" d="M42.49,47.85H14.51c-2.96,0-5.35-2.4-5.35-5.35V14.51c0-2.96,2.4-5.35,5.35-5.35h27.99c2.96,0,5.35,2.4,5.35,5.35v27.99c0,2.96-2.4,5.35-5.35,5.35Z"/></clipPath></defs><g class="cls-1"><path class="cls-3" d="M41.53,43.12c-.2-1.01-.23-2.04-.46-3.05-.23-1.01-.75-1.6-1.38-2.38-.17-.21-.19-.25-.25-.61-.08-.47-.1-.94-.2-1.41-.22-1.07-.74-2.06-1.76-2.55-2.49-1.2-4.18,1.85-5.96,3.03-2.12,1.41-4.78,1.51-7.04,2.6-.99.48-1.75,1.23-2.56,1.95-.58.52-1.4,1.34-2.25,1.29-.39-.02-.77.09-1.05.32-.2.1-.37.26-.5.45-.41.21-.47.79-.19,1.06.14.49.58.8,1.11.91,2.25.47,4.5-.01,6.76-.2.05,0,.1,0,.15,0,.35.02.73.02.87.38.14.35.02.89,0,1.25,0,.22.14.45.33.54.85.42,1.78.28,2.7.23,1.21-.07,2.43-.03,3.64,0,.96.02,2.13.4,3.06.04.14-.05.27-.13.38-.21.01,0,.02,0,.03,0,1.29.03,4.03.75,4.33-1.19.06-.41.01-.96-.11-1.49.26-.24.41-.58.34-.97Z"/><path class="cls-3" d="M45.81,40.15c-.16-.64-.92-1.08-1.55-.88-.66.22-1.05.87-.88,1.55.1.4.18.81.25,1.22,0,.03,0,.06.01.1.01.09.02.19.03.28.02.2.04.41.06.61.06.82.07,1.65.07,2.48,0,.66.58,1.29,1.26,1.26.68-.03,1.26-.56,1.26-1.26,0-1.8-.08-3.61-.52-5.36Z"/><path class="cls-3" d="M46.16,34.69c.08-.63.17-1.26.25-1.89.14-1.17.18-2.38-.2-3.51-.3-.9-1.39-1.24-2.1-.56-.74.71-1.68,1.21-2.11,2.2-.29.68-.29,1.37-.24,2.1.01.16.02.32.02.49,0,.08,0,.15,0,.23,0,.01,0,.03,0,.04-.04.16-.09.31-.15.46-.38.99-.64,2.1.24,2.93.57.53,1.36.61,2.09.46.24-.05.47-.13.7-.21.07,0,.13.02.2.01.25-.01.5-.1.7-.24.5-.18.89-.64.86-1.19-.02-.28-.12-.55-.29-.77,0-.12.02-.24.03-.36,0-.04.02-.15.02-.19Z"/><path class="cls-3" d="M46.67,24.89c-.47-1.06-1.28-2.08-2.45-2.39-1.23-.33-2.57.2-3.75.52-1.31.36-2.55.64-3.91.55-1.24-.08-2.52-.22-3.73.15-1.16.35-2.52,1.15-2.22,2.58.28,1.34,1.7,1.57,2.53,2.4.72.72,1.39,2.02,2.52,2.12.39.04.82-.05,1.22-.04.68,0,1.29-.16,1.91-.42,1.23-.52,2.4-1.34,3.4-2.22.11-.1.21-.18.32-.26.23-.08.47-.15.71-.21.26-.07.52-.17.77-.28.03,0,.05,0,.08-.01.41-.02.82,0,1.23,0,.83.01,1.28-.64,1.3-1.29.22-.36.25-.8.07-1.2Z"/><path class="cls-3" d="M32.62,31.17c-1.59-.95-2.56-2.65-3.89-3.9-1.39-1.3-3.69-1.56-5.45-.93-.5.18-.92.44-1.34.77-.18.14-.4.4-.62.43-.24.03-.53-.17-.73-.27-.48-.22-.95-.36-1.48-.28-1.05.16-1.75.89-2.38,1.69-.24.3-.44.6-.79.78-.43.22-.88.3-1.28.58-.73.52-.98,1.66-.07,2.18,1.18.68,2.3.4,3.57.6.36.06.46.08.57.38.09.23.08.53.1.77,0,.03.04.33.04.31.08.82.08,1.68.5,2.43.49.87,1.44,1.25,2.41,1.07,1.06-.2,1.75-.9,2.38-1.72.18-.24.4-.6.68-.72.43-.19,1.1.08,1.54.16,1.13.2,2.32.07,2.99-.98.24-.37.3-.8.49-1.19.03-.06.04-.09.05-.12.21-.04.63.06.81.07.14,0,.27-.03.4-.07.06.04.12.08.18.12,1.39.83,2.72-1.31,1.32-2.14Z"/><path class="cls-3" d="M16.81,40.74s.04-.03.02-.02c0,0,0,0-.01,0,0,0,0,0,0,.01Z"/><path class="cls-3" d="M17.59,36.98c-.76-1.61-2.45-2.14-3.85-3.03-.39-.25-.87-.27-1.27-.08-.09-.03-.18-.05-.28-.06-.66-.06-1.33.47-1.36,1.15-.06,1.41.29,2.85.23,4.22-.05,1.15-.2,2.25.12,3.38.17.59.38,1.22.9,1.59.52.37,1.19.36,1.76.1.42-.19.78-.51,1.15-.79.01-.01.09-.07.15-.11.06-.03.18-.11.2-.12,0,0,.01,0,.02,0,.03,0,.05,0,.08.01.49.09,1.18-.33,1.29-.83.1-.41.13-.73.1-1.15-.01-.12-.02-.25-.05-.37,0-.05,0-.08-.01-.1,0,0,0,0,0-.01,0-.01.02-.03.03-.04,0,0-.02.01-.02.02,0,0,0,0,0,0,0,0,.02-.01.03-.03,0,0,0,0,0,0,0,0,0,0,0,0,.01,0,.02-.02.04-.03.17-.14.32-.3.47-.46.79-.88.75-2.22.26-3.24Z"/><path class="cls-3" d="M20.07,21.79c-1.26-.9-2.79-.78-4.03.07-.18.13-.36.26-.54.39-.03.02-.2.12-.2.12-.09.05-.17.09-.27.12,0,0,0,0,0,0-.02,0-.04,0-.07,0-.07,0-.1.02-.11.02-.02,0-.03,0-.06,0-.33-.03-.4-.04-.66-.14-1.08-.44-2.27-1.05-3.33-.16-.56.47-1.13,1.12-1.5,1.75-.35.61-.34,1.32.12,1.87.39.46.95.66,1.52.76.17.03.35.05.53.07-.25.45-.2,1.05.13,1.44.46.54,1.24.56,1.77.15.41-.31.75-.69,1.14-1.03.2-.17.27-.22.41-.29.2-.09.19-.07.37-.03.61.16,1.2.28,1.8,0,.35-.17.64-.44.85-.77.07-.11.15-.26.19-.39,0,0,0-.01,0-.02.08,0,.17.02.17.01.25.03.49.07.74.1.59.07,1.23-.02,1.69-.43,1.25-1.11.48-2.82-.67-3.64Z"/><path class="cls-3" d="M25.79,22.11c-.04-.1-.09-.21-.13-.31-.11-.2-.27-.35-.47-.46-.28-.13-.57-.25-.87-.33-.3-.08-.61-.12-.92-.15-.17,0-.33.03-.48.11-.16.05-.3.14-.42.27-.12.12-.21.25-.26.41-.07.15-.11.3-.1.47l.04.32c.06.22.17.42.34.58.09.07.17.13.26.2.16.09.34.14.53.15.24.04.47.1.7.19.13.07.26.11.41.12.16.04.32.03.48-.02.17-.04.32-.12.45-.23.14-.09.25-.21.33-.36.04-.1.08-.2.12-.3.06-.21.06-.43,0-.64Z"/><path class="cls-3" d="M23.3,17.26c.21-.39.28-.86.13-1.34-.11-.36-.26-.62-.25-1.01,0-.42.11-.83.25-1.23.05-.14.09-.27.13-.41.33-1.28-1.63-2-2.27-.97-.08-.03-.16-.07-.24-.09-.03,0-.06-.02-.09-.02-.16-.05-.32-.05-.47-.01-.51-.85-1.37-1.3-2.52-.97-.65.18-1.28.48-1.85.83-.54.34-1.04.77-1.64,1.02-.66.27-1.36.5-2.08.53-.85.03-1.57.16-2.17.82-.37.4-.39,1.08-.08,1.52.49.7,1.28,1.05,1.79,1.66.38.45.54,1.15.73,1.8.21.71,1.3,1.15,1.9.62.35-.31.68-.37,1.19-.44.61-.09,1.21-.19,1.82-.27,1.53-.2,3.07-.03,4.61.06.68.04,1.33-.3,1.46-1.02.06-.36-.07-.78-.32-1.08Z"/><path class="cls-3" d="M45.67,16.61c-.23-.95-1.06-1.41-1.57-2.17-.47-.71-.79-1.56-1.04-2.37-.29-.97-.65-1.83-1.64-2.25-1.48-.62-3.4-.11-4.79.55-.54.25-1.11.88-1.54,1.06-.89.38-2.35-.25-3.15-.63-.53-.25-1.12.12-1.44.51-.15.18-.32.39-.47.6-.36.01-.72.05-1.07.08.11-.01.22-.02.32-.03-.18.02-.37.03-.55.05-.79-.38-1.49-.8-2.47-.55-.11.03-.2.07-.29.11-.67-.09-1.39.27-1.41,1.14-.05,2.31.5,4.55,1.13,6.76.48,1.7.91,3.66,3.12,3.59.83-.03,1.6-.32,2.31-.74.68-.4,1.33-.96,2.1-1.21.85-.27,1.92-.06,2.76.17.83.23,1.61.88,2.5.67.85-.21,1.38-.89,1.78-1.61.04-.08.35-.5.22-.48.28-.04.76.48.97.64.67.49,1.47.84,2.31.62.95-.24,1.57-1.08,1.8-2,.2-.77.29-1.74.11-2.52Z"/></g></svg>