<?xml version="1.0" encoding="UTF-8"?><svg id="Layer_1" xmlns="http://www.w3.org/2000/svg" xmlns:xlink="http://www.w3.org/1999/xlink" viewBox="0 0 57 57"><defs><style>.cls-1{clip-path:url(#clippath);}.cls-2{fill:none;}.cls-2,.cls-3,.cls-4{stroke-width:0px;}.cls-5{clip-path:url(#clippath-1);}.cls-6{clip-path:url(#clippath-2);}.cls-3{fill:#231f20;}.cls-4{fill:#f1f2f2;}</style><clipPath id="clippath"><path class="cls-2" d="M42.49,47.85H14.51c-2.96,0-5.35-2.4-5.35-5.35V14.51c0-2.96,2.4-5.35,5.35-5.35h27.99c2.96,0,5.35,2.4,5.35,5.35v27.99c0,2.96-2.4,5.35-5.35,5.35Z"/></clipPath><clipPath id="clippath-1"><path class="cls-2" d="M-22.02,47.85h-27.99c-2.96,0-5.35-2.4-5.35-5.35V14.51c0-2.96,2.4-5.35,5.35-5.35h27.99c2.96,0,5.35,2.4,5.35,5.35v27.99c0,2.96-2.4,5.35-5.35,5.35Z"/></clipPath><clipPath id="clippath-2"><path class="cls-2" d="M-22.02,137.85h-27.99c-2.96,0-5.35-2.4-5.35-5.35v-27.99c0-2.96,2.4-5.35,5.35-5.35h27.99c2.96,0,5.35,2.4,5.35,5.35v27.99c0,2.96-2.4,5.35-5.35,5.35Z"/></clipPath></defs><g class="cls-1"><path class="cls-3" d="M47.88,40.05c-1.33.52-2.56-.18-3.69-.84-1.16-.68-2.31-1.29-3.67-1.45-1.46-.18-2.94.13-4.34.55-.65.2-1.29.42-1.93.64-.3.1-.62.24-.94.28-.41.05-.81-.1-1.22-.18-2.96-.58-5.77.53-8.58,1.29-.15.04-.8.32-.97.26-.13-.05-.24-.35-.31-.47-.32-.49-.63-.92-1.17-1.17-1.18-.56-2.61.11-3.76.46-.7.21-1.54.6-2.29.54-.73-.05-1.35-.54-2.11-.58-1.67-.08-3.38.97-4.87,1.6-1.22.52-.17,2.29,1.04,1.78,1.24-.53,2.95-1.67,4.31-1.18.6.21,1.12.44,1.77.43.72-.01,1.42-.23,2.11-.43.65-.19,1.29-.39,1.93-.58.68-.2.94-.35,1.32.26.64,1.02,1.41,1.53,2.65,1.29,2.89-.55,5.68-2.11,8.69-1.44.63.14,1.23.26,1.87.15.72-.13,1.42-.43,2.11-.67,1.36-.46,2.79-.91,4.24-.81,1.55.11,2.72,1.1,4.06,1.76,1.33.67,2.86,1.06,4.3.5,1.22-.47.69-2.47-.55-1.99Z"/><path class="cls-3" d="M48.61,26.32c-1.46-.38-3.26-.63-4.46.52-.37.36-.72,1.56-1.33,1.06-.45-.37-.61-1.2-.88-1.7-.83-1.5-2.4-1.94-3.94-1.19-.8.39-1.4,1.06-2.17,1.5-.31.18-.72.41-1.08.23-.35-.18-.56-.74-.8-1.04-.56-.69-1.39-1.2-2.31-.99-.36.08-.68.29-.96.53-.28.25-.5.68-.85.83-.67.3-1.01-.33-1.27-.81-.36-.66-.76-1.34-1.51-1.6-.87-.3-1.67.05-2.47.38-.49.2-.97.39-1.46.59-.13.05-.46.14-.58.23-.19,0-.28.05-.28.14,0,0,0,0,0-.01-.22-.68-.46-1.34-1.07-1.76-.64-.44-1.47-.52-2.22-.35-.98.22-1.69.91-2.43,1.54-.35.3-.79.69-1.28.72-.46.03-.58-.32-.88-.61-1.54-1.46-4.47-.26-6.1.45-1.21.53-.16,2.31,1.04,1.78.87-.38,1.82-.65,2.76-.78.47-.06.69-.11,1.02.21.35.34.62.65,1.09.83,1.74.68,3.1-.62,4.35-1.63.36-.29,1.18-.87,1.58-.35.17.22.2.63.31.88.16.37.36.7.71.92.74.49,1.52.17,2.26-.12.44-.18.88-.35,1.31-.53.32-.13,1.23-.7,1.59-.6.38.1.64,1.01.86,1.33.44.64,1.08,1.07,1.85,1.21.69.12,1.42,0,2.02-.37.35-.21.55-.62.88-.83.08-.05.12-.2.24-.19.19.01.4.48.5.63.5.7,1.03,1.27,1.91,1.43.86.16,1.72-.16,2.44-.6.71-.44,1.29-1.11,2.06-1.42.8-.33,1.03.26,1.32.88.65,1.38,1.62,2.87,3.42,2.34.44-.13.83-.39,1.13-.73.28-.32.45-.85.82-1.08.64-.39,1.66-.07,2.32.1,1.28.34,1.83-1.65.55-1.99Z"/><path class="cls-3" d="M48.71,14.65c-.93-.22-1.71.08-2.47.61-.17.12-.64.57-.88.52-.08-.02-.27-.32-.34-.39-.21-.21-.44-.41-.69-.57-.68-.44-1.52-.64-2.33-.55-.91.09-1.64.79-2.51.89-.69.08-.81-.82-1.24-1.26-.6-.62-1.44-.76-2.25-.51-.69.22-1.24,1.04-1.92,1.15-.61.1-1.37-.72-1.91-.97-.75-.34-1.55-.36-2.32-.08-.84.3-1.69,1.24-2.59,1.29-.48.02-.74-.38-1.12-.61-.28-.17-.6-.27-.92-.3-.66-.06-1.27.18-1.81.55-.42.29-.96.92-1.47,1.03-.53.11-.99-.57-1.36-.87-1.16-.94-2.45-.87-3.71-.17-.61.33-1.15.81-1.79,1.08-.7.29-1.02-.19-1.42-.71-1.36-1.74-3.08-1.83-5.14-1.48-1.31.22-.75,2.21.55,1.99.72-.12,1.67-.32,2.34.09.64.39.95,1.19,1.53,1.66,1.15.94,2.51.66,3.7-.05.51-.3.99-.7,1.54-.94.56-.25.83-.12,1.28.26,1.09.93,2.14,1.63,3.58.9.53-.27.95-.68,1.43-1.01.16-.11.39-.31.6-.29.24.02.65.51.89.64.76.41,1.64.33,2.42.04.8-.3,1.7-1.26,2.58-1.25.65,0,1.24.69,1.81.95.77.37,1.59.42,2.36.04.39-.19,1.27-1.13,1.68-.98.15.05.28.51.37.65.22.36.49.68.86.9.82.49,1.78.38,2.62.03.87-.36,1.74-.98,2.64-.33.39.28.61.71,1.03.96.36.21.79.29,1.2.26.43-.03.85-.2,1.22-.41.38-.21.97-.88,1.43-.77,1.29.31,1.84-1.68.55-1.99Z"/><path class="cls-3" d="M47.86,10.58c-1.49.5-3,.23-4.52.07-1.43-.16-2.78-.07-4.2.15-3.17.48-6.32-.24-9.48.41-1.49.31-2.97.75-4.51.76-.72,0-1.45-.07-2.13-.32-.72-.27-1.36-.73-2.06-1.03-2.22-.96-5.19-.37-7.1-2.02-.67-.58-1.64.39-.97.97,2.06,1.78,4.75,1.3,7.16,2.16.77.27,1.43.75,2.17,1.07.65.29,1.34.44,2.05.51,1.52.15,3.05-.17,4.52-.5,1.69-.38,3.3-.63,5.04-.54,1.65.09,3.24.21,4.89-.03,1.69-.24,3.22-.38,4.92-.18,1.55.18,3.08.35,4.59-.15.83-.28.48-1.61-.37-1.33Z"/><path class="cls-3" d="M47.34,20.21c-.16.25-1.4-.65-1.6-.73-.63-.23-1.25-.14-1.78.29-.52.42-.97,1.13-1.71,1.16-.75.03-1.03-.77-1.39-1.29-.28-.4-.63-.77-1.11-.92-.71-.23-1.26.09-1.93.27-.74.21-1.18-.47-1.87-.63-.71-.17-1.47.02-2.11.32-.67.31-1.22.8-1.85,1.17-.34.21-.7.48-1.07.23-.3-.21-.45-.48-.82-.63-.58-.23-1.2-.17-1.81-.15-.93.02-1.83-.14-2.74-.29-1.49-.24-2.97-.4-4.4.2-.38.16-.78.4-1.2.48-.48.09-.82-.11-1.22-.33-.65-.36-1.31-.6-2.05-.68-.87-.09-1.66.1-2.48.39-.56.2-.9.3-1.37-.12-.25-.22-.43-.47-.72-.66-1.19-.75-2.71-.56-3.75.35-.67.58.31,1.55.97.97.51-.45,1.26-.54,1.88-.25.61.29.86.99,1.54,1.21.65.22,1.32,0,1.94-.23.82-.3,1.64-.44,2.5-.18.73.22,1.31.77,2.07.9.71.12,1.36-.13,1.99-.41,1.73-.75,3.3-.39,5.1-.13.77.11,1.52.16,2.29.13.34-.01.71-.06,1.01.12.3.18.44.55.78.71,1.33.66,2.79-.95,3.85-1.51.44-.23.94-.4,1.43-.25.35.11.6.38.93.54.65.31,1.25.14,1.89-.09.77-.29,1-.07,1.42.57.32.5.65,1.01,1.19,1.3.62.33,1.34.3,1.98.05.34-.13.65-.32.94-.55.28-.23.55-.64.9-.75.57-.18,1.38.69,2.04.77.65.09,1.18-.13,1.54-.68.48-.75-.71-1.44-1.19-.69Z"/><path class="cls-3" d="M47.3,33.87c-1.36.75-2.84,1.28-4.38,1.5-.73.1-1.5.13-2.22-.06-.79-.21-1.5-.65-2.3-.82-1.31-.28-2.67-.12-3.88.44-.58.27-1.13.68-1.78.71-.57.02-1.15-.21-1.67-.42-1.01-.4-2.03-.94-3.15-.81-.55.06-.94.31-1.43.54-.85.4-1.7-.06-2.56-.21-1.38-.24-2.65.2-3.91.73-.65.27-1.58.83-2.31.71-.65-.11-1.15-.73-1.72-1.03-.61-.32-1.3-.51-1.99-.41-.73.1-1.13.58-1.75.89-1.17.57-2.47.1-3.51,1.08-.65.61.33,1.58.97.97.79-.75,2.27-.34,3.23-.86.6-.33.99-.85,1.76-.69.7.14,1.19.64,1.76,1.01,1.22.79,2.42.29,3.64-.22.64-.27,1.28-.55,1.95-.73.9-.23,1.65-.09,2.53.13.59.14,1.21.27,1.81.14.61-.13,1.09-.62,1.7-.68,1.07-.11,2.16.65,3.15.98,1.16.39,2.18.28,3.26-.27,1.39-.7,2.72-1.01,4.23-.47.79.28,1.51.65,2.35.75.74.09,1.47.03,2.2-.08,1.66-.25,3.24-.83,4.71-1.64.77-.43.08-1.61-.69-1.19Z"/><path class="cls-3" d="M48.33,45.46s-.03-.07-.05-.1c-.26-.54-.87-.39-1.13,0-.36.05-1.45-.36-1.68-.42-.64-.19-1.27-.36-1.93-.44-.62-.07-1.23-.06-1.85.03-.66.09-1.25.38-1.89.5-.71.13-1.29-.34-1.94-.57-.6-.21-1.24-.33-1.88-.35-1.33-.05-2.51.47-3.78.79-.72.18-1.4.23-2.09-.06-.54-.23-1.04-.5-1.62-.63-1.3-.29-2.73-.28-4.06-.24-1.4.04-2.6.37-3.9.86-1.38.52-2.45-.11-3.78-.46-2.83-.76-5.36,1.01-8.1,1.39-.87.12-.5,1.45.37,1.33,2.55-.36,5.02-2.12,7.64-1.31,1.17.36,2.28.88,3.53.6.64-.14,1.22-.45,1.83-.65.73-.24,1.49-.34,2.26-.37,1.37-.05,2.99-.12,4.3.31.56.19,1.07.53,1.65.67.64.16,1.28.13,1.92,0,1.35-.26,2.58-.93,3.98-.84,1.26.08,2.34,1.08,3.6.94.76-.09,1.46-.46,2.23-.56.82-.11,1.62-.02,2.42.19,1,.27,2.98,1.21,3.83.24.22-.25.25-.54.11-.83Z"/><path class="cls-3" d="M48.01,30.4c-1.71.34-3.43.62-5.16.82-.78.09-1.57.18-2.35.24-.47.03-.9.06-1.35-.12-.32-.13-.6-.34-.92-.48-1.16-.52-2.13-.09-3.21.38-.6.26-1.16.46-1.78.16-.58-.27-1.03-.76-1.55-1.13-2.08-1.49-4.35-.45-6.63-.23-.52.05-1.07.06-1.57-.11-.6-.2-1.04-.68-1.65-.87-1.21-.38-2.22.33-3.34.66-.87.25-1.38-.13-2.14-.49-.63-.3-1.25-.4-1.94-.29-1.82.28-3.65.92-5.43,1.39-.85.22-.49,1.55.37,1.33,1.62-.43,3.24-.92,4.88-1.28.82-.18,1.28-.04,2,.35.55.3,1.11.52,1.75.5,1.14-.05,2.43-1.23,3.54-.8.49.19.88.58,1.38.77.54.2,1.12.27,1.69.26,1.16-.02,2.29-.37,3.43-.54,1.37-.2,2.32.05,3.4.9.89.7,1.8,1.31,2.99,1.09.54-.1,1.02-.35,1.52-.57.78-.35,1.27-.44,2.06-.04.68.34,1.26.6,2.04.58.94-.02,1.88-.16,2.81-.27,1.85-.22,3.69-.51,5.52-.87.87-.17.5-1.5-.37-1.33Z"/></g><g class="cls-5"><path class="cls-3" d="M-28.83-44.96c-.2.67-.62,1.25-1.07,1.77-.23.26-.62.53-.59.92.03.38.4.75.59,1.06.71,1.16.94,2.49.98,3.83.06,1.68-.17,3.36-.18,5.04-.02,1.98.17,3.95.52,5.9,0,.02,0,.06-.01.09.03.02.06.05.1.07.2.2.35.43.42.71.05.34.11.67.16,1.01.06.2.08.4.04.6,0,.08-.05.15-.07.23.37.48.84.87,1.3,1.27.46.4.88.82,1.2,1.33,1.01.55,1.9,1.3,2.58,2.24.21.29.4.59.68.82.29.24.6.21.96.24.6.04.81.43,1.05.84.76.5,1.5,1.05,2.23,1.61.12-.08.24-.16.4-.21.9-.26,1.69-.09,2.32.34,1.32-.39,2.69-.54,4.07-.45.17-.05.34-.11.53-.12.96-.06,1.93.36,2.8.7,1.02.4,2.02.88,3.01,1.35.1.05.14.14.15.24.08-.01.16,0,.23.04,1.58.89,2.8,2.2,4.03,3.5.6.63,1.2,1.32,1.89,1.85.73.55,1.52.64,2.41.74.91.1,1.83.2,2.74.3.98.11,1.81.25,2.71-.21.82-.42,2.39-.84,2.63.36.95.88,1.86,1.79,2.73,2.75.33.36-.42,1.07-.74,1.16-1.28.36-2.44.02-3.71-.25-.4-.09-.53-.19-.65.2-.11.33.02.82.09,1.15.19.81.59,1.58,1.06,2.26.46.67,1.01,1.29,1.82,1.54.9.28,1.95.27,2.89.37,1.09.12,3.63-.12,3.76,1.43,0,.08-.03.15-.03.23.48-.23.77.21.23.77-.21.22-.41.31-.57.3-.35.59-.9,1.09-1.47,1.36-1.24.61-2.75.36-3.99-.11-2.6-.99-4.69-3.35-5.21-6.11-.16-.86-.13-1.76-.37-2.61-.29-1.06-1.06-1.76-2.03-2.22-1.6-.76-3.41-.89-4.89-1.93-.03-.02-.04-.06-.05-.09-.12-.07-.25-.13-.37-.22-.2.13-.41.2-.57.11-1.53-.89-3.1-1.8-4.33-3.09-.61-.63-1.06-1.39-1.69-2-.49-.47-1.06-.83-1.65-1.14-.42-.1-.86-.14-1.33-.14-1.57-.01-3.21.14-4.66.8,0,.29-.01.58-.07.87-.26,1.23-.93,2.48-1.53,3.58-.73,1.34-1.63,2.42-2.83,3.36-.54.42-.47.24-.42.89.04.59.03,1.14-.17,1.7-.39,1.11-1.34,1.87-2.07,2.75-1.37,1.63-2.31,3.58-2.07,5.74.04.33-.09.62-.27.87.12.17.21.35.27.54.18.02.34.08.44.27.99,1.8,1.37,3.47,1.39,5.28.43-.19,1.05-.26,1.01.39-.21,4-.43,8.01-.65,12.01-.08,1.48-.14,2.89-.74,4.19-.13.74-.35,1.44-.72,2.08.83,1.2,1.52,2.48,2.09,3.81.38.69.75,1.38,1.02,2.11.03.09.05.18.08.27.31.45.57.94.84,1.41.2.04.35.18.36.51,0,.04,0,.07,0,.11.28.52.52,1.06.75,1.6.5.32,1.03.6,1.48.99.39.34.77.83.87,1.36.13.72-.16,1.4-.54,2-.38.61-.84,1.21-1.42,1.64-.63.47-1.43.8-2.15.34-.41-.27-.67-.78-.85-1.22-.18-.46-.28-.96-.34-1.45-.08-.7-.13-1.4-.16-2.1-.02-.02-.05-.04-.08-.07-.24-.26-.15-.63.02-.97-.01-.27-.02-.54-.04-.81-.01-.25.16-.57.31-.8,0-.04,0-.08,0-.11,0-.19-.04-.37-.06-.56-.11.01-.2-.02-.23-.14-.11-.43-.25-.85-.38-1.27-.17-.23-.34-.47-.52-.7-.12-.15-.06-.36.06-.58-.07-.19-.15-.38-.22-.57-.11-.2-.22-.41-.33-.62l-1.55-2.83c-.73.86-1.54,1.66-2.25,2.52-.95,1.13-1.86,2.31-2.76,3.49-.03.05-.06.11-.1.16-.54.84-1.12,1.66-1.72,2.47-.09.15-.18.31-.28.46-1.52,2.4-3.32,4.57-5.9,5.8-.02.02-.03.03-.05.05.09.02.16.08.16.24-.07,1.32-.11,2.64-.12,3.96,0,.12-.07.25-.14.36.43,1.29.5,2.67.79,3.99.08.34-.24.69-.48.88-.13.11-.65.4-.72.07-.26-1.14-.33-2.31-.62-3.45-.14-.54-.32-1.09-.61-1.57-.25-.41-.64-.88-1.13-1.04-.02,0-.04.02-.05.03h-.03c-.08.02-.15,0-.21-.05-.02-.02-.01-.05-.02-.07-1.23.84-2.61,1.39-3.97,2.08-1.17.59-2.28,1.28-3.39,1.98-.06.39-.05.81,0,1.22.16,1.23.5,2.46.02,3.67-.34.85-1.31,2.07-2.37,1.85-.64-.14-1.27-.74-1.77-1.13-.51-.4-1.18-.86-1.37-1.52-.12-.42-.04-.85.12-1.28.03-.65.32-1.28.6-1.85.05-.1.11-.21.16-.31.03-.07.07-.14.1-.2.04-.11.08-.22.11-.33.13-1.16-.06-2.33-.55-3.4-.09-.2.05-.47.26-.7-.82-1.92-1.43-3.93-1.71-6.01-.25-1.77-.22-3.55-.12-5.32-.04-.12-.09-.23-.11-.35-.27-1.1-.38-2.22-.49-3.34-.02-.19.05-.37.16-.53-.4-2.63-.39-5.29-.19-7.94.24-3.18.64-6.36,1-9.53-.72-2.69-3.03-4.82-5.8-5.22-1.43-.21-2.88.16-4.26-.37-1.22-.47-2.26-1.31-3.55-1.57-.18.1-.36.13-.48.02-1.97-1.68-3.98-3.43-5.24-5.74-.64-1.18-.85-2.4-1.14-3.69-.14-.65-.35-1.28-.84-1.75-.04-.04-.08-.07-.12-.11-.56-.47-1.29-.68-1.97-.88-.08-.02-.12-.08-.14-.14-1.56-.63-2.78-1.77-4.07-2.85-.77-.64-1.61-1.16-2.39-1.73-.17-.01-.32-.09-.42-.29-.01-.02-.03-.04-.04-.06-.19-.16-.37-.33-.56-.51-.99-.75-1.75-1.74-2.75-2.47-1-.73-2.09-1.34-2.91-2.29-.42-.48.19-1.32.54-1.67.07-.07.19-.18.33-.29-.19-.48.36-1.21.65-1.5.3-.3,1.19-1.06,1.65-.6.07.07.13.14.2.21,1.12-.12,1.92.95,2.33,1.96.36.89.8,1.71,1.28,2.51.23.34.46.68.67,1.03.4.59.82,1.17,1.27,1.75,2.57,3.3,6.36,5.33,9.22,8.36,1.55,1.64,2.93,3.45,4.11,5.37.64,1.03,1.27,1.66,2.33,2.26,1.04.59,2.09,1.16,3.13,1.74.39,0,.79-.01,1.18.04.69.1,1.36.33,2.02.54.07.02.13.04.2.06.12,0,.24,0,.35.01,1.74.07,3.33.4,4.67,1.57,1.4,1.22,2.73,3.2,3.05,5.05.05.26.07.53.08.79.27,0,.49.13.46.52-.02.32-.08.64-.14.95.16.21.33.42.39.68.07.28.05.58.02.87-.06.65-.19,1.29-.38,1.91-.07.23-.25.43-.46.59-.38,1.86-.62,3.74-.83,5.63-.04.7-.08,1.39-.13,2.09,0,.15-.06.3-.12.44-.15,1.79-.27,3.58-.4,5.36.58,2.59.84,5.24,1.37,7.84.51,2.49,1.28,4.91,2.09,7.32.82-.14,1.6-.04,2.45-.06.93-.01,1.62-.47,2.4-.94,1.7-1.02,3.41-2.09,4.59-3.71-.32-1.34-.94-2.63-1.34-3.94-.29-.92-.38-1.82-.36-2.79.01-.59-.07-1.04-.44-1.51-.32-.4-.66-.77-.79-1.28-.11-.4.74-1.42,1.15-1.04.75.69,1.33,1.56,1.66,2.53.36,1.07.19,2.23.55,3.29.31.9.92,1.5,1.57,2.11.09-.02.19-.04.27-.03.49.09.94.05,1.36-.07.06-.04.11-.09.17-.11.06-.02.11-.02.16-.02.09-.04.18-.07.26-.11.58-.62,1.13-1.26,1.6-1.96,1.17-1.75,2.04-3.55,3.42-5.16.46-.54.95-1.06,1.33-1.66.13-.24.25-.49.39-.74,0-.01.01-.02.02-.04.33-.85.43-1.77.73-2.64.63-1.83,1.68-3.45,2.72-5.06.06-.09.21-.23.39-.38.12-.41.25-.83.32-1.26-.01-.31-.02-.63-.03-.94-.08-1.94-.14-3.88,0-5.81-.01-.86-.01-1.71.05-2.58-.13-.07-.27-.13-.39-.24-.57-.52-1.16-1.09-1.5-1.79-.37-.76-.51-1.56-.43-2.4.04-.4.1-.8.16-1.2.03-.15.05-.3.07-.46,0-.06.02-.12.02-.17,0,0,0,0,0,0,.05-.68.05-1.37-.03-2.05-.03-.22.06-.46.17-.69-.02-.16-.04-.33-.05-.49-.1-.19-.18-.4-.21-.63-.21-1.88.29-3.76,1.17-5.42.47-.87,1.05-1.69,1.68-2.45.44-.53,1.41-1.21,1.5-1.91.05-.4-.08-.82-.05-1.23.04-.55.21-1.03.51-1.48.61-.92,1.67-1.38,2.34-2.25.69-.88,1.15-1.94,1.61-2.94-.16-.03-.31-.08-.45-.18-.78-.57-1.57-1.14-2.35-1.71-.35-.25-.7-.51-1.04-.76-.22-.16-.44-.32-.65-.48-.07-.05-.24-.13-.31-.2-.86.27-1.68.29-2.59-.23-1.13-.64-1.67-1.74-2.15-2.88-.47-1.1-1.1-1.58-2.15-2.13-.99-.51-1.98-1.04-2.76-1.84-.1,0-.2.02-.3,0-1.67-.18-3.28-.43-4.84-1.07-1.52-.63-2.9-1.67-3.95-2.93-.43-.52-.67-1.25-.29-1.89.39-.64,1.03-.88,1.75-.78.73.1,1.46.35,2.12.7.73.39,1.35.96,2,1.47.04.03.08.06.12.09.02,0,.04.03.11.07.15.09.29.18.44.26.15.08.31.15.46.22.03.01.02,0,.04.02.07.02.13.05.2.07.68.22,1.38.37,2.08.51.16.03.29.11.43.2.03,0,.05,0,.08.01.1.01.18.07.27.11,0,0,0,0,0,0-.01-.06-.02-.13-.03-.19-.06-.2-.08-.4-.04-.6,0-.21.06-.4.17-.58.03-.05.08-.08.11-.13-.31-.65-.66-1.28-1.16-1.8-.59-.6-1.31-.96-1.61-1.81-.25-.73-.26-1.56-.35-2.32l-.34-2.98c-.18-1.55-.54-3.22-.38-4.78.17-1.59,1.08-2.97,1.83-4.34.41-.75.82-1.5,1.23-2.24.3-.54.72-1.24,1.43-1.23,1.28,0,1.66,1.57,1.37,2.56Z"/></g><g class="cls-6"><path class="cls-4" d="M-28.83,45.04c-.2.67-.62,1.25-1.07,1.77-.23.26-.62.53-.59.92.03.38.4.75.59,1.06.71,1.16.94,2.49.98,3.83.06,1.68-.17,3.36-.18,5.04-.02,1.98.17,3.95.52,5.9,0,.02,0,.06-.01.09.03.02.06.05.1.07.2.2.35.43.42.71.05.34.11.67.16,1.01.06.2.08.4.04.6,0,.08-.05.15-.07.23.37.48.84.87,1.3,1.27.46.4.88.82,1.2,1.33,1.01.55,1.9,1.3,2.58,2.24.21.29.4.59.68.82.29.24.6.21.96.24.6.04.81.43,1.05.84.76.5,1.5,1.05,2.23,1.61.12-.08.24-.16.4-.21.9-.26,1.69-.09,2.32.34,1.32-.39,2.69-.54,4.07-.45.17-.05.34-.11.53-.12.96-.06,1.93.36,2.8.7,1.02.4,2.02.88,3.01,1.35.1.05.14.14.15.24.08-.01.16,0,.23.04,1.58.89,2.8,2.2,4.03,3.5.6.63,1.2,1.32,1.89,1.85.73.55,1.52.64,2.41.74.91.1,1.83.2,2.74.3.98.11,1.81.25,2.71-.21.82-.42,2.39-.84,2.63.36.95.88,1.86,1.79,2.73,2.75.33.36-.42,1.07-.74,1.16-1.28.36-2.44.02-3.71-.25-.4-.09-.53-.19-.65.2-.11.33.02.82.09,1.15.19.81.59,1.58,1.06,2.26.46.67,1.01,1.29,1.82,1.54.9.28,1.95.27,2.89.37,1.09.12,3.63-.12,3.76,1.43,0,.08-.03.15-.03.23.48-.23.77.21.23.77-.21.22-.41.31-.57.3-.35.59-.9,1.09-1.47,1.36-1.24.61-2.75.36-3.99-.11-2.6-.99-4.69-3.35-5.21-6.11-.16-.86-.13-1.76-.37-2.61-.29-1.06-1.06-1.76-2.03-2.22-1.6-.76-3.41-.89-4.89-1.93-.03-.02-.04-.06-.05-.09-.12-.07-.25-.13-.37-.22-.2.13-.41.2-.57.11-1.53-.89-3.1-1.8-4.33-3.09-.61-.63-1.06-1.39-1.69-2-.49-.47-1.06-.83-1.65-1.14-.42-.1-.86-.14-1.33-.14-1.57-.01-3.21.14-4.66.8,0,.29-.01.58-.07.87-.26,1.23-.93,2.48-1.53,3.58-.73,1.34-1.63,2.42-2.83,3.36-.54.42-.47.24-.42.89.04.59.03,1.14-.17,1.7-.39,1.11-1.34,1.87-2.07,2.75-1.37,1.63-2.31,3.58-2.07,5.74.04.33-.09.62-.27.87.12.17.21.35.27.54.18.02.34.08.44.27.99,1.8,1.37,3.47,1.39,5.28.43-.19,1.05-.26,1.01.39-.21,4-.43,8.01-.65,12.01-.08,1.48-.14,2.89-.74,4.19-.13.74-.35,1.44-.72,2.08.83,1.2,1.52,2.48,2.09,3.81.38.69.75,1.38,1.02,2.11.03.09.05.18.08.27.31.45.57.94.84,1.41.2.04.35.18.36.51,0,.04,0,.07,0,.11.28.52.52,1.06.75,1.6.5.32,1.03.6,1.48.99.39.34.77.83.87,1.36.13.72-.16,1.4-.54,2-.38.61-.84,1.21-1.42,1.64-.63.47-1.43.8-2.15.34-.41-.27-.67-.78-.85-1.22-.18-.46-.28-.96-.34-1.45-.08-.7-.13-1.4-.16-2.1-.02-.02-.05-.04-.08-.07-.24-.26-.15-.63.02-.97-.01-.27-.02-.54-.04-.81-.01-.25.16-.57.31-.8,0-.04,0-.08,0-.11,0-.19-.04-.37-.06-.56-.11.01-.2-.02-.23-.14-.11-.43-.25-.85-.38-1.27-.17-.23-.34-.47-.52-.7-.12-.15-.06-.36.06-.58-.07-.19-.15-.38-.22-.57-.11-.2-.22-.41-.33-.62l-1.55-2.83c-.73.86-1.54,1.66-2.25,2.52-.95,1.13-1.86,2.31-2.76,3.49-.03.05-.06.11-.1.16-.54.84-1.12,1.66-1.72,2.47-.09.15-.18.31-.28.46-1.52,2.4-3.32,4.57-5.9,5.8-.02.02-.03.03-.05.05.09.02.16.08.16.24-.07,1.32-.11,2.64-.12,3.96,0,.12-.07.25-.14.36.43,1.29.5,2.67.79,3.99.08.34-.24.69-.48.88-.13.11-.65.4-.72.07-.26-1.14-.33-2.31-.62-3.45-.14-.54-.32-1.09-.61-1.57-.25-.41-.64-.88-1.13-1.04-.02,0-.04.02-.05.03h-.03c-.08.02-.15,0-.21-.05-.02-.02-.01-.05-.02-.07-1.23.84-2.61,1.39-3.97,2.08-1.17.59-2.28,1.28-3.39,1.98-.06.39-.05.81,0,1.22.16,1.23.5,2.46.02,3.67-.34.85-1.31,2.07-2.37,1.85-.64-.14-1.27-.74-1.77-1.13-.51-.4-1.18-.86-1.37-1.52-.12-.42-.04-.85.12-1.28.03-.65.32-1.28.6-1.85.05-.1.11-.21.16-.31.03-.07.07-.14.1-.2.04-.11.08-.22.11-.33.13-1.16-.06-2.33-.55-3.4-.09-.2.05-.47.26-.7-.82-1.92-1.43-3.93-1.71-6.01-.25-1.77-.22-3.55-.12-5.32-.04-.12-.09-.23-.11-.35-.27-1.1-.38-2.22-.49-3.34-.02-.19.05-.37.16-.53-.4-2.63-.39-5.29-.19-7.94.24-3.18.64-6.36,1-9.53-.72-2.69-3.03-4.82-5.8-5.22-1.43-.21-2.88.16-4.26-.37-1.22-.47-2.26-1.31-3.55-1.57-.18.1-.36.13-.48.02-1.97-1.68-3.98-3.43-5.24-5.74-.64-1.18-.85-2.4-1.14-3.69-.14-.65-.35-1.28-.84-1.75-.04-.04-.08-.07-.12-.11-.56-.47-1.29-.68-1.97-.88-.08-.02-.12-.08-.14-.14-1.56-.63-2.78-1.77-4.07-2.85-.77-.64-1.61-1.16-2.39-1.73-.17-.01-.32-.09-.42-.29-.01-.02-.03-.04-.04-.06-.19-.16-.37-.33-.56-.51-.99-.75-1.75-1.74-2.75-2.47-1-.73-2.09-1.34-2.91-2.29-.42-.48.19-1.32.54-1.67.07-.07.19-.18.33-.29-.19-.48.36-1.21.65-1.5.3-.3,1.19-1.06,1.65-.6.07.07.13.14.2.21,1.12-.12,1.92.95,2.33,1.96.36.89.8,1.71,1.28,2.51.23.34.46.68.67,1.03.4.59.82,1.17,1.27,1.75,2.57,3.3,6.36,5.33,9.22,8.36,1.55,1.64,2.93,3.45,4.11,5.37.64,1.03,1.27,1.66,2.33,2.26,1.04.59,2.09,1.16,3.13,1.74.39,0,.79-.01,1.18.04.69.1,1.36.33,2.02.54.07.02.13.04.2.06.12,0,.24,0,.35.01,1.74.07,3.33.4,4.67,1.57,1.4,1.22,2.73,3.2,3.05,5.05.05.26.07.53.08.79.27,0,.49.13.46.52-.02.32-.08.64-.14.95.16.21.33.42.39.68.07.28.05.58.02.87-.06.65-.19,1.29-.38,1.91-.07.23-.25.43-.46.59-.38,1.86-.62,3.74-.83,5.63-.04.7-.08,1.39-.13,2.09,0,.15-.06.3-.12.44-.15,1.79-.27,3.58-.4,5.36.58,2.59.84,5.24,1.37,7.84.51,2.49,1.28,4.91,2.09,7.32.82-.14,1.6-.04,2.45-.06.93-.01,1.62-.47,2.4-.94,1.7-1.02,3.41-2.09,4.59-3.71-.32-1.34-.94-2.63-1.34-3.94-.29-.92-.38-1.82-.36-2.79.01-.59-.07-1.04-.44-1.51-.32-.4-.66-.77-.79-1.28-.11-.4.74-1.42,1.15-1.04.75.69,1.33,1.56,1.66,2.53.36,1.07.19,2.23.55,3.29.31.9.92,1.5,1.57,2.11.09-.02.19-.04.27-.03.49.09.94.05,1.36-.07.06-.04.11-.09.17-.11.06-.02.11-.02.16-.02.09-.04.18-.07.26-.11.58-.62,1.13-1.26,1.6-1.96,1.17-1.75,2.04-3.55,3.42-5.16.46-.54.95-1.06,1.33-1.66.13-.24.25-.49.39-.74,0-.01.01-.02.02-.04.33-.85.43-1.77.73-2.64.63-1.83,1.68-3.45,2.72-5.06.06-.09.21-.23.39-.38.12-.41.25-.83.32-1.26-.01-.31-.02-.63-.03-.94-.08-1.94-.14-3.88,0-5.81-.01-.86-.01-1.71.05-2.58-.13-.07-.27-.13-.39-.24-.57-.52-1.16-1.09-1.5-1.79-.37-.76-.51-1.56-.43-2.4.04-.4.1-.8.16-1.2.03-.15.05-.3.07-.46,0-.06.02-.12.02-.17,0,0,0,0,0,0,.05-.68.05-1.37-.03-2.05-.03-.22.06-.46.17-.69-.02-.16-.04-.33-.05-.49-.1-.19-.18-.4-.21-.63-.21-1.88.29-3.76,1.17-5.42.47-.87,1.05-1.69,1.68-2.45.44-.53,1.41-1.21,1.5-1.91.05-.4-.08-.82-.05-1.23.04-.55.21-1.03.51-1.48.61-.92,1.67-1.38,2.34-2.25.69-.88,1.15-1.94,1.61-2.94-.16-.03-.31-.08-.45-.18-.78-.57-1.57-1.14-2.35-1.71-.35-.25-.7-.51-1.04-.76-.22-.16-.44-.32-.65-.48-.07-.05-.24-.13-.31-.2-.86.27-1.68.29-2.59-.23-1.13-.64-1.67-1.74-2.15-2.88-.47-1.1-1.1-1.58-2.15-2.13-.99-.51-1.98-1.04-2.76-1.84-.1,0-.2.02-.3,0-1.67-.18-3.28-.43-4.84-1.07-1.52-.63-2.9-1.67-3.95-2.93-.43-.52-.67-1.25-.29-1.89.39-.64,1.03-.88,1.75-.78.73.1,1.46.35,2.12.7.73.39,1.35.96,2,1.47.04.03.08.06.12.09.02,0,.04.03.11.07.15.09.29.18.44.26.15.08.31.15.46.22.03.01.02,0,.04.02.07.02.13.05.2.07.68.22,1.38.37,2.08.51.16.03.29.11.43.2.03,0,.05,0,.08.01.1.01.18.07.27.11,0,0,0,0,0,0-.01-.06-.02-.13-.03-.19-.06-.2-.08-.4-.04-.6,0-.21.06-.4.17-.58.03-.05.08-.08.11-.13-.31-.65-.66-1.28-1.16-1.8-.59-.6-1.31-.96-1.61-1.81-.25-.73-.26-1.56-.35-2.32l-.34-2.98c-.18-1.55-.54-3.22-.38-4.78.17-1.59,1.08-2.97,1.83-4.34.41-.75.82-1.5,1.23-2.24.3-.54.72-1.24,1.43-1.23,1.28,0,1.66,1.57,1.37,2.56Z"/></g></svg>