<?xml version="1.0" encoding="UTF-8"?><svg id="Layer_1" xmlns="http://www.w3.org/2000/svg" xmlns:xlink="http://www.w3.org/1999/xlink" viewBox="0 0 57 57"><defs><style>.cls-1{clip-path:url(#clippath);}.cls-2{fill:none;}.cls-2,.cls-3{stroke-width:0px;}.cls-3{fill:#231f20;}</style><clipPath id="clippath"><path class="cls-2" d="M42.49,47.85H14.51c-2.96,0-5.35-2.4-5.35-5.35V14.51c0-2.96,2.4-5.35,5.35-5.35h27.99c2.96,0,5.35,2.4,5.35,5.35v27.99c0,2.96-2.4,5.35-5.35,5.35Z"/></clipPath></defs><g class="cls-1"><path class="cls-3" d="M26.73,14.06c.06.01.11.02.16.03l-6.46-8.17-1.66,1.33,5.17,6.54c.99.02,1.93.1,2.79.26Z"/><path class="cls-3" d="M42.71,34.09c-.13.35-.31.67-.55.95.01.11.03.23.03.34v.58c0,.26-.04.51-.11.76l7.1,8.97,1.66-1.33-8.13-10.27Z"/><path class="cls-3" d="M16,17.58c.71-1.08,1.66-1.94,2.79-2.6l-7.6-9.61-4.32,3.45,8.25,10.43c.25-.59.54-1.15.89-1.67Z"/><path class="cls-3" d="M39.67,41.39c-.45.27-.98.44-1.55.44h-.61c-.24,0-.47-.04-.7-.09-.44.1-.91.16-1.39.16-.69,0-1.33-.14-1.91-.39-.08.04-.16.08-.24.11-.06.12-.13.23-.21.34l7.64,9.67,4.32-3.45-5.37-6.79Z"/><path class="cls-3" d="M21.54,38.68c-.22.11-.67.22-1.25.22-1.33,0-2.33-.84-2.33-2.39s1-2.48,2.47-2.48c.59,0,.96.13,1.12.21l-.15.5c-.23-.11-.56-.2-.95-.2-1.11,0-1.84.71-1.84,1.95,0,1.16.67,1.9,1.81,1.9.37,0,.75-.08.99-.2l.13.48Z"/><path class="cls-3" d="M25.27,37.11c0,1.25-.87,1.8-1.69,1.8-.92,0-1.62-.67-1.62-1.74,0-1.13.74-1.8,1.68-1.8s1.63.71,1.63,1.74ZM22.58,37.14c0,.74.43,1.3,1.03,1.3s1.03-.55,1.03-1.32c0-.57-.29-1.3-1.02-1.3s-1.04.67-1.04,1.32Z"/><path class="cls-3" d="M26.04,36.55c0-.43-.01-.78-.03-1.11h.55l.03.58h.01c.25-.41.65-.66,1.2-.66.82,0,1.44.69,1.44,1.72,0,1.22-.74,1.82-1.54,1.82-.45,0-.84-.2-1.04-.53h-.01v1.84h-.61v-3.67ZM26.65,37.45c0,.09.01.18.03.25.11.43.48.72.92.72.65,0,1.03-.53,1.03-1.31,0-.68-.36-1.26-1.01-1.26-.42,0-.81.3-.93.76-.02.08-.04.17-.04.25v.58Z"/><path class="cls-3" d="M30.03,36.55c0-.43-.01-.78-.03-1.11h.55l.03.58h.01c.25-.41.65-.66,1.2-.66.82,0,1.44.69,1.44,1.72,0,1.22-.74,1.82-1.54,1.82-.45,0-.84-.2-1.04-.53h-.01v1.84h-.61v-3.67ZM30.64,37.45c0,.09.01.18.03.25.11.43.48.72.92.72.65,0,1.03-.53,1.03-1.31,0-.68-.36-1.26-1.01-1.26-.42,0-.81.3-.93.76-.02.08-.04.17-.04.25v.58Z"/><path class="cls-3" d="M34.35,37.25c.01.83.55,1.18,1.16,1.18.44,0,.71-.08.94-.18l.1.44c-.22.1-.59.21-1.13.21-1.04,0-1.67-.69-1.67-1.71s.6-1.83,1.59-1.83c1.11,0,1.4.97,1.4,1.6,0,.13-.01.22-.02.29h-2.38ZM36.16,36.81c0-.39-.16-1-.85-1-.62,0-.9.57-.95,1h1.8Z"/><path class="cls-3" d="M37.52,36.5c0-.4,0-.74-.03-1.06h.54l.02.67h.03c.15-.46.52-.74.94-.74.07,0,.12,0,.17.02v.58c-.06-.01-.13-.02-.21-.02-.43,0-.74.33-.83.79-.01.08-.03.18-.03.29v1.81h-.61v-2.33Z"/><path class="cls-3" d="M17.43,21.89c.21-1.01.57-1.89,1.08-2.65.5-.76,1.17-1.36,2-1.8s1.86-.66,3.1-.66c.94,0,1.79.07,2.56.22.77.15,1.43.34,1.97.59v3.04c-.5-.2-.95-.37-1.36-.5-.41-.14-.8-.24-1.16-.32s-.71-.13-1.03-.16c-.33-.03-.65-.04-.98-.04-.64,0-1.18.14-1.63.43s-.81.67-1.08,1.17c-.27.5-.46,1.08-.59,1.75s-.18,1.38-.18,2.15.06,1.48.18,2.15.32,1.25.59,1.75c.27.5.63.89,1.08,1.17.45.28.99.43,1.63.43.33,0,.65-.01.98-.04.33-.03.67-.08,1.03-.16s.75-.18,1.16-.32c.41-.13.86-.3,1.36-.5v3.04c-.54.24-1.2.44-1.97.59-.77.15-1.63.22-2.56.22-1.24,0-2.27-.22-3.1-.66-.83-.44-1.5-1.04-2-1.8-.5-.76-.86-1.64-1.08-2.65s-.32-2.08-.32-3.22.11-2.21.32-3.22Z"/><path class="cls-3" d="M33.42,29.48c0,.38.11.7.34.94.23.24.59.36,1.09.36.23,0,.45-.02.68-.05s.44-.08.65-.13c.21-.05.38-.1.53-.16.15-.06.27-.1.35-.13v-7.86h2.83v10.65h-1.98l-.17-.34c-.17.07-.37.15-.61.23s-.48.16-.75.22c-.26.06-.53.12-.79.16-.26.04-.51.06-.76.06-.8,0-1.47-.09-2.01-.27-.55-.18-.99-.43-1.32-.77-.33-.33-.57-.75-.71-1.23s-.21-1.05-.21-1.69v-7.03h2.83v7.03Z"/></g></svg>