<?xml version="1.0" encoding="UTF-8"?><svg id="Layer_1" xmlns="http://www.w3.org/2000/svg" xmlns:xlink="http://www.w3.org/1999/xlink" viewBox="0 0 57 57"><defs><style>.cls-1{clip-path:url(#clippath);}.cls-2{fill:none;}.cls-2,.cls-3{stroke-width:0px;}.cls-3{fill:#231f20;}</style><clipPath id="clippath"><path class="cls-2" d="M42.49,47.85H14.51c-2.96,0-5.35-2.4-5.35-5.35V14.51c0-2.96,2.4-5.35,5.35-5.35h27.99c2.96,0,5.35,2.4,5.35,5.35v27.99c0,2.96-2.4,5.35-5.35,5.35Z"/></clipPath></defs><g class="cls-1"><path class="cls-3" d="M18.25,42.88c-.35-.19-.71-.35-1.07-.51-.14-.06-.29-.12-.44-.19-.04-.02-.28-.14-.3-.14-.16-.08-.31-.18-.45-.28,0-.01-.06-.07-.12-.13.05.03-.14-.31-.07-.07,0,0,0,0,0,0-.1-.34-.08-.42-.05-.82.02-.27.05-.54.04-.81-.03-.96-.44-1.77-1.26-2.29-1.43-.9-3.38-1-4.99-.69-1.69.32-1.17,2.93.52,2.62.64-.12,1.15-.14,1.86-.05.3.04.49.08.83.21,0,0,.23.11.24.1.05.03.1.06.14.09,0,0,0,0,0,0,0,0,0,0,0,.02-.01.26-.04.51-.05.77-.04.73.04,1.48.39,2.13.64,1.16,1.83,1.61,2.98,2.12.05.02.09.04.14.06.02,0,.04.02.09.05.1.06.21.12.31.18.13.08.26.17.38.26.05.04.1.08.15.11.02.02.04.04.07.07.11.1.21.21.31.32.04.05.32.44.23.29.06.1.11.2.16.31,0,.02.01.05.03.12,0-.13,0-.11,0,.05-.01.72.51,1.37,1.25,1.41.7.04,1.4-.53,1.41-1.25.03-1.73-1.29-3.24-2.74-4.04Z"/><path class="cls-3" d="M37.15,46.73c-.15-.85-.15-1.68-.6-2.44-.43-.73-1.05-1.35-1.54-2.05-.95-1.34-1.36-3.16-2.67-4.23-1.4-1.14-3.18-.79-4.83-1.02-1.86-.26-3.67-.13-5.49.28-.02,0-.04.01-.06.02-.25-.83-.72-1.48-1.44-2.09-.66-.55-1.1-.86-1.35-1.71-.39-1.32-1.25-2.24-2.71-2.14-.43.03-.91.23-1.34.18-.52-.06-1.05-.51-1.53-.7-.64-.25-1.33-.31-2-.2-.61.1-1.2.41-1.82.42-1.71.02-1.9,2.68-.18,2.66.63,0,1.19-.12,1.79-.29.49-.14.88-.24,1.36-.07,1.07.39,1.79.97,3,.8.16-.02.65-.04.8-.14.12.35.3.96.31,1.01.39.96,1.14,1.54,1.92,2.18.2.17.45.36.56.58.19.37.16.84.23,1.25.2,1.05.68,1.99,1.46,2.74.82.79,1.88,1.14,2.41,2.2.46.93.45,1.96.41,2.97-.06,1.71,2.61,1.9,2.66.18.09-2.67-.47-5.17-2.86-6.7-.31-.2-.56-.4-.77-.61,1.35-.28,2.66-.39,4.05-.22.72.09,1.41.13,2.14.15.55.01,1.24,0,1.67.4.42.39.62,1.03.86,1.53.34.7.74,1.37,1.18,2.01.41.61.9,1.16,1.33,1.75.37.51.3,1.18.41,1.78.31,1.69,2.93,1.2,2.62-.49Z"/><path class="cls-3" d="M43.42,41.44c-.51-.44-1.45-.92-1.78-1.3-.02-.02-.03-.03-.03-.03,0-.02-.02-.04-.03-.07-.07-.18-.05-.16-.11-.37-.12-.46-.18-.94-.26-1.41-.15-.86-.4-1.66-.93-2.37-.47-.62-1.05-.8-1.01-1.54.05-.98.43-1.92.19-2.91-.24-.99-.98-1.89-1.95-2.25-.74-.27-1.54-.2-2.3-.07-.42.07-1.18.37-1.57.12-.27-.17-.45-.67-.6-.93-.21-.36-.43-.71-.66-1.06-.57-.87-1.19-1.71-2.02-2.35-.75-.59-1.61-.86-2.54-.99-1-.14-1.89-.1-2.63-.86-.69-.7-1.23-1.34-2.23-1.59-.91-.23-1.83-.07-2.75.04-.2.02-.41.05-.61.05-.09,0-.17-.01-.26-.02-.25-.25-.91-.77-1.01-.83-.89-.55-1.92-.7-2.95-.75-2.16-.1-4.55.15-6.42,1.31-.61.38-.97,1.06-.64,1.77.28.59,1.16,1.03,1.77.64,1.43-.89,3.15-1.13,4.81-1.08.71.02,1.53,0,2.13.43.67.47.98,1.02,1.86,1.14.83.11,1.67-.04,2.49-.14.91-.1,1.17.11,1.79.75.61.63,1.3,1.16,2.15,1.42.95.29,2.09.13,2.99.54,1.4.63,2.1,2.44,2.89,3.65.99,1.52,2.41,1.74,4.09,1.43.32-.06,1.02-.3,1.33-.12.65.36.05,1.72,0,2.28-.06.74,0,1.5.36,2.15.4.72,1.21,1.13,1.47,1.92.51,1.56.25,3.18,1.68,4.3.78.61,1.63,1.06,2.29,1.82.69.81.79,1.64.68,2.68-.18,1.71,2.48,1.95,2.66.24.24-2.33-.57-4.15-2.34-5.66Z"/><path class="cls-3" d="M49.05,30.41c-1.13-1.28-2.04-2.69-2.96-4.12-.44-.68-.95-1.33-1.66-1.73-.69-.39-1.51-.52-2.27-.7-.59-.14-1.23-.27-1.76-.59-.61-.37-.62-1.03-.67-1.68-.11-1.45-.39-2.91-1.61-3.85-.63-.48-1.39-.79-2.09-1.16-.8-.43-1.43-1.08-2.21-1.54-1.35-.79-3.02-.97-4.55-.83-1.68.16-3.43.84-5.12.72-1.31-.09-2.12-1.4-3.21-1.98-3.53-1.9-7.71-.09-11.41-.13-.72,0-1.25.81-1.18,1.47.08.79.75,1.18,1.47,1.18,1.83.02,3.6-.43,5.41-.6,1.33-.13,2.91-.22,4.17.3,1.19.49,1.93,1.66,3.17,2.11,1.57.58,3.23.21,4.82-.07,1.45-.25,2.99-.61,4.44-.16.67.21,1.09.63,1.64,1.05.68.51,1.44.9,2.2,1.29.54.28,1.01.46,1.22,1.05.22.61.17,1.31.25,1.95.19,1.64,1.05,2.87,2.58,3.51.71.3,1.48.48,2.23.65.72.17,1.24.24,1.69.87,1.1,1.52,1.99,3.14,3.25,4.56.48.54,1.23.76,1.86.31.54-.39.78-1.32.31-1.86Z"/><path class="cls-3" d="M48.66,19.66c-.44-.34-.71-.87-1.14-1.24-.53-.45-1.13-.71-1.77-.96-1.05-.41-1.73-.91-2.41-1.81-1.39-1.83-2.32-3.98-4.5-5.03-2.3-1.12-5.15-1.37-7.66-1.5-1.19-.06-2.4.02-3.58-.22-1.23-.25-2.33-.74-3.38-1.42-1.44-.93-2.83,1.35-1.38,2.28,2.16,1.4,4.51,1.96,7.06,1.99,1.36.02,2.72.13,4.07.33,1.16.17,2.41.35,3.49.83,2.05.9,2.88,3.37,4.26,4.98.77.9,1.68,1.52,2.77,1.95.55.21,1.06.35,1.48.79.44.46.8.92,1.31,1.32.57.44,1.49.12,1.83-.45.41-.67.12-1.39-.45-1.83Z"/></g></svg>