<?xml version="1.0" encoding="UTF-8"?><svg id="Layer_1" xmlns="http://www.w3.org/2000/svg" xmlns:xlink="http://www.w3.org/1999/xlink" viewBox="0 0 57 57"><defs><style>.cls-1{clip-path:url(#clippath);}.cls-2{fill:none;}.cls-2,.cls-3{stroke-width:0px;}.cls-3{fill:#231f20;}</style><clipPath id="clippath"><path class="cls-2" d="M42.49,47.85H14.51c-2.96,0-5.35-2.4-5.35-5.35V14.51c0-2.96,2.4-5.35,5.35-5.35h27.99c2.96,0,5.35,2.4,5.35,5.35v27.99c0,2.96-2.4,5.35-5.35,5.35Z"/></clipPath></defs><g class="cls-1"><path class="cls-3" d="M39.51,42.17c-.06.04-.13.09-.19.13-.21.15-.42.31-.62.47-.21.16-.41.32-.61.48-.08.06-.19.13-.24.21-.38.65-.68,1.34-.9,2.05.03-.01.06-.03.08-.05.06-.04.13-.09.19-.13.21-.15.42-.31.62-.47.21-.16.41-.32.61-.48.04-.04.09-.07.13-.11.04-.03.08-.06.11-.1.21-.71.52-1.4.9-2.05-.03.01-.06.03-.08.05Z"/><path class="cls-3" d="M32.38,40.17c.02-.1.04-.2.03-.3-.03.01-.06.03-.08.05-.06.04-.13.09-.19.13-.11.08-.21.16-.32.24-.86.18-1.71.37-2.55.61-.09.02-.21.14-.27.18-.21.15-.42.31-.62.47-.21.16-.41.32-.61.48-.06.05-.18.2-.24.21,1.02-.29,2.06-.51,3.1-.72-.03.18-.09.36-.19.52.03-.01.06-.03.08-.05.06-.04.13-.09.19-.13.21-.15.42-.31.62-.47,0,0,.02-.01.03-.02,1.19-.23,2.39-.46,3.56-.77.08-.02.22-.14.27-.18.21-.15.42-.31.62-.47.21-.16.41-.32.61-.48.06-.05.18-.2.24-.21-1.41.37-2.86.63-4.29.92Z"/><path class="cls-3" d="M34.43,36.38c-.42-.32-1.01-.43-1.52-.58-.04-.01-.29.19-.27.18-.21.15-.42.31-.62.47-.21.16-.41.32-.61.48-.08.07-.18.13-.24.21-.06.07-.11.15-.17.22-.03-.03-.07-.07-.09-.11-.08-.1-.14-.21-.19-.33,0-.01,0-.02,0-.03.28-.27.56-.54.85-.82.09-.09-.14.06-.11.04-.19.11-.38.23-.57.35-.08.05-.16.1-.23.15-.02-.14-.03-.29-.02-.43,0,0-.31.21-.27.18-.21.15-.42.31-.62.47-.21.16-.41.32-.61.48-.05.04-.24.16-.24.21,0,.17,0,.33.03.5-.35.34-.68.69-.99,1.07.03,0,.06-.02.09-.04.07-.04.13-.07.2-.12.23-.13.45-.27.67-.42.06-.04.11-.07.17-.11.02.04.04.09.07.13.04.05.11.18.18.21.06.03.17-.05.24-.08.19-.1.38-.21.55-.33.49-.34.97-.71,1.44-1.09.25.07.5.15.74.26,0,0-.02.02-.02.03-.04.83-.06,1.66.22,2.46,0,0,.32-.21.27-.18.21-.15.42-.31.62-.47.21-.16.41-.32.61-.48.03-.03.25-.18.24-.21-.22-.61-.26-1.24-.25-1.87.23-.19.47-.39.47-.39Z"/><path class="cls-3" d="M37.57,39.66s-.29.19-.27.18c-.21.15-.42.31-.62.47-.21.16-.41.32-.61.48-.03.02-.23.22-.24.21.57.19,1.18.26,1.79.21.03-.01.06-.03.08-.05.06-.04.13-.09.19-.13.21-.15.42-.31.62-.47.21-.16.41-.32.61-.48.04-.04.09-.07.13-.11.04-.03.08-.06.11-.1-.61.06-1.22-.01-1.79-.21Z"/><path class="cls-3" d="M7.53,44.38s-.27.18-.27.18c-.21.15-.42.31-.62.47-.21.16-.41.32-.61.48-.03.03-.22.22-.24.21.75.06,1.53.05,2.3-.03-.08.06-.17.11-.15.1-.21.15-.42.31-.62.47-.21.16-.41.32-.61.48-.03.03-.15.11-.21.17-.16-.1-.3-.21-.41-.31-.12-.11-.24-.23-.33-.37-.01-.02-.83.6-.9.65-.21.16-.41.32-.61.48-.03.02-.25.19-.24.21.28.4.74.74,1.22.91.22.07.46.11.69.04.05-.02.11-.04.16-.07.08-.04.14-.09.21-.14.32-.23.64-.47.95-.72.2-.16.42-.31.6-.49,0,0,.03-.03.03-.03.01-.01.02-.02.03-.03.05-.05.1-.11.13-.17.21-.35.21-.79.19-1.18,1.03-.11,2.05-.35,2.95-.78.32-.15.62-.43.9-.65.21-.16.41-.32.61-.48.07-.06.16-.18.24-.21-1.62.76-3.58.97-5.38.82Z"/><path class="cls-3" d="M18.11,46.34c.61,0,1.2-1.34,1.75-1.34-.61,0-1.2,1.34-1.75,1.34Z"/><path class="cls-3" d="M16.37,45.48s-.03.02-.05.03c-.04.03-.08.05-.13.08-.08.05-.16.1-.25.15-.16.09-.33.18-.5.26-.17.08-.34.15-.52.22-.09.04-.2.13-.27.18-.21.15-.42.31-.62.47-.21.16-.41.32-.61.48-.04.04-.09.07-.13.11-.04.03-.08.06-.11.1.61-.23,1.17-.54,1.7-.9.42-.28.81-.6,1.2-.91.13-.1.28-.2.39-.32,0-.01.02-.02.03-.03-.05.02-.09.05-.13.08Z"/><path class="cls-3" d="M16.95,45.81s-.31.21-.27.18c-.21.15-.42.31-.62.47-.21.16-.41.32-.61.48-.04.04-.09.07-.13.11-.04.03-.08.06-.11.1.02.76.44,1.42,1.12,1.85.02.01.3-.2.27-.18.21-.15.42-.31.62-.47.21-.16.41-.32.61-.48.02-.02.25-.21.24-.21-.68-.43-1.1-1.09-1.12-1.85Z"/><path class="cls-3" d="M18.97,44.79s-.06.03-.08.05c-.06.04-.13.09-.19.13-.21.15-.42.31-.62.47-.21.16-.41.32-.61.48-.04.04-.09.07-.13.11-.04.03-.08.06-.11.1.22.07.45.14.67.21.03-.01.06-.03.08-.05.06-.04.13-.09.19-.13.21-.15.42-.31.62-.47.21-.16.41-.32.61-.48l.13-.11s.08-.06.11-.1c-.22-.07-.45-.14-.67-.21Z"/><path class="cls-3" d="M24.12,46.02s-.06.03-.08.05c-.06.04-.13.09-.19.13-.21.15-.42.31-.62.47-.21.16-.41.32-.61.48-.04.04-.09.07-.13.11-.04.03-.08.06-.11.1.15-.07.3-.14.45-.21.03-.01.06-.03.08-.05.06-.04.13-.09.19-.13.21-.15.42-.31.62-.47.21-.16.41-.32.61-.48.04-.04.09-.07.13-.11.04-.03.08-.06.11-.1-.15.07-.3.14-.45.21Z"/><path class="cls-3" d="M27.98,51.05c.61,0,1.2-1.34,1.75-1.34-.61,0-1.2,1.34-1.75,1.34Z"/><path class="cls-3" d="M39.41,53.31c.61,0,1.2-1.34,1.75-1.34-.61,0-1.2,1.34-1.75,1.34Z"/><path class="cls-3" d="M36.28,24.4c-.24-.32-.58-.5-.95-.62.02,0,.03,0,.05,0,.05,0,.27-.18.27-.18.21-.15.42-.31.62-.47.21-.16.41-.32.61-.48.04-.03.21-.22.24-.21-.77-.04-1.49.22-2.09.64-.24.17-.49.34-.73.52-.88-.06-1.97-.03-2.71-.46-.39-.99-.88-1.94-1.25-2.93l-.23.18c-.25.18-.62.43-.67.47-.21.16-.41.32-.61.48-.04.03-.25.17-.24.21.16.72.27,1.48.57,2.17.15.34.37.6.68.78.03.08.07.16.1.24.2.57.39,1.16.43,1.76.02.23.01.47-.05.7-.03.1-.07.21-.12.3,0,0,0,.01-.01.02-.06.05-.13.1-.19.15-.07.06-.16.18-.24.21.12-.05.23-.13.33-.21-.12.31,1.76-1.15,1.55-1.17,0,0,0,0,0,0,.2-.17.35-.35.42-.6.1-.32.09-.66.04-1,.17.01.34.02.51.04.09,0,.18.02.27.03-.06.14-.1.28-.1.43-.02,1.32,1.92,1.63,2.76,2.38.02.02,1.8-1.24,1.75-1.34-.31-.67-.55-1.44-1.02-2.04Z"/><path class="cls-3" d="M27.8,26.67c.21-.15.42-.31.62-.47.21-.16.41-.32.61-.48.06-.05.17-.19.24-.21-.63.21-1.25.42-1.89.62-.03-.21-.08-.42-.13-.62,0,0-.31.21-.27.18-.21.15-.42.31-.62.47-.17.13-.34.26-.5.39-.35.08-.71.15-1.07.19-.07,0-.24.16-.27.18-.21.15-.42.31-.62.47-.21.16-.41.32-.61.48-.05.04-.19.21-.24.21.89-.11,1.75-.34,2.59-.61.16,1.01.1,2.05.53,3.02,0,0,.31-.21.27-.18.21-.15.42-.31.62-.47.21-.16.41-.32.61-.48.08-.07.18-.13.24-.21.51-.67.89-1.42,1.14-2.2,0,.02-.29.2-.27.18-.21.15-.42.31-.62.47-.18.14-.37.29-.55.43-.06-.38-.09-.77-.13-1.16.02,0,.03-.01.05-.02.09-.03.21-.13.27-.18Z"/><path class="cls-3" d="M33.72,29.01c-.14.09-.28.19-.42.29-.23.17-.45.34-.68.52-.17.14-.35.27-.51.41-.03.02-.06.05-.08.07-.04.04-.03.04.01.01.38-.23.77-.45,1.17-.64.12-.06.24-.11.36-.17.1-.04.19-.12.27-.18.21-.15.42-.31.62-.47.21-.16.41-.32.61-.48.04-.04.09-.07.13-.11.04-.03.08-.06.11-.1-.56.24-1.09.52-1.61.84Z"/><path class="cls-3" d="M40.93,28.38s-.06.03-.08.05c-.06.04-.13.09-.19.13-.21.15-.42.31-.62.47-.21.16-.41.32-.61.48-.04.04-.09.07-.13.11-.04.03-.08.06-.11.1-.14.61-.14,1.24,0,1.85,0,0,.31-.21.27-.18.21-.15.42-.31.62-.47.21-.16.41-.32.61-.48.04-.03.25-.17.24-.21-.14-.61-.14-1.24,0-1.85Z"/><path class="cls-3" d="M40.71,30.84s-.31.21-.27.18c-.21.15-.42.31-.62.47-.21.16-.41.32-.61.48-.04.03-.25.17-.24.21.08.76,0,1.52-.22,2.26,0-.02.29-.2.27-.18.21-.15.42-.31.62-.47.21-.16.41-.32.61-.48.06-.05.22-.14.24-.21.23-.73.3-1.5.22-2.26Z"/><path class="cls-3" d="M42.73,23.05s-.06.03-.08.05c-.06.04-.13.09-.19.13-.21.15-.42.31-.62.47-.21.16-.41.32-.61.48-.04.04-.09.07-.13.11-.04.03-.08.06-.11.1.08.36.01.73-.22,1.03.03-.01.06-.03.08-.05.06-.04.13-.09.19-.13.21-.15.42-.31.62-.47.21-.16.41-.32.61-.48.08-.07.18-.13.24-.21.24-.3.31-.67.22-1.03Z"/><path class="cls-3" d="M46.23,17.57c-.08-.07-.12-.17-.14-.27-.03.01-.06.03-.08.05-.06.04-.13.09-.19.13-.21.15-.42.31-.62.47-.21.16-.41.32-.61.48-.04.04-.09.07-.13.11-.04.03-.08.06-.11.1.02.1.06.2.14.27.08.08.19.12.31.14.03-.01.06-.03.08-.05.06-.04.13-.09.19-.13.21-.15.42-.31.62-.47.21-.16.41-.32.61-.48.04-.04.09-.07.13-.11.04-.03.08-.06.11-.1-.11-.02-.22-.07-.31-.14Z"/><path class="cls-3" d="M51.93,15.7c-.23.13-.45.27-.68.4-.22.14-.45.27-.67.42-.05.03-.26.14-.26.19-.22,2.36-1.98,4.27-3.11,6.32-.05.04-.11.08-.16.12-.04.04-.09.07-.13.11-.04.03-.08.06-.11.1h.22s.06-.03.08-.05c.06-.04.13-.09.19-.13.21-.15.42-.31.62-.47.14-.1.27-.21.4-.32.16-.1.33-.2.48-.3.07-.05.22-.11.26-.19,1.13-2.06,2.91-3.98,3.14-6.36,0,0-.33.18-.29.15Z"/><path class="cls-3" d="M49.9,16.28s-.08.03-.12.04v-.93s-.35.16-.3.14c-.24.12-.47.24-.7.37-.23.13-.46.25-.69.38-.05.03-.1.06-.15.09-.05.02-.09.05-.13.09v.93c-.18.14-.37.28-.55.43-.04.04-.09.07-.13.11-.04.03-.08.06-.11.1.36-.17.74-.3,1.12-.41.03-.01.06-.03.08-.05.06-.04.13-.09.19-.13.08-.06.15-.11.23-.17.06-.03.11-.06.17-.09.23-.13.46-.25.69-.38.05-.03.1-.06.15-.09.05-.02.09-.05.13-.09v-.23s0,0,0,0c.04-.03.08-.06.11-.1Z"/><path class="cls-3" d="M34.88,3.97c-.1-.08-1.73,1.36-1.75,1.34.68.59,1.45,1.14,2.2,1.7-.06.05-.11.09-.17.13-.05.04-.24.16-.24.21-.04.83-.09,1.66-.16,2.48-.03-.11-.07-.22-.11-.34,0,0-.31.21-.27.18-.21.15-.42.31-.62.47-.21.16-.41.32-.61.48-.04.04-.09.07-.13.11-.04.03-.08.06-.11.1.13.48.28.96.45,1.44,0,0,.32-.21.27-.18.21-.15.42-.31.62-.47.12-.09.24-.19.36-.29-.1.86-.21,1.72-.36,2.57,0,0,.3-.2.27-.18.21-.15.42-.31.62-.47.21-.16.41-.32.61-.48.05-.05.23-.15.24-.21.27-1.53.44-3.06.55-4.6.91.77,1.71,1.61,2.18,2.67,0-.01.83-.59.9-.65.21-.16.41-.32.61-.48.03-.03.25-.18.24-.21-1.04-2.34-3.69-3.66-5.6-5.33Z"/><path class="cls-3" d="M18.39,20.78c-.11.22-.22.45-.33.68-.14.31-.36.64-.42.97-.05.26-.12.52-.2.77-.04.14-.09.27-.14.41-.03.04-.05.08-.08.12-.15.21-.33.42-.55.57-.95-.26-1.86-.64-2.67-1.16-.03-.02-.34.09-.32.09-.25.08-.51.17-.76.26-.25.09-.5.18-.75.27-.03.01-.29.14-.3.13.89.56,1.87.98,2.91,1.23.06.01.3-.08.32-.09.17-.05.34-.11.5-.17-.11.22-.22.45-.24.49-.04.08-.48.94-.42.97.02.01.04.01.07.02-.15.11-.29.2-.31.22-.21.16-.41.32-.61.48-.03.03-.25.18-.24.21.13.29.16.6.05.9,0,0,0,0,0,.01-.38.11-.79.16-1.18.1-.04,0-.28.18-.27.18-.21.15-.42.31-.62.47-.21.16-.41.32-.61.48-.06.05-.22.14-.24.21-.18.58-.25,1.15.02,1.72.02-.01.03-.03.05-.04.18-.13.79-.56.85-.61.21-.16.41-.32.61-.48.05-.04.24-.16.24-.21,0-.16.02-.32.04-.48.7,0,1.47.12,2.09-.24.35-.21.67-.47.99-.72.32-.24.67-.49.95-.77.18-.18.29-.4.37-.63,0,.02-.29.19-.27.18-.21.15-.42.31-.62.47-.15.12-.3.23-.45.35-.27.03-.54.03-.8.02-.21,0-.43-.01-.64,0,.28-.21.55-.43.8-.66.15-.14.28-.29.38-.47.14-.24.18-.5.15-.76.32-.19.59-.57.76-.83.43-.66.75-1.39,1.07-2.1.26-.58.51-1.16.71-1.76.12-.36.23-.72.3-1.09-.01.06-.14.24-.15.27Z"/><path class="cls-3" d="M13.36,31.25s-.06.03-.08.05c-.06.04-.13.09-.19.13-.21.15-.42.31-.62.47-.21.16-.41.32-.61.48-.08.07-.18.13-.24.21-.45.6-.63,1.34-.45,2.05,0,0,.31-.21.27-.18.21-.15.42-.31.62-.47.21-.16.41-.32.61-.48.04-.03.25-.17.24-.21-.18-.72,0-1.45.45-2.05Z"/><path class="cls-3" d="M15.56,34.71c-.21.15-.42.31-.62.47-.21.16-.41.32-.61.48-.06.05-.22.14-.24.21-.02.07-.04.15-.06.22,0-.11,0-.23.02-.34,0,0-.31.21-.27.18-.21.15-.42.31-.62.47-.21.16-.41.32-.61.48-.05.04-.24.15-.24.21-.06.84-.06,1.74.45,2.46-1.12.49-2.41.6-3.63.71-.07,0-.25.16-.27.18-.02.01-.04.03-.06.04-.04,0-.08,0-.12-.02-.03.01-.06.03-.08.05-.06.04-.13.09-.19.13-.21.15-.42.31-.62.47-.21.16-.41.32-.61.48-.04.04-.09.07-.13.11-.04.03-.08.06-.11.1.18.04.37.04.55.07-.09.06-.19.13-.17.11-.21.15-.42.31-.62.47-.21.16-.41.32-.61.48-.07.06-.21.14-.24.21-.24.56-.35,1.16-.41,1.76-.02.06-.03.12-.06.18,0,0,.02-.02.05-.04-.01.15-.04.3-.05.45,0,0,.31-.21.27-.18.21-.15.42-.31.62-.47.21-.16.41-.32.61-.48.05-.04.24-.16.24-.21,0-.2.04-.39.06-.59.21-.54.35-1.1.4-1.67.31.04.62.1.93.12.03-.01.06-.03.08-.05.06-.04.13-.09.19-.13.21-.15.42-.31.62-.47,0,0,.01,0,.02-.01.8-.15,1.57-.37,2.26-.79.39-.23.74-.53,1.09-.81.03-.02.05-.04.08-.06.01.01.02.03.03.04,0,0,1.66-1.16,1.75-1.34.59-1.24.87-2.57,1.23-3.87,0,.01-.3.2-.27.18Z"/><path class="cls-3" d="M7.29,39.41c-.55.37-1.07.78-1.58,1.19,0,0-.01.01-.02.02-.52.23-1.04.15-1.52-.14-.02-.01-.3.2-.27.18-.21.15-.42.31-.62.47-.21.16-.41.32-.61.48-.02.02-.25.21-.24.21.32.19.67.32,1.06.27.35-.04.66-.22.94-.41.54-.37,1.05-.77,1.55-1.18.03-.02.06-.03.09-.05.06-.03.12-.05.18-.07.09-.03.2-.13.27-.18.21-.15.42-.31.62-.47.21-.16.41-.32.61-.48.06-.05.17-.19.24-.21-.25.09-.48.22-.69.37Z"/><path class="cls-3" d="M13.68,43.64c-.18.12-.36.26-.53.39-.36.27-.73.54-1.06.84-1.26,1.17-1.16,2.98-2.04,4.34.03-.04.26-.17.27-.18.21-.15.42-.31.62-.47.21-.16.41-.32.61-.48.08-.06.19-.13.24-.21.86-1.33.76-3.14,1.99-4.28.11-.1-.16.09-.11.05Z"/><path class="cls-3" d="M8.52,26.61c-.12.08-.23.17-.35.26-.13-.31-.06-.64.03-.95-.03.01-.06.03-.08.05-.06.04-.13.09-.19.13-.21.15-.42.31-.62.47-.21.16-.41.32-.61.48-.04.04-.09.07-.13.11-.04.03-.08.06-.11.1-.11.35-.19.72,0,1.06,0,.01.31-.21.27-.18.17-.12.34-.25.51-.38.19-.14.37-.28.56-.43.13-.1.27-.21.39-.32l.44-.44c.1-.1-.15.08-.11.05Z"/><path class="cls-3" d="M5.52,4.39s-.31.21-.27.18c-.21.15-.42.31-.62.47-.21.16-.41.32-.61.48-.04.04-.09.07-.13.11-.04.03-.08.06-.11.1.19.42.41.84.67,1.23,0,.01.31-.21.27-.18.21-.15.42-.31.62-.47.21-.16.41-.32.61-.48.03-.02.25-.19.24-.21-.26-.39-.48-.81-.67-1.23Z"/><path class="cls-3" d="M1.21,7.03c-.21.15-.42.31-.62.47-.21.16-.41.32-.61.48-.04.04-.24.16-.24.21.03.84-.11,1.68-.45,2.46,0-.02.28-.19.27-.18.21-.15.42-.31.62-.47.21-.16.41-.32.61-.48.07-.06.21-.14.24-.21.33-.78.47-1.62.45-2.46,0,0-.31.21-.27.18Z"/><path class="cls-3" d="M.59.28s-.31.21-.27.18c-.21.15-.42.31-.62.47-.21.16-.41.32-.61.48-.03.02-.25.19-.24.21.25.37.55.72.9,1.03.01.01.31-.21.27-.18.21-.15.42-.31.62-.47.06-.05.87-.68.85-.7-.34-.31-.64-.65-.9-1.03Z"/><path class="cls-3" d="M12.11,2.62c-.18.12-.36.26-.53.39-.09.07-.18.14-.26.2.14-.63.25-1.26.26-1.9,0,0-.31.21-.27.18-.21.15-.42.31-.62.47-.21.16-.41.32-.61.48-.05.04-.24.16-.24.21-.01.88-.2,1.74-.42,2.59,0-.01.3-.2.27-.18.21-.15.42-.31.62-.47.21-.16.41-.32.61-.48.06-.05.22-.14.24-.21.06-.23.15-.45.31-.64.04-.05.09-.1.14-.14.01-.01.03-.02.04-.03.2-.16.4-.33.58-.51.09-.1-.15.08-.11.05Z"/><path class="cls-3" d="M9.1-.13s-.06.03-.08.05c-.06.04-.13.09-.19.13-.21.15-.42.31-.62.47-.21.16-.41.32-.61.48-.04.04-.09.07-.13.11-.04.03-.08.06-.11.1.15-.07.3-.14.45-.21.03-.01.06-.03.08-.05.06-.04.13-.09.19-.13.21-.15.42-.31.62-.47.21-.16.41-.32.61-.48l.13-.11s.08-.06.11-.1c-.15.07-.3.14-.45.21Z"/><path class="cls-3" d="M11.52,7.23c-.21.15-.42.31-.62.47-.21.16-.41.32-.61.48-.04.04-.24.16-.24.21.02.84-.11,1.68-.45,2.46,0-.02.28-.19.27-.18.21-.15.42-.31.62-.47.21-.16.41-.32.61-.48.07-.06.21-.14.24-.21.34-.78.47-1.62.45-2.46,0,0-.31.21-.27.18Z"/><path class="cls-3" d="M15.56,7.23c-.21.15-.42.31-.62.47-.03.02-.06.05-.09.07.12-.15.25-.29.37-.44.16-.2.32-.4.47-.6.03-.05.07-.09.1-.13.03-.04.06-.08.08-.12-.3-.34-.6-.68-.9-1.03,0,0-.25.27-.22.23-.17.19-.33.39-.49.59-.16.2-.32.4-.47.6-.03.04-.07.09-.1.13-.03.04-.06.08-.08.12.28.32.56.64.84.96-.04.03-.08.06-.12.09-.08.07-.18.13-.24.21-.1.13-.2.27-.31.39-.18.21-.36.41-.56.6-.03.03-.04.04,0,.02.04-.02.08-.04.11-.07.18-.12.36-.26.53-.39.23-.17.45-.34.67-.52.13-.11.27-.21.39-.32.34-.33.65-.68.92-1.06-.03.01-.06.03-.08.05-.06.04-.13.09-.19.13Z"/><path class="cls-3" d="M20.09,6.03s-.31.21-.27.18c-.21.15-.42.31-.62.47s-.41.32-.61.48c-.03.03-.25.18-.24.21.27.66.65,1.29,1.12,1.85.02.02.83-.6.9-.65.07-.05.88-.66.85-.7-.47-.56-.86-1.18-1.12-1.85Z"/><path class="cls-3" d="M15.16,10.54s-.31.21-.27.18c-.21.15-.42.31-.62.47-.21.16-.41.32-.61.48-.04.03-.25.17-.24.21.11.83.28,1.64.45,2.46,0,0,.31-.21.27-.18.21-.15.42-.31.62-.47.21-.16.41-.32.61-.48.04-.03.25-.17.24-.21-.17-.82-.34-1.64-.45-2.46Z"/><path class="cls-3" d="M13.59,13s-.06.03-.08.05c-.06.04-.13.09-.19.13-.21.15-.42.31-.62.47-.21.16-.41.32-.61.48l-.13.11s-.08.06-.11.1c-.23.45-.3.95-.22,1.44,0,0,.31-.21.27-.18.21-.15.42-.31.62-.47.21-.16.41-.32.61-.48.04-.04.09-.07.13-.11.04-.03.08-.06.11-.1-.08-.49,0-.98.22-1.44Z"/><path class="cls-3" d="M14.83,16.8c-.17.11-.33.22-.5.33-.03-.28-.07-.57-.08-.85,0,0-.31.21-.27.18-.21.15-.42.31-.62.47-.21.16-.41.32-.61.48-.04.04-.24.16-.24.21,0,.25.04.49.07.73-.05.03-.09.07-.14.1-.05.04-.11.08-.16.12l-.03.03s.09-.04.13-.07c.07-.04.13-.09.19-.13.07.7.17,1.4.38,2.09,0,0,.32-.21.27-.18.21-.15.42-.31.62-.47.21-.16.41-.32.61-.48.03-.03.25-.18.24-.21-.19-.64-.3-1.29-.37-1.95.06-.05.13-.09.19-.14.08-.06.17-.12.25-.18.05-.04.11-.08.16-.12,0,0,.02-.02.03-.03-.05.02-.09.04-.13.07Z"/><path class="cls-3" d="M26.5,13.25c-.06.04-.13.09-.19.13-.21.15-.42.31-.62.47-.21.16-.41.32-.61.48-.08.06-.19.13-.24.21,0,0-.01.01-.02.02-.23.05-.46.08-.7.07-.05,0-.26.17-.27.18-.21.15-.42.31-.62.47-.21.16-.41.32-.61.48-.04.04-.09.07-.13.11-.04.03-.08.06-.11.1.57.02,1.1-.13,1.56-.43.51-.33.98-.71,1.45-1.08.22-.17.44-.34.63-.54.22-.22.41-.47.57-.73-.03.01-.06.03-.08.05Z"/><path class="cls-3" d="M43.4,4.39c-.58-1-1.49-1.68-2.63-2.04.15-.03.29-.06.44-.1.09-.03.21-.14.27-.18.21-.15.42-.31.62-.47.21-.16.41-.32.61-.48.06-.05.18-.19.24-.21-1.09.33-2.27.29-3.4.33-1.05.03-2.18.1-3.06.68-.34.22-.66.47-.98.72-.17.13-.33.26-.5.39-.04.03-.21.21-.24.21,1.31.04,2.66.02,3.94.35,1,.25,1.82.75,2.43,1.46-.2.16-.41.31-.6.48-.03.02-.25.19-.24.21.41.74.89,1.45,1.12,2.26,0,0,.31-.21.27-.18.21-.15.42-.31.62-.47.21-.16.41-.32.61-.48.04-.03.25-.18.24-.21-.15-.53-.41-1.03-.69-1.51.03-.02.06-.04.07-.05.08-.06.89-.63.85-.7Z"/><path class="cls-3" d="M45.64,2.13s-.31.21-.27.18c-.21.15-.42.31-.62.47-.21.16-.41.32-.61.48-.05.04-.24.16-.24.21-.04,1.49-.48,3.77,1.57,4.31.04,0,.29-.19.27-.18.21-.15.42-.31.62-.47.21-.16.41-.32.61-.48.03-.02.23-.22.24-.21-2.05-.54-1.61-2.82-1.57-4.31Z"/><path class="cls-3" d="M58.2,34.33s-.06.03-.08.05c-.06.04-.13.09-.19.13-.21.15-.42.31-.62.47-.21.16-.41.32-.61.48-.06.05-.21.14-.24.21-.26.73-.31,1.5-.22,2.26,0,0,.31-.21.27-.18.21-.15.42-.31.62-.47.21-.16.41-.32.61-.48.04-.03.25-.17.24-.21-.08-.76-.03-1.53.22-2.26Z"/><path class="cls-3" d="M51.69,37.4s-.29.19-.27.18c-.21.15-.42.31-.62.47-.21.16-.41.32-.61.48-.07.06-.21.14-.24.21-.3.74-.41,1.51-.44,2.29-.09.16-.19.33-.28.49-.52,1.02-.84,2.09-.95,3.21,0-.04.18-.26.18-.26.13-.21.26-.43.39-.65.13-.22.25-.44.37-.66.04-.08.13-.19.14-.28.03-.32.08-.63.15-.94,0,.23,0,.46.01.69,0,0,.31-.21.27-.18.21-.15.42-.31.62-.47.21-.16.41-.32.61-.48.04-.04.24-.16.24-.21-.05-1.31-.05-2.65.45-3.9Z"/><path class="cls-3" d="M45.24,39.9c-.09.03-.21.13-.27.18-.21.15-.42.31-.62.47-.21.16-.41.32-.61.48-.02.02-.24.21-.24.21.23.12.46.24.7.35-.09.07-.19.15-.28.22-.04.04-.09.07-.13.11-.04.03-.08.06-.11.1,0,.08.02.16.06.23.04.07.1.13.17.18.03-.01.06-.03.08-.05.06-.04.13-.09.19-.13.2-.14.39-.29.58-.43.13.05.26.09.39.12-.09.06-.25.17-.22.15-.21.15-.42.31-.62.47-.21.16-.41.32-.61.48-.04.04-.09.07-.13.11-.04.03-.08.06-.11.1.16.37.39.72.67,1.03.01.01.27-.17.58-.4-.02.14-.04.28-.07.42-.03.1-.06.19-.09.29,0,.01-.01.03-.02.04,0,.02-.02.04-.03.06-.07.14-.17.29-.21.44-.03.11.08-.1.07-.08.29-.5.56-1.01.82-1.52.38-.29.71-.57.7-.58-.1-.11-.19-.23-.28-.36,0,0,0-.02.01-.03.05-.17.08-.34.1-.52.22.01.43,0,.63-.11,0,0,0,0,0,0,.01,0,.02-.02.04-.03,0,0-.02.01-.02.02.17-.1.33-.22.48-.34.37-.27.73-.55,1.08-.84,0,0,0,0,0,0,.15-.11.21-.16.17-.15.1-.09.19-.19.25-.31-.01.03-.28.19-.27.18-.11.08-.21.16-.32.24-.37.06-.78-.05-1.12-.16-.13-.05-.26-.11-.39-.16.35-.12.69-.25,1.02-.39.1-.04.19-.12.27-.18.21-.15.42-.31.62-.47.21-.16.41-.32.61-.48.07-.05.17-.18.24-.21-1.22.51-2.5.86-3.77,1.26Z"/><path class="cls-3" d="M46.34,41.92s0,0-.02.01c-.1.08-.06.06.02-.01Z"/><path class="cls-3" d="M38.02,51.35s-.31.21-.27.18c-.21.15-.42.31-.62.47-.21.16-.41.32-.61.48-.04.04-.09.07-.13.11-.04.03-.08.06-.11.1.04.22.05.43.03.65-.8-.49-1.61-.98-2.41-1.47-.02-.01-.28.24-.24.21-.19.18-.37.36-.56.54-.06.06-.76.78-.75.79.9.55,1.79,1.09,2.69,1.64.02.01.28-.24.24-.21.19-.18.37-.36.56-.54.02-.02.14-.14.27-.28-.02.04-.03.08-.05.11.03-.01.06-.03.08-.05.06-.04.13-.09.19-.13.21-.15.42-.31.62-.47.21-.16.41-.32.61-.48.08-.06.19-.13.24-.21.26-.44.33-.95.22-1.44Z"/><path class="cls-3" d="M37.26,45.45c-.06.04-.13.09-.19.13-.21.15-.42.31-.62.47-.21.16-.41.32-.61.48-.08.07-.17.13-.24.21-.12.15-.23.32-.34.48-.07-.21-.13-.42-.16-.64,0-.05,0-.1.01-.15,0,0-.02.01-.03.02-.07-.46-.07-.92,0-1.38,0,0-.37.11-.32.09-.25.08-.5.17-.75.27-.25.09-.5.18-.75.28-.05.02-.3.09-.3.13-.09.68-.05,1.37.16,2.03-.13.1-.27.21-.4.31-.07.06-.21.14-.24.21-.13.32-.25.64-.37.96-.16-.25-.42-.42-.57-.68,0,0-.83.6-.9.65-.21.16-.41.32-.61.48-.03.02-.25.19-.24.21.07.11.15.21.24.3h-.51s-.06.03-.08.05c-.06.04-.13.09-.19.13-.21.15-.42.31-.62.47-.21.16-.41.32-.61.48-.04.04-.09.07-.13.11-.04.03-.08.06-.11.1h1.34s.06-.03.08-.05c.06-.04.13-.09.19-.13.21-.15.42-.31.62-.47.12-.09.24-.19.36-.29.02.04.05.08.07.12,0,0,.32-.21.27-.18.2-.14.4-.29.59-.44h0c-.14.11-.28.22-.43.32.03-.02.06-.04.08-.06.09-.06.18-.13.26-.19.03-.02.05-.04.08-.06.06.18.12.35.2.52.01,0,.03-.02.04-.03.16-.12.8-.57.86-.62.21-.16.41-.32.61-.48.07-.06.2-.13.24-.21.13-.26.24-.53.35-.79.32-.25.65-.49.96-.75.03-.02.05-.05.07-.08.01,0,.02-.02.03-.03,0,0,0,0,0,0,.08-.08.15-.16.21-.24.1-.04.19-.07.26-.1-.25.38-.47.77-.64,1.18.03-.01.06-.03.08-.05.06-.04.13-.09.19-.13.21-.15.42-.31.62-.47.21-.16.41-.32.61-.48.04-.04.09-.07.13-.11.04-.03.08-.06.11-.1.28-.66.66-1.28,1.12-1.85-.03.01-.06.03-.08.05Z"/><path class="cls-3" d="M31.53,45.06c.01-.08.04-.15.06-.22.04-.03.07-.07.1-.11,0-.29.09-.56.22-.82-.02.01-.04.03-.06.04.1-.27.21-.54.34-.8-.01.03-.28.18-.27.18-.21.15-.42.31-.62.47-.21.16-.41.32-.61.48-.07.06-.2.13-.24.21-.19.37-.34.77-.46,1.16-.08.06-.17.13-.26.19-.21.16-.41.32-.61.48-.05.04-.24.16-.24.21v.76c-.3.18-.6.36-.88.55-.51.35-1,.71-1.49,1.08-.08-.24-.03-.46.13-.67.05-.06.1-.11.16-.16.11-.1-.16.09-.11.05-.18.12-.36.26-.53.39-.36.27-.73.54-1.06.84-.29.26-.49.58-.32.95,0,0,.56-.39.56-.39.32-.24.64-.49.95-.74.04-.03.08-.07.12-.1,0,0,.02-.01.03-.02.05-.04.1-.07.15-.11.45-.3.92-.57,1.41-.81.14-.07.29-.13.43-.19.1-.04.19-.12.27-.18.06-.04.12-.09.18-.13v1.95s.31-.21.27-.18c.21-.15.42-.31.62-.47.21-.16.41-.32.61-.48.05-.04.24-.16.24-.21v-.58c.17-.12.33-.24.49-.37.21-.16.41-.32.61-.48.02-.02.24-.21.24-.21-.6-.29-.53-1.06-.44-1.57Z"/><path class="cls-3" d="M31.66,13.81c-.02-.53.03-1.05.06-1.58,0-.02.02-.03.03-.05,0,0-.02.01-.02.02,0-.14.02-.29.02-.43,0,0-.31.21-.27.18-.21.15-.42.31-.62.47-.21.16-.41.32-.61.48-.03.03-.12.08-.18.14.15-1.02.43-2.01,1.02-2.91-.03.04-.26.17-.27.18-.21.15-.42.31-.62.47-.26.2-.67.42-.85.7-.65,1-.93,2.11-1.07,3.25-.05.03-.09.06-.14.1-.21.15-.42.31-.62.47-.21.16-.41.32-.61.48-.08.06-.19.13-.24.21-.05.08-.07.17-.1.25-.09-.72-.2-1.44-.33-2.15-.14.11-.29.22-.43.33-.21.14-.42.28-.46.31-.21.16-.41.32-.61.48-.07.05-.21.14-.24.21-.38.98-.73,1.97-.97,2.98-.06.03-.11.06-.11.08.01.07.04.13.05.19-.06.26-.11.53-.15.79,0,0,.3-.2.27-.18.02-.01.03-.02.05-.03.04.11.1.22.16.32-.1.07-.2.15-.29.22-.21.16-.41.32-.61.48-.05.04-.23.15-.24.21-.01.1-.05.19-.07.28-.1-.01-.2-.04-.29-.08-.14-.07-.21-.17-.26-.27.02-.18.04-.37.03-.55,0,0-.31.21-.27.18-.21.15-.42.31-.62.47-.2-.38-.4-.76-.58-1.15,0,0-.83.59-.9.65-.21.16-.41.32-.61.48-.03.03-.25.19-.24.21.35.75.74,1.48,1.19,2.19,0,0,.83-.6.9-.65.06-.05.12-.09.18-.14.19-.02.39-.06.56-.14.34-.16.64-.41.93-.63.43-.32.9-.64,1.27-1.03.08-.08.13-.18.19-.28.02.03.03.06.05.09.01.02.35-.15.3-.13.22-.1.43-.21.64-.31.07,1.04.06,2.07.08,3.12,0,0,.31-.21.27-.18.21-.15.42-.31.62-.47.21-.16.41-.32.61-.48.05-.04.24-.16.24-.21,0-.15,0-.3,0-.46,0,0,0,0,0,0,0-.54,0-1.08-.02-1.62,0,0,.02-.01.02-.02.37-.28.75-.57,1.11-.87.09-.08.18-.16.26-.25.07-.08.11-.17.17-.25.18-.13.36-.26.53-.4.21-.16.41-.32.61-.48.05-.04.23-.15.24-.21.03-.32.06-.64.08-.97.06-.05.13-.1.19-.15.09.37.26.71.67.82.04.01.29-.19.27-.18.21-.15.42-.31.62-.47.21-.16.41-.32.61-.48.03-.02.23-.22.24-.21-.65-.18-.74-.92-.76-1.45ZM28.02,17.72c-.1.08-.21.15-.31.23-.21.16-.41.32-.61.48-.04.04-.09.07-.13.11-.04.03-.08.06-.11.1-.01.12-.05.22-.09.33-.01-.35-.02-.7-.05-1.05,0-.02,0-.04,0-.07.06-.01.12-.02.18-.03.19-.05.37-.13.54-.23.22-.13.43-.28.64-.43-.01.18-.03.36-.04.54Z"/><path class="cls-3" d="M22.33,28.79s-.06.03-.08.05c-.06.04-.13.09-.19.13-.21.15-.42.31-.62.47-.21.16-.41.32-.61.48-.04.04-.09.07-.13.11-.04.03-.08.06-.11.1,0,.11,0,.21.02.32-.1.07-.2.14-.29.22-.21.16-.41.32-.61.48-.06.05-.22.14-.24.21-.23.79-.32,1.61-.36,2.42-.04.68-.08,1.43.14,2.09,0,0,.31-.21.27-.18.21-.15.42-.31.62-.47.21-.16.41-.32.61-.48.03-.03.25-.18.24-.21-.21-.66-.17-1.41-.14-2.09.02-.44.07-.89.13-1.33.02.02.03.03.05.05.02.01.31-.21.27-.18.21-.15.42-.31.62-.47.21-.16.41-.32.61-.48.02-.02.25-.2.24-.21-.32-.27-.47-.63-.45-1.03Z"/><path class="cls-3" d="M23.85,25.48c-.21.15-.42.31-.62.47-.21.16-.41.32-.61.48-.04.04-.09.07-.13.11-.04.03-.08.06-.11.1v1.85s.31-.21.27-.18c.21-.15.42-.31.62-.47.21-.16.41-.32.61-.48.04-.04.09-.07.13-.11.04-.03.08-.06.11-.1v-1.85s-.31.21-.27.18Z"/><path class="cls-3" d="M15.79,32.71c-1.6.89-3.39,1.47-4.93,2.46-.26.17-.51.36-.76.55-1.3.12-2.63-.03-3.91.25-.08.02-.23.15-.27.18-.21.15-.42.31-.62.47-.21.16-.41.32-.61.48-.05.04-.18.2-.24.21,1.62-.36,3.32-.01,4.93-.41.08-.02.22-.14.27-.18.21-.15.42-.31.62-.47.21-.16.41-.32.61-.48.05-.04.18-.2.24-.21-.13.03-.27.05-.4.08,1.13-.55,2.3-1.02,3.4-1.62.39-.22.74-.54,1.09-.81.17-.14.35-.27.51-.41.02-.01.17-.14.07-.09Z"/><path class="cls-3" d="M54.08,28.84c-.06.04-.13.09-.19.13-.21.15-.42.31-.62.47s-.41.32-.61.48c-.04.04-.09.07-.13.11-.04.03-.08.06-.11.1-.16.47-.31.95-.45,1.44.03-.01.06-.03.08-.05.06-.04.13-.09.19-.13.21-.15.42-.31.62-.47.21-.16.41-.32.61-.48.04-.04.09-.07.13-.11.04-.03.08-.06.11-.1.14-.48.29-.96.45-1.44-.03.01-.06.03-.08.05Z"/><path class="cls-3" d="M51.47,30.43s-.31.21-.27.18c-.21.15-.42.31-.62.47-.21.16-.41.32-.61.48-.04.03-.25.18-.24.21.2.74.28,1.5.22,2.26,0,0,.31-.21.27-.18.21-.15.42-.31.62-.47s.41-.32.61-.48c.05-.04.24-.15.24-.21.05-.76-.02-1.52-.22-2.26Z"/><path class="cls-3" d="M59.86,8.16c-.18.12-.36.26-.53.39-.23.17-.45.34-.67.52-.13.1-.28.2-.39.32-.18.2-.34.42-.51.63-.16.03-.32.06-.48.09-.18-.17-.33-.37-.43-.6,0,0-.32.21-.27.18-.21.15-.42.31-.62.47-.21.16-.41.32-.61.48-.03.03-.25.18-.24.21.12.28.29.52.5.71-.46,1.4-.94,2.79-1.42,4.18,0,0,.38-.05.33-.05.26-.05.53-.1.79-.15.26-.05.52-.11.79-.17.05-.01.31-.05.32-.09.49-1.45,1-2.9,1.47-4.35.04-.03.08-.06.12-.09.07-.06.2-.13.24-.21.36-.75.82-1.46,1.36-2.11.12-.14.24-.28.36-.41.09-.1-.14.07-.11.05Z"/><path class="cls-3" d="M28.23,39.19c-.25.09-.49.19-.74.3-.25.1-.49.2-.73.31-.04.02-.29.11-.29.15-.02.79-.24,1.57-.67,2.26,0-.01.34-.12.31-.11.25-.09.49-.19.74-.3.25-.1.49-.2.73-.31.07-.03.25-.08.29-.15.43-.68.65-1.47.67-2.26,0,0-.37.13-.31.11Z"/><path class="cls-3" d="M24.5,36.47s-.12.27-.13.28c-.09.23-.18.46-.26.7-.08.23-.17.47-.24.7-.03.09-.08.2-.08.3.02.98.14,1.95.12,2.92,0,.32-.03.63-.08.94-.13.18-.28.36-.45.51-.06.05-.11.23-.13.28-.09.23-.18.46-.26.7-.08.23-.17.47-.24.7-.02.06-.04.26-.08.3.53-.49.82-1.08,1.07-1.72.36-.91.72-1.85.84-2.82.15-1.27-.04-2.53-.07-3.8Z"/><path class="cls-3" d="M22.28,25.49c-.2.1-.39.21-.59.32-.25.14-.5.28-.75.43-.15.09-.3.17-.43.27-.62.46-1.22.93-1.79,1.44-.09.08.14-.05.11-.04.2-.1.39-.21.59-.32.25-.14.5-.28.75-.43.14-.08.31-.16.43-.27.58-.5,1.17-.98,1.79-1.44.11-.08-.17.06-.11.04Z"/><path class="cls-3" d="M42.62,18.48c-.22-.12-.31-.35-.35-.57-.03.01-.06.03-.08.05-.06.04-.13.09-.19.13-.21.15-.42.31-.62.47-.2.16-.41.32-.61.49l-.13.11s-.08.07-.11.1c.04.22.13.45.35.57.23.13.52.1.77.05.03-.01.06-.03.08-.05.06-.04.13-.09.19-.13.21-.15.42-.31.62-.47.2-.16.41-.32.61-.49.04-.04.09-.07.13-.11.04-.03.08-.07.11-.1-.25.05-.54.08-.77-.05Z"/><path class="cls-3" d="M53.35,10.28s-.2.3-.17.26c-.13.22-.25.44-.37.66-.12.22-.24.44-.36.66-.02.05-.05.1-.07.15-.03.04-.04.09-.05.13.24.52.31,1.08.22,1.64.02-.02.04-.05.06-.07.04-.06.08-.12.12-.19.13-.22.25-.44.37-.66.12-.22.24-.44.36-.66.04-.09.11-.19.13-.28.09-.56.01-1.12-.22-1.64Z"/><path class="cls-3" d="M57.88,4.62s-.02.04-.03.05c-.02.04-.04.08-.06.12-.05.08-.09.17-.14.25-.09.15-.19.3-.3.45-.16.22-.34.44-.52.64-.06.07-.11.21-.14.28-.1.23-.2.46-.29.69-.09.23-.19.46-.28.69-.02.05-.04.1-.06.16-.02.04-.03.09-.04.14.49-.53.88-1.13,1.19-1.77.21-.43.39-.89.56-1.33.06-.15.13-.3.17-.46.02-.11-.07.11-.07.09Z"/><path class="cls-3" d="M57,1.32s-.36.14-.31.11c-.25.1-.49.21-.73.32-.24.11-.48.22-.72.33-.04.02-.29.12-.29.15.12.89.16,1.78,0,2.67,0,0,.36-.13.31-.11.25-.1.49-.21.73-.32.24-.11.48-.22.72-.33.05-.02.28-.11.29-.15.16-.88.12-1.78,0-2.67Z"/><path class="cls-3" d="M23.99,6.89c-.05.06-.09.12-.13.18-.14.21-.28.42-.42.63-.14.21-.27.43-.4.64-.03.05-.06.1-.08.14-.03.04-.05.08-.06.13v.62s.04-.04.06-.07c.05-.06.09-.12.13-.18.14-.21.28-.42.42-.63.14-.21.27-.43.4-.64.03-.05.06-.1.08-.14.03-.04.05-.08.06-.13v-.62s-.04.04-.06.07Z"/><path class="cls-3" d="M24.69,11.18c-.06.04-.12.09-.18.14-.21.16-.41.32-.61.48-.2.16-.4.33-.6.5-.04.04-.09.08-.13.11-.04.03-.08.07-.11.11-.02.22-.09.43-.22.62.03-.01.06-.03.08-.05.06-.04.12-.09.18-.14.21-.16.41-.32.61-.48.2-.16.4-.33.6-.5.04-.04.09-.08.13-.11.04-.03.08-.07.11-.11.13-.19.21-.39.22-.62-.03.01-.06.03-.08.05Z"/><path class="cls-3" d="M6.61,23.02c.37,0,.71-1.88.99-1.88-.37,0-.71,1.88-.99,1.88Z"/><path class="cls-3" d="M8.13,17.86c.69,0,1.36-1.01,2-1.01-.69,0-1.36,1.01-2,1.01Z"/><path class="cls-3" d="M7.75,15.63s-2.21.54-2.19.6c.17.54.47,1.03.9,1.44.02.02.35-.07.33-.07.26-.06.52-.13.78-.2.26-.07.52-.14.77-.22.03-.01.31-.11.31-.11-.42-.4-.73-.9-.9-1.44Z"/><path class="cls-3" d="M46.68,19.54c-.03.07-.06.13-.09.2-.1.23-.19.46-.29.69-.09.23-.18.46-.27.7l-.05.16s-.03.09-.04.14v.82s.03-.05.05-.08c.03-.07.06-.13.09-.2.1-.23.19-.46.29-.69.09-.23.18-.46.27-.7.02-.05.04-.1.05-.16.02-.05.03-.09.04-.14v-.82s-.03.05-.05.08Z"/><path class="cls-3" d="M55.63,18.18c-.26.06-.52.12-.78.18-.26.06-.52.13-.78.2-.06.02-.3.05-.32.1-.28.67-.51,1.35-.67,2.05,0,0,.38-.07.33-.06.26-.06.52-.12.78-.18.26-.06.52-.13.78-.2.05-.01.31-.06.32-.1.16-.7.39-1.39.67-2.05,0,0-.38.07-.33.06Z"/><path class="cls-3" d="M54.7,8.16c-.24.14-.46.31-.68.49-.02,0-.03,0-.06.02v-.11c-.04-.07-.04-.22-.04-.3,0-.03,0-.06,0-.09.21-.31.36-.65.44-1.03,0,0-.3.2-.27.18-.1.07-.2.15-.31.23.12-1.82.27-3.65.84-5.41,0,.02-.29.2-.27.18-.21.15-.42.31-.62.47-.21.16-.41.32-.61.48-.06.05-.22.14-.24.21-.48,1.47-.66,2.99-.77,4.51-.36.27-.75.61-.73.67-.24.2-.45.41-.6.67-.08-.06-.16-.13-.22-.22,0,0-.23.17-.51.38.05-.53.1-1.07.11-1.6,0,0-.31.21-.27.18-.21.15-.42.31-.62.47-.04.03-.09.07-.13.1-.12.03-.25.09-.38.18-.57.4-1.3.83-1.72,1.37-.13.16-.19.35-.24.53-.01.05-.02.09-.03.13-.07.06-.14.12-.2.17-.08.06-.16.12-.23.18-.04-.33-.06-.67-.11-1,.27-.43.54-.86.81-1.29-.02.04-.26.17-.27.18-.21.15-.42.31-.62.47-.26.2-.68.42-.85.7-.15.24-.3.49-.45.73-.03.02-.06.05-.09.07-.24.17-.52.36-.56.39-.21.16-.41.32-.61.48-.05.04-.24.16-.24.21,0,.18,0,.36.01.53-.06.05-.13.09-.18.14-.21.18-.4.35-.58.52-.09.05-.17.09-.25.13-.41.19-.88.31-1.33.16-.03-.01-.29.19-.27.18-.21.15-.42.31-.62.47-.21.16-.41.32-.61.48-.03.02-.23.22-.24.21.24.08.48.08.72.04-.17.09-.32.19-.48.29-.4,0-.79,0-1.19-.02-.14,0-.59.74-.67.85-.04.06-.27.44-.44.68-.3.19-.61.37-.94.53-.4.2-.75.54-1.09.81-.17.13-.36.26-.51.41-.02.02-.17.13-.07.09.92-.45,1.72-1.07,2.56-1.63.71.04,1.43.04,2.15,0-.03.18-.07.35-.12.52-.02.09-.05.17-.08.26-.36.25-1.53,1.14-1.64,1.27-.78,1.01-.46,2.33-.09,3.42.28.83.67,1.64.95,2.48.06.35.16.69.28,1.04.08-.06.16-.12.24-.18.25-.18.61-.43.66-.46.11-.09.88-.55.85-.7-.06-.35-.16-.7-.28-1.04-.04-.2-.05-.4-.06-.6.14-.11.28-.22.39-.34,0-.01.02-.02.03-.03-.03,0-.06,0-.09,0-.01,0-.04.02-.06.02-.1,0-.2,0-.31-.03-.05,0-.13.04-.23.1-.22-.53-.44-1.06-.62-1.6-.15-.46-.3-.96-.36-1.46.48-.33,1.47-1.04,1.49-1.17.08-.56.27-1.08.45-1.61,1.19-.13,2.37-.35,3.52-.62.06-.01.13-.03.19-.05-.12.22-.24.43-.36.65.03-.02.06-.03.08-.06.06-.05.12-.1.17-.15.19-.17.38-.35.57-.52.02-.02.04-.04.06-.06,2.04-.51,4.11-1.2,5.78-2.38.27-.19.48-.59.67-.85.18-.24.37-.71.61-.88-1.67,1.19-3.74,1.88-5.78,2.38.08-.14.17-.27.25-.4.08-.03.16-.05.24-.08.47-.17.92-.37,1.36-.58,0,.01,0,.02,0,.03,0,0,.09-.07.17-.12.51-.25,1-.52,1.47-.8-.2.35-.4.69-.63,1.02.03,0,.06-.02.09-.04.07-.04.14-.07.2-.11.23-.13.45-.27.67-.41.22-.14.44-.28.66-.42.08-.05.21-.11.26-.19.25-.35.47-.72.68-1.1.15-.11.28-.21.06-.09,0,0-.01,0-.02.01.21-.38.42-.77.64-1.14.01.01.01.03.05.04.31.02.85-.52,1.03-.66.29-.22.57-.43.85-.66.08-.07.17-.14.25-.21.03-.03.11-.09.12-.1.17-.13.45-.35.18-.19ZM47.13,11.83c.17-.2.26-.44.3-.68.08,0,.16-.02.23-.03-.16.53-.37,1.04-.68,1.5,0,0-.01,0-.02,0-.05.02-.19.09-.23.07-.06-.02-.14-.26-.16-.31,0-.02-.01-.04-.02-.06.2-.16.41-.31.58-.51ZM40.98,14.7c0-.07,0-.1-.03-.13.22-.13.42-.28.61-.41.6-.43,1.18-.89,1.75-1.36.02.13.03.27.07.41.11-.08.21-.16.32-.24.12.16.26.29.42.39-.07.05-.14.11-.21.16-.08.07-.18.13-.24.21-.19.24-.34.5-.48.77-.08.06-.16.12-.24.17-.2.13-.4.27-.6.41-.45.06-.9.12-1.35.15,0-.07.02-.14.01-.21,0-.11-.02-.22-.04-.33ZM47.54,12.98c-.22.07-.45.14-.67.21,0-.01.01-.02.02-.03.07-.09-.08.04-.09.05-.13.04-.27.08-.4.12.58-.4,1.14-.83,1.67-1.28.02-.02.04-.05.07-.07,0,.05,0,.1,0,.15-.03.22-.06.44-.08.66-.17.06-.33.13-.5.19ZM52.15,9.75c-.23.13-.45.27-.67.41-.22.14-.44.28-.66.42-.08.05-.21.11-.26.19-.27.43-.51.88-.76,1.33-.14.06-.28.13-.42.19,0,0-.01,0-.02,0,.04-.03.08-.06.12-.09.06-.05.23-.15.24-.21.07-.38.12-.76.15-1.14.27-.05.55-.16.8-.32.14-.09.28-.2.42-.3.14-.03.27-.08.35-.11.19-.08.36-.2.53-.32,0,0,0,.01,0,.01,0,0,.05-.04.11-.07.03,0,.05,0,.11-.03,0,0,0,0,0,0-.03.01-.04.02-.04.02Z"/><path class="cls-3" d="M41.72,57.48c.57,0,1.11-1.48,1.61-1.48-.57,0-1.11,1.48-1.61,1.48Z"/><path class="cls-3" d="M36.88,50.51c.37,0,.7-1.89.97-1.89-.37,0-.7,1.89-.97,1.89Z"/><path class="cls-3" d="M53.61,37.1s-.05.04-.08.06c-.06.05-.11.1-.17.15-.19.18-.37.36-.55.54-.18.18-.36.36-.54.55-.04.04-.08.08-.12.12-.04.03-.07.07-.09.12h.67s.05-.04.08-.06c.06-.05.11-.1.17-.15.19-.18.37-.36.55-.54.18-.18.36-.36.54-.55.04-.04.08-.08.12-.12.04-.03.07-.07.09-.12h-.67Z"/><path class="cls-3" d="M58.62,38.08h-.22c-.07,0-.14.02-.2.03-.11.01-.21.03-.32.05-.29.05-.58.1-.86.15-.09.02-.18.03-.27.05-.13.03-.27.05-.4.08-.04,0-.07.02-.11.03-.05.02-.05.02,0,.02h.22c.07,0,.14-.02.2-.03.11-.01.21-.03.32-.05.29-.05.58-.1.86-.15.09-.02.18-.03.27-.05.13-.03.27-.05.4-.08.04,0,.07-.02.11-.03.05-.02.05-.02,0-.02Z"/></g></svg>