<?xml version="1.0" encoding="UTF-8"?><svg id="Layer_1" xmlns="http://www.w3.org/2000/svg" xmlns:xlink="http://www.w3.org/1999/xlink" viewBox="0 0 57 57"><defs><style>.cls-1{clip-path:url(#clippath);}.cls-2{fill:none;}.cls-2,.cls-3{stroke-width:0px;}.cls-3{fill:#231f20;}</style><clipPath id="clippath"><path class="cls-2" d="M42.49,47.85H14.51c-2.96,0-5.35-2.4-5.35-5.35V14.51c0-2.96,2.4-5.35,5.35-5.35h27.99c2.96,0,5.35,2.4,5.35,5.35v27.99c0,2.96-2.4,5.35-5.35,5.35Z"/></clipPath></defs><g class="cls-1"><rect class="cls-3" x="2.76" y="27.29" width="51.14" height="3.32"/><rect class="cls-3" x="3.1" y="26.84" width="51.14" height="3.32" transform="translate(57.17 -.17) rotate(90)"/><rect class="cls-3" x="24.96" y="39.85" width="25.12" height="3.32" transform="translate(79.03 3.99) rotate(90)"/><rect class="cls-3" x="33.8" y="39.85" width="25.12" height="3.32" transform="translate(87.88 -4.86) rotate(90)"/><rect class="cls-3" x="-2.03" y="14.28" width="26.02" height="3.32" transform="translate(26.92 4.96) rotate(90)"/><rect class="cls-3" x="6.82" y="14.28" width="26.02" height="3.32" transform="translate(35.76 -3.89) rotate(90)"/><rect class="cls-3" x="3.1" y="26.84" width="51.14" height="3.32" transform="translate(57.35 57) rotate(-180)"/><rect class="cls-3" x="3.1" y="35.69" width="26.16" height="3.32" transform="translate(32.36 74.69) rotate(-180)"/><rect class="cls-3" x="3.1" y="44.53" width="26.16" height="3.32" transform="translate(32.36 92.39) rotate(-180)"/><rect class="cls-3" x="28.67" y="9.15" width="25.57" height="3.32" transform="translate(82.92 21.61) rotate(-180)"/><rect class="cls-3" x="28.67" y="17.99" width="25.57" height="3.32" transform="translate(82.92 39.31) rotate(-180)"/></g></svg>