<?xml version="1.0" encoding="UTF-8"?><svg id="Layer_1" xmlns="http://www.w3.org/2000/svg" xmlns:xlink="http://www.w3.org/1999/xlink" viewBox="0 0 57 57"><defs><style>.cls-1{clip-path:url(#clippath);}.cls-2{fill:none;}.cls-2,.cls-3{stroke-width:0px;}.cls-3{fill:#231f20;}</style><clipPath id="clippath"><path class="cls-2" d="M42.49,47.85H14.51c-2.96,0-5.35-2.4-5.35-5.35V14.51c0-2.96,2.4-5.35,5.35-5.35h27.99c2.96,0,5.35,2.4,5.35,5.35v27.99c0,2.96-2.4,5.35-5.35,5.35Z"/></clipPath></defs><g class="cls-1"><path class="cls-3" d="M47.71,42.08c-.89.88-1.9,1.66-2.69,2.64-.89,1.1-1.35,2.35-1.44,3.75-.02.37.35.67.7.67.39,0,.64-.33.67-.7.07-1.15.51-2.15,1.22-2.97.77-.9,1.7-1.63,2.54-2.46.62-.62-.37-1.55-1-.93Z"/><path class="cls-3" d="M42.55,48.2c-.42-1.46-1.41-2.59-2.22-3.83-.2-.31-.39-.62-.52-.97-.11-.31-.18-.64-.31-.94-.24-.53-.65-.9-1.17-1.11.21-.55.25-1.14.2-1.73.08-.03.16-.09.24-.17,2.21-2.34,2.67-5.66,3.73-8.57.13-.35-.16-.74-.49-.83-.39-.1-.7.14-.83.49-.89,2.45-1.32,5.3-2.95,7.41-.06-.24-.12-.48-.17-.72-.05-.22-.09-.44-.12-.67-.03-.2-.05-.5-.05-.61,0-.23-.08-.44-.23-.59.19-.96.19-1.99.18-2.96,0-.71-.03-1.44.07-2.15.09-.65.23-1.22,0-1.86-.28-.83-1.53-.28-1.25.54.14.42-.11,1.02-.14,1.46-.05.62-.04,1.23-.04,1.85,0,.91,0,1.86-.14,2.76-.05.32-.12.69-.34.94-.2.23-.54.36-.81.47-.67.27-1.56.52-2.22.51-.09,0-.18.01-.26.03-.45-.45-1.03-.78-1.56-1.11-.43-.27-.86-.55-1.19-.94-.35-.41-.56-.93-1.04-1.22-.98-.58-1.81.16-2.61.64-.83.5-2.44-.33-3.39-.48-.27-.04-.51-.05-.74-.03,0,0,0-.01-.02-.02-.56-.48-1.23-.82-1.9-1.13-.34-.16-.67-.33-1-.5.07-.43.1-.87.1-1.31,0-.76-.07-1.53-.19-2.28-.13-.83-.45-1.63-.56-2.46-.06-.5-.01-.99-.15-1.48-.11-.38-.31-.7-.55-1.02-.25-.34-.43-.63-.59-1.02-.13-.32-.26-.64-.5-.91-.55-.62-1.39-.59-2.14-.43-.54.11-.95.12-1.49.07-.03,0-.06,0-.08,0,.02-.26.06-.52.12-.78.19-.8.81-1.46.79-2.32-.02-.89-.64-1.57-1.11-2.28-1.06-1.61-2.16-3.16-3.52-4.55-.62-.63-1.52.4-.9,1.02,1.14,1.16,2.08,2.45,2.97,3.81.37.55,1.21,1.42,1.18,2.11-.02.4-.33.78-.49,1.14-.15.35-.25.7-.31,1.07-.06.4-.06.84-.05,1.29-.06.16-.07.32.02.47.05,1.18.11,2.41-.48,3.32-.38.58-1.03.94-1.5,1.44-.23.24-.41.51-.61.78-.22.03-.44.15-.52.37-.04.1-.05.21-.05.32-.08.08-.15.16-.24.23-.69.53.06,1.67.76,1.13.16-.12.29-.25.42-.39,0,0,0,0,0,0,.03.03.07.07.1.1,0,0,.02.02.04.04,0,0,.07.07.08.09.04.04.08.09.11.13.06.08.13.16.19.24.13.17.25.34.37.51.46.67.86,1.39,1.39,1.99.05.05.11.1.17.14-.5.96-1.14,1.83-1.62,2.82-.55,1.14-.86,2.56-1.9,3.38-.69.55.16,1.62.84,1.07,1.01-.81,1.51-2.04,2-3.21.6-1.45,1.63-2.65,2.21-4.11.33-.84.59-1.71.88-2.56.4.38.79.78,1.18,1.18.28.29.57.58.88.85.31.28.68.46,1.05.65.05.02.1.05.15.08-.14.37-.33.7-.62.98-.15.15-.21.32-.22.49-.77.2-1.08.93-1.6,1.7-.75,1.1-1.51,2.02-1.82,3.35-.3,1.3-.23,2.68-.6,3.97-.09.3-.21.61-.36.89-.09.16-.23.31-.33.48-.24.03-.46.05-.67-.11-.32-.26-.53-.78-.78-1.11-.4-.51-.8-.95-.98-1.58-.24-.84-1.5-.32-1.26.52.3,1.06,1.19,2,1.84,2.87.48.63,1.04.82,1.82.78.19,0,.36-.01.55-.01.04.02.07.05.11.07.27.15.51.09.67-.07.89.02,1.76.1,2.66.31,1.43.32,2.86.65,4.28,1.01.64.16,1.3.33,1.9.62.56.27,1.09.61,1.68.79,1.02.31,1.94-.3,2.63-1.03.35-.37.59-.78.83-1.22.35-.62.85-.94,1.45-1.3,1.02-.61,2.18-1.17,2.99-2.07.25-.28.44-.61.61-.95.32.42.52.97.7,1.44.27.7.49,1.41.72,2.13.22.69,1.17.46,1.31-.14.18-.8.14-1.75.58-2.46.4-.64,1.5-1.02,2.17-.58.38.25.42.83.57,1.23.21.58.58,1.12.93,1.63.7,1.02,1.47,1.97,1.81,3.17.24.84,1.51.33,1.27-.5ZM18.9,33.53c.19.1.38.2.58.29.41.19.82.38,1.2.61-.07.05-.14.1-.21.15-.67.52-1.41.19-2.15-.05.24-.31.43-.65.58-1ZM14.05,27.47c-.6,1.26-.99,2.58-1.43,3.9-.38-.52-.71-1.08-1.08-1.61-.31-.45-.67-.9-1.09-1.28.11-.14.21-.27.33-.4.55-.61,1.3-1.02,1.74-1.73.69-1.11.62-2.38.59-3.65.53.03,1.06.08,1.61-.03.27-.05.74-.24,1.01-.11.2.1.26.34.34.54.11.27.25.51.39.75-.07.07-.14.15-.18.26-.25.64-.83,1.08-1.24,1.62-.41.53-.7,1.15-.99,1.75ZM17.38,31.15c-.29-.24-.55-.52-.81-.79-.52-.54-1.04-1.08-1.61-1.57.06-.15.11-.3.18-.45.31-.69.63-1.39,1.12-1.97.32-.38.66-.73.94-1.14.12.57.06,1.2.21,1.76.32,1.18.56,2.36.6,3.58,0,.31,0,.64-.02.97-.21-.11-.42-.23-.61-.39ZM31.98,39.47c-.16.9-.41,1.88-.94,2.64-1.13,1.63-3.55,1.84-4.61,3.55-.4.65-.96,1.93-1.88,1.94-.37,0-.83-.33-1.15-.5-.56-.29-1.1-.53-1.7-.71-1.28-.38-2.6-.63-3.9-.94-1.27-.31-2.53-.65-3.85-.72-.06,0-.11,0-.17,0,.66-1.39.67-2.95.92-4.49.18-1.09.62-1.86,1.26-2.74.28-.38.55-.76.78-1.17.32-.55.41-.7,1.07-.53.79.2,1.56.58,2.39.43.76-.14,1.17-.87,1.87-1.04.74-.18,1.81.27,2.53.46.94.25,1.73.41,2.55-.23.28-.21.72-.69,1.11-.54.27.1.62.87.84,1.11.62.65,1.41,1.02,2.13,1.52.77.54.91,1.04.74,1.96ZM36.97,41.06s-.01.07-.02.1c-.81.08-1.6.46-2.11,1.09-.2.25-.34.52-.44.8,0-.02-.02-.05-.03-.07-.31-.76-.69-1.57-1.34-2.1.03-.11.07-.22.1-.33.19-.71.39-1.53.27-2.28.81-.07,1.61-.28,2.35-.58.35-.14.66-.31.92-.52.09.48.21.95.32,1.43.1.45.19.91.21,1.37.02.38-.05.74-.23,1.1Z"/><path class="cls-3" d="M17.46,9.89s0,0,0,0c-.01.03.01.03.03-.04,0,0,0,0,0,0-.02.02-.03.03-.03.04Z"/><path class="cls-3" d="M48.46,27.62c-.08-.01-.16-.02-.24-.04-.02,0-.05-.02-.08-.03-.02,0-.04-.02-.06-.03.02,0-.06-.04-.09-.07,0,0,0,0,0,0-.03-.03-.05-.07-.08-.1-.07-.09-.13-.18-.19-.27-.28-.42-.63-.78-1.04-1.08-.67-.49-1.55-1-2.43-1.04.36-1.2.8-2.37,1.41-3.44.8-1.41,2.18-2.84,1.39-4.48.2-.54.17-1.09.09-1.67-.02-.14-.04-.29-.06-.43-.01-.07-.02-.14-.03-.21,0-.03,0-.07-.01-.1,0,.03,0,.06,0,.09-.03-.06-.02-.22-.03-.3-.01-.1-.02-.2-.03-.3.03.21,0,.03,0-.02,0-.11-.02-.21-.01-.32.03,0,.05-.01.08-.02,0,0,0,0,.01,0,.06,0,.11,0,.17,0,.11,0,.21.02.32.02,0,0,0,0,.01,0,.05.01.1.02.15.04.05.01.09.03.14.05,0,0,0,0,.01,0,.31.15.72.09.91-.23.17-.3.12-.76-.22-.94-.38-.2-.82-.29-1.25-.3-.47-.01-.99.08-1.35.41-.37.34-.38.84-.34,1.31,0,.11.02.22.03.32,0,0,0,0,0,0,0,.02,0,.03,0,.05,0,.04,0,.08,0,.12.02.26.06.52.1.78.02.14.04.27.06.41,0,0,0,0,0,0,0,.02,0,.05,0,.06,0,.05,0,.09,0,.14-.76-.3-1.66-.24-2.46-.49-1.26-.4-2.19-1.36-3.25-2.1-.75-.53-2.16-1.32-2.94-.39-.33.39-.34.96-.56,1.41-.29.59-.68,1.12-1.07,1.65-.52-.14-1.12-.02-1.68-.18-1.21-.34-2.25-1.16-3.4-1.64-1.01-.41-2.09-.64-3.18-.71.21-.44.38-.9.47-1.38,0-.05.01-.09.02-.14,2.07.4,4.11,1.45,6.26.82,1.03-.3,1.91-.8,3-.91,1.24-.13,2.6-.14,3.83-.02,1.46.14,3.57,1.9,4.95.68.96-.85.76-2.48.59-3.61-.14-.87-1.47-.58-1.33.29.08.51.14,1.03.09,1.55-.07.7-.27.92-.99.73-.85-.23-1.61-.71-2.48-.89-.97-.2-1.99-.15-2.97-.13-.93.02-1.85,0-2.76.21-.86.19-1.62.67-2.47.85-1.88.41-3.77-.54-5.61-.91,0-.46-.03-.93-.04-1.39-.01-.88-1.38-.85-1.36.03.01.87.14,1.8-.06,2.66-.22.98-.83,1.81-1.23,2.72-.19.45-.33.91-.47,1.37-.53-.01-1.01-.19-1.51-.34-.62-.19-1.25-.27-1.9-.2-.57.06-1.01.36-1.53.56-.25.1-.51.08-.78.04.21-.71.28-1.47.6-2.14,0,0,0,0,0,0,.32-.35.32-.88.29-1.32-.01-.24-.06-.48-.05-.72.01-.27.11-.55.19-.81.23-.71.57-1.37.77-2.09.23-.85-1.1-1.17-1.33-.32-.33,1.25-1.07,2.34-.97,3.68.01.18,0,.37.01.56-.47,0-.94-.05-1.4-.06,0,0,0,0-.01,0,0-.61-.04-1.21,0-1.82,0-.08.01-.16.02-.24,0-.05,0-.1.02-.14,0,0,0-.01,0-.02.03-.16.07-.33.12-.49.01-.03.02-.06.03-.09.03-.06.06-.13.1-.19,0,0,0-.01.01-.02,0,0,0,0,0,0,.02-.02.04-.04.04-.06,0,0,0,0,0,.02.05-.05.23-.19.05-.06.29-.2.47-.59.26-.93-.18-.29-.61-.48-.93-.26-.75.53-.99,1.38-1.08,2.26-.06.61-.04,1.23-.03,1.84-.07-.02-.15-.04-.22-.07-.49-.2-.81-.55-1.12-.96-.33-.44-.67-.87-.97-1.33-.25-.38-.59-.9-.64-1.31-.05-.36-.3-.68-.7-.67-.34,0-.71.33-.67.7.13,1.03.77,1.93,1.38,2.75.67.9,1.3,1.74,2.39,2.14.93.34,1.91.27,2.88.34-.13.46-.23.93-.36,1.4-.2.73-.65,1.33-1,1.99-.79,1.48-.83,3.15-.96,4.78-.07.88,1.29.86,1.36-.01.12-1.51.16-3.02.94-4.37.13-.22.26-.44.38-.67.48.07.97.17,1.46.07.54-.12.98-.49,1.52-.58.97-.17,1.86.36,2.81.51-.38.78-.76,1.56-1.16,2.33-.39.73-.92,1.38-1.29,2.12-.39.79-.76,1.57-1.18,2.34-.37.69-.69,1.38-.99,2.11-.26.64-.54,1.4-1.12,1.82-.7.51,0,1.68.71,1.16,1.25-.92,1.57-2.47,2.24-3.78.45-.87.94-1.71,1.35-2.59.13-.27.27-.53.42-.79.82.64,1.63,1.29,2.45,1.92.62.48,1.26.94,2.06,1.02.42.04.84,0,1.26-.08-.02,1.73-.3,3.44-.51,5.16-.08.71-.17,1.42-.15,2.13,0,.29.02.59.01.88,0,.11,0,.23-.03.34-.02.1-.1.2,0,.09-.6.63.36,1.59.97.96.43-.45.43-1.14.42-1.72,0-.72,0-1.4.07-2.12.21-2.06.62-4.11.58-6.19.13-.06.26-.14.39-.21.78.47,1.05,1.47,1.47,2.23.47.86,1.2,1.53,2.12,1.88,1.2.46,2.51.58,3.75.92,1.2.34,2.07,1.25,3.14,1.83,2.11,1.14,2.27-2.07,2.25-3.48.07-.08.12-.17.15-.29.08-.36.17-.71.25-1.07.06,0,.11,0,.17-.03-.19.06-.04.02.01,0,0,0,.01,0,.02,0,.1,0,.2.02.29.04.01,0,.02,0,.02,0,0,0,0,0,0,0,.06.02.13.04.19.06.12.04.24.09.36.14.11.05.22.1.33.16.02.01.05.03.07.04,0,0,0,0,.02,0,.06.04.12.07.18.11.2.13.39.26.57.42.04.03.07.07.11.1.01.01.01,0,.02.01,0,0,0,0,0,0,.07.08.14.16.2.24.14.18.25.37.38.55.36.49.88.7,1.47.78.37.05.71-.23.76-.6.04-.37-.23-.71-.6-.76ZM28.78,23.62c-.94.22-1.48-.04-2.21-.61-.88-.67-1.75-1.37-2.62-2.06.11-.18.22-.37.32-.56.45-.84.88-1.72,1.29-2.58.44-.93.59-1.96,1.06-2.88.01-.02.02-.05.04-.07.03,0,.06.02.1.02,1.23.02,2.42.27,3.54.77,1.08.48,2.05,1.22,3.2,1.55.5.15.96.13,1.47.14.38,0,.43.32.36.67-.15.81-.95,1.48-1.51,2.03-1.43,1.42-2.98,3.1-5.03,3.57ZM42.09,28.71c-.01.34-.02.71-.11,1.04-.01.05-.04.15-.07.23-.03-.01-.09-.03-.13-.07-.11-.12-.35-.24-.49-.33-.87-.57-1.7-1.21-2.71-1.52-1.19-.36-2.45-.47-3.63-.87-1.69-.57-1.85-2.55-2.98-3.67.35-.26.69-.52.99-.78.58-.5,1.12-1.04,1.66-1.59.18.25.38.5.58.74.31.38.53.84.88,1.2.6.63,1.42.8,2.24.96,1.45.28,3.07.81,3.6,2.36.25.74.19,1.52.17,2.29ZM42.8,25.17c-.46-.75-1.14-1.37-2-1.78-1-.47-2.06-.52-3.09-.86-.52-.17-.73-.49-1.02-.93-.34-.51-.78-.92-1.1-1.44.35-.39.66-.82.87-1.3.25-.57.31-1.24.09-1.83.69-.96,1.31-1.87,1.66-3.01,0,0,0-.02,0-.02-.05-.03-.12-.14.01-.04,0,0,0,0,0,0,0,0,0-.01,0-.02,0,0,0,.02,0,.03.12.07.35.1.47.16.39.19.75.47,1.09.73.94.73,1.86,1.49,2.99,1.89.5.18,1.02.26,1.55.31.43.05.98.06,1.3.39.03.03.07.04.1.07.36.67,0,1.34-.38,1.95-.45.72-.95,1.38-1.3,2.16-.52,1.16-.93,2.33-1.28,3.54Z"/><path class="cls-3" d="M38.23,14.01s.04,0,.03-.03c0,0-.01,0-.02,0,0,.01,0,.03-.01.04Z"/></g></svg>