<?xml version="1.0" encoding="UTF-8"?><svg id="a" xmlns="http://www.w3.org/2000/svg" viewBox="0 0 57 57"><path d="M46.68,8.65c-3.07-1.77-7.5.14-9.89,4.28-1.3,2.25-1.72,4.69-1.35,6.74-2.05-1.23-4.42-1.94-6.94-1.94s-4.88.71-6.94,1.94c.37-2.05-.05-4.49-1.35-6.74-2.39-4.14-6.82-6.06-9.89-4.28-3.07,1.77-3.62,6.57-1.23,10.71,1.87,3.24,4.98,5.11,7.72,4.92-1.63,2.49-2.59,5.51-2.59,8.78,0,8.46,6.39,15.33,14.28,15.33s14.28-6.86,14.28-15.33c0-3.27-.96-6.29-2.59-8.78,2.74.18,5.85-1.69,7.72-4.92,2.39-4.14,1.84-8.93-1.23-10.71ZM17.14,18.87l-.16.89s-.46.03-.47.03c-.99,0-2.51-.94-3.52-2.68-1.29-2.24-.92-4.27-.41-4.56.03-.01.1-.06.29-.06.92,0,2.45.95,3.46,2.7.71,1.23,1.02,2.61.82,3.68ZM28.51,43.89c-5.39,0-9.78-4.86-9.78-10.83,0-2.28.64-4.46,1.85-6.32l1.33-2.03,1.97-1.18c1.44-.86,3-1.3,4.63-1.3s3.19.44,4.63,1.3l2,1.2,1.3,2.01c1.21,1.86,1.85,4.04,1.85,6.32,0,5.97-4.39,10.83-9.78,10.83ZM44.02,17.11c-1.01,1.74-2.53,2.69-3.45,2.69l-.53-.04-.16-.89c-.2-1.08.11-2.45.82-3.68,1.01-1.75,2.54-2.7,3.46-2.7.18,0,.26.04.29.06.17.1.37.47.45,1.08.12,1.05-.19,2.32-.86,3.48Z" fill="#f1f2f2" stroke-width="0"/></svg>