<?xml version="1.0" encoding="UTF-8"?><svg id="Layer_1" xmlns="http://www.w3.org/2000/svg" viewBox="0 0 57 57"><defs><style>.cls-1{fill:#231f20;stroke-width:0px;}</style></defs><path class="cls-1" d="M40.83,4.78h-24.67c-3.92,0-7.11,3.19-7.11,7.11v33.22c0,3.92,3.19,7.11,7.11,7.11h24.67c3.92,0,7.11-3.19,7.11-7.11V11.89c0-3.92-3.19-7.11-7.11-7.11ZM43.95,45.11c0,1.72-1.39,3.11-3.11,3.11h-24.67c-1.72,0-3.11-1.39-3.11-3.11V11.89c0-1.72,1.39-3.11,3.11-3.11h24.67c1.72,0,3.11,1.39,3.11,3.11v33.22Z"/><path class="cls-1" d="M30.4,25.37c-2.32,0-4.2-1.89-4.2-4.2,0-.94-.76-1.71-1.71-1.71h-.39c-.94,0-1.71.76-1.71,1.71,0,2.32-1.89,4.2-4.2,4.2-.94,0-1.71.76-1.71,1.71v.39c0,.94.76,1.71,1.71,1.71,2.32,0,4.2,1.89,4.2,4.2,0,.94.76,1.71,1.71,1.71h.39c.94,0,1.71-.76,1.71-1.71,0-2.32,1.89-4.2,4.2-4.2.94,0,1.71-.76,1.71-1.71v-.39c0-.94-.76-1.71-1.71-1.71ZM29.84,27.46c-2.97,0-5.37,2.4-5.37,5.37h-.36c0-2.97-2.4-5.37-5.37-5.37v-.36c2.97,0,5.37-2.4,5.37-5.37h.36c0,2.97,2.4,5.37,5.37,5.37v.36Z"/><path class="cls-1" d="M35.37,20.46c-1.04,0-1.89-.85-1.89-1.89,0-.42-.34-.77-.77-.77h-.18c-.42,0-.77.34-.77.77,0,1.04-.85,1.89-1.89,1.89-.42,0-.77.34-.77.77v.18c0,.42.34.77.77.77,1.04,0,1.89.85,1.89,1.89,0,.42.34.77.77.77h.18c.42,0,.77-.34.77-.77,0-1.04.85-1.89,1.89-1.89.42,0,.77-.34.77-.77v-.18c0-.42-.34-.77-.77-.77ZM33.84,21.36c-.65,0-1.18.53-1.18,1.18h-.08c0-.65-.53-1.18-1.18-1.18v-.08c.65,0,1.18-.53,1.18-1.18h.08c0,.65.53,1.18,1.18,1.18v.08Z"/><polygon class="cls-1" points="41.98 50.54 39.89 51.87 29.45 36.12 31.53 34.79 41.98 50.54"/><polygon class="cls-1" points="44.58 48.65 43.32 49.45 31.42 31.45 32.69 30.64 44.58 48.65"/><polygon class="cls-1" points="12.94 7.28 11.15 7.28 17.76 17.4 19.02 16.6 12.94 7.28"/><polygon class="cls-1" points="16.88 6.17 13.91 6.17 21.36 17.4 23.44 16.07 16.88 6.17"/></svg>