<?xml version="1.0" encoding="UTF-8"?><svg id="Layer_1" xmlns="http://www.w3.org/2000/svg" viewBox="0 0 39.49 29.89"><defs><style>.cls-1{fill:#58595b;stroke-width:0px;}</style></defs><path class="cls-1" d="M22.98,20.15l-6.07-2.03c-.05-.02-.09-.07-.09-.12v-3.69c0-.09.08-.15.17-.12l6.07,2.02c.05.02.09.07.09.12v3.7c0,.09-.08.15-.17.12Z"/><polygon class="cls-1" points="17.66 17.49 17.66 15.29 22.32 16.84 22.32 19.05 17.66 17.49"/><path class="cls-1" d="M36.48,15.18l-12.48,4.95c-.08.03-.17-.03-.17-.12v-3.68c0-.05.03-.1.09-.12l12.47-4.29c.08-.03.17.03.17.12v3.03c.01.05-.02.1-.07.12Z"/><polygon class="cls-1" points="24.65 16.83 35.72 13.02 35.72 14.58 24.65 18.97 24.65 16.83"/><path class="cls-1" d="M35.92,11.23l-4.96-1.37s-.05,0-.07,0l-13.01,3.68c-.12.03-.12.2,0,.24l5.56,1.82s.05,0,.08,0l12.4-4.14c.12-.04.11-.21,0-.24ZM23.48,14.75l-3.15-1.03,10.59-3,2.54.7-9.98,3.33Z"/><path class="cls-1" d="M22.47,11.42l-13.21-3.67s-.04,0-.06,0l-5.4,1.24c-.13.03-.13.2-.01.24l12.7,4.07s.05,0,.07,0l5.91-1.64c.12-.03.12-.21,0-.24ZM16.55,12.45l-10.06-3.22,2.73-.63,10.59,2.94-3.26.9Z"/><path class="cls-1" d="M15.99,17.8L2.93,12.9s-.08-.07-.08-.12v-3.14c0-.09.08-.15.16-.12l13.06,4.34c.05.02.09.07.09.12v3.69c0,.09-.09.15-.17.12Z"/><polygon class="cls-1" points="3.68 12.3 3.68 10.63 15.33 14.5 15.33 16.67 3.68 12.3"/><path class="cls-1" d="M23.99,24.86l6.07-2.55c.05-.02.09-.07.09-.12v-3.69c0-.09-.08-.15-.17-.12l-6.07,2.54c-.05.02-.09.07-.09.12v3.7c0,.09.08.15.17.12Z"/><path class="cls-1" d="M10.49,19.94l12.48,4.95c.08.03.17-.03.17-.12v-3.68c0-.05-.03-.1-.09-.12l-12.47-4.49c-.08-.03-.17.03-.17.12v3.23c-.01.05.02.1.07.12Z"/><path class="cls-1" d="M9.83,19.73l-6.94-2.77s-.04-.07-.04-.12v-3.14c0-.09.04-.15.08-.12l6.95,2.61s.05.07.05.12v3.29c0,.09-.05.15-.09.12Z"/><path class="cls-1" d="M36.57,19.45l-5.77,2.55c-.08.03-.17-.03-.17-.12v-3.68c0-.05.03-.1.09-.12l5.76-2.3c.08-.03.17.03.17.12v3.43c.01.05-.02.1-.07.12Z"/></svg>