<?xml version="1.0" encoding="UTF-8"?><svg id="Layer_1" xmlns="http://www.w3.org/2000/svg" viewBox="0 0 39.49 29.89"><defs><style>.cls-1{fill:#58595b;}.cls-1,.cls-2{stroke-width:0px;}.cls-2{fill:#fff;}</style></defs><rect class="cls-2" x="6.22" y="8.24" width="21.78" height="11.53"/><path class="cls-1" d="M27.88,7.48H6.33c-.48,0-.87.39-.87.87v11.3c0,.48.39.87.87.87h21.55c.48,0,.87-.39.87-.87v-11.3c0-.48-.39-.87-.87-.87ZM7.27,16.91c-.1,0-.2,0-.3.02v-5.87c.1.02.19.02.3.02,1,0,1.81-.81,1.81-1.81,0-.1,0-.2-.02-.3h7.13c-1.68.56-2.92,2.59-2.92,5.01s1.24,4.45,2.92,5.01h-7.13c.02-.1.02-.19.02-.3,0-1-.81-1.81-1.81-1.81ZM27.24,16.93c-.1-.02-.19-.02-.3-.02-1,0-1.81.81-1.81,1.81,0,.1,0,.2.02.3h-7.13c1.68-.56,2.92-2.59,2.92-5.01s-1.24-4.45-2.92-5.01h7.13c-.02.1-.02.19-.02.3,0,1,.81,1.81,1.81,1.81.1,0,.2,0,.3-.02v5.87Z"/><path class="cls-1" d="M32.51,11.58v12.19c0,.16-.13.3-.3.3H10.29c-.25,0-.46.21-.46.46v.6c0,.25.21.46.46.46h23.17c.32,0,.58-.26.58-.58v-13.42c0-.25-.21-.46-.46-.46h-.6c-.25,0-.46.21-.46.46Z"/><path class="cls-1" d="M29.93,9v12.19c0,.16-.13.3-.3.3H7.71c-.25,0-.46.21-.46.46v.6c0,.25.21.46.46.46h23.17c.32,0,.58-.26.58-.58v-13.42c0-.25-.21-.46-.46-.46h-.6c-.25,0-.46.21-.46.46Z"/><path class="cls-2" d="M14.78,10.86h2.23c.49,0,.9.06,1.22.17.32.11.57.26.75.45s.31.39.38.62c.07.23.11.45.11.66,0,.41-.07.75-.22,1.02s-.39.51-.74.7l1.28,2.67h-1.42l-1.06-2.36h-1.23v2.36h-1.29v-6.29ZM17.1,13.69c.21,0,.38-.02.51-.07.14-.04.24-.11.32-.18s.13-.17.16-.29.04-.23.04-.37c0-.11-.02-.22-.05-.32s-.1-.19-.18-.27-.2-.14-.35-.18c-.15-.04-.34-.07-.57-.07h-.91v1.75h1.02Z"/></svg>