<?xml version="1.0" encoding="UTF-8"?><svg id="Layer_1" xmlns="http://www.w3.org/2000/svg" viewBox="0 0 39.49 29.89"><defs><style>.cls-1{fill:#58595b;stroke-width:0px;}</style></defs><path class="cls-1" d="M23.03,24.01l-6.07-2.03c-.05-.02-.09-.07-.09-.12v-3.69c0-.09.08-.15.17-.12l6.07,2.02c.05.02.09.07.09.12v3.7c0,.09-.08.15-.17.12Z"/><polygon class="cls-1" points="17.7 21.35 17.7 19.15 22.36 20.7 22.36 22.91 17.7 21.35"/><path class="cls-1" d="M36.52,19.04l-12.48,4.95c-.08.03-.17-.03-.17-.12v-3.68c0-.05.03-.1.09-.12l12.47-4.29c.08-.03.17.03.17.12v3.03c.01.05-.02.1-.07.12Z"/><polygon class="cls-1" points="24.7 20.69 35.76 16.88 35.77 18.44 24.7 22.83 24.7 20.69"/><path class="cls-1" d="M35.96,15.09l-4.96-1.37s-.05,0-.07,0l-13.01,3.68c-.12.03-.12.2,0,.24l5.56,1.82s.05,0,.08,0l12.4-4.14c.12-.04.11-.21,0-.24ZM23.53,18.61l-3.15-1.03,10.59-3,2.54.7-9.98,3.33Z"/><path class="cls-1" d="M22.52,15.28l-13.21-3.67s-.04,0-.06,0l-5.4,1.24c-.13.03-.13.2-.01.24l12.7,4.07s.05,0,.07,0l5.91-1.64c.12-.03.12-.21,0-.24ZM16.59,16.31l-10.06-3.22,2.73-.63,10.59,2.94-3.26.9Z"/><path class="cls-1" d="M16.03,21.66l-13.05-4.9s-.08-.07-.08-.12v-3.14c0-.09.08-.15.16-.12l13.06,4.34c.05.02.09.07.09.12v3.69c0,.09-.09.15-.17.12Z"/><polygon class="cls-1" points="3.73 16.16 3.72 14.49 15.37 18.36 15.37 20.53 3.73 16.16"/></svg>