<?xml version="1.0" encoding="UTF-8"?><svg id="Layer_1" xmlns="http://www.w3.org/2000/svg" viewBox="0 0 39.49 29.89"><defs><style>.cls-1{fill:#58595b;stroke-width:0px;}</style></defs><path class="cls-1" d="M34.9,4.58l-3.42-2.11c-.36-.22-.85-.1-1.09.28-.07.11-.64,1.06-.84,1.75-.16.57.1,1.56.37,2.36l-5.27,8.56-.13-.08c-1.16-.71-2.59-.5-3.2.48l-2.89,4.68c-.51-.12-1.05-.2-1.62-.2-2.18,0-4.05.95-4.86,2.3-.41-.11-.86-.18-1.32-.18-1.94,0-3.52,1.07-3.76,2.44-.08-.01-.15-.03-.24-.03-.6,0-1.1.29-1.27.68-.05,0-.1-.02-.15-.02-.68,0-1.23.37-1.32.85h29.44c-.09-.47-.63-.85-1.32-.85-.28,0-.53.08-.75.18-.1-.77-.98-1.37-2.07-1.37-.62,0-1.18.2-1.56.51-.17-.8-.97-1.49-2.13-1.94l2-3.24c.6-.98.15-2.36-1.01-3.07l-.11-.07,4.87-7.91.07-.1.32-.52c.84-.11,1.86-.33,2.3-.73.53-.49,1.12-1.43,1.18-1.54.23-.38.13-.87-.24-1.1ZM26.31,18.89l-2,3.24c-.22.35-.27.79-.14,1.18.13.39.43.71.82.86.64.25,1.01.54,1.17.75H8.3c.24-.56,1.16-1.11,2.33-1.11.31,0,.63.04.95.13.12.03.25.05.37.05.48,0,.94-.25,1.2-.67.49-.81,1.81-1.62,3.67-1.62.41,0,.83.05,1.3.16.11.03.21.04.32.04.48,0,.93-.25,1.19-.67l2.89-4.68c.09-.15.3-.24.56-.24.24,0,.49.08.71.21l.13.08c.22.14.48.21.74.21.11,0,.22-.01.32-.04.01,0,.03,0,.04,0,.08.36.3.7.64.91l.11.07c.28.17.48.42.57.68.03.11.08.31-.02.46ZM33.21,6.4c-.09.08-.38.2-.87.3.03-.21,0-.43-.1-.63-.08-.16-.21-.3-.36-.39h-.02c-.35-.23-.79-.2-1.11.02-.12-.47-.15-.78-.11-.89.05-.19.28-.63.43-.94l2.79,1.72c-.21.28-.5.68-.64.81Z"/></svg>