<?xml version="1.0" encoding="UTF-8"?><svg id="Layer_1" xmlns="http://www.w3.org/2000/svg" viewBox="0 0 39.49 29.89"><defs><style>.cls-1{fill:#58595b;}.cls-1,.cls-2{stroke-width:0px;}.cls-2{fill:#fff;}</style></defs><path class="cls-1" d="M28.67,19.97c-1.44,0-2.63,1.04-2.87,2.41-.03.16-.04.33-.04.5,0,1.61,1.3,2.91,2.91,2.91s2.91-1.3,2.91-2.91c0-.17-.02-.34-.04-.5-.24-1.37-1.43-2.41-2.87-2.41h0Z"/><path class="cls-2" d="M28.67,24.4c-.83,0-1.51-.68-1.51-1.51,0-.09,0-.18.02-.27.12-.72.75-1.24,1.49-1.24s1.36.53,1.49,1.25c.01.08.02.17.02.26,0,.83-.68,1.51-1.51,1.51Z"/><path class="cls-1" d="M8.45,19.97c-1.44,0-2.63,1.04-2.87,2.41-.03.16-.04.33-.04.5,0,1.61,1.3,2.91,2.91,2.91s2.91-1.3,2.91-2.91c0-.17-.02-.34-.04-.5-.24-1.37-1.43-2.41-2.87-2.41h0Z"/><path class="cls-2" d="M8.45,24.4c-.83,0-1.51-.68-1.51-1.51,0-.09,0-.18.02-.26.13-.73.75-1.25,1.49-1.25s1.37.53,1.49,1.25c.02.09.02.17.02.26,0,.83-.68,1.51-1.51,1.51Z"/><path class="cls-1" d="M25.56,8.01h3.77c.94,0,1.79.55,2.17,1.41l1.21,2.71h-7.15v-4.11h0ZM28.21,14.86c0,.23-.19.42-.42.42h-1.33c-.23,0-.42-.19-.42-.42v-.49h2.18v.49h0ZM3.07,22.39h1.57c.25-1.89,1.87-3.35,3.82-3.35s3.57,1.46,3.82,3.35h12.57c.25-1.89,1.87-3.35,3.82-3.35s3.57,1.46,3.82,3.35h2.12c.35,0,.63-.28.63-.63v-.33c0-.35-.28-.63-.63-.63h-.54v-2.43c.35-.03.62-.32.62-.67v-.49c0-.35-.27-.64-.62-.67v-3.3c0-.23-.05-.46-.13-.67l-1.47-3.54c-.57-1.37-1.9-2.26-3.38-2.26h-4.26c-.19,0-.34.15-.34.34v10.03H4.2c-.4,0-.73.33-.73.73v2.93h-.4c-.35,0-.63.28-.63.63v.33c0,.35.28.63.63.63h0Z"/><path class="cls-2" d="M13.35,20.99c-.39-1.01-1.09-1.86-1.97-2.46h13.11c.77,0,1.4-.63,1.4-1.4v-.54c.18.06.37.09.57.09h1.33c1,0,1.82-.82,1.82-1.82v-.49c0-.32-.11-.61-.29-.85h3.35v3.01c0,.35.13.67.34.92-.21.25-.34.57-.34.92v1.13c-.97-1.14-2.42-1.86-4-1.86-2.2,0-4.13,1.38-4.9,3.35h-10.42ZM4.86,19.06v-.53h.66"/><path class="cls-1" d="M22.72,14.56h-.07v-7.87h-1.64c-.57,0-1.03.46-1.03,1.03v6.84H6.25c-.68,0-1.24.55-1.24,1.24v2.7h18.53v-3.11c0-.46-.37-.83-.83-.83Z"/><polyline class="cls-2" points="6.42 17.1 6.42 15.96 22.15 15.96 22.15 17.1"/></svg>