<?xml version="1.0" encoding="UTF-8"?><svg id="Layer_1" xmlns="http://www.w3.org/2000/svg" xmlns:xlink="http://www.w3.org/1999/xlink" viewBox="0 0 57 57"><defs><style>.cls-1,.cls-2{fill:#fff;}.cls-1,.cls-3{stroke:#2e3192;stroke-miterlimit:10;stroke-width:.25px;}.cls-4{clip-path:url(#clippath);}.cls-5{fill:#231f20;}.cls-5,.cls-6{stroke-width:0px;}.cls-6{fill:#414042;}.cls-3{fill:none;}</style><clipPath id="clippath"><path class="cls-1" d="M38.82-42.98h-20.65c-4.98,0-9.02-4.04-9.02-9.02v-20.65c0-4.98,4.04-9.02,9.02-9.02h20.65c4.98,0,9.02,4.04,9.02,9.02v20.65c0,4.98-4.04,9.02-9.02,9.02Z"/></clipPath></defs><path class="cls-2" d="M38.82-42.98h-20.65c-4.98,0-9.02-4.04-9.02-9.02v-20.65c0-4.98,4.04-9.02,9.02-9.02h20.65c4.98,0,9.02,4.04,9.02,9.02v20.65c0,4.98-4.04,9.02-9.02,9.02Z"/><g class="cls-4"><rect class="cls-6" x="-28.17" y="-70.9" width="68.37" height="68.37" transform="translate(-24.2 -15.01) rotate(45)"/></g><path class="cls-3" d="M38.82-42.98h-20.65c-4.98,0-9.02-4.04-9.02-9.02v-20.65c0-4.98,4.04-9.02,9.02-9.02h20.65c4.98,0,9.02,4.04,9.02,9.02v20.65c0,4.98-4.04,9.02-9.02,9.02Z"/><path class="cls-5" d="M38.38,39.73c-.48,0-.66.49-.66.97,0,.55.23.97.66.97.39,0,.64-.39.64-.97,0-.48-.18-.97-.64-.97Z"/><path class="cls-5" d="M44,39.78c-.45,0-.69.41-.69.92,0,.55.27.89.69.89.29,0,.52-.2.58-.48.02-.07.03-.14.03-.23v-.42c0-.05,0-.12-.01-.18-.06-.27-.28-.49-.59-.49Z"/><path class="cls-5" d="M49.6,41.35v-3.71c0-2.21-1.79-4-4-4h-1c-.52,0-1.01.11-1.47.29-.45-.18-.94-.29-1.46-.29h-1c-1.01,0-1.93.39-2.64,1.01-.12-.07-.23-.15-.35-.21-.82-.4-1.88-.61-2.97-.61-.16,0-.32.01-.48.02v-15.52c.8.72,1.33,2.05,1.58,3.96.26,1.99,1.96,3.48,3.97,3.48h1.42c1.06,0,2.08-.42,2.83-1.18.75-.75,1.17-1.78,1.17-2.84l-.05-9.96c-.01-2.2-1.8-3.98-4-3.98H11.42c-2.2,0-3.99,1.78-4,3.98l-.05,9.96c0,1.06.41,2.09,1.17,2.84.75.75,1.77,1.18,2.83,1.18h1.42c2.08,0,3.81-1.59,3.99-3.65.22-2.51,1.02-3.44,1.56-3.84v21.14c0,.19,0,.35-.01.49-.21.02-.47.03-.79.03-2.21,0-4,1.79-4,4v1.25c0,2.21,1.79,4,4,4h17.6c1.8,0,3.31-1.2,3.81-2.83.29-.03.56-.08.83-.15.28.06.58.1.88.1h1c.26,0,.52-.03.77-.08.4.09.81.15,1.23.15.3,0,.6-.03.89-.08.06,0,.12,0,.17,0h.89c1.1,0,2.15-.45,2.91-1.26.75-.8,1.15-1.88,1.08-2.98,0-.16-.02-.45-.02-.73ZM35.15,45.19h-17.6v-1.25c1.93,0,3.21-.3,3.85-.9.64-.6.95-1.81.95-3.61V13.4c-2.41.06-4.26.44-5.55,1.14-2.36,1.29-3.7,3.7-4,7.23h-1.42l.05-9.96h29.73l.05,9.96h-1.42c-.47-3.56-1.8-5.97-4-7.23-1.24-.69-3.09-1.07-5.55-1.14v26.02c0,1.82.32,3.02.95,3.62.64.59,1.96.89,3.97.89v1.25ZM36.09,42.11c-.31.11-.9.25-1.48.25-.81,0-1.4-.2-1.8-.6-.41-.38-.63-.96-.62-1.61,0-1.47,1.08-2.32,2.53-2.32.57,0,1.01.11,1.23.22l-.21.8c-.24-.11-.55-.19-1.03-.19-.84,0-1.47.47-1.47,1.44s.57,1.46,1.4,1.46c.23,0,.42-.03.49-.07v-.93h-.69v-.78h1.65v2.34ZM38.35,42.38c-.94,0-1.67-.62-1.67-1.66s.69-1.71,1.72-1.71,1.65.68,1.65,1.65c0,1.18-.84,1.72-1.7,1.72ZM41.67,42.31h-1v-4.67h1v4.67ZM44.74,42.31l-.05-.47h-.01c-.2.36-.59.55-1.01.55-.76,0-1.38-.65-1.38-1.65,0-1.09.67-1.71,1.44-1.71.4,0,.7.14.85.36h.01v-1.74h1v3.71c0,.36.01.74.03.96h-.89Z"/></svg>