<?xml version="1.0" encoding="UTF-8"?><svg id="Layer_1" xmlns="http://www.w3.org/2000/svg" xmlns:xlink="http://www.w3.org/1999/xlink" viewBox="0 0 57 57"><defs><style>.cls-1,.cls-2{fill:#fff;}.cls-1,.cls-3{stroke:#2e3192;stroke-miterlimit:10;stroke-width:.25px;}.cls-4{clip-path:url(#clippath);}.cls-5{fill:#231f20;}.cls-5,.cls-6{stroke-width:0px;}.cls-6{fill:#414042;}.cls-3{fill:none;}</style><clipPath id="clippath"><path class="cls-1" d="M104.12-39.46h-20.65c-4.98,0-9.02-4.04-9.02-9.02v-20.65c0-4.98,4.04-9.02,9.02-9.02h20.65c4.98,0,9.02,4.04,9.02,9.02v20.65c0,4.98-4.04,9.02-9.02,9.02Z"/></clipPath></defs><path class="cls-2" d="M104.12-39.46h-20.65c-4.98,0-9.02-4.04-9.02-9.02v-20.65c0-4.98,4.04-9.02,9.02-9.02h20.65c4.98,0,9.02,4.04,9.02,9.02v20.65c0,4.98-4.04,9.02-9.02,9.02Z"/><g class="cls-4"><rect class="cls-6" x="37.12" y="-67.39" width="68.37" height="68.37" transform="translate(-2.59 -60.14) rotate(45)"/></g><path class="cls-3" d="M104.12-39.46h-20.65c-4.98,0-9.02-4.04-9.02-9.02v-20.65c0-4.98,4.04-9.02,9.02-9.02h20.65c4.98,0,9.02,4.04,9.02,9.02v20.65c0,4.98-4.04,9.02-9.02,9.02Z"/><path class="cls-5" d="M27.7,40.27h-1.55,1.55Z"/><polygon class="cls-5" points="19.89 27.7 19.89 27.69 19.88 27.69 19.89 27.7"/><path class="cls-5" d="M19.89,27.69c.08,0,.17.02.25.02.86,0,1.73,0,2.59,0h.28v1.56h1.55v-3.11h-4.67v1.53Z"/><path class="cls-5" d="M13.86,43.42c2.44,0,4.88,0,7.32,0,.08,0,.16,0,.25-.01v-7.83h-7.83c0,.08-.01.14-.01.2,0,2.46,0,4.93,0,7.39,0,.22.09.25.28.25Z"/><path class="cls-5" d="M27.7,26.17h-1.54v1.53h1.54v-1.53Z"/><path class="cls-5" d="M29.27,22.99h0c0,.15.02.26.02.37,0-.11-.01-.23-.02-.37Z"/><path class="cls-5" d="M48.97,32.41c0-.26-.03-.52-.08-.77.05-.25.08-.52.08-.79v-3.16c0-.88-.29-1.69-.78-2.35.48-.66.78-1.47.78-2.35v-10.96c0-2.21-1.79-4-4-4h-10.95c-.27,0-.54.03-.8.08-.26-.05-.53-.08-.81-.08h-3.14c-.27,0-.52.03-.78.08-.25-.05-.52-.08-.79-.08h-1.58c-.56,0-1.09.12-1.57.32-.48-.21-1.02-.33-1.58-.33h-10.96c-2.21,0-4,1.79-4,4v10.96c0,.27.03.54.08.8-.05.26-.08.53-.08.8v3.1c0,.28.03.55.08.81-.05.26-.08.52-.08.79v3.11c0,.27.03.54.08.8-.05.26-.08.52-.08.8v10.96c0,2.21,1.79,4,4,4h10.95c.28,0,.54-.03.8-.08.26.05.53.08.81.08h1.55c.88,0,1.7-.29,2.36-.78.66.49,1.47.78,2.36.78h1.54c.28,0,.55-.03.81-.08.26.05.52.08.79.08h1.54c.27,0,.54-.03.8-.08.26.05.53.08.8.08h1.54c.28,0,.55-.03.81-.08.26.05.52.08.79.08h4.67c2.21,0,4-1.79,4-4v-1.56c0-.26-.03-.52-.08-.77.05-.26.08-.53.08-.81v-1.57c0-.27-.03-.53-.08-.79.05-.24.08-.49.08-.75v-6.3ZM34.02,12.04h10.95v10.96h-10.95v-10.96ZM12.03,12.03h10.96v10.96h-10.96v-10.96ZM12.03,24.59h4.68v1.54h-3.12v1.56h-1.56v-3.1ZM16.71,30.87v1.54h-1.53v-1.54h1.53ZM12.04,32.41v-3.11h1.53v3.11h-1.53ZM22.99,44.96h-10.95v-10.96h10.95v10.96ZM30.87,41.83v-1.53h1.54v1.53h-1.54ZM32.41,44.97h-1.54v-1.54h1.54v1.54ZM35.55,44.97h-1.54v-3.11h1.54v3.11ZM38.69,44.97h-1.54v-1.54h1.54v1.54ZM37.14,41.82v-1.53h1.54v1.53h-1.54ZM44.97,38.72h-1.53s0,0,0,0c0,.51.02,1.02.02,1.53,0,0,0,0,0,0,0,0,0,0,0,0h0c.5,0,1,0,1.51,0v1.57c-.51,0-1.02,0-1.53,0h0s0,0,0,0v1.58h1.54v1.56h-4.67v-3.14h3.13s0,0,0,0c0-.52.01-1.04.02-1.57h0s0,0,0,0c-.16,0-.32.02-.49.02-.8,0-1.6,0-2.4,0h-.29v-3.15h0c-.48,0-.97,0-1.45.01-.48,0-.96,0-1.44,0-.19,0-.26.04-.26.25.02.35,0,.71,0,1.06,0,.21-.04.29-.27.28-.42-.02-.85,0-1.3,0v1.55h-1.57v-1.55c-.45,0-.88-.01-1.29,0-.23,0-.3-.06-.29-.29.02-.42,0-.84,0-1.28h-1.55v1.54h-1.58c0-.3,0-.59,0-.89,0-.17,0-.35,0-.52,0-.05-.08-.14-.13-.14-.47-.01-.94,0-1.44,0v.27c0,.87,0,1.74,0,2.61,0,.08-.01.17-.02.25h0c.52,0,1.04,0,1.57,0v1.54h-1.57s0,0,0,0v1.59h-1.54v1.55h-1.55v-4.69h1.55s0,0,0,0v-1.56h-1.56c0-.11-.01-.18-.01-.25,0-2.47,0-4.94,0-7.41,0-.07.01-.13.02-.2h0c-.51,0-1.03,0-1.57,0v1.55h-3.13v-1.54h3.1v-1.57h-3.1v-1.6h-1.57v1.57h-1.56v-1.55h1.54v-3.14h.28c1.9,0,3.8,0,5.7,0,.31,0,.31,0,.31-.32,0-.85,0-1.69,0-2.54v-.25h1.56v1.52c.54,0,1.05,0,1.56,0v-1.53h1.58v1.53h1.57v-.26c0-1.39,0-2.79,0-4.18,0-.09,0-.18.01-.27h0s0,0,0,0c0,0,0,0,0,0h0c-.52,0-1.04,0-1.56,0,0,0,0,0,0,0h0v1.58c-.17,0-.31,0-.46,0-.28,0-.56-.01-.84,0-.22.01-.3-.05-.29-.28.02-.44,0-.87,0-1.31h0c-.51,0-1.01,0-1.55,0v-1.54h-1.55v-1.57h1.54v-3.14h1.58v1.54h1.56v-1.53h3.14v1.55h-1.54v1.57h1.54v1.57h-1.55v1.54s0,0,0,0h0c.51,0,1.01,0,1.54,0v6.3h3.14v3.12h-1.54v-1.54h-1.58v-1.56h-1.57v1.54h-1.56v4.71h-1.6s0,0,0,0v1.55h3.16s0,0,0,0v-1.53h1.55v1.53h0c.53,0,1.07,0,1.6,0h0s0,0,0,0c0-.7-.01-1.41-.02-2.11,0-.33,0-.65,0-1h1.57v3.1h0c.51,0,1.02,0,1.53-.02,0,0,0,0,0,0h0s0,0,0,0c.01-.28.03-.55.03-.83,0-.22,0-.45,0-.68h1.56v1.52c-.54,0-1.07,0-1.59,0h0s0,0,0,0c.01.1.04.2.04.29,0,.86,0,1.72,0,2.59v.28h1.56v-1.54h1.57v-1.57h1.57v-1.56c.55,0,1.08,0,1.61,0h0s0,0,0,0c0-.42-.02-.83-.03-1.25,0-.1,0-.2,0-.32-.46,0-.89-.01-1.32,0-.21,0-.27-.05-.26-.26.01-.44,0-.89,0-1.33h0s0,0,0,0c-.52,0-1.05-.01-1.57-.02h0s0,0,0,0v1.6h-3.1v-1.55c.08,0,.16-.01.24-.01.87,0,1.74,0,2.61,0,.08,0,.16-.02.25-.03h0s0,0,0,0c0,0,0,0,0,0,0,0,0,0,0,0,0-.85.01-1.71.02-2.56,0-.17,0-.34,0-.53h1.55c0,.07.01.13.01.19,0,.92,0,1.83,0,2.75,0,.05,0,.11-.02.16,0,0,0,0,0,0h0c1.04,0,2.08,0,3.13,0v3.16c-.51,0-1.01,0-1.52,0h0s0,0,0,0v1.54h1.53v6.3ZM32.42,29.28h-1.55v-1.57c.48,0,.97,0,1.45,0,.03,0,.09.08.1.12,0,.47,0,.94,0,1.43Z"/><path class="cls-5" d="M43.1,13.59c-2.42,0-4.85,0-7.27,0h-.24v7.84h7.83v-.27c0-2.42,0-4.83,0-7.25,0-.32,0-.32-.31-.32Z"/><path class="cls-5" d="M13.88,13.58c-.23,0-.31.04-.31.29.01,2.42,0,4.85,0,7.27v.27h7.84v-7.82c-.09,0-.17-.01-.24-.01-2.43,0-4.87,0-7.3,0Z"/><path class="cls-5" d="M26.17,37.12h1.53v-3.11h-1.53v3.11Z"/><path class="cls-5" d="M34.01,35.58h1.54c-.52,0-1.03,0-1.54,0h0Z"/></svg>