<?xml version="1.0" encoding="UTF-8"?><svg id="Layer_1" xmlns="http://www.w3.org/2000/svg" viewBox="0 0 57 57"><defs><style>.cls-1{fill:#231f20;stroke-width:0px;}</style></defs><path class="cls-1" d="M29.7,10.27h3.51c.27,0,.48.22.48.48v1.3c0,.27-.22.48-.48.48h-3.51c-.27,0-.48-.22-.48-.48v-1.3c0-.27.22-.48.48-.48Z"/><path class="cls-1" d="M47.45,23.36l-.05-.17c-.48-1.57-1.8-2.67-3.38-2.89-.1-.19-.19-.39-.32-.57-.79-1.13-2.09-1.8-3.47-1.8-.21,0-.42.02-.62.05v-.75c0-.1,0-.2-.01-.3-.03-.4-.13-.79-.27-1.15.18-.48.28-1.01.28-1.56v-6.22c0-2.05-1.66-3.7-3.7-3.7h-8.92c-2.05,0-3.7,1.66-3.7,3.7v6.22c0,.55.1,1.08.28,1.56-.14.36-.24.74-.27,1.15,0,.1-.01.2-.01.3v1.55c0,.47.08.91.22,1.33-3.29.28-6.3,1.99-8.38,4.77-.6.76-2.25,3.21-2.25,7.46v7.83c-2.85,1.93-3.7,4.8-3.46,6.7.51,4.02,3.62,5.85,6.29,5.85h17.76c2.1,0,4.22-1.24,5.41-3.16,1.14-1.84,1.24-4.01.28-5.94-.7-1.4-1.77-2.47-2.92-3.28v-8.72c0-.11,0-.34-.04-.67l3.36-.92c.45-.12.85-.32,1.22-.56.08,0,.17.02.25.02h0c.41,0,.82-.06,1.22-.18l2.47-.76c1.06-.33,1.93-1.04,2.45-2.02.52-.98.62-2.1.3-3.15ZM33.46,49H15.71s-2.29.04-2.62-2.61c-.34-2.65,3.73-4.07,4.38-4.23.65-.16,2.17-.35,3.15-.25,0,0,.61.1.74.72,0,0,.84,2.15,3.19,2.15s3.22-2.15,3.22-2.15c0,0,.18-.75.71-.75,0,0,1.32-.06,2.52.13,1.2.19,3.86,1.25,4.85,3.23.98,1.98-1.01,3.75-2.38,3.75ZM27.86,39.59c-2.25,2.25-5.9.76-6.59.07-.7-.7-2.04-1.92-2.04-3.89l.02-2.84s.04-.36.36-.42c0,0,1.87-.3,2.69-.75.82-.45,1.57-.69,2.55-1.91,0,0,.16-.29.37-.29s.34.13.41.23c0,0,.75.97,1.8,1.32s1.36.38,1.96.44c0,0,.48-.03.48.43v3.63s.25,1.73-2,3.98ZM26.6,42.94c-.74.8-1.54.98-1.99.98s-1.68-.06-2.38-1.36c0,0-.34-.53-.28-1.54,0,0,.94.61,2.64.61s2.57-.62,2.57-.62c0,0,.18,1.12-.56,1.93ZM38.61,26.44l-6.93,1.9c.84,1.77.86,3.31.86,3.31v8.8s-.06.5-.33.7c-.28.2-.64.19-.96.06-.32-.13-1.28-.16-1.28-.16h-1.96c0-.6.65-1.05.65-1.05,1.52-1.31,1.87-3.18,1.87-3.18,0-.47.41-.76.41-.76,0,0,.99-.55.99-1.62s-.75-1.46-.75-1.46c-.46-.25-.48-.66-.48-.66l-.07-1.11c0-.49-.37-.47-.37-.47,0,0-1.53.09-2.89-.56-1.36-.65-1.77-1.99-1.77-1.99,0,0-.11-.37-.42-.37s-.41.32-.41.32c0,0-.06.42-.62,1.22-.56.8-.98,1.34-2.41,1.93s-2.81.37-2.91.36c-.1,0-.46.04-.46.51s-.28.64-.28.64c0,0-.96.65-.96,1.55s.59,1.55.91,1.63c.32.09.46.64.46.64,0,0,.22,1.19.89,2.22.67,1.03,1.2,1.3,1.48,1.58.28.28.17.66.17.66h-1.56c-.39,0-.81,0-1.89.2-1.08.19-1.04-.93-1.04-.93v-8.02c0-3.52,1.47-5.18,1.47-5.18,2.34-3.19,5.41-3.38,6.44-3.38s3.79.23,5.91,2.63c.17.19.31.38.46.57v-3.3h-.24s-.31.06-.46-.32l-2.06-4.17h-.6s-.5.01-.5-.4v-1.55s.02-.25.35-.25h.75v-2.27h-.76s-.34-.02-.34-.49v-6.22h8.92v6.22c0,.46-.34.49-.34.49h-.76v2.27h.75c.33,0,.35.25.35.25v1.55c0,.41-.5.4-.5.4h-.6l-2.06,4.17c-.16.38-.46.32-.46.32h-.24v2.76l2.38-3.16c.18-.24.52-.28.75-.11s.28.52.11.75l-2.21,2.93,5.26-1.44c.29-.08.58.09.66.38s-.09.58-.38.66ZM30.69,35.22v-1.58c.84.84,0,1.58,0,1.58ZM18.39,33.64v1.58s-.84-.74,0-1.58ZM37.21,24.96c-.24.17-.58.11-.75-.13-.17-.24-.11-.58.13-.75l3.34-2.35c.24-.17.58-.11.75.13.17.24.11.58-.13.75l-3.34,2.35ZM43.62,25l-2.46.75c-.23.07-.48-.06-.55-.29l-.06-.18c-.07-.23.06-.48.29-.55l2.46-.75c.23-.07.48.06.55.29l.06.18c.07.23-.06.48-.29.55Z"/></svg>