<?xml version="1.0" encoding="UTF-8"?><svg id="Layer_1" xmlns="http://www.w3.org/2000/svg" xmlns:xlink="http://www.w3.org/1999/xlink" viewBox="0 0 57 57"><defs><style>.cls-1,.cls-2{fill:#fff;}.cls-1,.cls-3{stroke:#2e3192;stroke-miterlimit:10;stroke-width:.25px;}.cls-4{clip-path:url(#clippath);}.cls-5{fill:#231f20;}.cls-5,.cls-6{stroke-width:0px;}.cls-6{fill:#414042;}.cls-3{fill:none;}</style><clipPath id="clippath"><path class="cls-1" d="M122.33-42.98h-20.65c-4.98,0-9.02-4.04-9.02-9.02v-20.65c0-4.98,4.04-9.02,9.02-9.02h20.65c4.98,0,9.02,4.04,9.02,9.02v20.65c0,4.98-4.04,9.02-9.02,9.02Z"/></clipPath></defs><path class="cls-2" d="M122.33-42.98h-20.65c-4.98,0-9.02-4.04-9.02-9.02v-20.65c0-4.98,4.04-9.02,9.02-9.02h20.65c4.98,0,9.02,4.04,9.02,9.02v20.65c0,4.98-4.04,9.02-9.02,9.02Z"/><g class="cls-4"><rect class="cls-6" x="55.33" y="-70.9" width="68.37" height="68.37" transform="translate(.26 -74.05) rotate(45)"/></g><path class="cls-3" d="M122.33-42.98h-20.65c-4.98,0-9.02-4.04-9.02-9.02v-20.65c0-4.98,4.04-9.02,9.02-9.02h20.65c4.98,0,9.02,4.04,9.02,9.02v20.65c0,4.98-4.04,9.02-9.02,9.02Z"/><circle class="cls-5" cx="18.57" cy="21.49" r="1.94"/><circle class="cls-5" cx="37.97" cy="21.49" r="1.94"/><circle class="cls-5" cx="28.07" cy="14.24" r="2.95"/><path class="cls-5" d="M48.92,26.56c-.14-.67-.69-2.35-2.68-3.37.18-.54.27-1.12.27-1.71,0-1.15-.36-2.24-.98-3.14-.2-1.07-.71-2.09-1.52-2.9-.8-.8-1.81-1.33-2.9-1.52-.66-.46-1.43-.77-2.24-.9-.2-1.01-.63-1.96-1.26-2.75-.16-1.39-.77-2.73-1.81-3.76s-2.34-1.65-3.76-1.81c-1.1-.88-2.48-1.39-3.96-1.39s-2.86.51-3.96,1.39c-1.42.16-2.74.79-3.76,1.81-1.04,1.04-1.65,2.37-1.81,3.76-.65.82-1.1,1.79-1.29,2.84-.66.16-1.28.42-1.82.8-1.09.2-2.1.72-2.9,1.53-.81.81-1.32,1.82-1.52,2.9-.62.9-.98,1.99-.98,3.14,0,.67.13,1.31.36,1.92-1.69,1.03-2.17,2.53-2.3,3.15-.22,1.05-.37,3.71,3,5.77,1.26.77,2.86,1.37,4.64,1.74,1.15.24,2.27.36,3.33.36.13,0,.25-.01.38-.01-.84,1.47-1.47,3.4-1.49,5.72-.03,3.58.93,7.99,1.15,8.93.41,2.35,2.58,4.62,6.15,4.62h6.53c3.57,0,5.74-2.26,6.15-4.62.22-.94,1.18-5.35,1.15-8.93-.02-2.31-.66-4.25-1.49-5.72.13,0,.25.01.38.01h0c1.06,0,2.18-.12,3.33-.36,5.36-1.12,8.36-4.06,7.64-7.51ZM36.52,17.99c.21-.61.78-1.04,1.45-1.04s1.25.44,1.45,1.04c.57-.28,1.28-.19,1.76.29.48.48.57,1.18.29,1.76.61.21,1.04.78,1.04,1.45s-.44,1.25-1.04,1.45c.28.57.19,1.28-.29,1.76-.48.48-1.19.57-1.76.29-.21.61-.78,1.04-1.45,1.04s-1.25-.44-1.45-1.04c-.57.28-1.28.19-1.76-.29-.48-.48-.57-1.18-.29-1.76-.3-.1-.55-.29-.74-.54-.06,1.01-.35,2.21-.89,3.04-1.02,1.58-3.05,2.93-3.72,2.49-.68-.44-.69-3.04.33-4.62,1.02-1.58,3.2-3.23,3.88-2.79.1.07.18.19.25.35.17-.39.49-.69.89-.83-.28-.57-.19-1.28.29-1.76.48-.48,1.18-.57,1.76-.29ZM34.8,28.52c-1.29,1-2.97,1.24-3.33.77-.36-.46.11-1.86,1.4-2.86s2.92-1.22,3.28-.76c.36.46-.06,1.85-1.35,2.85ZM22.74,12.02c-.43-.87-.29-1.95.44-2.68.73-.73,1.81-.87,2.68-.44.31-.92,1.19-1.59,2.21-1.59s1.9.67,2.21,1.59c.87-.43,1.95-.29,2.68.44.73.73.87,1.81.44,2.68.92.31,1.59,1.19,1.59,2.21s-.67,1.9-1.59,2.21c.43.87.29,1.95-.44,2.68-.73.73-1.81.87-2.68.44-.31.92-1.19,1.59-2.21,1.59s-1.9-.67-2.21-1.59c-.87.43-1.95.29-2.68-.44-.73-.73-.87-1.81-.44-2.68-.92-.31-1.59-1.19-1.59-2.21s.67-1.9,1.59-2.21ZM24.62,26.33c-.94-1.45-1.06-4.14-.42-4.55.63-.41,2.65,1.1,3.59,2.56.94,1.45.91,3.86.28,4.27-.63.41-2.51-.82-3.45-2.28ZM25.48,29.29c-.36.46-2.03.23-3.32-.77-1.29-1-1.71-2.38-1.35-2.85.36-.46,1.99-.24,3.28.76,1.29,1,1.76,2.4,1.4,2.86ZM15.07,20.04c-.28-.57-.19-1.28.29-1.76.48-.48,1.18-.57,1.76-.29.21-.61.78-1.04,1.45-1.04s1.25.44,1.45,1.04c.57-.28,1.28-.19,1.76.29.48.48.57,1.18.29,1.76.61.21,1.04.78,1.04,1.45s-.44,1.25-1.04,1.45c.28.57.19,1.28-.29,1.76-.48.48-1.19.57-1.76.29-.21.61-.78,1.04-1.45,1.04s-1.25-.44-1.45-1.04c-.57.28-1.28.19-1.76-.29-.48-.48-.57-1.18-.29-1.76-.61-.21-1.04-.78-1.04-1.45s.44-1.25,1.04-1.45ZM16.54,30.16c-2.71-.56-4.74-1.81-4.54-2.78s2.56-1.3,5.28-.74,4.74,1.81,4.54,2.78c-.2.97-2.56,1.3-5.28.74ZM33.11,35.15s1.93,1.54,1.96,5.03c.03,3.5-1.08,8.13-1.08,8.13,0,0-.13,1.37-2.22,1.37h-6.53c-2.09,0-2.22-1.37-2.22-1.37,0,0-1.11-4.64-1.08-8.13.03-3.5,1.96-5.03,1.96-5.03,0,0,.23-.39.23-.69s-.29-.78-.29-.78l-1.89-2.97c0-.65.78-.65.78-.65h11.56s.78,0,.78.65l-1.89,2.97s-.29.49-.29.78.23.69.23.69ZM40.46,30.16c-2.71.56-5.07.23-5.28-.74-.2-.97,1.83-2.22,4.54-2.78s5.07-.23,5.28.74-1.83,2.22-4.54,2.78Z"/></svg>