<?xml version="1.0" encoding="UTF-8"?><svg id="Layer_1" xmlns="http://www.w3.org/2000/svg" viewBox="0 0 57 57"><defs><style>.cls-1{fill:#231f20;stroke-width:0px;}</style></defs><path class="cls-1" d="M12.58,43.56c0,.11,0,.21.02.31,0-.16-.02-2.61-.02-.31Z"/><path class="cls-1" d="M44.4,43.86s0,0,0,0h0s0,0,0,0Z"/><path class="cls-1" d="M44.4,43.86c0-.1.02-.2.02-.31,0-2.31-.02.14-.02.31Z"/><path class="cls-1" d="M48.42,18.68v-6.86c0-1.83-1.24-3.42-3.01-3.88l-15.73-4.03c-.18-.05-.36-.1-.55-.12-.22-.04-.43-.05-.65-.05-.43,0-.85.07-1.25.2l-15.64,4c-1.77.45-3.01,2.05-3.01,3.88v6.86c0,1.46.53,2.64,1.79,3.34.21.18.75.75.75,1.82,0,.94-.41,1.41-.61,1.58-1.37.66-1.92,1.89-1.92,3.42v14.29c0,.14-.02.27-.02.42,0,.25.01.48.04.7,0,0,0,0,0,0,0,0,0,0,0,0,.26,2.53,1.87,5.55,8.09,5.55,1.2,0,2.7-.08,4.84-.27.25-.02.48-.03.71-.03,1.52,0,2.12.48,2.35.79.41,1.52,1.69,2.7,3.32,2.92.18.03.37.04.55.04h.05c.18,0,.37-.01.55-.04,1.62-.22,2.9-1.4,3.31-2.91.23-.31.84-.79,2.35-.79.22,0,.46.01.71.03,2.15.19,3.64.27,4.84.27,6.22,0,7.84-3.02,8.09-5.55h0s0,0,0,0c.02-.22.04-.46.04-.7,0-.15-.01-.28-.02-.42v-14.29c0-1.54-.55-2.76-1.92-3.42-.2-.17-.61-.64-.61-1.58,0-1.07.54-1.64.75-1.82,1.26-.7,1.79-1.89,1.79-3.34ZM44.42,18.68s-2.54,1.62-2.54,5.16,2.52,5.01,2.52,5.01v15.02c-.21,2.09-2.72,2.21-8.61,1.7-5.45-.48-6.98,2.78-7.26,3.54v.16s0-.03-.03-.08c-.02.05-.03.08-.03.08v-.16c-.28-.76-1.81-4.02-7.26-3.54-5.89.52-8.4.4-8.61-1.7v-15.02s2.53-1.46,2.53-5.01-2.54-5.16-2.54-5.16v-6.86l15.89-4.07h0s.03,0,.03,0h.03s0,0,0,0l15.89,4.07v6.86Z"/></svg>