<?xml version="1.0" encoding="UTF-8"?><svg id="Layer_1" xmlns="http://www.w3.org/2000/svg" viewBox="0 0 57 57"><defs><style>.cls-1{fill:#231f20;stroke-width:0px;}</style></defs><path class="cls-1" d="M40.83,4.78h-24.67c-3.92,0-7.11,3.19-7.11,7.11v33.22c0,3.92,3.19,7.11,7.11,7.11h24.67c3.92,0,7.11-3.19,7.11-7.11V11.89c0-3.92-3.19-7.11-7.11-7.11ZM43.95,45.11c0,1.72-1.39,3.11-3.11,3.11h-24.67c-1.72,0-3.11-1.39-3.11-3.11V11.89c0-1.72,1.39-3.11,3.11-3.11h24.67c1.72,0,3.11,1.39,3.11,3.11v33.22Z"/><path class="cls-1" d="M21.12,29.58s-1-.89,0-1.88v1.88Z"/><path class="cls-1" d="M35.77,29.58s1-.89,0-1.88v1.88Z"/><path class="cls-1" d="M22.13,26.84s.05-.43.43-.5c0,0,2.23-.36,3.2-.89s1.87-.82,3.04-2.28c0,0,.19-.34.44-.34s.41.16.49.27c0,0,.9,1.15,2.14,1.57s1.62.46,2.33.52c0,0,.57-.03.57.51v4.33s.3,2.06-2.38,4.74c-2.68,2.68-7.03.91-7.86.08s-2.43-2.29-2.43-4.64l.02-3.38Z"/><path class="cls-1" d="M29.73,21.21s.49,1.59,2.11,2.37,3.44.67,3.44.67c0,0,.44-.02.44.56l.08,1.32s.02.49.57.79c0,0,.89.48.89,1.74s-1.18,1.92-1.18,1.92c0,0-.49.34-.49.9,0,0-.42,2.23-2.23,3.79,0,0-.77.54-.77,1.25h2.33s1.15.03,1.53.19.81.17,1.14-.07.4-.83.4-.83v-10.49s-.03-3.41-2.55-6.26-5.81-3.13-7.04-3.13-4.89.23-7.68,4.03c0,0-1.75,1.98-1.75,6.17v9.56s-.05,1.33,1.24,1.1,1.79-.24,2.26-.24h1.86s.13-.45-.21-.79-.97-.65-1.77-1.88c-.8-1.23-1.06-2.64-1.06-2.64,0,0-.17-.66-.55-.76s-1.08-.88-1.08-1.95,1.14-1.85,1.14-1.85c0,0,.33-.21.33-.76s.43-.62.55-.6,1.75.27,3.46-.43,2.2-1.34,2.87-2.3.74-1.46.74-1.46c0,0,.11-.38.49-.38s.5.44.5.44Z"/><path class="cls-1" d="M25.36,36.5s1.12.72,3.14.72,3.06-.74,3.06-.74c0,0,.22,1.34-.66,2.29s-1.83,1.17-2.37,1.17-2-.08-2.83-1.62c0,0-.4-.63-.34-1.83Z"/><path class="cls-1" d="M33.14,37.54s1.57-.08,3,.15,4.6,1.49,5.77,3.85-1.2,4.47-2.83,4.47h-21.16s-2.73.05-3.13-3.11c-.4-3.16,4.45-4.85,5.22-5.03s2.59-.42,3.76-.29c0,0,.72.12.88.86,0,0,1.01,2.56,3.8,2.56s3.84-2.56,3.84-2.56c0,0,.22-.89.85-.89Z"/></svg>