<?xml version="1.0" encoding="UTF-8"?><svg id="Layer_1" xmlns="http://www.w3.org/2000/svg" xmlns:xlink="http://www.w3.org/1999/xlink" viewBox="0 0 57 57"><defs><style>.cls-1{clip-path:url(#clippath);}.cls-2{fill:none;}.cls-2,.cls-3{stroke-width:0px;}.cls-3{fill:#231f20;}</style><clipPath id="clippath"><path class="cls-2" d="M42.49,47.85H14.51c-2.96,0-5.35-2.4-5.35-5.35V14.51c0-2.96,2.4-5.35,5.35-5.35h27.99c2.96,0,5.35,2.4,5.35,5.35v27.99c0,2.96-2.4,5.35-5.35,5.35Z"/></clipPath></defs><g class="cls-1"><path class="cls-3" d="M23.81,38.07c-.17-.43-.45-.96-.93-1.12-.12-.04-.24-.05-.36-.04.07-.13.13-.27.17-.41.07-.27.08-.55.07-.82,0-.22-.04-.46.03-.66.04-.12.05-.32-.04-.38.07-.56.05-1.14-.03-1.7-.15-1.04-.43-2.32-1.19-3.15.04-.11.07-.22.07-.31,0-.72.28-1.6-.45-2.09-.39-.27-.78-.36-.98-.83-.16-.37-.18-.8-.26-1.2-.15-.72-.43-1.28-.98-1.79-.65-.61-1.19-1.48-.98-2.38.03-.14.03-.3-.06-.36.1-.4.19-.8.25-1.21.23-1.62.97-3.06,1.87-4.44.65-.99,1.43-1.91,1.79-3.04.21-.66.48-1.92-.37-2.3-.81-.36-2.06.33-2.46,1-.35.59.08,1.21.06,1.84-.01.77-.21,1.55-.43,2.29-.39,1.33-1.29,2.48-1.33,3.89,0,.05.03.07.07.07-.18.65-.3,1.32-.41,2.01-.16,1.05-.61,2.06-.83,3.11-.11.53-.21,1.24-.75,1.52-.53.27-1.21.27-1.78.45-.62.2-.97.58-1.5.89-.61.36-1.28-.01-1.93.18-1.06.32-1.32,1.26-1.66,2.13-.03.06,0,.19.09.2,1.53.2,2.92-.24,4.34-.74.49-.17,1.24-.41,1.43.27.06.2-.07.41-.04.6-.06.07-.1.14-.11.22-.14.83-.02,1.8.46,2.52.05.08.2.07.27.06,1.11-.19,1.94-.86,2.59-1.71.2-.25.41-.67.71-.83.44-.25,1.22.03,1.61.25,1.15.67,1.5,2.31,1.66,3.49.18,1.28.1,2.79-1.02,3.67-.85.67-2.33,1.62-2.07,2.83-.18.78-.2,1.59-.25,2.4-.24.75-.3,1.56-.51,2.32-.1.37-.19.73-.28,1.1-.33.83-.63,1.65-.55,2.61.02.26.27.12.4.02.23-.19.37-.48.44-.76.16-.73.27-1.48.44-2.21.23-.56.48-1.12.62-1.71.14-.57.19-1.15.24-1.74.25-.54.71-.88,1.14-1.36.49-.55.78-1.17,1.08-1.82.2-.41.52-1,1.1-.78.42.16.64.66.78,1.03.15.38.25.77.3,1.17-.07.04-.15.09-.18.13-.22.21-.38.53-.39.83-.02.75-.11,1.49-.09,2.24,0,.03,0,.06,0,.09-.19.52-.34,1.04-.39,1.6-.09,1,.11,2.03-.24,2.99-.06.16-.08.5.2.39,1.29-.54,1.67-2.07,1.62-3.29-.03-.64-.2-1.25-.29-1.88-.02-.14-.02-.27-.03-.41.14-.39.3-.78.43-1.19.39-1.23.32-2.54-.16-3.74Z"/><path class="cls-3" d="M31.81,24.24c0-.12-.09-.61-.32-.47-.73.41-1.09,1.39-1.36,2.11-.14.36-.26.74-.37,1.12-.62.73-1.19,1.49-1.35,2.45-.08.51-.05,1.02.1,1.51.09.29.24.53.16.83-.08.3-.32.58-.46.85-.69,1.3-.75,2.82-1.15,4.21-.07.23-.13.72.06.91.2.19.33-.02.39-.22.44-1.51.55-3.03,1.34-4.44.31-.56.49-1.17.43-1.81-.05-.53-.47-1.09-.31-1.62.1-.35.3-.68.54-.98.01.2.07.46.25.47.25,0,.3-.51.3-.65,0-.18.03-.35.07-.53.23-.25.45-.49.64-.74.7-.9,1.06-1.85,1.03-2.98Z"/><path class="cls-3" d="M44.1,45.34c-.16-.3-.37-.59-.63-.83-.3-.28-.69-.45-1.04-.67-.36-.23-.64-.51-.76-.92-.15-.53-.17-1.08-.35-1.61-.09-.24-.29-.23-.39,0-.03.07-.06.15-.07.23-.41.03-.79,1.01-.83,1.3-.08.54.01,1.02.26,1.44-.26.43-.57.82-.91,1.19-.19.21-.18.65-.12.9.04.18.18.46.37.24.47-.51.89-1.09,1.21-1.7.03.02.05.04.07.06.61.48,1.27.86,1.69,1.52.09.15.15.3.23.45,0,0,0,0,0,.01,0,0,0,0,0,.01.02.06.03.12.05.18.08.28.15.57.31.83.11.18.27.35.51.33.3-.03.56-.35.67-.6.33-.77.1-1.67-.29-2.38Z"/><path class="cls-3" d="M46.13,11.9c-.81.24-1.18,1.26-1.39,1.96-.31.98-.41,2-.59,3-.22,1.2-.72,2.32-.98,3.51-.16.72-.13,1.41-.07,2.1-.02,0-.04,0-.06,0-.55-1.32-2.07-2.08-3.17-2.95-.6-.47-1.11-1.02-1.18-1.79-.07-.8.2-1.58.2-2.38,0-1.46-1.26-2.02-2.1-3.04-.74-.88-.62-2.57-1.89-2.99-1.83-.6-5.84.2-4.53,2.72.65,1.24,1.87,2.13,2.8,3.17.55.61,1.16,1.18,1.7,1.8.27.31.53.63.73.99.28.5.26.95.34,1.49.13.95,1.06.98,1.46,1.74.35.66-.11,1.52.75,1.92.79.37,1.76.07,2.58.41.96.4,1.61,1.2,1.86,2.17.01.04.04.07.07.09-.17.39-.33.79-.36,1.22-.1,1.31.08,2.53-.43,3.8-.13.32.19,1.56.44.91.34-.85.49-1.71.52-2.62.01-.49-.02-.99,0-1.48.03-.54.25-.95.49-1.43.14-.28.24-.57.3-.85.09-.1.14-.2.11-.29-.01-.04-.03-.08-.04-.13.17-1.44-.33-2.93.08-4.4.25-.91.6-1.78.8-2.7.19-.86.26-1.75.46-2.61.17-.74.5-2.04,1.49-2.08.52-.03,1.72.57,1.72,1.16,0,.18-.01.73.24.8.25.07.31-.31.32-.48,0-1.24-1.04-3.24-2.68-2.75Z"/></g></svg>