<?xml version="1.0" encoding="UTF-8"?><svg id="Layer_1" xmlns="http://www.w3.org/2000/svg" xmlns:xlink="http://www.w3.org/1999/xlink" viewBox="0 0 57 57"><defs><style>.cls-1{clip-path:url(#clippath);}.cls-2{fill:none;}.cls-2,.cls-3{stroke-width:0px;}.cls-3{fill:#231f20;}</style><clipPath id="clippath"><path class="cls-2" d="M42.49,47.85H14.51c-2.96,0-5.35-2.4-5.35-5.35V14.51c0-2.96,2.4-5.35,5.35-5.35h27.99c2.96,0,5.35,2.4,5.35,5.35v27.99c0,2.96-2.4,5.35-5.35,5.35Z"/></clipPath></defs><g class="cls-1"><path class="cls-3" d="M9.81,9.81v19.72h19.72V9.81H9.81ZM27.47,27.47h-15.6v-15.6h15.6v15.6Z"/><path class="cls-3" d="M27.47,9.81v19.72h19.72V9.81h-19.72ZM45.13,27.47h-15.6v-15.6h15.6v15.6Z"/><path class="cls-3" d="M9.81,27.47v19.72h19.72v-19.72H9.81ZM27.47,45.13h-15.6v-15.6h15.6v15.6Z"/><path class="cls-3" d="M27.47,27.47v19.72h19.72v-19.72h-19.72ZM45.13,45.13h-15.6v-15.6h15.6v15.6Z"/><path class="cls-3" d="M5.34,5.78v45.44h46.33V5.78H5.34ZM46.3,45.96H10.7V11.04h35.6v34.92Z"/></g></svg>