<?xml version="1.0" encoding="UTF-8"?><svg id="Layer_1" xmlns="http://www.w3.org/2000/svg" xmlns:xlink="http://www.w3.org/1999/xlink" viewBox="0 0 57 57"><defs><style>.cls-1{clip-path:url(#clippath);}.cls-2{fill:none;}.cls-2,.cls-3{stroke-width:0px;}.cls-3{fill:#231f20;}</style><clipPath id="clippath"><path class="cls-2" d="M42.49,47.85H14.51c-2.96,0-5.35-2.4-5.35-5.35V14.51c0-2.96,2.4-5.35,5.35-5.35h27.99c2.96,0,5.35,2.4,5.35,5.35v27.99c0,2.96-2.4,5.35-5.35,5.35Z"/></clipPath></defs><g class="cls-1"><polygon class="cls-3" points="32.09 12.3 32.09 12.31 32.09 12.3 32.09 12.3 32.09 12.3"/><path class="cls-3" d="M49.2,41.39c-.3-.68-1.07-1.19-1.71-1.52-.42-.21-.89-.24-1.34-.09-.31.11-.57.32-.9.36-.1.01-.1,0-.12,0-.03,0-.05,0-.08-.01,0,0,0,0-.02,0,0,0,0,0,0,0,0,0,0,0,0-.01,0-.03-.06-.18-.07-.16-.02-.11-.04-.23-.05-.34-.05-.54-.01-1.09-.23-1.6-.08-.2-.31-.4-.54-.4-.49,0-.95.13-1.44.13-.18,0-.33-.04-.43-.11.06.05-.01-.1,0,0-.03-.14,0,.06-.03-.1-.1-.53.09-1.19.12-1.8h5.92v-1.54h-18.78s.03-.02.04-.03c.83-.63,1.53-.69,2.53-.58.8.09,1.7.24,2.45-.11.36-.17.62-.43.93-.66.42-.3.75-.26,1.26-.16.95.2,1.71.28,2.52-.33.6-.45.98-.83,1.78-.81.97.02,1.87.56,2.86.37.39-.07.71-.26,1.03-.49.31-.23.69-.69,1.11-.7.43-.01.71.39,1.01.62.3.23.6.38.96.46.86.2,1.13-1.12.27-1.33-.37-.09-.62-.43-.91-.64-.33-.24-.69-.42-1.11-.46-1.02-.1-1.5.61-2.3,1.06-.84.47-2.08-.25-3.01-.25-.76,0-1.39.21-1.99.66-.43.33-.73.68-1.32.64-.49-.04-.95-.24-1.44-.25-.94-.03-1.36.53-2.1.96-.73.42-1.84.03-2.64,0-.87-.04-1.62.2-2.32.65v-2.26c.06,0,.13.02.2.01.52-.07,1.04.08,1.55.11.52.03.98-.06,1.44-.31.44-.24.74-.38,1.26-.35.54.03,1.01,0,1.52-.21.43-.18.72-.26,1.18-.25.47,0,.87-.15,1.21-.48.6-.59.64-1.46,1.15-2.09h9.66v-.91c.52-.02.97-.68.49-1.14-.51-.5-1.15-.73-1.77-1.07-.55-.3-.81-.71-1.08-1.25-.49-.98-1.25-2.27-2.57-2.04-.47.08-.78.39-1.03.76-.11.16-.2.32-.31.48-.03.05-.07.08-.13.09-.32.06-.83-.3-1.19-.43-.53-.18-1.05-.1-1.52.14v-3.39h9.12v-1.54h-19.16v-3.23c.57.01,1.15.03,1.69-.18.37-.15.67-.37.96-.65.09-.09.18-.18.27-.28.02-.02.03-.03.05-.05-.02,0-.02,0,0,0,.01-.01.02-.02.03-.03-.02.02-.02.02-.03.03,0,0,0,0,.01,0,0,0,0,0-.02,0-.1.1,0,.02.02-.01.01,0,.01,0,.03-.01.06-.02.12-.04.18-.06.17-.06.35-.1.52-.18.35-.16.65-.37.91-.66.22-.25.38-.55.55-.83.18-.32.28-.5.51-.78.55-.68-.49-1.56-1.04-.88-.23.28-.42.59-.6.9-.08.13-.15.27-.23.4,0,.02-.06.09-.07.11-.03.05-.06.09-.1.13-.16.21-.26.29-.5.39-.3.12-.61.18-.89.34-.18.11-.32.27-.47.42-.07.07-.19.19-.23.22-.06.05-.12.09-.18.13,0,0-.11.06-.12.06-.05.02-.1.04-.16.06,0,0-.09.02-.11.03-.12.02-.25.03-.38.04-.2,0-.41,0-.61,0v-3.33h-.67c-.15-.45-.71-.76-1.1-.3-.65.78-1.41,1.45-1.93,2.33-.55.92-1.04,1.52-2.03,2.01-1.83.92-3.94,1.17-5.96,1.35-.49.05-.99.11-1.47.07-.58-.05-.93-.32-1.42-.58-.63-.34-1.32-.2-1.93.13-.42.23-.53.43-1,.12-.32-.22-.55-.45-.95-.56-.74-.2-1.65-.15-2.36.14-.81.32-.46,1.63.36,1.31.44-.18.98-.27,1.45-.18.43.09.63.41,1,.61.68.37,1.31.25,1.95-.11.41-.23.6-.35,1.02-.14.48.24.88.47,1.42.56.99.17,2.04-.01,3.03-.12,1.94-.21,3.92-.57,5.66-1.49.85-.44,1.52-.98,2.03-1.79.3-.48.53-.98.9-1.42.14-.16.28-.31.43-.47v6.41H8.58v1.54h3.14c-.07.05-.14.11-.21.16-.23.17-.45.34-.65.54-.09.08-.18.17-.27.25-.05.04-.1.08-.15.13,0,0-.05.04-.07.06-.03.02-.07.05-.07.05-.04.02-.07.05-.11.07-.08.05-.16.08-.24.12,0,0,0,0,0,0-.03.01-.07.02-.1.03-.08.03-.17.05-.25.07-.42.1-.85.15-1.27.24-.36.08-.59.48-.5.82.09.37.47.57.83.49.89-.18,1.76-.26,2.52-.81.46-.33.84-.74,1.29-1.08.46-.34.88-.68,1.23-1.14h4.1v1.59c-.56.56-1.07,1.18-1.69,1.67-.68.54-1.38.62-2.2.81-1.7.39-3.25,1.31-5.04,1.26-.89-.03-.9,1.33-.01,1.36,1.99.06,3.65-.94,5.54-1.33.92-.19,1.7-.38,2.46-.95.34-.26.65-.55.95-.85v3.36h1.57v-1.44c.1,0,.21,0,.32-.05.83-.35,1.77-.2,2.61-.54.39-.16.52-.29.9-.08.28.15.44.24.77.22.7-.04,1.14-.53,1.74-.81.6-.27,1.01.44,1.64.51.69.08,1.25-.4,1.89-.37.4.02.53.37.81.6.26.21.56.32.88.39,1.11.24,1.77,1.1,2.52,1.88H8.58v1.54h18.98v7.21h-2.86c-.2-1.29-1.17-2.01-2.42-2.5-.76-.3-1.58-.32-2.34-.59-.74-.26-.96-.96-1.48-1.47-.53-.52-1.26-.74-1.99-.76-.72-.01-1.59.27-2.28.01-.62-.23-.93-.79-1.62-.93-1.06-.2-2.15.19-3.2.22-.88.03-.97,1.38-.08,1.35.92-.03,1.85-.32,2.76-.27.61.03.91.54,1.44.79.57.27,1.19.28,1.81.24.67-.05,1.54-.23,2.12.22.47.37.69.99,1.16,1.37.5.41,1.11.56,1.73.68,1,.19,2.7.5,3.02,1.62h-3.15c-.41-.83-1.33-1.39-2.11-1.83-.86-.48-1.84-.93-2.82-1.1-.78-.13-1.56-.05-2.34.02-.08,0-.18.02-.27.02,0,0-.01,0-.03-.02-.21-.11-.4-.26-.62-.37-1.32-.71-2.72-.71-3.88.29-.66.57.11,1.69.78,1.12.48-.42.99-.69,1.64-.54.49.11.92.38,1.34.64.85.52,1.98.04,2.92.15.83.1,1.63.47,2.37.85.38.19.89.45,1.29.77h-9.86v1.54h9.21v2.68c-.12.02-.24.05-.35.12-.28.17-.59.49-.93.37-.31-.11-.57-.35-.87-.49-.83-.41-1.67-.09-2.3.51-.11.11-.47.53-.58.55-.12.01-.32-.16-.42-.22-.19-.12-.37-.23-.56-.34-.94-.54-1.9-.78-2.96-.41-.83.29-.31,1.54.53,1.25.95-.33,1.73.34,2.5.79.42.25.87.38,1.35.21.4-.14.67-.44.96-.72.19-.18.46-.49.75-.45.28.04.58.32.82.45.35.19.75.32,1.16.26.33-.05.62-.2.9-.38v3.03h-9.21v1.54h31.74c-.49,1.73,1.86,2.52,3.16,2.85.18.04.35.08.53.12.03,0,.1.03.14.04,0,0,.07.05.03,0-.04-.06.07.08.08.1.08.1.02,0,.06.11,0,0,0,0,0,0,0,0,0,0,0,.02.02.05.03.1.04.15.07.24.13.48.23.7.2.44.66.75,1.16.66.41-.07.69-.39.9-.72.08-.12.15-.25.23-.37.03.04.06.08.09.13.14.21.26.44.41.65.21.3.72.28.97.06.31-.27.27-.65.06-.96.08.12-.04-.07-.06-.1-.05-.08-.1-.16-.15-.24-.13-.21-.27-.43-.45-.61-.35-.34-.87-.57-1.35-.34-.33.15-.55.45-.73.75-.01-.04-.02-.09-.04-.12-.14-.43-.38-.83-.79-1.06-.32-.18-.68-.21-1.03-.3-.32-.08-.64-.18-.96-.3-.4-.15-.66-.26-1.01-.51-.03-.02-.06-.04-.09-.07,0,0-.02-.02-.03-.03-.02-.02-.07-.07-.09-.1-.01-.02-.03-.05-.04-.07,0,0,0,0,0,0,0,0,0,0,0,0,0,0,0,0,0,0,0,0,0,0,0,0,0,.01,0,.02,0,.03,0-.02,0-.02,0-.03,0,0,0,0,.01-.03,0,0,0,0,0,.02,0,0,0,0,0,0,0,0,0-.02,0-.02,0,0,0,0,0,0,.05-.16.03-.3-.02-.43h6.69v-1.54h-9.12v-7.21h1.84s0,.17-.01.18c-.01.11-.02.21-.04.32-.03.2-.06.39-.08.59-.05.45-.05.93.14,1.35.23.5.72.81,1.26.9.41.07.81-.02,1.21-.08,0,.05.01.1.01.15.02.25.02.51.05.76.08.63.35,1.24.99,1.5.35.14.77.14,1.13.05.21-.05.4-.12.58-.22.13-.06.33-.19.43-.2.16-.02.44.18.62.3.15.11.3.22.43.34.04.04.08.08.11.12.03.03.05.06.08.1,0,0,0,.01.01.03.36.8,1.62.26,1.26-.54ZM39.16,23.08c.12,0,.24-.01.34-.08.43-.31.61-.32,1.06-.1.49.24,1.01.43,1.57.33.45-.08.79-.36,1.05-.72.1-.14.18-.28.27-.42.02-.03.13-.18.1-.15-.01.02.02,0,.05-.02.05.02.13.02.18.04.19.08.33.24.45.4.31.44.48.96.76,1.42.32.53.76.94,1.3,1.24.27.15.56.27.84.41h-7.97v-2.36ZM37.6,18.23v2.65c-.16-.08-.35-.1-.57,0-.36.17-.72.32-1.12.3-.08,0-.15-.01-.23-.02-.01,0-.05-.01-.07-.02,0,0-.02-.01-.03-.02,0,0,0,0,0-.02-.02-.05-.04-.11-.06-.16-.04-.11-.08-.23-.12-.34-.11-.31-.27-.63-.5-.87-.24-.24-.52-.34-.85-.37-.07,0-.13-.01-.2-.02,0,0-.11-.03-.15-.04-.03,0-.03,0-.04,0,0,0-.01-.01-.04-.03-.03-.02-.22-.17-.11-.07-.06-.06-.12-.13-.17-.2,0-.01-.06-.09-.08-.1-.05-.08-.09-.16-.14-.24-.08-.14-.14-.29-.21-.44h4.68ZM31.45,22.29c-.3-.07-.44-.09-.66-.29-.11-.11-.19-.25-.32-.35-.28-.23-.64-.38-1-.41-.36-.03-.7.04-1.04.14-.32.1-.72.32-1.06.19-.25-.1-.43-.36-.69-.47-.35-.14-.74-.16-1.11-.06-.31.08-.59.25-.86.42-.15.09-.34.26-.51.32-.26.09-.16.09-.41,0-.32-.12-.49-.28-.86-.27-.37,0-.69.15-1.02.29-.81.34-1.72.29-2.56.55v-4.1h12.07s0,.07.02.1c.26.56.5,1.14.9,1.62.38.46.93.72,1.52.76.01,0,.04,0,.07,0,.03.06.07.13.1.19.06.12.1.24.15.37.17.49.38.9.89,1.12.81.34,1.77.09,2.52-.27v3.32h-2.24c-.04-.12-.12-.24-.25-.33-1.34-.9-1.97-2.43-3.66-2.82ZM29.12,26.98h7.93c-.04.09-.08.18-.12.27-.11.27-.2.64-.42.86-.21.2-.67.08-.95.11-.45.06-.82.32-1.25.43-.38.1-.81-.01-1.21.01-.5.03-.91.21-1.34.45-.4.22-.71.23-1.16.18-.51-.06-.98-.11-1.49-.06v-2.26ZM30.32,35.74c.03.51-.25.98-.33,1.5,0,.03,0,.04-.01.05-.1.03-.23.01-.33,0-.31-.02-.62-.09-.93-.12-.67-.07-1.35.06-1.99.26-.34.11-.65.25-.95.43-.11.07-.22.15-.32.23-.11-.09-.22-.2-.31-.29-.25-.23-.49-.47-.75-.7-.34-.3-.81-.73-.81-1.22,0-.05-.01-.1-.02-.15h6.76ZM37.6,40.77c-.52-.27-.92-.76-1.4-1.12-.64-.47-1.41-.7-2.19-.46-.36.11-.65.32-.94.56-.22.18-.85.91-1.17.86-.25-.04-.56-.7-.82-.86-.42-.26-.93-.35-1.42-.3-.47.05-.85.24-1.25.49-.52.33-.68.4-1.23.11-.36-.19-.68-.33-1.1-.28-.51.05-.87.48-1.33.56-.35.06-.05.06-.33-.17-.13-.11-.22-.26-.37-.35-.4-.24-.94-.24-1.38-.16-1.03.17-1.91.8-2.77,1.34-.75.46-.02,1.61.73,1.15.57-.35,2.02-1.55,2.72-1.11.29.18.34.51.72.65.41.15.81.08,1.2-.09.47-.2.76-.54,1.26-.34.41.17.74.44,1.21.44.86,0,1.57-1.11,2.39-.87.43.12.6.67.96.92.31.21.66.26,1.02.21.84-.12,1.32-.83,1.98-1.27.72-.48,1.24.03,1.78.5.52.46,1.04.88,1.72,1.05v.73h-18.24v-7.21h2.86s0,0,0,0c0,1.41,1.13,2.27,2.09,3.15.43.4.98.88,1.6.56.24-.12.4-.34.63-.47.22-.13.49-.23.73-.3.5-.14,1-.19,1.51-.12.57.08,1.23.22,1.77-.03.58-.27.71-.81.86-1.36.14-.48.3-.94.29-1.42h5.89v5.04Z"/><path class="cls-3" d="M13.26,11.49s0,0,0,0c0,0,0,0,0,0Z"/><path class="cls-3" d="M8.64,11.91c.21-.03.94-.2,1,.1.1.5.63.8,1.09.48.29-.2.52-.48.77-.73.03-.04.07-.07.11-.1.04.09.07.18.11.27.24.6.67,1.18,1.4,1.14.27-.01.51-.13.73-.29.16-.12.34-.41.53-.46.39-.1,1.13.62,1.55.72.89.21,1.93-.07,2.8-.27.89-.21,1.8-.47,2.59-.93.82-.48,2.8-1.74,2.17-2.93-.4-.75-1.65-.3-1.3.45-.01.02-.02.04-.03.06-.09.06-.17.21-.25.29-.24.24-.51.45-.79.64-.54.38-1.07.62-1.7.83-.87.29-2.12.71-3.06.57-.63-.1-1.06-.7-1.72-.79-.55-.07-1,.18-1.39.53-.02.02-.08.08-.14.13-.07-.16-.2-.39-.24-.49-.25-.55-.75-1.04-1.42-.91-.43.08-.72.39-1.01.7-.48-.39-1.2-.45-1.94-.35-.87.12-.75,1.47.13,1.35Z"/><path class="cls-3" d="M29.66,14.4c-.87.15-.46,1.45.4,1.3,1.08-.19,2.18.01,3.26-.11,1.03-.11,2.02-.39,3.01-.66,1-.27,1.91-.43,2.95-.32.77.08,1.43.04,2.17-.21,1.16-.4,2.46-.88,3.16-1.93.62-.93,1.4-2.29,1.13-3.44-.21-.85-1.52-.45-1.32.39.1.42-.27,1.05-.45,1.41-.2.4-.42.91-.75,1.22-.39.36-.98.58-1.47.78-.53.22-1.12.48-1.71.48-.83,0-1.61-.18-2.46-.06-.79.11-1.55.34-2.32.55-.93.25-1.85.46-2.82.47-.94,0-1.85-.05-2.78.12Z"/><path class="cls-3" d="M37.12,48.19c-.58-.14-.98-.16-1.3-.72-.22-.37-.31-.75-.63-1.07-.67-.68-1.79-.81-2.7-.81-1.14,0-2.25.15-3.38.09-1.06-.05-2.2-.12-3.21.27-.4.16-.73.39-1.05.67-.3.26-.61.66-1.05.67-.52.02-1.13-.51-1.57-.74-.43-.23-.85-.37-1.34-.45-.91-.16-1.91-.16-2.72.3-1.07.61-2.26.84-3.4,1.3-.82.33-.23,1.55.59,1.22,1.05-.42,2.23-.61,3.21-1.18.86-.5,1.91-.51,2.83-.09.82.37,1.52,1.01,2.48.99.88-.02,1.38-.63,2.01-1.13.86-.67,2.06-.54,3.08-.49,1.02.05,2-.03,3.01-.08.58-.03,1.26-.05,1.82.17.52.21.59.56.82,1.02.46.9,1.1,1.08,2.03,1.31.85.21,1.33-1.06.48-1.27Z"/></g></svg>