<?xml version="1.0" encoding="UTF-8"?><svg id="Layer_1" xmlns="http://www.w3.org/2000/svg" xmlns:xlink="http://www.w3.org/1999/xlink" viewBox="0 0 57 57"><defs><style>.cls-1{clip-path:url(#clippath);}.cls-2{fill:none;}.cls-2,.cls-3{stroke-width:0px;}.cls-3{fill:#231f20;}</style><clipPath id="clippath"><path class="cls-2" d="M42.49,47.85H14.51c-2.96,0-5.35-2.4-5.35-5.35V14.51c0-2.96,2.4-5.35,5.35-5.35h27.99c2.96,0,5.35,2.4,5.35,5.35v27.99c0,2.96-2.4,5.35-5.35,5.35Z"/></clipPath></defs><g class="cls-1"><path class="cls-3" d="M14.98,23.87s-.03,2.08,2.27,4.56c2.3,2.48,5.71,7.79,2.63,12.75,0,0-3.23-1.54-5.35-5.71,0,0,.48,7.88,10.78,8.31,0,0,.33,1.33-1.48,1.48s-5.1-1.36-6.13-2.23c0,0-4.86,1.57-7.34-5.26-2.48-6.83,3.32-13.14,4.62-13.89Z"/><path class="cls-3" d="M32.98,34.86v2.51h10.69s1.15-.03,1.6-.42l-3.02,5.07s-1,1.84-3.5,1.84h-5.77v2.42l-4.92-5.68,4.92-5.74Z"/><path class="cls-3" d="M37.53,26.94l5.66-3.26,3.44,5.92s1.84,3.41-.85,5.95c0,0-.75.85-2.79.83l-5.46-9.44Z"/><path class="cls-3" d="M31.02,22.43l2.18-1.24-5.29-9.29s-.59-.98-1.16-1.18l5.9.11s2.09-.05,3.33,2.13l2.85,5.01,2.1-1.2-2.5,7.09-7.42-1.44Z"/><path class="cls-3" d="M21.88,22.4l-5.64-3.31,3.45-5.92s2.06-3.29,5.59-2.2c0,0,1.11.23,2.1,2.02l-5.5,9.41Z"/></g></svg>