<?xml version="1.0" encoding="UTF-8"?><svg id="Layer_1" xmlns="http://www.w3.org/2000/svg" xmlns:xlink="http://www.w3.org/1999/xlink" viewBox="0 0 57 57"><defs><style>.cls-1{clip-path:url(#clippath);}.cls-2{fill:none;}.cls-2,.cls-3{stroke-width:0px;}.cls-3{fill:#231f20;}</style><clipPath id="clippath"><path class="cls-2" d="M42.49,47.85H14.51c-2.96,0-5.35-2.4-5.35-5.35V14.51c0-2.96,2.4-5.35,5.35-5.35h27.99c2.96,0,5.35,2.4,5.35,5.35v27.99c0,2.96-2.4,5.35-5.35,5.35Z"/></clipPath></defs><g class="cls-1"><path class="cls-3" d="M17.77,37.28c0-.39-.37-.23-.59-.1-.33.22-.66.6-.74,1,0,.03-.01.06-.02.08-.04.04-.08.08-.12.12-.18.03-.38.11-.57.21-.04.02-.08.04-.13.06,0-.04,0-.09-.02-.13-.29-.77-.3-1.6-.31-2.41,0-.09,0-.18,0-.27.14-1.04.32-2.08.27-3.14-.02-.58-.1-1.16-.32-1.7-.18-.45-.5-.79-.75-1.19-.31-.49-.3-1.01-.38-1.56-.09-.61-.26-1.19-.45-1.77-.38-1.1-.5-2.41-1.22-3.36-.01-.02-.03-.01-.05-.02-.55-1.06-1.4-1.86-2.26-2.65-.13-.48-.3-.95-.55-1.39-.17-.3-.35-.6-.5-.92-.03-.06-.04-.14-.06-.2.29.07.59.16.86.29,0,0,0,0,0,0,.03.01.06.03.09.04.44.15,1.51-1.19,1.14-1.37-.06-.03-.12-.06-.18-.08-.41-.2-.38-.64-.33-1.06.05-.47.05-.97.14-1.44.09-.46.34-.56.69-.84.4-.32.81-.74.96-1.25.27-.89-.58-1.6-1.35-1.86-.7-.23-1.56-.16-2.28-.11-.76.06-1.6.14-2.25.57-.78.52-1.47,1.41-.93,2.31.26.44.58.9.45,1.44-.09.39-.44.73-.66,1.06-.49.73-.85,1.58-.59,2.47.55,1.82,2.66,2.63,3.27,4.39.03.1.12.12.23.11.57.59.92,1.29,1.21,2.02.06.2.11.4.2.59,0,.02.03.02.04.03.11.31.22.63.34.94.54,1.39,1.34,2.67,1.81,4.08.99,2.98.69,6.19.29,9.26-.37.55-.66,1.17-.86,1.8-.24.75-.16,1.57-.47,2.29-.24.56-.67.97-.99,1.48-.01.02-.02.04-.03.06-.1-.23-.29-.25-.46.01-.36.56-.72,1.12-1,1.73-.31.66-.45,1.34-.57,2.06-.09.52-.32.98-.52,1.47-.24.59-.49,1.65.12,2.12.73.56,1.61-.67,2.25-.07.59.55.62,1.63.89,2.35.14.39.47-.07.54-.24.16-.38.22-.85.07-1.24-.24-.64-.34-1.51-.73-2.16-.01-.02-.03-.05-.05-.07.05-.22.07-.45.07-.57-.01-.66-.17-1.3-.19-1.95-.02-.6.29-1.16.51-1.7.34-.83.4-1.21.92-1.9.84-1.12,1.92-2.26,2.32-3.64.03-.04.05-.08.07-.12.12-.21.38-.47.54-.7.08-.11.13-.23.19-.34.07-.02.14-.04.2-.08.16.12.34.16.53.13,0,.1.03.21.07.3,0,0,0,0,0-.01.04.12.07.25.1.38,0,0,0,0,0,0-.13.29-.22.59-.21.91,0,.2.03.38.04.56-.03.06-.06.11-.08.17-.02.08-.05.15-.07.23-.03.11-.04.23-.05.35-.24.35-.44.72-.42,1.16,0,.01,0,.11.01.21-.15.12-.29.25-.41.38-.74.82-1.03,1.81-1.15,2.88-.04.4.4.22.58.1.31-.2.7-.61.74-1,.05-.48.15-.91.29-1.36,0,.02.03-.04.05-.08.05-.03.14-.12.15-.12.22-.17.42-.35.6-.56.32-.38.52-.8.48-1.3-.02-.24-.04-.24.07-.43.14-.23.3-.44.41-.7.18-.45.12-.87.08-1.34-.04-.47.16-.66.38-1.05.48-.85.57-1.73.6-2.69Z"/><path class="cls-3" d="M17.52,30.35c0-.1-.04-.19-.09-.27-.3-.31-.52-.67-.78-1.01-.04-.05-.08-.07-.13-.05-.06,0-.11.02-.16.07-.07.06-.12.12-.16.2-.06.09-.11.18-.15.28-.08.22-.15.45-.15.68,0,.15,0,.33.1.46.26.34.48.7.78,1.01.04.05.08.07.13.05.06,0,.11-.02.16-.07.07-.06.12-.12.16-.2.06-.09.11-.18.15-.28.08-.22.15-.45.15-.68,0-.06,0-.13,0-.19Z"/><path class="cls-3" d="M16.05,25.8c-.01-.06-.04-.1-.1-.11-.05-.03-.11-.04-.17-.01-.08.02-.16.06-.23.11-.09.05-.18.11-.25.19-.17.16-.33.34-.44.54-.03.06-.05.12-.08.17-.04.09-.05.18-.04.28.11.2.22.41.31.62.01.06.04.1.1.11.05.03.11.04.17.01.08-.02.16-.06.23-.11.09-.05.18-.11.25-.19.17-.16.33-.34.44-.54.03-.06.05-.12.08-.17.04-.09.05-.18.04-.28-.09-.21-.2-.42-.31-.62Z"/><path class="cls-3" d="M28.72,26.79c-.11-.12-.18-.26-.23-.42-.03-.1-.05-.19-.08-.29,0-.07-.03-.12-.07-.16-.03-.05-.08-.06-.14-.05-.07.01-.13.04-.18.09-.08.05-.14.11-.19.19-.14.18-.26.39-.34.61-.02.07-.04.14-.06.21-.03.12-.04.23-.02.35.06.18.1.37.17.55.05.14.12.28.22.39.03.05.07.08.12.08.06.02.12,0,.17-.04.07-.04.14-.1.19-.17.07-.07.14-.16.19-.25.12-.2.23-.42.27-.64,0-.06.02-.13.03-.19.01-.1,0-.19-.04-.28Z"/><path class="cls-3" d="M29.43,29.62c-.07-.1-.15-.2-.23-.29-.04-.05-.09-.07-.15-.06-.07-.01-.15,0-.22.02-.1.03-.19.07-.28.12-.1.05-.2.12-.29.19l-.18.16c-.1.1-.18.2-.26.32-.02.05-.04.1-.07.15-.03.08-.03.15.02.22.09.09.17.19.23.29.04.05.09.07.15.06.07.01.15,0,.22-.02.1-.03.19-.07.28-.12.1-.05.2-.12.29-.19l.18-.16c.1-.1.18-.2.26-.32.02-.05.04-.1.07-.15.03-.08.03-.15-.02-.22Z"/><path class="cls-3" d="M41.18,43.27c-.26-1.31-.86-2.37-1.72-3.37-.32-.37-.64-.74-.96-1.1.03-.22.02-.45-.08-.62-.53-.97-1.47-1.61-2.03-2.55-.29-.49-.58-1.01-1.05-1.35-.45-.33-.97-.51-1.45-.78-.21-.12-.36.08-.45.28-.03-.02-.05-.04-.08-.06-.39-.31-.8,1.38-.38,1.72.42.33.82.66,1.21,1.01-.21.05-.39.14-.55.35-.37-.11-.73-.27-1.03-.51-.1-.09-.19-.18-.25-.3-.07-.11-.26-.1-.36-.08-.18.03-.37.11-.53.2-.02-.09-.06-.16-.11-.2-.78-.55-1.41-1.26-2.06-1.95-.63-.66-1.33-1.19-2.01-1.78-.7-.6-1.01-1.24-1.23-2.08.03-.11.05-.21.05-.31.02-1.64-.49-3.2-.64-4.82-.04-.44-.07-.87-.11-1.3.15-2.1.34-4.16-1.02-6-.75-1.02-1.82-1.74-2.48-2.85-.2-.33-.36-.69-.48-1.05-.05-.15-.07-.37-.12-.55.24-.04.52-.18.74-.24.39-.11.92-1.7.46-1.72-.86-.04-1.59,0-2.37-.43-.76-.43-1.48-1.08-1.93-1.83-.56-.94-.23-2.11-.29-3.16-.04-.71-.14-1.86-1.02-2-1.02-.16-2.14,1.23-2.84,1.82-.77.65-1.77,1.76-1.46,2.88.16.59.85.87,1.22,1.35.53.69,1,1.43,1.53,2.12.59.77,1.15,1.56,1.85,2.24.64.61,1.37,1.1,2.07,1.62,1.5,1.12,2.67,2.54,3.95,3.88,0,.03,0,.07,0,.09.06.88.5,1.57.77,2.36.1.47.18.94.24,1.41.02.72-.06,1.46-.07,2.15-.03,1.78-.23,3.78.49,5.45.06.14.14.21.21.23.31.7.75,1.35,1.38,1.9-.05.27-.04.52.07.64.82.89,1.6,1.85,2.59,2.58,1.01.75,2.17,1.25,3.17,2.03,0,0,.01,0,.02.01,0,.3.04.59.19.7,1.32.97,2.17,2.33,2.92,3.76.28.53.56,1.05.84,1.58,0,.09,0,.17,0,.26-.02.43,0,.85.04,1.27.04.42.11.84.19,1.25-.01.01-.02.03-.03.04-.82,1.1-1.8,2.11-1.75,3.58.02.46.12,1.04.61,1.21.38.13.8.02,1.2.08.22.34.22.83.13,1.18-.09.34.26.3.47.22.35-.14.73-.43.91-.77.02-.05.03-.1.06-.14,0,0,0,0,0,0,0-.01,0-.03,0-.04.63-1.43-.11-3.01-.32-4.47.14-.3.21-.68.18-.97-.04-.34-.08-.69-.13-1.03.01-.2,0-.4-.01-.6-.02-.2-.07-.4-.13-.59-.02-.19-.05-.37-.07-.56-.08-.75-.07-1.55-.28-2.27-.21-.73-.73-1.28-1.28-1.83-.15-.35-.32-.69-.56-1-.28-.37-.61-.69-.95-1.01-.03-.09-.07-.17-.09-.26,0-.01,0-.02,0-.03.02-.02.05-.03.07-.05.07,0,.14,0,.21-.02.26-.05.47-.17.65-.37.05-.06.09-.14.14-.21.15.16.3.33.43.5.83,1.05,1.89,1.89,2.77,2.91.85.98,1.67,1.9,1.98,3.2.28,1.16.21,2.39.21,3.58,0,.21.04.78.38.68.32-.1.37-.84.37-1.08,0-1.34.03-2.69-.23-4.01ZM35.87,50.47c-.17,0-.34,0-.48,0,0,0,0,0,0,0,.2-.31.43-.6.66-.89,0,0,.01-.02.02-.02,0,.32-.07.63-.2.92Z"/><path class="cls-3" d="M51.23,43.23c-.85-.88-1.83-1.7-2.29-2.87-.49-1.24-.37-2.62-.85-3.86-.45-1.17-1.43-1.66-2.17-2.59-.16-.2-.26-.4-.34-.6.31.22.65.4.97.6.29.19.55.4.75.69.22.31.36.66.55.99.39.68,1.11,1.06,1.5,1.74.26.46,2.01.31,1.75-.12-.38-.65-1.06-1.02-1.45-1.66-.4-.65-.65-1.3-1.29-1.78-.52-.39-1.23-.62-1.65-1.14-.43-.52-.54-1.25-.7-1.88,0-.02-.02-.02-.03-.04,0-.02-.02-.03-.04-.05-.02-.03-.03-.07-.07-.1.05-.14.11-.29.16-.43.11-.28-.34-.43-.82-.45-.09-.17-.17-.34-.23-.52-.26-.71-.13-1.31-.15-2.04-.03-1.17-.9-1.98-1.79-2.61-.97-.69-2.07-1.2-2.97-1.98-.5-.44-.94-.96-1.39-1.45-.48-.52-.94-1.06-1.3-1.67-.05-.09-.16-.15-.29-.2-.2-.41-.39-.82-.48-1.26-.03-.14-.05-.28-.06-.42.18.01.3-.05.24-.26-.07-.24-.18-.46-.29-.68,0-.19-.01-.38-.03-.57-.02-.28-.07-.54-.13-.8.03-.08,0-.18-.09-.29-.17-.55-.44-1.06-.83-1.52.07-.05.14-.11.13-.19-.16-.82-.19-1.96-1.1-2.32-.14-.06-.3-.1-.45-.13-.09-.02-.2-.03-.29-.05,0,0,0,0-.01,0-.03-.02-.06-.04-.09-.05-.1-.06-.2-.13-.3-.2-.32-.24-.7-.59-.76-1.02-.01-.09-.07-.16-.16-.21-.25-.76-.38-1.57-.36-2.36.02-.79.13-1.74-.35-2.43-.41-.6-1.51-1.3-2.16-.69-.61.57-.78,1.67-.95,2.44-.11.48-.18.92.03,1.38.13.29.32.56.52.83.16.8.56,1.55,1.17,2.2.06.07.14.13.21.19.06.17.12.35.19.52.15.35.72.58,1.06.65.01,0,.02,0,.03,0,.26.22.52.44.78.66.57.5,1.13,1.01,1.67,1.55.07.24.14.48.22.72.12.37.3.71.47,1.06.01.37.02.74.08,1.1.13.76.46,1.44.81,2.13-.16.06-.25.14-.18.26.67,1.12,1.65,2.15,2.58,3.06.9.88,2.08,1.42,3.11,2.14.45.31.92.64,1.25,1.08.44.58.48,1.16.43,1.86-.08,1.09.33,2.2,1.06,3.01-.38,1-.71,2.02-.21,3.08.51,1.09,1.76,1.59,2.31,2.69.61,1.24.47,2.7.92,4,.46,1.29,1.45,2.16,2.38,3.12.27.27.77.28,1.12.23.12-.02.88-.2.62-.46Z"/><path class="cls-3" d="M51.29,18.6c-.42-.51-.8-1.06-.98-1.7-.11-.39-.13-.79-.13-1.19.07.12.15.24.21.36.35.64.59,1.32.95,1.95.18.32.74.39,1.07.39.15,0,.86-.05.68-.36-.46-.8-.74-1.68-1.25-2.45-.44-.67-1.03-1.12-1.73-1.32-.15-.93-.33-1.86-.53-2.76-.01-.05-.03-.09-.05-.13-.41-1.81-2.23-2.76-3.94-3.39-.45-.16-.91-.26-1.38-.36-.22-.04-.44-.09-.66-.15,0,0,0,0,0,0-.01-.07-.12-.28-.13-.36-.26-1.19.55-2.39.28-3.56-.24-1.04-1.67-1.84-2.68-1.52-1.04.33-.63,1.54-.53,2.33.12.9.02,1.99.52,2.8.59.94,1.93,1.24,2.88,1.67.69.32,1.35.67,2.05.95.55.22,1.16.4,1.66.72.16.11.25.27.31.44.03.21.05.42.05.65,0,.08.05.16.12.24,0,.06.01.13.03.19.08.39.16.77.24,1.16-.01.01-.03.01-.04.03,0,.4,0,.79.15,1.16,0,.01-.01.02-.01.03-.06.74-.1,1.49.06,2.22.15.71.52,1.3.98,1.86.83,1.03,1.91,1.93,2.41,3.19.19.48,1.95.52,1.76.03-.49-1.22-1.52-2.13-2.35-3.12Z"/><path class="cls-3" d="M42.07,22.54c-.3-.29-.75-.46-1.16-.46s-.06.47.06.59c.3.29.75.46,1.16.46s.06-.47-.06-.59Z"/><path class="cls-3" d="M50.63,9.95c-.3,0-1.04.03-1.19.36-.15.31.07.43.41.43.3,0,1.04-.03,1.19-.36.15-.31-.07-.43-.41-.43Z"/></g></svg>