<?xml version="1.0" encoding="UTF-8"?><svg id="Layer_1" xmlns="http://www.w3.org/2000/svg" xmlns:xlink="http://www.w3.org/1999/xlink" viewBox="0 0 57 57"><defs><style>.cls-1{clip-path:url(#clippath);}.cls-2{fill:none;}.cls-2,.cls-3,.cls-4{stroke-width:0px;}.cls-5{clip-path:url(#clippath-1);}.cls-3{fill:#231f20;}.cls-4{fill:#f1f2f2;}</style><clipPath id="clippath"><path class="cls-2" d="M42.49,47.85H14.51c-2.96,0-5.35-2.4-5.35-5.35V14.51c0-2.96,2.4-5.35,5.35-5.35h27.99c2.96,0,5.35,2.4,5.35,5.35v27.99c0,2.96-2.4,5.35-5.35,5.35Z"/></clipPath><clipPath id="clippath-1"><path class="cls-2" d="M42.49,137.85H14.51c-2.96,0-5.35-2.4-5.35-5.35v-27.99c0-2.96,2.4-5.35,5.35-5.35h27.99c2.96,0,5.35,2.4,5.35,5.35v27.99c0,2.96-2.4,5.35-5.35,5.35Z"/></clipPath></defs><g class="cls-1"><path class="cls-3" d="M48.42,45.33c-.34-.17-.73-.23-1.11-.25-.19,0-.44.04-.59-.12-.14-.15-.15-.44-.2-.63-.19-.72-.63-1.32-1.14-1.84-.64-.66-1.39-1.21-2.06-1.84-.79-.75-1.49-1.56-2.13-2.44,0-.01-.03-.02-.04-.03,0-.02,0-.04,0-.06,0-.16-.04-.3-.12-.43-.11-.15-.22-.3-.34-.45-.05-.1-.13-.18-.22-.24-.03-.03-.08-.04-.12-.06-.05-.33-.03-.66,0-.99.02-.33.01-.66-.07-.98.17-.61.21-1.24.09-1.87-.04-.19-.08-.38-.06-.58.02-.2.14-.32.27-.47.21-.25.14-.48.07-.73.09-.49.16-.99.21-1.49.08-.02.15-.03.23-.08.44-.25.68-.63.74-1.04.66-.37,1.23-.85,1.72-1.43.09-.05.17-.09.25-.16.39-.36.59-.9.78-1.37.23-.56.42-1.13.61-1.7.02-.06,0-.11-.04-.15.04-.03.06-.06.07-.11.25-.96.19-1.94.15-2.92-.02-.48-.06-.97,0-1.45.06-.5.32-.85.62-1.23.31-.4.62-.79.92-1.19.33-.43.59-.81,1.11-.99.48-.16,1.24-.62.86-1.17.01-.71,0-1.41-.05-2.12-.02-.27-.58-.24-.74-.15-.63.37-.94.96-1.31,1.56-.12.19-.13.28-.33.18-.17-.08-.32-.32-.42-.47-.25-.38-.4-.83-.49-1.28-.09-.44-.12-.89.08-1.3.23-.46.63-.87.95-1.28.37-.48,1.42-1.38.86-2.03-.03-.03-.07-.05-.1-.08.28-.1.21-.38-.22-.38-.17,0-.28.05-.34.11-.37-.08-.77-.06-1.1.06-.71.26-1.19.95-1.47,1.62-.6,1.4-.46,3.12.43,4.37.28.39.64.72.89,1.13.3.52.29,1.09.11,1.64-.31.92-.94,1.68-1.1,2.66,0,.02,0,.04.01.05-.02.08-.04.15-.05.23-.13.03-.23.09-.26.19-.23.94-.47,1.9-.43,2.88.02.48.15.95.15,1.43,0,.37-.08.73-.18,1.09-.12.21-.27.39-.45.58-.59.63-1.28,1.21-2.08,1.54-.11-.11-.23-.22-.37-.3-.58-.37-1.33-.58-1.99-.76-.81-.22-1.57-.28-2.4-.16-.37.05-.27.09-.51-.17-.22-.24-.44-.44-.74-.58-.59-.27-1.25-.18-1.87-.23-1.16-.08-2.29-.45-3.05-1.36-.11-.14-.28-.2-.45-.22-.02-.11-.06-.21-.11-.31.06-.08.1-.17.06-.28-.33-1.07-.85-1.86-1.55-2.55.24-.1.5-.31.23-.55-1.66-1.43-3.32-2.87-4.98-4.3-.61-.53-1.19-1.04-1.93-1.3-.34-.23-.7-.41-1.1-.5-.16-.78-.4-1.54-.71-2.27-.13-.41-.26-.82-.44-1.2-.02-.05-.05-.09-.08-.14-.06-.29-.15-.58-.24-.87.06-.09.06-.21-.06-.34-.01-.01-.03-.03-.04-.04-.1-.31-.22-.61-.35-.9.07-.32.15-.63.17-.96.01-.28-.04-.62-.2-.86-.23-.33-.61-.47-.99-.55-.39-.08-.8-.13-1.19-.06-.42.07-.86.26-.95.72-.05.27.05.56.16.8.11.25.27.47.44.68.24.3.5.58.77.86,0,.02,0,.04,0,.06.01.19.19.3.39.36.1.11.2.21.3.32.09.1.29.15.43.18.01.01.03.03.04.04.07.07.13.16.2.24-.05.04-.07.09-.03.15.13.21.24.42.36.63.03.16.06.31.08.47.01.1.12.16.25.19.05.1.09.2.14.3.04.12.08.24.12.37l.53,1.69c-.61-.04-1.24-.03-1.85-.07-.81-.05-1.62-.14-2.42-.24-.03,0-.07-.02-.1-.02-.54-.1-1.08-.19-1.63-.26-.1-.02-.19-.05-.29-.07-1.52-.31-3.06-.42-4.52.13-.01,0-.03,0-.04,0,.03-.05.03-.1-.03-.15-.55-.47-1.08-.96-1.61-1.45-.05-.05-.13-.07-.2-.08-.34-.66-.86-1.21-1.27-1.83-.1-.16-.36-.17-.53-.15-.09.01-.4.1-.3.26.35.53.79,1.01,1.12,1.55.16.26.31.54.39.84.07.25.1.59-.02.84,0,0-.02,0-.03.01h-.01s-.06.07-.06.12c0,.01.01.02.02.04-.8.16-1.54.5-2.33.77-.68.23-1.37.42-2.07.59-.18-.12-.34-.29-.48-.47-.42-.53-.78-1.13-1.44-1.4-.46-.19-1.32-.27-1.63.23-.19.3-.19.78-.23,1.13-.03.35-.11.79.08,1.12.12.21.32.34.55.44.27.24.63.36.96.46.06.02.12.04.18.06.04.01.08.03.12.04.06.03.11.05.17.08.51.39.89.91,1.13,1.5.04.11.21.16.37.16.45,1.05,1.01,2.06,1.72,2.96.61.77,1.31,1.43,2.05,2.07.03.06.06.12.09.18.33.52.73.99,1.13,1.46.07.08.17.12.27.14.89,1.15,1.94,2.16,3.06,3.09,1.35,1.11,2.75,2.16,4.14,3.22.79,1.3.75,3.02-.14,4.27-.46.64-1.16,1.07-1.47,1.82-.28.66-.34,1.39-.73,2-.11.04-.19.09-.19.18-.09,1.41-.16,2.87.28,4.24.22.7.62,1.24,1.02,1.85.2.3.37.62.37,1,0,.03,0,.06,0,.09-.03.4-.22.76-.4,1.11-.02.04-.02.08,0,.11-.34.86-.36,1.77-.42,2.68-.04.55-.15,1.07-.22,1.6-.06.07-.08.16-.05.28,0,.01,0,.03.01.04-.01.14-.01.27-.01.41-.08.67.02,1.35-.07,2.02-.09.67-.26,1.33-.2,2.01.03.35.59.43.86.42.06,0,.14,0,.24-.02.12.26.61.32.84.31.23,0,.87-.07.86-.42,0-.05,0-.1,0-.16.47-.4.35-1.12.11-1.66-.21-.48-.37-.96-.5-1.46-.05-.22-.09-.44-.15-.66-.08-.38-.15-.77-.21-1.17-.32-2.27.31-4.53.2-6.81-.06-1.23-.25-2.46-.55-3.66-.16-.64-.17-1.13,0-1.78.16-.63.33-1.26.5-1.9.15-.16.3-.31.43-.48.22-.31.39-.66.55-1,.02-.03.03-.07.05-.1.04-.05.09-.1.13-.14.63-.71,1.1-1.46,1.15-2.44.05-1.02-.23-2.29-.83-3.12-.09-.12-.18-.23-.28-.33.1-.11.13-.24-.03-.38-.14-.11-.28-.21-.43-.3-.02-.14-.04-.29-.12-.41-.08-.13-.21-.24-.33-.34-.28-.22-.58-.41-.9-.58-.12-.06-.26-.06-.41-.04-.88-.56-1.71-1.17-2.53-1.81-.29-.25-.58-.49-.87-.74-.06-.05-.14-.09-.22-.12-.76-.62-1.52-1.25-2.27-1.88-.8-1.21-1.75-2.32-2.57-3.52-.79-1.14-1.45-2.37-2.09-3.6.37-.27.62-.61.95-.94.36-.36.8-.46,1.28-.59,1.05-.28,2.12-.55,3.2-.4.41.64.68,1.37,1.04,2.03.25.46.57.84.96,1.2.24.22.38.42.43.75.04.28.05.55.2.8.12.19.84.25.85-.06.01-.56-.11-1.12-.37-1.62-.28-.55-.81-.92-1.09-1.47-.24-.46-.24-.93-.24-1.42.04-.03.09-.06.12-.1.15-.23.34-.39.54-.51.04,0,.08,0,.11-.03.03-.02.05-.04.07-.05.05-.02.09-.04.14-.06.46,0,.92.03,1.38.11,1.13.2,2.17.55,3.34.61.39.02.78.03,1.16.11.15.04.29.09.44.13,0,0,.01,0,.02,0,.46.19.86.5,1.32.71.96.45,2,.65,3.03.85.06.01.17,0,.3,0,.21.11.42.22.62.35.12.12.24.24.36.37.73.77,1.48,1.53,2.29,2.21.33.33.67.66,1.03.96-.02.08-.05.16-.05.24-.01.42-.01.87.14,1.27.16.43.42.79.78,1.08.17.14.35.26.53.39.07.05.14.1.21.15.03.02.05.04.08.06,0,0,0,0,0,0,.29.24.56.5.79.79.08.09.2.15.33.2.06.07.12.14.17.21.04.11.09.22.17.32.66.8,1.59,1.32,2.58,1.59.52.15,1.06.23,1.6.27.38.03,1.01-.1,1.32.14.18.13.29.35.47.49.23.19.48.31.78.36.59.11,1.18-.13,1.78-.07.61.06,1.2.28,1.77.48-.05.07-.09.15-.1.25-.07.53-.14,1.05-.22,1.58-.03.23-.06.47-.1.7-.02.15-.04.29-.06.44,0,.05-.04.14-.04.2-.43.24-.75.55-.89,1.11-.18.69.05,1.32.32,1.94.25.6.21,1.03.02,1.65-.17.58-.34,1.18-.32,1.79-.04.04-.08.07-.12.12-.56.73-1.08,1.45-1.41,2.31-.33.84-.44,1.78-.34,2.67.04.37.24.74.63.83.4.09.74-.07.97-.4.24-.33.42-.71.53-1.1.12-.44.14-.9.18-1.35,0-.03,0-.05,0-.08,0,0,0-.03.01-.07.02-.09.04-.18.07-.27.03-.09.06-.18.09-.27,0-.01,0-.01,0-.02.02-.03.03-.07.05-.1.17-.35.38-.68.59-1.01.05-.07.07-.16.09-.24,0-.01.02-.02.03-.04.03-.04.04-.1.06-.15,0,0,0,0,0,0,.02.03.04.06.06.08.05.1.13.18.22.24.08.08.18.13.29.15.03,0,.06,0,.09,0,.14.37.26.75.27,1.14.01.46-.12.88.1,1.32.19.38.51.69.78,1.02l1.05,1.26c.54.66,1.06,1.43,1.74,1.96.69.54,1.58.7,2.41.92.45.12.9.25,1.35.36.33.09.76.18,1.03-.1.48-.5.01-1.25-.49-1.51Z"/><path class="cls-3" d="M33.67,48.04c0-.67-.15-1.31-.34-1.95,0,0,0-.01,0-.02-.07-.67-.15-1.33-.34-1.97,0-.01,0-.02,0-.04,0,0,0-.01-.01-.02-.03-.11-.06-.22-.1-.32.12-.4.23-.81.29-1.2.31.32.66.62.89.94.62.88.89,1.94.83,3.01-.02.29.68.24.8.11.65-.7.54-1.68.08-2.46-.28-.47-.65-.87-.99-1.29-.38-.48-.67-1.01-.95-1.55-.22-.42-.46-.85-.7-1.28-.06-.32-.14-.64-.26-.97-.56-1.61-1.46-3.13-1.52-4.87,0-.3-.81-.29-.86,0-.39,2.18.79,4.07,1.81,5.91.08.35.14.71.15,1.07.03.79-.13,1.57-.35,2.32-.55-.67-1.3-1.23-1.79-1.93.05-.05.06-.11-.01-.18-.09-.08-.16-.17-.24-.26-.06-.12-.11-.24-.14-.38-.03-.12-.17-.18-.33-.2-.8-1.09-1.36-2.35-2.28-3.36-.44-.48-.91-.92-1.29-1.43-.29-.99-.61-1.97-.99-2.93-.02-.05-.07-.08-.13-.11-.03-.14-.05-.29-.08-.43-.06-.31-.91-.26-.86,0,.16.89.33,1.79.68,2.62.15.35.34.66.55.95.06.22.14.44.2.66.04.16.3.22.53.2.14.15.29.3.43.45,1.19,1.21,1.8,2.85,2.92,4.11.5.98,1.5,1.58,2.14,2.48.43.61.71,1.31.94,2.01.04.13.08.26.12.39.01.08.03.15.04.23.09.98.17,1.96.53,2.88.34.87,1.08,1.57,1.23,2.51.14.87-.16,1.75.25,2.58.11.23.62.19.79.05,1.52-1.31-.07-3.09-.87-4.27-.43-.64-.63-1.33-.77-2.05Z"/><path class="cls-3" d="M27.56-20.91c-.11.36-.34.69-.59.97-.13.14-.34.29-.32.51.01.21.22.41.32.58.39.63.51,1.36.54,2.1.03.92-.09,1.84-.1,2.76,0,1.08.09,2.16.29,3.23,0,.01,0,.03,0,.05.02.01.03.03.05.04.11.11.19.24.23.39.03.18.06.37.09.55.03.11.04.22.02.33,0,.05-.03.08-.04.13.2.26.46.48.71.69.25.22.48.45.66.73.55.3,1.04.71,1.41,1.23.11.16.22.32.37.45.16.13.33.12.52.13.33.02.44.23.57.46.41.28.82.57,1.22.88.07-.04.13-.09.22-.11.49-.14.92-.05,1.27.19.72-.21,1.47-.3,2.23-.25.09-.03.19-.06.29-.07.52-.03,1.05.2,1.53.39.56.22,1.1.48,1.65.74.06.03.08.08.08.13.05,0,.09,0,.13.02.86.49,1.53,1.2,2.21,1.92.33.35.66.72,1.04,1.01.4.3.83.35,1.32.4.5.05,1,.11,1.5.16.53.06.99.14,1.48-.12.45-.23,1.31-.46,1.44.2.52.48,1.02.98,1.49,1.5.18.2-.23.58-.4.63-.7.2-1.34.01-2.03-.14-.22-.05-.29-.1-.36.11-.06.18,0,.45.05.63.1.44.32.86.58,1.24.25.37.55.71.99.84.49.15,1.07.15,1.58.2.6.07,1.98-.07,2.06.78,0,.04-.02.08-.02.13.26-.13.42.12.13.42-.12.12-.23.17-.31.17-.19.32-.49.59-.8.75-.68.33-1.51.2-2.18-.06-1.43-.54-2.56-1.84-2.85-3.34-.09-.47-.07-.96-.2-1.43-.16-.58-.58-.96-1.11-1.21-.88-.42-1.86-.49-2.68-1.06-.02-.01-.02-.03-.03-.05-.07-.04-.14-.07-.2-.12-.11.07-.22.11-.31.06-.84-.49-1.69-.98-2.37-1.69-.33-.35-.58-.76-.93-1.1-.27-.26-.58-.45-.9-.63-.23-.05-.47-.07-.73-.08-.86,0-1.76.08-2.55.44,0,.16,0,.32-.04.47-.14.67-.51,1.36-.84,1.96-.4.73-.89,1.32-1.55,1.84-.29.23-.25.13-.23.48.02.32.02.62-.09.93-.22.61-.73,1.02-1.14,1.51-.75.89-1.27,1.96-1.13,3.14.02.18-.05.34-.15.48.07.09.11.19.15.3.1.01.19.05.24.15.54.98.75,1.9.76,2.89.23-.1.57-.14.55.21-.12,2.19-.24,4.38-.35,6.57-.04.81-.08,1.58-.4,2.3-.07.4-.19.79-.4,1.14.45.66.83,1.36,1.14,2.08.21.37.41.75.56,1.15.02.05.03.1.04.15.17.25.31.51.46.77.11.02.19.1.2.28,0,.02,0,.04,0,.06.15.28.28.58.41.88.27.17.56.33.81.54.22.19.42.46.48.74.07.4-.09.77-.29,1.1-.21.33-.46.66-.78.9-.34.26-.78.44-1.18.19-.23-.15-.37-.43-.46-.67-.1-.25-.15-.52-.18-.79-.04-.38-.07-.77-.09-1.15-.01-.01-.03-.02-.04-.04-.13-.14-.08-.34.01-.53,0-.15-.01-.3-.02-.44,0-.14.09-.31.17-.44,0-.02,0-.04,0-.06,0-.1-.02-.2-.03-.3-.06,0-.11-.01-.13-.08-.06-.24-.13-.47-.21-.7-.09-.13-.18-.26-.28-.38-.06-.08-.03-.2.04-.32-.04-.1-.08-.21-.12-.31-.06-.11-.12-.23-.18-.34l-.85-1.55c-.4.47-.84.91-1.23,1.38-.52.62-1.02,1.26-1.51,1.91-.02.03-.04.06-.05.09-.3.46-.61.91-.94,1.35-.05.08-.1.17-.15.25-.83,1.32-1.82,2.5-3.23,3.17,0,0-.02.02-.03.03.05.01.09.05.09.13-.04.72-.06,1.44-.07,2.16,0,.07-.04.14-.08.2.24.7.27,1.46.43,2.18.04.18-.13.38-.26.48-.07.06-.35.22-.4.04-.14-.62-.18-1.27-.34-1.89-.08-.3-.18-.59-.34-.86-.13-.23-.35-.48-.62-.57-.01,0-.02.01-.03.01h-.02s-.08,0-.12-.03c0-.01,0-.03-.01-.04-.67.46-1.43.76-2.17,1.14-.64.33-1.25.7-1.86,1.08-.04.22-.03.44,0,.67.09.67.27,1.35,0,2.01-.18.46-.72,1.13-1.3,1.01-.35-.07-.7-.4-.97-.62-.28-.22-.64-.47-.75-.83-.07-.23-.02-.47.07-.7.01-.35.18-.7.33-1.01.03-.06.06-.11.09-.17.02-.04.04-.07.05-.11.02-.06.04-.12.06-.18.07-.63-.03-1.27-.3-1.86-.05-.11.03-.26.14-.38-.45-1.05-.78-2.15-.94-3.29-.13-.97-.12-1.94-.07-2.91-.02-.06-.05-.13-.06-.19-.15-.6-.21-1.22-.27-1.83-.01-.11.03-.2.09-.29-.22-1.44-.21-2.9-.1-4.35.13-1.74.35-3.48.55-5.22-.39-1.47-1.66-2.64-3.18-2.86-.78-.11-1.58.09-2.33-.2-.67-.26-1.24-.72-1.94-.86-.1.05-.2.07-.26.01-1.08-.92-2.18-1.88-2.87-3.14-.35-.65-.47-1.31-.62-2.02-.08-.35-.19-.7-.46-.96-.02-.02-.05-.04-.07-.06-.3-.26-.7-.37-1.08-.48-.04-.01-.07-.04-.08-.08C.61,2.98-.05,2.35-.76,1.76c-.42-.35-.88-.63-1.31-.95-.09,0-.17-.05-.23-.16,0-.01-.01-.02-.02-.04-.11-.09-.2-.18-.3-.28-.54-.41-.96-.95-1.51-1.35-.55-.4-1.14-.74-1.59-1.25-.23-.27.1-.72.29-.91.04-.04.1-.1.18-.16-.11-.26.2-.66.35-.82.17-.16.65-.58.9-.33.04.04.07.08.11.12.61-.06,1.05.52,1.27,1.07.2.49.44.94.7,1.37.12.19.25.37.37.56.22.32.45.64.7.96C.57,1.41,2.64,2.51,4.21,4.17c.85.9,1.6,1.89,2.25,2.94.35.56.7.91,1.28,1.23.57.32,1.14.64,1.71.95.22,0,.43,0,.64.02.38.05.74.18,1.1.29.04.01.07.02.11.03.06,0,.13,0,.19,0,.95.04,1.82.22,2.56.86.77.67,1.49,1.75,1.67,2.77.03.14.04.29.04.43.15,0,.27.07.25.28-.01.18-.04.35-.08.52.09.11.18.23.22.37.04.15.03.32.01.47-.03.35-.1.71-.21,1.05-.04.13-.14.24-.25.32-.21,1.02-.34,2.05-.45,3.08-.02.38-.05.76-.07,1.14,0,.08-.03.16-.06.24-.08.98-.15,1.96-.22,2.94.31,1.42.46,2.87.75,4.29.28,1.36.7,2.69,1.14,4.01.45-.08.87-.02,1.34-.03.51,0,.89-.26,1.31-.51.93-.56,1.87-1.14,2.51-2.03-.17-.74-.51-1.44-.74-2.16-.16-.5-.21-1-.2-1.52,0-.32-.04-.57-.24-.83-.17-.22-.36-.42-.43-.7-.06-.22.4-.78.63-.57.41.38.73.86.91,1.38.2.59.11,1.22.3,1.8.17.49.5.82.86,1.16.05,0,.1-.02.15-.02.27.05.52.03.74-.04.03-.02.06-.05.09-.06.03,0,.06-.01.09-.01.05-.02.1-.04.14-.06.32-.34.62-.69.87-1.07.64-.96,1.11-1.94,1.87-2.83.25-.29.52-.58.73-.91.07-.13.14-.27.21-.4,0,0,0-.01,0-.02.18-.47.24-.97.4-1.44.34-1,.92-1.89,1.49-2.77.03-.05.11-.13.21-.21.07-.23.13-.45.17-.69,0-.17,0-.34-.02-.51-.05-1.06-.08-2.12,0-3.18,0-.47,0-.94.02-1.41-.07-.04-.15-.07-.21-.13-.31-.28-.64-.6-.82-.98-.2-.42-.28-.85-.23-1.31.02-.22.05-.44.09-.65.01-.08.03-.17.04-.25,0-.03,0-.06.01-.1,0,0,0,0,0,0,.03-.37.03-.75-.02-1.12-.01-.12.03-.25.09-.38-.01-.09-.02-.18-.03-.27-.06-.11-.1-.22-.11-.34-.12-1.03.16-2.06.64-2.96.26-.48.58-.92.92-1.34.24-.29.77-.66.82-1.05.03-.22-.05-.45-.03-.67.02-.3.11-.56.28-.81.33-.5.91-.75,1.28-1.23.37-.48.63-1.06.88-1.61-.09-.02-.17-.04-.25-.1-.43-.31-.86-.63-1.29-.94-.19-.14-.38-.28-.57-.42-.12-.09-.24-.17-.36-.26-.04-.03-.13-.07-.17-.11-.47.15-.92.16-1.42-.12-.62-.35-.91-.95-1.18-1.58-.26-.6-.6-.87-1.17-1.16-.54-.28-1.09-.57-1.51-1.01-.06,0-.11,0-.17,0-.91-.1-1.79-.23-2.65-.59-.83-.34-1.59-.91-2.16-1.6-.24-.28-.37-.68-.16-1.03.21-.35.56-.48.96-.43.4.06.8.19,1.16.38.4.21.74.52,1.09.81.02.02.04.03.06.05,0,0,.02.02.06.04.08.05.16.1.24.14.08.04.17.08.25.12.01,0,.01,0,.02,0,.04.01.07.02.11.04.37.12.76.2,1.14.28.09.02.16.06.23.11.01,0,.03,0,.04,0,.05,0,.1.04.15.06,0,0,0,0,0,0,0-.03-.01-.07-.02-.1-.03-.11-.04-.22-.02-.33,0-.11.03-.22.09-.32.01-.03.04-.04.06-.07-.17-.35-.36-.7-.64-.99-.33-.33-.72-.53-.88-.99-.14-.4-.14-.85-.19-1.27l-.19-1.63c-.1-.85-.3-1.76-.21-2.62.09-.87.59-1.63,1-2.37.22-.41.45-.82.67-1.23.17-.3.4-.68.78-.68.7,0,.91.86.75,1.4Z"/><path class="cls-3" d="M35.68-44.96c-.2.67-.62,1.25-1.07,1.77-.23.26-.62.53-.59.92.03.38.4.75.59,1.06.71,1.16.94,2.49.98,3.83.06,1.68-.17,3.36-.18,5.04-.02,1.98.17,3.95.52,5.9,0,.02,0,.06-.01.09.03.02.06.05.1.07.2.2.35.43.42.71.05.34.11.67.16,1.01.06.2.08.4.04.6,0,.08-.05.15-.07.23.37.48.84.87,1.3,1.27.46.4.88.82,1.2,1.33,1.01.55,1.9,1.3,2.58,2.24.21.29.4.59.68.82.29.24.6.21.96.24.6.04.81.43,1.05.84.76.5,1.5,1.05,2.23,1.61.12-.08.24-.16.4-.21.9-.26,1.69-.09,2.32.34,1.32-.39,2.69-.54,4.07-.45.17-.05.34-.11.53-.12.96-.06,1.93.36,2.8.7,1.02.4,2.02.88,3.01,1.35.1.05.14.14.15.24.08-.01.16,0,.23.04,1.58.89,2.8,2.2,4.03,3.5.6.63,1.2,1.32,1.89,1.85.73.55,1.52.64,2.41.74.91.1,1.83.2,2.74.3.98.11,1.81.25,2.71-.21.82-.42,2.39-.84,2.63.36.95.88,1.86,1.79,2.73,2.75.33.36-.42,1.07-.74,1.16-1.28.36-2.44.02-3.71-.25-.4-.09-.53-.19-.65.2-.11.33.02.82.09,1.15.19.81.59,1.58,1.06,2.26.46.67,1.01,1.29,1.82,1.54.9.28,1.95.27,2.89.37,1.09.12,3.63-.12,3.76,1.43,0,.08-.03.15-.03.23.48-.23.77.21.23.77-.21.22-.41.31-.57.3-.35.59-.9,1.09-1.47,1.36-1.24.61-2.75.36-3.99-.11-2.6-.99-4.69-3.35-5.21-6.11-.16-.86-.13-1.76-.37-2.61-.29-1.06-1.06-1.76-2.03-2.22-1.6-.76-3.41-.89-4.89-1.93-.03-.02-.04-.06-.05-.09-.12-.07-.25-.13-.37-.22-.2.13-.41.2-.57.11-1.53-.89-3.1-1.8-4.33-3.09-.61-.63-1.06-1.39-1.69-2-.49-.47-1.06-.83-1.65-1.14-.42-.1-.86-.14-1.33-.14-1.57-.01-3.21.14-4.66.8,0,.29-.01.58-.07.87-.26,1.23-.93,2.48-1.53,3.58-.73,1.34-1.63,2.42-2.83,3.36-.54.42-.47.24-.42.89.04.59.03,1.14-.17,1.7-.39,1.11-1.34,1.87-2.07,2.75-1.37,1.63-2.31,3.58-2.07,5.74.04.33-.09.62-.27.87.12.17.21.35.27.54.18.02.34.08.44.27.99,1.8,1.37,3.47,1.39,5.28.43-.19,1.05-.26,1.01.39-.21,4-.43,8.01-.65,12.01-.08,1.48-.14,2.89-.74,4.19-.13.74-.35,1.44-.72,2.08.83,1.2,1.52,2.48,2.09,3.81.38.69.75,1.38,1.02,2.11.03.09.05.18.08.27.31.45.57.94.84,1.41.2.04.35.18.36.51,0,.04,0,.07,0,.11.28.52.52,1.06.75,1.6.5.32,1.03.6,1.48.99.39.34.77.83.87,1.36.13.72-.16,1.4-.54,2-.38.61-.84,1.21-1.42,1.64-.63.47-1.43.8-2.15.34-.41-.27-.67-.78-.85-1.22-.18-.46-.28-.96-.34-1.45-.08-.7-.13-1.4-.16-2.1-.02-.02-.05-.04-.08-.07-.24-.26-.15-.63.02-.97-.01-.27-.02-.54-.04-.81-.01-.25.16-.57.31-.8,0-.04,0-.08,0-.11,0-.19-.04-.37-.06-.56-.11.01-.2-.02-.23-.14-.11-.43-.25-.85-.38-1.27-.17-.23-.34-.47-.52-.7-.12-.15-.06-.36.06-.58-.07-.19-.15-.38-.22-.57-.11-.2-.22-.41-.33-.62l-1.55-2.83c-.73.86-1.54,1.66-2.25,2.52-.95,1.13-1.86,2.31-2.76,3.49-.03.05-.06.11-.1.16-.54.84-1.12,1.66-1.72,2.47-.09.15-.18.31-.28.46-1.52,2.4-3.32,4.57-5.9,5.8-.02.02-.03.03-.05.05.09.02.16.08.16.24-.07,1.32-.11,2.64-.12,3.96,0,.12-.07.25-.14.36.43,1.29.5,2.67.79,3.99.08.34-.24.69-.48.88-.13.11-.65.4-.72.07-.26-1.14-.33-2.31-.62-3.45-.14-.54-.32-1.09-.61-1.57-.25-.41-.64-.88-1.13-1.04-.02,0-.04.02-.05.03h-.03c-.08.02-.15,0-.21-.05-.02-.02-.01-.05-.02-.07-1.23.84-2.61,1.39-3.97,2.08-1.17.59-2.28,1.28-3.39,1.98-.06.39-.05.81,0,1.22.16,1.23.5,2.46.02,3.67-.34.85-1.31,2.07-2.37,1.85-.64-.14-1.27-.74-1.77-1.13-.51-.4-1.18-.86-1.37-1.52-.12-.42-.04-.85.12-1.28.03-.65.32-1.28.6-1.85.05-.1.11-.21.16-.31.03-.07.07-.14.1-.2.04-.11.08-.22.11-.33.13-1.16-.06-2.33-.55-3.4-.09-.2.05-.47.26-.7-.82-1.92-1.43-3.93-1.71-6.01-.25-1.77-.22-3.55-.12-5.32-.04-.12-.09-.23-.11-.35-.27-1.1-.38-2.22-.49-3.34-.02-.19.05-.37.16-.53-.4-2.63-.39-5.29-.19-7.94.24-3.18.64-6.36,1-9.53-.72-2.69-3.03-4.82-5.8-5.22-1.43-.21-2.88.16-4.26-.37-1.22-.47-2.26-1.31-3.55-1.57-.18.1-.36.13-.48.02-1.97-1.68-3.98-3.43-5.24-5.74-.64-1.18-.85-2.4-1.14-3.69-.14-.65-.35-1.28-.84-1.75-.04-.04-.08-.07-.12-.11-.56-.47-1.29-.68-1.97-.88-.08-.02-.12-.08-.14-.14-1.56-.63-2.78-1.77-4.07-2.85-.77-.64-1.61-1.16-2.39-1.73-.17-.01-.32-.09-.42-.29-.01-.02-.03-.04-.04-.06-.19-.16-.37-.33-.56-.51-.99-.75-1.75-1.74-2.75-2.47-1-.73-2.09-1.34-2.91-2.29-.42-.48.19-1.32.54-1.67.07-.07.19-.18.33-.29-.19-.48.36-1.21.65-1.5.3-.3,1.19-1.06,1.65-.6.07.07.13.14.2.21,1.12-.12,1.92.95,2.33,1.96.36.89.8,1.71,1.28,2.51.23.34.46.68.67,1.03.4.59.82,1.17,1.27,1.75C-13.64-4.18-9.85-2.16-6.99.88c1.55,1.64,2.93,3.45,4.11,5.37.64,1.03,1.27,1.66,2.33,2.26,1.04.59,2.09,1.16,3.13,1.74.39,0,.79-.01,1.18.04.69.1,1.36.33,2.02.54.07.02.13.04.2.06.12,0,.24,0,.35.01,1.74.07,3.33.4,4.67,1.57,1.4,1.22,2.73,3.2,3.05,5.05.05.26.07.53.08.79.27,0,.49.13.46.52-.02.32-.08.64-.14.95.16.21.33.42.39.68.07.28.05.58.02.87-.06.65-.19,1.29-.38,1.91-.07.23-.25.43-.46.59-.38,1.86-.62,3.74-.83,5.63-.04.7-.08,1.39-.13,2.09,0,.15-.06.3-.12.44-.15,1.79-.27,3.58-.4,5.36.58,2.59.84,5.24,1.37,7.84.51,2.49,1.28,4.91,2.09,7.32.82-.14,1.6-.04,2.45-.06.93-.01,1.62-.47,2.4-.94,1.7-1.02,3.41-2.09,4.59-3.71-.32-1.34-.94-2.63-1.34-3.94-.29-.92-.38-1.82-.36-2.79.01-.59-.07-1.04-.44-1.51-.32-.4-.66-.77-.79-1.28-.11-.4.74-1.42,1.15-1.04.75.69,1.33,1.56,1.66,2.53.36,1.07.19,2.23.55,3.29.31.9.92,1.5,1.57,2.11.09-.02.19-.04.27-.03.49.09.94.05,1.36-.07.06-.04.11-.09.17-.11.06-.02.11-.02.16-.02.09-.04.18-.07.26-.11.58-.62,1.13-1.26,1.6-1.96,1.17-1.75,2.04-3.55,3.42-5.16.46-.54.95-1.06,1.33-1.66.13-.24.25-.49.39-.74,0-.01.01-.02.02-.04.33-.85.43-1.77.73-2.64.63-1.83,1.68-3.45,2.72-5.06.06-.09.21-.23.39-.38.12-.41.25-.83.32-1.26-.01-.31-.02-.63-.03-.94-.08-1.94-.14-3.88,0-5.81-.01-.86-.01-1.71.05-2.58-.13-.07-.27-.13-.39-.24-.57-.52-1.16-1.09-1.5-1.79-.37-.76-.51-1.56-.43-2.4.04-.4.1-.8.16-1.2.03-.15.05-.3.07-.46,0-.06.02-.12.02-.17,0,0,0,0,0,0,.05-.68.05-1.37-.03-2.05-.03-.22.06-.46.17-.69-.02-.16-.04-.33-.05-.49-.1-.19-.18-.4-.21-.63-.21-1.88.29-3.76,1.17-5.42.47-.87,1.05-1.69,1.68-2.45.44-.53,1.41-1.21,1.5-1.91.05-.4-.08-.82-.05-1.23.04-.55.21-1.03.51-1.48.61-.92,1.67-1.38,2.34-2.25.69-.88,1.15-1.94,1.61-2.94-.16-.03-.31-.08-.45-.18-.78-.57-1.57-1.14-2.35-1.71-.35-.25-.7-.51-1.04-.76-.22-.16-.44-.32-.65-.48-.07-.05-.24-.13-.31-.2-.86.27-1.68.29-2.59-.23-1.13-.64-1.67-1.74-2.15-2.88-.47-1.1-1.1-1.58-2.15-2.13-.99-.51-1.98-1.04-2.76-1.84-.1,0-.2.02-.3,0-1.67-.18-3.28-.43-4.84-1.07-1.52-.63-2.9-1.67-3.95-2.93-.43-.52-.67-1.25-.29-1.89.39-.64,1.03-.88,1.75-.78.73.1,1.46.35,2.12.7.73.39,1.35.96,2,1.47.04.03.08.06.12.09.02,0,.04.03.11.07.15.09.29.18.44.26.15.08.31.15.46.22.03.01.02,0,.04.02.07.02.13.05.2.07.68.22,1.38.37,2.08.51.16.03.29.11.43.2.03,0,.05,0,.08.01.1.01.18.07.27.11,0,0,0,0,0,0-.01-.06-.02-.13-.03-.19-.06-.2-.08-.4-.04-.6,0-.21.06-.4.17-.58.03-.05.08-.08.11-.13-.31-.65-.66-1.28-1.16-1.8-.59-.6-1.31-.96-1.61-1.81-.25-.73-.26-1.56-.35-2.32l-.34-2.98c-.18-1.55-.54-3.22-.38-4.78.17-1.59,1.08-2.97,1.83-4.34.41-.75.82-1.5,1.23-2.24.3-.54.72-1.24,1.43-1.23,1.28,0,1.66,1.57,1.37,2.56Z"/></g><g class="cls-5"><path class="cls-4" d="M35.68,45.04c-.2.67-.62,1.25-1.07,1.77-.23.26-.62.53-.59.92.03.38.4.75.59,1.06.71,1.16.94,2.49.98,3.83.06,1.68-.17,3.36-.18,5.04-.02,1.98.17,3.95.52,5.9,0,.02,0,.06-.01.09.03.02.06.05.1.07.2.2.35.43.42.71.05.34.11.67.16,1.01.06.2.08.4.04.6,0,.08-.05.15-.07.23.37.48.84.87,1.3,1.27.46.4.88.82,1.2,1.33,1.01.55,1.9,1.3,2.58,2.24.21.29.4.59.68.82.29.24.6.21.96.24.6.04.81.43,1.05.84.76.5,1.5,1.05,2.23,1.61.12-.08.24-.16.4-.21.9-.26,1.69-.09,2.32.34,1.32-.39,2.69-.54,4.07-.45.17-.05.34-.11.53-.12.96-.06,1.93.36,2.8.7,1.02.4,2.02.88,3.01,1.35.1.05.14.14.15.24.08-.01.16,0,.23.04,1.58.89,2.8,2.2,4.03,3.5.6.63,1.2,1.32,1.89,1.85.73.55,1.52.64,2.41.74.91.1,1.83.2,2.74.3.98.11,1.81.25,2.71-.21.82-.42,2.39-.84,2.63.36.95.88,1.86,1.79,2.73,2.75.33.36-.42,1.07-.74,1.16-1.28.36-2.44.02-3.71-.25-.4-.09-.53-.19-.65.2-.11.33.02.82.09,1.15.19.81.59,1.58,1.06,2.26.46.67,1.01,1.29,1.82,1.54.9.28,1.95.27,2.89.37,1.09.12,3.63-.12,3.76,1.43,0,.08-.03.15-.03.23.48-.23.77.21.23.77-.21.22-.41.31-.57.3-.35.59-.9,1.09-1.47,1.36-1.24.61-2.75.36-3.99-.11-2.6-.99-4.69-3.35-5.21-6.11-.16-.86-.13-1.76-.37-2.61-.29-1.06-1.06-1.76-2.03-2.22-1.6-.76-3.41-.89-4.89-1.93-.03-.02-.04-.06-.05-.09-.12-.07-.25-.13-.37-.22-.2.13-.41.2-.57.11-1.53-.89-3.1-1.8-4.33-3.09-.61-.63-1.06-1.39-1.69-2-.49-.47-1.06-.83-1.65-1.14-.42-.1-.86-.14-1.33-.14-1.57-.01-3.21.14-4.66.8,0,.29-.01.58-.07.87-.26,1.23-.93,2.48-1.53,3.58-.73,1.34-1.63,2.42-2.83,3.36-.54.42-.47.24-.42.89.04.59.03,1.14-.17,1.7-.39,1.11-1.34,1.87-2.07,2.75-1.37,1.63-2.31,3.58-2.07,5.74.04.33-.09.62-.27.87.12.17.21.35.27.54.18.02.34.08.44.27.99,1.8,1.37,3.47,1.39,5.28.43-.19,1.05-.26,1.01.39-.21,4-.43,8.01-.65,12.01-.08,1.48-.14,2.89-.74,4.19-.13.74-.35,1.44-.72,2.08.83,1.2,1.52,2.48,2.09,3.81.38.69.75,1.38,1.02,2.11.03.09.05.18.08.27.31.45.57.94.84,1.41.2.04.35.18.36.51,0,.04,0,.07,0,.11.28.52.52,1.06.75,1.6.5.32,1.03.6,1.48.99.39.34.77.83.87,1.36.13.72-.16,1.4-.54,2-.38.61-.84,1.21-1.42,1.64-.63.47-1.43.8-2.15.34-.41-.27-.67-.78-.85-1.22-.18-.46-.28-.96-.34-1.45-.08-.7-.13-1.4-.16-2.1-.02-.02-.05-.04-.08-.07-.24-.26-.15-.63.02-.97-.01-.27-.02-.54-.04-.81-.01-.25.16-.57.31-.8,0-.04,0-.08,0-.11,0-.19-.04-.37-.06-.56-.11.01-.2-.02-.23-.14-.11-.43-.25-.85-.38-1.27-.17-.23-.34-.47-.52-.7-.12-.15-.06-.36.06-.58-.07-.19-.15-.38-.22-.57-.11-.2-.22-.41-.33-.62l-1.55-2.83c-.73.86-1.54,1.66-2.25,2.52-.95,1.13-1.86,2.31-2.76,3.49-.03.05-.06.11-.1.16-.54.84-1.12,1.66-1.72,2.47-.09.15-.18.31-.28.46-1.52,2.4-3.32,4.57-5.9,5.8-.02.02-.03.03-.05.05.09.02.16.08.16.24-.07,1.32-.11,2.64-.12,3.96,0,.12-.07.25-.14.36.43,1.29.5,2.67.79,3.99.08.34-.24.69-.48.88-.13.11-.65.4-.72.07-.26-1.14-.33-2.31-.62-3.45-.14-.54-.32-1.09-.61-1.57-.25-.41-.64-.88-1.13-1.04-.02,0-.04.02-.05.03h-.03c-.08.02-.15,0-.21-.05-.02-.02-.01-.05-.02-.07-1.23.84-2.61,1.39-3.97,2.08-1.17.59-2.28,1.28-3.39,1.98-.06.39-.05.81,0,1.22.16,1.23.5,2.46.02,3.67-.34.85-1.31,2.07-2.37,1.85-.64-.14-1.27-.74-1.77-1.13-.51-.4-1.18-.86-1.37-1.52-.12-.42-.04-.85.12-1.28.03-.65.32-1.28.6-1.85.05-.1.11-.21.16-.31.03-.07.07-.14.1-.2.04-.11.08-.22.11-.33.13-1.16-.06-2.33-.55-3.4-.09-.2.05-.47.26-.7-.82-1.92-1.43-3.93-1.71-6.01-.25-1.77-.22-3.55-.12-5.32-.04-.12-.09-.23-.11-.35-.27-1.1-.38-2.22-.49-3.34-.02-.19.05-.37.16-.53-.4-2.63-.39-5.29-.19-7.94.24-3.18.64-6.36,1-9.53-.72-2.69-3.03-4.82-5.8-5.22-1.43-.21-2.88.16-4.26-.37-1.22-.47-2.26-1.31-3.55-1.57-.18.1-.36.13-.48.02-1.97-1.68-3.98-3.43-5.24-5.74-.64-1.18-.85-2.4-1.14-3.69-.14-.65-.35-1.28-.84-1.75-.04-.04-.08-.07-.12-.11-.56-.47-1.29-.68-1.97-.88-.08-.02-.12-.08-.14-.14-1.56-.63-2.78-1.77-4.07-2.85-.77-.64-1.61-1.16-2.39-1.73-.17-.01-.32-.09-.42-.29-.01-.02-.03-.04-.04-.06-.19-.16-.37-.33-.56-.51-.99-.75-1.75-1.74-2.75-2.47-1-.73-2.09-1.34-2.91-2.29-.42-.48.19-1.32.54-1.67.07-.07.19-.18.33-.29-.19-.48.36-1.21.65-1.5.3-.3,1.19-1.06,1.65-.6.07.07.13.14.2.21,1.12-.12,1.92.95,2.33,1.96.36.89.8,1.71,1.28,2.51.23.34.46.68.67,1.03.4.59.82,1.17,1.27,1.75,2.57,3.3,6.36,5.33,9.22,8.36,1.55,1.64,2.93,3.45,4.11,5.37.64,1.03,1.27,1.66,2.33,2.26,1.04.59,2.09,1.16,3.13,1.74.39,0,.79-.01,1.18.04.69.1,1.36.33,2.02.54.07.02.13.04.2.06.12,0,.24,0,.35.01,1.74.07,3.33.4,4.67,1.57,1.4,1.22,2.73,3.2,3.05,5.05.05.26.07.53.08.79.27,0,.49.13.46.52-.02.32-.08.64-.14.95.16.21.33.42.39.68.07.28.05.58.02.87-.06.65-.19,1.29-.38,1.91-.07.23-.25.43-.46.59-.38,1.86-.62,3.74-.83,5.63-.04.7-.08,1.39-.13,2.09,0,.15-.06.3-.12.44-.15,1.79-.27,3.58-.4,5.36.58,2.59.84,5.24,1.37,7.84.51,2.49,1.28,4.91,2.09,7.32.82-.14,1.6-.04,2.45-.06.93-.01,1.62-.47,2.4-.94,1.7-1.02,3.41-2.09,4.59-3.71-.32-1.34-.94-2.63-1.34-3.94-.29-.92-.38-1.82-.36-2.79.01-.59-.07-1.04-.44-1.51-.32-.4-.66-.77-.79-1.28-.11-.4.74-1.42,1.15-1.04.75.69,1.33,1.56,1.66,2.53.36,1.07.19,2.23.55,3.29.31.9.92,1.5,1.57,2.11.09-.02.19-.04.27-.03.49.09.94.05,1.36-.07.06-.04.11-.09.17-.11.06-.02.11-.02.16-.02.09-.04.18-.07.26-.11.58-.62,1.13-1.26,1.6-1.96,1.17-1.75,2.04-3.55,3.42-5.16.46-.54.95-1.06,1.33-1.66.13-.24.25-.49.39-.74,0-.01.01-.02.02-.04.33-.85.43-1.77.73-2.64.63-1.83,1.68-3.45,2.72-5.06.06-.09.21-.23.39-.38.12-.41.25-.83.32-1.26-.01-.31-.02-.63-.03-.94-.08-1.94-.14-3.88,0-5.81-.01-.86-.01-1.71.05-2.58-.13-.07-.27-.13-.39-.24-.57-.52-1.16-1.09-1.5-1.79-.37-.76-.51-1.56-.43-2.4.04-.4.1-.8.16-1.2.03-.15.05-.3.07-.46,0-.06.02-.12.02-.17,0,0,0,0,0,0,.05-.68.05-1.37-.03-2.05-.03-.22.06-.46.17-.69-.02-.16-.04-.33-.05-.49-.1-.19-.18-.4-.21-.63-.21-1.88.29-3.76,1.17-5.42.47-.87,1.05-1.69,1.68-2.45.44-.53,1.41-1.21,1.5-1.91.05-.4-.08-.82-.05-1.23.04-.55.21-1.03.51-1.48.61-.92,1.67-1.38,2.34-2.25.69-.88,1.15-1.94,1.61-2.94-.16-.03-.31-.08-.45-.18-.78-.57-1.57-1.14-2.35-1.71-.35-.25-.7-.51-1.04-.76-.22-.16-.44-.32-.65-.48-.07-.05-.24-.13-.31-.2-.86.27-1.68.29-2.59-.23-1.13-.64-1.67-1.74-2.15-2.88-.47-1.1-1.1-1.58-2.15-2.13-.99-.51-1.98-1.04-2.76-1.84-.1,0-.2.02-.3,0-1.67-.18-3.28-.43-4.84-1.07-1.52-.63-2.9-1.67-3.95-2.93-.43-.52-.67-1.25-.29-1.89.39-.64,1.03-.88,1.75-.78.73.1,1.46.35,2.12.7.73.39,1.35.96,2,1.47.04.03.08.06.12.09.02,0,.04.03.11.07.15.09.29.18.44.26.15.08.31.15.46.22.03.01.02,0,.04.02.07.02.13.05.2.07.68.22,1.38.37,2.08.51.16.03.29.11.43.2.03,0,.05,0,.08.01.1.01.18.07.27.11,0,0,0,0,0,0-.01-.06-.02-.13-.03-.19-.06-.2-.08-.4-.04-.6,0-.21.06-.4.17-.58.03-.05.08-.08.11-.13-.31-.65-.66-1.28-1.16-1.8-.59-.6-1.31-.96-1.61-1.81-.25-.73-.26-1.56-.35-2.32l-.34-2.98c-.18-1.55-.54-3.22-.38-4.78.17-1.59,1.08-2.97,1.83-4.34.41-.75.82-1.5,1.23-2.24.3-.54.72-1.24,1.43-1.23,1.28,0,1.66,1.57,1.37,2.56Z"/></g></svg>