<?xml version="1.0" encoding="UTF-8"?><svg id="Layer_1" xmlns="http://www.w3.org/2000/svg" xmlns:xlink="http://www.w3.org/1999/xlink" viewBox="0 0 57 57"><defs><style>.cls-1{clip-path:url(#clippath);}.cls-2{fill:none;}.cls-2,.cls-3{stroke-width:0px;}.cls-3{fill:#231f20;}</style><clipPath id="clippath"><path class="cls-2" d="M42.49,47.85H14.51c-2.96,0-5.35-2.4-5.35-5.35V14.51c0-2.96,2.4-5.35,5.35-5.35h27.99c2.96,0,5.35,2.4,5.35,5.35v27.99c0,2.96-2.4,5.35-5.35,5.35Z"/></clipPath></defs><g class="cls-1"><path class="cls-3" d="M35.69,24.16c-2.93,0-5.31-2.38-5.31-5.31,0-1.19-.97-2.16-2.16-2.16h-.5c-1.19,0-2.16.97-2.16,2.16,0,2.93-2.38,5.31-5.31,5.31-1.19,0-2.16.97-2.16,2.16v.5c0,1.19.97,2.16,2.16,2.16,2.93,0,5.31,2.38,5.31,5.31,0,1.19.97,2.16,2.16,2.16h.5c1.19,0,2.16-.97,2.16-2.16,0-2.93,2.38-5.31,5.31-5.31,1.19,0,2.16-.97,2.16-2.16v-.5c0-1.19-.97-2.16-2.16-2.16ZM34.99,26.79c-3.74,0-6.78,3.04-6.78,6.78h-.45c0-3.74-3.04-6.78-6.78-6.78v-.45c3.74,0,6.78-3.04,6.78-6.78h.45c0,3.74,3.04,6.78,6.78,6.78v.45Z"/><path class="cls-3" d="M41.96,17.96c-1.32,0-2.39-1.07-2.39-2.39,0-.54-.43-.97-.97-.97h-.22c-.54,0-.97.43-.97.97,0,1.32-1.07,2.39-2.39,2.39-.54,0-.97.43-.97.97v.22c0,.54.43.97.97.97,1.32,0,2.39,1.07,2.39,2.39,0,.54.43.97.97.97h.22c.54,0,.97-.43.97-.97,0-1.32,1.07-2.39,2.39-2.39.54,0,.97-.43.97-.97v-.22c0-.54-.43-.97-.97-.97ZM40.03,19.09c-.83,0-1.5.67-1.5,1.5h-.1c0-.83-.67-1.5-1.5-1.5v-.1c.83,0,1.5-.67,1.5-1.5h.1c0,.83.67,1.5,1.5,1.5v.1Z"/><polygon class="cls-3" points="50.3 55.93 47.67 57.61 34.48 37.73 37.12 36.05 50.3 55.93"/><polygon class="cls-3" points="54.82 55.12 53.22 56.13 36.98 31.83 38.58 30.81 54.82 55.12"/><polygon class="cls-3" points="13.64 1.32 11.38 1.32 19.73 14.1 21.33 13.08 13.64 1.32"/><polygon class="cls-3" points="18.61 -.08 14.87 -.08 24.27 14.1 26.9 12.42 18.61 -.08"/></g></svg>