<?xml version="1.0" encoding="UTF-8"?><svg id="Layer_1" xmlns="http://www.w3.org/2000/svg" xmlns:xlink="http://www.w3.org/1999/xlink" viewBox="0 0 57 57"><defs><style>.cls-1{clip-path:url(#clippath);}.cls-2{fill:none;}.cls-2,.cls-3{stroke-width:0px;}.cls-3{fill:#231f20;}</style><clipPath id="clippath"><path class="cls-2" d="M42.49,47.85H14.51c-2.96,0-5.35-2.4-5.35-5.35V14.51c0-2.96,2.4-5.35,5.35-5.35h27.99c2.96,0,5.35,2.4,5.35,5.35v27.99c0,2.96-2.4,5.35-5.35,5.35Z"/></clipPath></defs><g class="cls-1"><path class="cls-3" d="M36.29,21.99c-1.13,0-2.05-.92-2.05-2.05,0-.46-.37-.83-.83-.83h-.19c-.46,0-.83.37-.83.83,0,1.13-.92,2.05-2.05,2.05-.46,0-.83.37-.83.83v.19c0,.46.37.83.83.83,1.13,0,2.05.92,2.05,2.05,0,.46.37.83.83.83h.19c.46,0,.83-.37.83-.83,0-1.13.92-2.05,2.05-2.05.46,0,.83-.37.83-.83v-.19c0-.46-.37-.83-.83-.83ZM34.63,22.96c-.71,0-1.29.58-1.29,1.29h-.09c0-.71-.58-1.29-1.29-1.29v-.09c.71,0,1.29-.58,1.29-1.29h.09c0,.71.58,1.29,1.29,1.29v.09Z"/><rect class="cls-3" x="8.19" y="15.17" width="40.41" height="2.29"/><rect class="cls-3" x="8.19" y="39.55" width="40.41" height="2.29"/><rect class="cls-3" x="20.38" y="27.36" width="40.41" height="2.29" transform="translate(69.09 -12.08) rotate(90)"/><rect class="cls-3" x="-4" y="27.36" width="40.41" height="2.29" transform="translate(44.71 12.3) rotate(90)"/></g></svg>