<?xml version="1.0" encoding="UTF-8"?><svg id="Layer_1" xmlns="http://www.w3.org/2000/svg" xmlns:xlink="http://www.w3.org/1999/xlink" viewBox="0 0 57 57"><defs><style>.cls-1{clip-path:url(#clippath);}.cls-2{fill:none;}.cls-2,.cls-3{stroke-width:0px;}.cls-3{fill:#231f20;}</style><clipPath id="clippath"><path class="cls-2" d="M42.49,47.85H14.51c-2.96,0-5.35-2.4-5.35-5.35V14.51c0-2.96,2.4-5.35,5.35-5.35h27.99c2.96,0,5.35,2.4,5.35,5.35v27.99c0,2.96-2.4,5.35-5.35,5.35Z"/></clipPath></defs><g class="cls-1"><path class="cls-3" d="M23.36,27.1c-.17.08-.5.17-.92.17-.98,0-1.72-.62-1.72-1.76s.74-1.83,1.82-1.83c.43,0,.71.09.83.15l-.11.37c-.17-.08-.41-.14-.7-.14-.82,0-1.36.52-1.36,1.44,0,.85.49,1.4,1.34,1.4.27,0,.55-.06.73-.14l.09.36Z"/><path class="cls-3" d="M26.11,25.95c0,.93-.64,1.33-1.25,1.33-.68,0-1.2-.5-1.2-1.29,0-.84.55-1.33,1.24-1.33s1.2.52,1.2,1.29ZM24.13,25.97c0,.55.32.96.76.96s.76-.41.76-.97c0-.42-.21-.96-.75-.96s-.77.5-.77.97Z"/><path class="cls-3" d="M26.69,25.53c0-.32-.01-.58-.02-.82h.41l.02.43h.01c.19-.3.48-.49.89-.49.6,0,1.06.51,1.06,1.27,0,.9-.55,1.34-1.14,1.34-.33,0-.62-.14-.77-.39h-.01v1.36h-.45v-2.71ZM27.14,26.2c0,.07.01.13.02.19.08.32.36.53.68.53.48,0,.76-.39.76-.97,0-.5-.26-.93-.74-.93-.31,0-.6.22-.69.56-.02.06-.03.12-.03.19v.43Z"/><path class="cls-3" d="M29.63,25.53c0-.32-.01-.58-.02-.82h.41l.02.43h.01c.19-.3.48-.49.89-.49.6,0,1.06.51,1.06,1.27,0,.9-.55,1.34-1.14,1.34-.33,0-.62-.14-.77-.39h-.01v1.36h-.45v-2.71ZM30.08,26.2c0,.07.01.13.02.19.08.32.36.53.68.53.48,0,.76-.39.76-.97,0-.5-.26-.93-.74-.93-.31,0-.6.22-.69.56-.02.06-.03.12-.03.19v.43Z"/><path class="cls-3" d="M32.82,26.05c.01.62.4.87.86.87.33,0,.52-.06.69-.13l.08.33c-.16.07-.43.15-.83.15-.77,0-1.23-.51-1.23-1.26s.44-1.35,1.17-1.35c.82,0,1.03.72,1.03,1.18,0,.09-.01.17-.02.21h-1.76ZM34.15,25.72c0-.29-.12-.74-.63-.74-.46,0-.66.42-.7.74h1.33Z"/><path class="cls-3" d="M35.15,25.5c0-.29,0-.55-.02-.78h.4l.02.49h.02c.11-.34.39-.55.69-.55.05,0,.09,0,.13.02v.43s-.09-.02-.15-.02c-.32,0-.55.24-.61.58-.01.06-.02.13-.02.21v1.33h-.45v-1.72Z"/><path class="cls-3" d="M20.33,14.72c.16-.74.42-1.4.79-1.96.37-.56.86-1,1.48-1.33s1.38-.49,2.29-.49c.69,0,1.32.06,1.89.17.57.11,1.06.25,1.45.43v2.25c-.37-.15-.7-.27-1.01-.37-.3-.1-.59-.18-.86-.24s-.52-.1-.76-.12c-.24-.02-.48-.03-.72-.03-.47,0-.87.1-1.2.31s-.59.5-.79.86c-.2.37-.34.8-.43,1.29s-.13,1.02-.13,1.59.04,1.09.13,1.59.23.92.43,1.29c.2.37.46.66.79.86.33.21.73.31,1.2.31.24,0,.48-.01.72-.03.24-.02.5-.06.76-.12s.55-.14.86-.24c.3-.1.64-.22,1.01-.37v2.25c-.4.18-.88.32-1.45.43-.57.11-1.2.17-1.89.17-.91,0-1.67-.16-2.29-.49-.61-.32-1.11-.77-1.48-1.33-.37-.56-.64-1.21-.79-1.96s-.24-1.53-.24-2.37.08-1.63.24-2.37Z"/><path class="cls-3" d="M32.13,20.31c0,.28.08.51.25.69.17.18.43.27.8.27.17,0,.34-.01.5-.04s.33-.06.48-.09c.15-.04.28-.08.39-.12.11-.04.2-.07.26-.09v-5.8h2.09v7.86h-1.46l-.13-.25c-.13.05-.28.11-.45.17s-.36.12-.55.17c-.19.05-.39.09-.58.12-.19.03-.38.05-.56.05-.59,0-1.08-.07-1.49-.2-.4-.13-.73-.32-.97-.57-.25-.25-.42-.55-.53-.91s-.16-.78-.16-1.25v-5.19h2.09v5.19Z"/><path class="cls-3" d="M24.75,45.76l1.8-2.64h0s-1.65-.01-1.65-.01v-.35h2.19v.26l-1.79,2.63h0s1.82.01,1.82.01v.35h-2.37v-.25Z"/><path class="cls-3" d="M28.1,43.02c0,.14-.1.26-.27.26-.15,0-.26-.12-.26-.26s.11-.27.26-.27.26.12.26.27ZM27.63,46.01v-2.33h.42v2.33h-.42Z"/><path class="cls-3" d="M28.75,44.3c0-.24,0-.44-.02-.63h.38l.02.39h0c.12-.22.39-.44.77-.44.32,0,.82.19.82.99v1.39h-.42v-1.35c0-.38-.14-.69-.54-.69-.28,0-.5.2-.57.43-.02.05-.03.13-.03.2v1.4h-.42v-1.7Z"/><path class="cls-3" d="M33.09,45.92c-.11.06-.36.13-.67.13-.7,0-1.16-.48-1.16-1.19s.49-1.24,1.25-1.24c.25,0,.47.06.59.12l-.1.33c-.1-.06-.26-.11-.49-.11-.54,0-.82.4-.82.88,0,.54.35.87.81.87.24,0,.4-.06.52-.12l.07.32Z"/><path class="cls-3" d="M20.61,41.37v-1.29l5.09-7.64h-4.83v-1.92h7.56v1.29l-5.09,7.64h5.28v1.92h-8.01Z"/><path class="cls-3" d="M34.46,36.6c0-.26-.08-.47-.23-.64-.15-.16-.4-.25-.74-.25-.15,0-.31.01-.46.04-.15.02-.3.05-.44.09-.14.03-.26.07-.36.11-.1.04-.18.07-.24.09v5.34h-1.92v-7.23h1.34l.12.23c.12-.05.25-.1.41-.16.16-.06.33-.11.51-.15s.36-.08.54-.11c.18-.03.35-.04.51-.04.54,0,1,.06,1.37.18.37.12.67.29.9.52.23.23.39.51.48.84.1.33.14.72.14,1.15v4.77h-1.92v-4.77Z"/><path class="cls-3" d="M38.39,41.37c0,1.1-.9,2-2,2h-1.33c.06.3.05.62-.04.93l-.08.26,5.59,7.07,4.32-3.45-6.47-8.18v1.38Z"/><path class="cls-3" d="M19.72,22.88c-.09-.12-.19-.23-.27-.36-.51-.77-.88-1.66-1.08-2.65-.18-.87-.28-1.81-.28-2.79,0-.86.09-1.69.23-2.48l-7.31-9.25-4.32,3.45,12.23,15.47c.17-.53.44-1.02.8-1.41Z"/><path class="cls-3" d="M21.66,9.72c.37-.2.77-.34,1.2-.46l-2.37-3-1.66,1.33,2.07,2.61c.24-.18.49-.34.76-.49Z"/><path class="cls-3" d="M37.53,27.8c-.2.74-.81,1.3-1.57,1.44l13.28,16.79,1.66-1.33-13.37-16.9Z"/></g></svg>