<?xml version="1.0" encoding="UTF-8"?><svg id="a" xmlns="http://www.w3.org/2000/svg" viewBox="0 0 57 57"><path d="M45.99,42.13l-.16.05c-.36-1.46-1.74-2.31-3.08-1.91l-.04-.18c1.34-.41,2.14-1.92,1.78-3.37l.16-.05c.36,1.46,1.74,2.31,3.08,1.91l.04.18c-1.34.41-2.14,1.92-1.78,3.37Z" fill="#f1f2f2" stroke-width="0"/><path d="M47.55,32.22H9.45c-3.75,0-6.8,3.18-6.8,7.1v9.11h51.7v-9.11c0-3.91-3.05-7.1-6.8-7.1ZM6.65,44.43v-5.11c0-1.71,1.25-3.1,2.8-3.1h18.97l6.6,8.21H6.65ZM37.68,44.43l-6.6-8.21h2.55l6.69,8.21h-2.64ZM50.35,44.43h-5.63l-6.69-8.21h9.52c1.55,0,2.8,1.39,2.8,3.1v5.11Z" fill="#f1f2f2" stroke-width="0"/></svg>