<?xml version="1.0" encoding="UTF-8"?><svg id="a" xmlns="http://www.w3.org/2000/svg" viewBox="0 0 57 57"><path d="M51.67,37.15v-1.84c0-.67-.14-1.31-.4-1.89.21-.52.32-1.09.32-1.69v-2.42c0-3.82-3.03-6.93-6.76-6.93H12.17c-3.73,0-6.76,3.11-6.76,6.93v2.42c0,.6.12,1.17.32,1.69-.26.58-.4,1.22-.4,1.89v1.92c-1.11.94-1.81,2.35-1.81,3.92v3.14c0,2.28,1.85,4.14,4.13,4.14h41.69c2.28,0,4.13-1.86,4.13-4.14v-3.29c0-1.55-.71-2.93-1.81-3.84ZM49.48,44.28c0,.08-.06.14-.13.14H7.66c-.07,0-.13-.06-.13-.14v-3.14c0-.62.47-1.12,1.06-1.12h2.15v-3.04h-1.39v-1.68c0-.33.23-.6.52-.6h.88v-2.46h-.82c-.27,0-.5-.23-.5-.52v-2.42c0-1.62,1.24-2.92,2.76-2.92h32.66c1.53,0,2.76,1.31,2.76,2.92v2.42c0,.29-.22.52-.5.52h-.82v2.46h.88c.29,0,.52.27.52.6v1.68h-1.39v3.04h2.29c.5,0,.91.43.91.96v3.29Z" fill="#f1f2f2" stroke-width="0"/></svg>