<?xml version="1.0" encoding="UTF-8"?><svg id="a" xmlns="http://www.w3.org/2000/svg" viewBox="0 0 57 57"><path d="M51.37,33.34c-.67-1.57-2.22-2.67-4.02-2.67h-17.2c-.58,0-1.14.11-1.64.32-.51-.21-1.06-.32-1.65-.32H9.65c-1.8,0-3.35,1.1-4.02,2.67-1.9,1.27-3.16,3.48-3.16,5.98v9.11h52.06v-9.11c0-2.5-1.26-4.71-3.16-5.98ZM50.53,44.43H6.47v-5.11c0-1.7,1.25-3.08,2.8-3.1v-1.14c0-.23.17-.42.38-.42h17.2c.21,0,.38.19.38.42v1.14h2.53v-1.14c0-.23.17-.42.38-.42h17.2c.21,0,.38.19.38.42v1.14c1.55.01,2.8,1.39,2.8,3.1v5.11Z" fill="#f1f2f2" stroke-width="0"/></svg>