<?xml version="1.0" encoding="utf-8"?>
<!-- Generator: Adobe Illustrator 28.3.0, SVG Export Plug-In . SVG Version: 6.00 Build 0)  -->
<svg version="1.1" id="Layer_1" xmlns="http://www.w3.org/2000/svg" xmlns:xlink="http://www.w3.org/1999/xlink" x="0px" y="0px"
	 viewBox="0 0 57 57" style="enable-background:new 0 0 57 57;" xml:space="preserve">
<style type="text/css">
	.st0{fill:#00AEEF;}
	.st1{fill:#6D6E71;}
	.st2{fill:#1F2A44;}
	.st3{fill:#1C75BC;}
	.st4{fill:#414042;}
	.st5{fill:#FFFFFF;}
	.st6{fill:url(#SVGID_1_);}
	.st7{fill:url(#SVGID_00000160904448809328354670000002628703547667118992_);}
	.st8{fill:url(#SVGID_00000078736567869572470740000012570329870152866458_);}
	.st9{fill:url(#SVGID_00000147177646228731972550000014651746222268315016_);}
	.st10{fill:url(#SVGID_00000080900556447839167840000008446944139353137837_);}
	.st11{fill:url(#SVGID_00000037668045986946196440000013758655025494185606_);}
	.st12{fill:url(#SVGID_00000182493135101384750560000016778794191891235005_);}
	.st13{fill:url(#SVGID_00000083075277745395643930000004028973970603178149_);}
	.st14{fill:url(#SVGID_00000181089374381315538730000007144248981873648316_);}
	.st15{fill:url(#SVGID_00000009560047092589566140000006680692771625843903_);}
	.st16{fill:none;stroke:#C9A14A;stroke-width:0.75;stroke-miterlimit:10;}
	.st17{fill:#C9A14A;}
	.st18{fill:none;stroke:#000000;stroke-width:0.5;stroke-miterlimit:10;}
	.st19{fill:none;stroke:#A7A9AC;stroke-width:0.75;stroke-miterlimit:10;}
	.st20{fill:#808285;}
	.st21{fill:url(#SVGID_00000022539894265615241000000007724591547093779841_);}
	.st22{fill:url(#SVGID_00000145777286249756558180000010738858480377022857_);}
	.st23{fill:#F1F2F2;}
	.st24{fill:url(#SVGID_00000114054024926519679800000000890735193357733307_);}
	.st25{fill:url(#SVGID_00000124842472550352325210000002869830896334014885_);}
	.st26{fill:url(#SVGID_00000072972005615581739160000003445829409272050313_);}
	.st27{fill:url(#SVGID_00000124136855121286954830000014585143253454205111_);}
	.st28{fill:url(#SVGID_00000090976503727966318250000007518585224481975210_);}
	.st29{fill:url(#SVGID_00000129891400267641494340000013397348265674156479_);}
	.st30{fill:url(#SVGID_00000062892691530701607410000010101110076381110432_);}
	.st31{fill:url(#SVGID_00000133527141538355201100000018080682582377093539_);}
	.st32{fill:url(#SVGID_00000098194417492747284010000017009585072234744497_);}
	.st33{fill:url(#SVGID_00000102513379642353233280000010582803460931980929_);}
	.st34{fill:url(#SVGID_00000023980941000095650970000004263439807272678308_);}
	.st35{fill:url(#SVGID_00000090292859469221298010000009456304163283688321_);}
	.st36{fill:url(#SVGID_00000047060881489039636940000010629325261662727091_);}
	.st37{fill:url(#SVGID_00000062903983350240765410000015480954890223366545_);}
	.st38{fill:url(#SVGID_00000103983216324973404740000005747259649481165497_);}
	.st39{fill:url(#SVGID_00000075865930999577486050000010198725241270271382_);}
	.st40{fill:url(#SVGID_00000163764598966944371050000013231656522912819132_);}
	.st41{fill:url(#SVGID_00000105405666472929653170000007991082041868387483_);}
	.st42{fill:url(#SVGID_00000112590902696540907440000014605503212630087328_);}
	.st43{fill:url(#SVGID_00000133491565506132431870000014890126317015075000_);}
	.st44{fill:url(#SVGID_00000016788991160643215360000009704500323886989448_);}
	.st45{fill:url(#SVGID_00000119083656519788667840000007935423524622084783_);}
	.st46{fill:url(#SVGID_00000078023811617657712380000012320748980079320203_);}
	.st47{fill:url(#SVGID_00000067194754346262018160000001327043731264728479_);}
	.st48{fill:url(#SVGID_00000021105080934046836900000017543510120677150909_);}
	.st49{fill:url(#SVGID_00000097458382690241904180000009490069361722087847_);}
	.st50{fill:url(#SVGID_00000097462191099296710880000015375876444312901807_);}
	.st51{fill:url(#SVGID_00000141425807151975642440000011898958040836814250_);}
	.st52{fill:url(#SVGID_00000073700690227711934690000009736498703412458661_);}
	.st53{fill:url(#SVGID_00000135684241473318033560000003555599409095127446_);}
	.st54{fill:url(#SVGID_00000004530724766825930520000002322974277816826282_);}
	.st55{fill:url(#SVGID_00000008838366115129392180000018246480991754118024_);}
	.st56{clip-path:url(#XMLID_00000088103560452199963190000016782428291208871557_);fill:#414042;}
	.st57{fill:#808285;stroke:#E6E7E8;stroke-width:1.5;stroke-miterlimit:10;}
	.st58{fill:#414042;stroke:#E6E7E8;stroke-width:1.5;stroke-miterlimit:10;}
	.st59{fill:#A7A9AC;stroke:#E6E7E8;stroke-width:1.5;stroke-miterlimit:10;}
	.st60{fill:#6D6E71;stroke:#E6E7E8;stroke-miterlimit:10;}
	.st61{fill:#6D6E71;stroke:#E6E7E8;stroke-width:1.5;stroke-miterlimit:10;}
	.st62{fill:#808285;stroke:#E6E7E8;stroke-miterlimit:10;}
	.st63{fill:#E6E7E8;}
	.st64{fill:#6D6E71;stroke:#E6E7E8;stroke-width:2;stroke-miterlimit:10;}
	.st65{clip-path:url(#XMLID_00000006691143137016867560000014621482467879896717_);fill:#414042;}
	.st66{clip-path:url(#XMLID_00000009582843504527250350000001755181621007906977_);fill:#414042;}
	.st67{clip-path:url(#XMLID_00000142897736919836238830000010225653371135406518_);fill:#414042;}
	.st68{fill:#A7A9AC;}
	.st69{fill:#F7F8F8;}
	.st70{fill:#6F6D70;}
	.st71{clip-path:url(#XMLID_00000173849404208803210320000003528790658732358069_);fill:#414042;}
	.st72{clip-path:url(#XMLID_00000157300176853431445950000001797402665264899735_);fill:#414042;}
	.st73{clip-path:url(#XMLID_00000056400518282843002590000016042428332873397162_);fill:#414042;}
	.st74{fill:#939598;stroke:#E6E7E8;stroke-width:1.5;stroke-miterlimit:10;}
	.st75{fill:#FFFFFF;stroke:#939598;stroke-width:0.5;stroke-miterlimit:10;}
	.st76{fill:#939598;}
	.st77{fill-rule:evenodd;clip-rule:evenodd;fill:#939598;}
	.st78{fill:#050404;}
	.st79{fill:#82532B;}
	.st80{fill:#885222;}
	.st81{fill:#E1B082;}
	.st82{fill:#E1B183;}
	.st83{fill:#794D30;}
	.st84{fill:#895425;}
	.st85{fill:#E2B082;}
	.st86{fill:#5E2E11;}
	.st87{fill:#E3B48A;}
	.st88{fill:#895223;}
	.st89{fill:#895323;}
	.st90{fill:#613013;}
	.st91{fill:#5F2F12;}
	.st92{fill:#5D2F12;}
	.st93{fill:#5A2D10;}
	.st94{fill:#8E5727;}
	.st95{fill:#5C2F12;}
	.st96{fill:#010101;}
	.st97{fill:#8C5827;}
	.st98{fill:#0C0908;}
	.st99{fill:#090606;}
	.st100{fill:#100A09;}
	.st101{fill:#5D2E11;}
	.st102{fill:url(#SVGID_00000147939641361087430050000003382471883736845994_);}
	.st103{fill:url(#SVGID_00000070800597839263355750000010396017422993778580_);}
	.st104{fill:url(#SVGID_00000162349026645488598760000008785442189603839404_);}
	.st105{fill:url(#SVGID_00000038389391641448072280000010109076835310019489_);}
	.st106{fill:url(#SVGID_00000023262300963004029050000015550286665115706810_);}
	.st107{fill:url(#SVGID_00000000224297383808024130000011995754491817519238_);}
	.st108{fill:url(#SVGID_00000047023205349919365230000005064398434976849319_);}
	.st109{fill:url(#SVGID_00000020390811099177638270000011461076737893963403_);}
	.st110{fill:url(#SVGID_00000162323830966884184630000013302975901722325915_);}
	.st111{fill:url(#SVGID_00000120545508898199893720000005460706771724022971_);}
	.st112{fill:url(#SVGID_00000092431782271711532780000004344394396712636326_);}
	.st113{fill:url(#SVGID_00000065076591214124272250000011145615889217244546_);}
	.st114{fill:url(#SVGID_00000056394651634889818410000012093439831388149143_);}
	.st115{fill:url(#SVGID_00000080207314449736403700000016641684532584400560_);}
	.st116{fill:url(#SVGID_00000008120567108350087820000017673956555243392143_);}
	.st117{fill:url(#SVGID_00000135674945499755304030000004793221970113479085_);}
	.st118{fill:url(#SVGID_00000088106312573806691990000016826661282102773933_);}
	.st119{fill:url(#SVGID_00000120549050906059670270000012450986758074915230_);}
	.st120{fill:#ED1C24;stroke:#006838;stroke-width:0.25;stroke-miterlimit:10;}
	.st121{fill:#A7A9AC;stroke:#006838;stroke-width:0.25;stroke-miterlimit:10;}
	.st122{fill:#27AAE1;stroke:#006838;stroke-width:0.25;stroke-miterlimit:10;}
	.st123{fill:#F15A29;stroke:#006838;stroke-width:0.25;stroke-miterlimit:10;}
	.st124{fill:#939598;stroke:#006838;stroke-width:0.25;stroke-miterlimit:10;}
	.st125{fill:#9E1F63;stroke:#006838;stroke-width:0.25;stroke-miterlimit:10;}
	.st126{fill:#1C75BC;stroke:#006838;stroke-width:0.25;stroke-miterlimit:10;}
	.st127{fill:#2B3990;stroke:#006838;stroke-width:0.25;stroke-miterlimit:10;}
	.st128{fill:#603913;stroke:#006838;stroke-width:0.25;stroke-miterlimit:10;}
	.st129{fill:#C2B59B;stroke:#006838;stroke-width:0.25;stroke-miterlimit:10;}
	.st130{fill:#414042;stroke:#006838;stroke-width:0.25;stroke-miterlimit:10;}
	.st131{fill:#EC008C;stroke:#006838;stroke-width:0.25;stroke-miterlimit:10;}
	.st132{fill:#58595B;stroke:#006838;stroke-width:0.25;stroke-miterlimit:10;}
	.st133{fill:#5BCBF5;stroke:#006838;stroke-width:0.25;stroke-miterlimit:10;}
	.st134{fill:#39B54A;stroke:#006838;stroke-width:0.25;stroke-miterlimit:10;}
</style>
<path class="st76" d="M52.34,15.92c-0.67-1.06-1.96-1.46-3.01-1.62c-5.37-0.83-11.59,2.82-15.73,6.69
	c-1.45,1.36-2.75,2.83-3.99,4.48c-0.11-0.15-0.23-0.28-0.36-0.41c0.2-0.18,0.37-0.4,0.48-0.68c0.01-0.02,0.02-0.04,0.02-0.07
	s0.01-0.04,0.02-0.07c0.01-0.02,0.01-0.05,0.02-0.07s0.01-0.05,0.02-0.07s0.01-0.05,0.01-0.07c0-0.02,0.01-0.05,0.01-0.07
	c0-0.02,0.01-0.05,0.01-0.07s0-0.05,0-0.07c0-0.02,0-0.05,0-0.07c0-0.02,0-0.05,0-0.07c0-0.02,0-0.05,0-0.07
	c0-0.02,0-0.05-0.01-0.07c0-0.02-0.01-0.05-0.01-0.07c0-0.02-0.01-0.05-0.01-0.07s-0.01-0.05-0.02-0.07
	c-0.01-0.02-0.01-0.05-0.02-0.07c-0.16-0.52-0.5-0.79-0.9-1.01c0.17-1.05,0.45-2.11,0.79-3.09c0.84-2.39,2.35-4.58,4.21-5.91
	c0.5-0.36,1.03-0.63,1.57-0.89c0.09,0.09,0.2,0.17,0.31,0.22c0.16,0.07,0.33,0.08,0.48-0.01c0.16-0.09,0.29-0.26,0.34-0.46
	c0-0.01,0.01-0.02,0.01-0.04c0-0.01,0.01-0.03,0.01-0.04c0-0.01,0-0.03,0.01-0.04c0-0.01,0-0.03,0-0.04c0-0.01,0-0.03,0-0.04
	c0-0.01,0-0.03,0-0.04c0-0.01,0-0.03,0-0.04c0-0.01,0-0.03,0-0.04c0-0.01,0-0.03,0-0.04s0-0.03-0.01-0.04c0-0.01,0-0.03-0.01-0.04
	c0-0.01-0.01-0.03-0.01-0.04s-0.01-0.03-0.01-0.04c0-0.01-0.01-0.02-0.01-0.04c0-0.01-0.01-0.02-0.01-0.04
	c0-0.01-0.01-0.02-0.01-0.04c-0.08-0.18-0.22-0.3-0.38-0.36c-0.17-0.06-0.35-0.05-0.5,0.06c-0.2,0.14-0.27,0.38-0.32,0.64
	c-0.65,0.43-1.33,0.75-1.96,1.24c-2.29,1.77-3.86,4.64-4.61,7.75c-0.11,0.45-0.2,0.9-0.29,1.36l-0.04,0
	c-0.21-1.12-0.45-2.23-0.82-3.29c-0.03-0.08-0.06-0.17-0.09-0.25s-0.06-0.17-0.1-0.25c-0.03-0.08-0.07-0.16-0.1-0.25
	c-0.03-0.08-0.07-0.16-0.11-0.24c-0.04-0.08-0.07-0.16-0.11-0.24c-0.04-0.08-0.08-0.16-0.11-0.24s-0.08-0.16-0.12-0.23
	c-0.04-0.08-0.08-0.15-0.12-0.23c-0.04-0.08-0.08-0.15-0.13-0.23s-0.09-0.15-0.13-0.23s-0.09-0.15-0.13-0.22
	c-0.05-0.07-0.09-0.15-0.14-0.22c-0.05-0.07-0.09-0.14-0.14-0.21c-0.05-0.07-0.1-0.14-0.15-0.21c-0.05-0.07-0.1-0.14-0.15-0.21
	c-0.05-0.07-0.1-0.14-0.15-0.2s-0.1-0.13-0.16-0.2s-0.11-0.13-0.16-0.2c-0.05-0.06-0.11-0.13-0.16-0.19
	c-0.05-0.06-0.11-0.13-0.17-0.19c-0.06-0.06-0.11-0.12-0.17-0.18c-0.06-0.06-0.11-0.12-0.17-0.18c-0.06-0.06-0.12-0.12-0.18-0.17
	c-0.06-0.06-0.12-0.11-0.18-0.17c-0.06-0.06-0.12-0.11-0.18-0.17c-0.06-0.05-0.12-0.11-0.18-0.16c-0.06-0.05-0.12-0.11-0.19-0.16
	c-0.06-0.05-0.13-0.1-0.19-0.15c-0.06-0.05-0.13-0.1-0.19-0.15s-0.13-0.1-0.19-0.14c-0.07-0.05-0.13-0.09-0.2-0.14
	c-0.07-0.04-0.13-0.09-0.2-0.13c-0.36-0.24-0.73-0.48-1.11-0.66c-0.05-0.27-0.14-0.5-0.34-0.65c-0.15-0.11-0.35-0.14-0.53-0.08
	c-0.16,0.05-0.3,0.17-0.39,0.34c-0.08,0.17-0.1,0.37-0.05,0.56c0.06,0.22,0.2,0.45,0.38,0.55c0.14,0.08,0.29,0.1,0.44,0.04
	c0.14-0.06,0.24-0.15,0.34-0.28c0.08,0.04,0.16,0.08,0.23,0.12c0.08,0.04,0.15,0.08,0.23,0.12c0.08,0.04,0.15,0.09,0.23,0.13
	s0.15,0.09,0.23,0.14c0.08,0.05,0.15,0.09,0.22,0.14c0.07,0.05,0.15,0.1,0.22,0.15s0.15,0.1,0.22,0.16s0.14,0.11,0.21,0.16
	c0.07,0.06,0.14,0.11,0.21,0.17c0.07,0.06,0.14,0.12,0.21,0.17c0.07,0.06,0.14,0.12,0.2,0.18c0.07,0.06,0.13,0.12,0.2,0.19
	c0.07,0.06,0.13,0.13,0.2,0.19c0.07,0.07,0.13,0.13,0.19,0.2c0.06,0.07,0.13,0.13,0.19,0.2c0.06,0.07,0.12,0.14,0.18,0.21
	c0.06,0.07,0.12,0.14,0.18,0.21c0.06,0.07,0.12,0.15,0.18,0.22c0.06,0.07,0.12,0.15,0.17,0.22c0.06,0.08,0.11,0.15,0.17,0.23
	s0.11,0.16,0.16,0.23c0.05,0.08,0.11,0.16,0.16,0.24s0.1,0.16,0.15,0.24c0.05,0.08,0.1,0.16,0.15,0.25c0.05,0.08,0.1,0.17,0.14,0.25
	c0.05,0.08,0.09,0.17,0.14,0.26s0.09,0.17,0.13,0.26c0.04,0.09,0.09,0.18,0.13,0.26c0.04,0.09,0.08,0.18,0.12,0.27
	c0.04,0.09,0.08,0.18,0.12,0.27c0.04,0.09,0.08,0.18,0.11,0.27s0.07,0.18,0.11,0.28c0.09,0.26,0.18,0.53,0.27,0.8
	c0.08,0.27,0.16,0.54,0.23,0.82c0.07,0.27,0.13,0.55,0.19,0.83c0.06,0.28,0.11,0.56,0.15,0.84c-0.39,0.22-0.72,0.46-0.88,0.97
	c-0.11,0.36-0.11,0.78,0.02,1.13c0.12,0.31,0.3,0.49,0.54,0.66c-0.14,0.14-0.28,0.27-0.39,0.45c-0.5-0.55-0.95-1.18-1.43-1.75
	c-0.28-0.34-0.57-0.66-0.86-0.98c-0.29-0.32-0.59-0.63-0.89-0.94c-0.3-0.31-0.61-0.61-0.92-0.9c-0.31-0.29-0.63-0.58-0.95-0.85
	c-3.45-2.93-7.15-4.99-11.36-5.61c-1.27-0.19-2.56-0.26-3.83,0c-0.93,0.2-1.99,0.6-2.55,1.59c-0.4,0.7-0.41,1.48-0.28,2.28
	c0.42,1.51,1.08,2.61,2.26,3.37c0.19,3.13,1.2,6.03,3.19,8.11c1.54,1.61,3.3,2.37,5.34,2.19c0.5-0.04,1.02-0.17,1.52-0.15
	c-1.64,1.02-3.39,2.41-3.97,4.64c-0.39,1.48-0.13,3.06,0.45,4.41c0.97,2.24,2.82,3.99,4.82,4.74c0.9,0.34,1.91,0.38,2.76-0.16
	c2.08-1.33,4.17-5.29,5.16-7.87c0.48-1.25,0.85-2.54,1.18-3.85c0.11-0.45,0.23-0.91,0.33-1.36c0.2,2.02,0.05,11.18,0.98,12.14
	c0.06,0.06,0.13,0.09,0.2,0.09c0.1-0.01,0.17-0.08,0.23-0.17c0.66-1.06,0.77-7.03,0.8-8.59l0.03-2.28c0.01-0.38,0-0.76,0.04-1.14
	c0.26,1.03,0.51,2.08,0.83,3.1c0.9,2.87,2.39,6.13,4.17,8.33c0.78,0.97,1.82,2.06,3,2.07c1.63,0.02,3.92-1.63,5.05-2.96
	c1.1-1.29,1.87-2.95,1.88-4.83c0.02-2.53-1.33-4.17-2.96-5.5c-0.19-0.15-1.01-0.72-1.09-0.82c-0.01-0.01-0.01-0.02-0.02-0.03
	c0.53,0.01,1.04,0.13,1.56,0.17c1.39,0.11,2.81-0.2,4.03-1.02c2.02-1.37,3.46-3.92,4.08-6.57c0.11-0.47,0.51-2.28,0.33-2.67
	c0.06-0.02,0.11-0.05,0.17-0.08c0.86-0.44,1.61-1.61,1.94-2.63c0.07-0.2,0.15-0.48,0.08-0.69c0.11-0.09,0.13-0.23,0.15-0.38
	C52.87,17.22,52.67,16.45,52.34,15.92z"/>
</svg>
