<?xml version="1.0" encoding="utf-8"?>
<!-- Generator: Adobe Illustrator 28.3.0, SVG Export Plug-In . SVG Version: 6.00 Build 0)  -->
<svg version="1.1" id="Layer_1" xmlns="http://www.w3.org/2000/svg" xmlns:xlink="http://www.w3.org/1999/xlink" x="0px" y="0px"
	 viewBox="0 0 57 57" style="enable-background:new 0 0 57 57;" xml:space="preserve">
<style type="text/css">
	.st0{fill:#00AEEF;}
	.st1{fill:#6D6E71;}
	.st2{fill:#1F2A44;}
	.st3{fill:#1C75BC;}
	.st4{fill:#414042;}
	.st5{fill:#FFFFFF;}
	.st6{fill:url(#SVGID_1_);}
	.st7{fill:url(#SVGID_00000088854104136253055370000001752641369256183487_);}
	.st8{fill:url(#SVGID_00000035527034373274650970000012268964651907757710_);}
	.st9{fill:url(#SVGID_00000034061073176491124350000013255162908711842997_);}
	.st10{fill:url(#SVGID_00000095297753509502744350000011457413006179105697_);}
	.st11{fill:url(#SVGID_00000170991077566100260490000011323604300200951229_);}
	.st12{fill:url(#SVGID_00000161597003055633990160000014846269599265833115_);}
	.st13{fill:url(#SVGID_00000022546932845454045710000009998799641032270760_);}
	.st14{fill:url(#SVGID_00000032645694020630997400000000901268833300870333_);}
	.st15{fill:url(#SVGID_00000148636163651976556180000016261223230721364099_);}
	.st16{fill:none;stroke:#C9A14A;stroke-width:0.75;stroke-miterlimit:10;}
	.st17{fill:#C9A14A;}
	.st18{fill:none;stroke:#000000;stroke-width:0.5;stroke-miterlimit:10;}
	.st19{fill:none;stroke:#A7A9AC;stroke-width:0.75;stroke-miterlimit:10;}
	.st20{fill:#808285;}
	.st21{fill:url(#SVGID_00000044155903481429165840000007549131561989171856_);}
	.st22{fill:url(#SVGID_00000116943169593175243420000006527087112881314750_);}
	.st23{fill:#F1F2F2;}
	.st24{fill:url(#SVGID_00000026163263042848081530000008336772713872569741_);}
	.st25{fill:url(#SVGID_00000068646845126728749620000002422352153690057604_);}
	.st26{fill:url(#SVGID_00000172406698326594528840000010197045081793951113_);}
	.st27{fill:url(#SVGID_00000172441323941246436210000012254749941559870354_);}
	.st28{fill:url(#SVGID_00000128471097579370609250000015674074231280307083_);}
	.st29{fill:url(#SVGID_00000054948800135528595180000002262637381590605230_);}
	.st30{fill:url(#SVGID_00000001656615217165516570000000404453312236233145_);}
	.st31{fill:url(#SVGID_00000162344122902889035920000014128822820502495640_);}
	.st32{fill:url(#SVGID_00000012465742327800242770000015188288346480408236_);}
	.st33{fill:url(#SVGID_00000029009644351477345320000013782800327585659055_);}
	.st34{fill:url(#SVGID_00000091712125539858569390000005761105974058990464_);}
	.st35{fill:url(#SVGID_00000002382663295643808580000011422448197673754284_);}
	.st36{fill:url(#SVGID_00000024703471394685888360000015493279065705606571_);}
	.st37{fill:url(#SVGID_00000060022610632660723920000010102765274580875155_);}
	.st38{fill:url(#SVGID_00000129904395977631244970000017867523446462542236_);}
	.st39{fill:url(#SVGID_00000031908723969687420760000017542757005254483356_);}
	.st40{fill:url(#SVGID_00000110443202937211801580000017991311153523391872_);}
	.st41{fill:url(#SVGID_00000164506663647252308020000004742988304751709102_);}
	.st42{fill:url(#SVGID_00000072275505993842529880000000385488993487496335_);}
	.st43{fill:url(#SVGID_00000064352127205642643450000014365951454234805946_);}
	.st44{fill:url(#SVGID_00000151523185404192666720000011248965020909960845_);}
	.st45{fill:url(#SVGID_00000056423522531209350220000002898759887713849022_);}
	.st46{fill:url(#SVGID_00000008150726333789765410000009927168747067623073_);}
	.st47{fill:url(#SVGID_00000017496317821280981790000002797369657756609975_);}
	.st48{fill:url(#SVGID_00000080927832836132323450000006418324274249144967_);}
	.st49{fill:url(#SVGID_00000021109154610630386620000004563557146606435497_);}
	.st50{fill:url(#SVGID_00000016774392727079819500000007805065184194762658_);}
	.st51{fill:url(#SVGID_00000100370237130433505080000000156830392734980994_);}
	.st52{fill:url(#SVGID_00000170250826490785791060000005364240472719719603_);}
	.st53{fill:url(#SVGID_00000085244422870308100000000013752447771270082970_);}
	.st54{fill:url(#SVGID_00000127748631507213495690000008231121173541666208_);}
	.st55{fill:url(#SVGID_00000134929723030312832870000012820306885468055181_);}
	.st56{clip-path:url(#XMLID_00000103959413203412597050000004011457915034389653_);fill:#414042;}
	.st57{fill:#808285;stroke:#E6E7E8;stroke-width:1.5;stroke-miterlimit:10;}
	.st58{fill:#414042;stroke:#E6E7E8;stroke-width:1.5;stroke-miterlimit:10;}
	.st59{fill:#A7A9AC;stroke:#E6E7E8;stroke-width:1.5;stroke-miterlimit:10;}
	.st60{fill:#6D6E71;stroke:#E6E7E8;stroke-miterlimit:10;}
	.st61{fill:#6D6E71;stroke:#E6E7E8;stroke-width:1.5;stroke-miterlimit:10;}
	.st62{fill:#808285;stroke:#E6E7E8;stroke-miterlimit:10;}
	.st63{fill:#E6E7E8;}
	.st64{fill:#6D6E71;stroke:#E6E7E8;stroke-width:2;stroke-miterlimit:10;}
	.st65{clip-path:url(#XMLID_00000123409240838798286430000007264760814165363878_);fill:#414042;}
	.st66{clip-path:url(#XMLID_00000021091412760848175540000016067065936286245044_);fill:#414042;}
	.st67{clip-path:url(#XMLID_00000110447209548264515650000006068551134086067091_);fill:#414042;}
	.st68{fill:#A7A9AC;}
	.st69{fill:#F7F8F8;}
	.st70{fill:#6F6D70;}
	.st71{clip-path:url(#XMLID_00000121972387043800194210000002785904431747306396_);fill:#414042;}
	.st72{clip-path:url(#XMLID_00000147907629893998977120000006140013909873417878_);fill:#414042;}
	.st73{clip-path:url(#XMLID_00000179603740659375762130000006867922643382382780_);fill:#414042;}
	.st74{fill:#939598;stroke:#E6E7E8;stroke-width:1.5;stroke-miterlimit:10;}
	.st75{fill:#FFFFFF;stroke:#939598;stroke-width:0.5;stroke-miterlimit:10;}
	.st76{fill:#939598;}
	.st77{fill-rule:evenodd;clip-rule:evenodd;fill:#939598;}
	.st78{fill:#050404;}
	.st79{fill:#82532B;}
	.st80{fill:#885222;}
	.st81{fill:#E1B082;}
	.st82{fill:#E1B183;}
	.st83{fill:#794D30;}
	.st84{fill:#895425;}
	.st85{fill:#E2B082;}
	.st86{fill:#5E2E11;}
	.st87{fill:#E3B48A;}
	.st88{fill:#895223;}
	.st89{fill:#895323;}
	.st90{fill:#613013;}
	.st91{fill:#5F2F12;}
	.st92{fill:#5D2F12;}
	.st93{fill:#5A2D10;}
	.st94{fill:#8E5727;}
	.st95{fill:#5C2F12;}
	.st96{fill:#010101;}
	.st97{fill:#8C5827;}
	.st98{fill:#0C0908;}
	.st99{fill:#090606;}
	.st100{fill:#100A09;}
	.st101{fill:#5D2E11;}
	.st102{fill:url(#SVGID_00000167395545142089343030000007684735845664244152_);}
	.st103{fill:url(#SVGID_00000035531363859018178300000016885381774954149765_);}
	.st104{fill:url(#SVGID_00000057862839918096596230000004603535382702272702_);}
	.st105{fill:url(#SVGID_00000109014255898027184420000010924368786164231101_);}
	.st106{fill:url(#SVGID_00000014595620477334794480000016579011813710425750_);}
	.st107{fill:url(#SVGID_00000142141024939229366000000017990591519487053209_);}
	.st108{fill:url(#SVGID_00000113339869909194229380000008384118409594846367_);}
	.st109{fill:url(#SVGID_00000022541680589689202150000016735453904210185640_);}
	.st110{fill:url(#SVGID_00000027600618857277750240000017522181479150784150_);}
	.st111{fill:url(#SVGID_00000011024930144710628480000012894508776498588811_);}
	.st112{fill:url(#SVGID_00000168102038989840243430000015903801724915266994_);}
	.st113{fill:url(#SVGID_00000040559795324332681520000014150776767325214592_);}
	.st114{fill:url(#SVGID_00000070105012419949593880000002990662020305861030_);}
	.st115{fill:url(#SVGID_00000076602502036413899350000002156870139253070519_);}
	.st116{fill:url(#SVGID_00000129180264979697019840000017000356311855558287_);}
	.st117{fill:url(#SVGID_00000078005465853051453840000018288126564842318734_);}
	.st118{fill:url(#SVGID_00000158021627459935857730000018391254428825363643_);}
	.st119{fill:url(#SVGID_00000050626900418896210360000005483099875616821934_);}
	.st120{fill:#ED1C24;stroke:#006838;stroke-width:0.25;stroke-miterlimit:10;}
	.st121{fill:#A7A9AC;stroke:#006838;stroke-width:0.25;stroke-miterlimit:10;}
	.st122{fill:#27AAE1;stroke:#006838;stroke-width:0.25;stroke-miterlimit:10;}
	.st123{fill:#F15A29;stroke:#006838;stroke-width:0.25;stroke-miterlimit:10;}
	.st124{fill:#939598;stroke:#006838;stroke-width:0.25;stroke-miterlimit:10;}
	.st125{fill:#9E1F63;stroke:#006838;stroke-width:0.25;stroke-miterlimit:10;}
	.st126{fill:#1C75BC;stroke:#006838;stroke-width:0.25;stroke-miterlimit:10;}
	.st127{fill:#2B3990;stroke:#006838;stroke-width:0.25;stroke-miterlimit:10;}
	.st128{fill:#603913;stroke:#006838;stroke-width:0.25;stroke-miterlimit:10;}
	.st129{fill:#C2B59B;stroke:#006838;stroke-width:0.25;stroke-miterlimit:10;}
	.st130{fill:#414042;stroke:#006838;stroke-width:0.25;stroke-miterlimit:10;}
	.st131{fill:#EC008C;stroke:#006838;stroke-width:0.25;stroke-miterlimit:10;}
	.st132{fill:#58595B;stroke:#006838;stroke-width:0.25;stroke-miterlimit:10;}
	.st133{fill:#5BCBF5;stroke:#006838;stroke-width:0.25;stroke-miterlimit:10;}
	.st134{fill:#39B54A;stroke:#006838;stroke-width:0.25;stroke-miterlimit:10;}
</style>
<g>
	<path class="st76" d="M46.9,27.25c-0.46,0-0.91,0.04-1.34,0.12c1.65-1.19,3.78-1.74,4.91-1.77c0.12,0,0.14-0.16,0.12-0.23
		c-0.54-2.64-2.41-5.21-2.77-5.61c0.2-0.57-0.62-1.4-1.28-1.67c-1.22-1.61-2.33-2.79-2.56-2.98c-0.21-0.17-0.34-0.21-0.7-0.19
		c-0.31,0.01-3.07,0.12-3.81,0.65c-0.74,0.53,1.07,0.53,2.49,1c1.42,0.47,1.8,0.83,2.22,1.06c-0.23,0.16-0.99,1.2-0.93,1.34
		c0.06,0.14,0.43,0.54,0.51,0.58c0.07,0.04,0.07,0.09,0.05,0.16c-0.02,0.06-0.05,0.16-0.17,0.34c-0.12,0.18-0.45,0.09-0.82,0.08
		c-0.37-0.01-0.41-0.19-0.42-0.36c-0.01-0.17-0.03-0.25-0.09-0.35c-0.05-0.1-0.35-0.13-0.35-0.13s-0.69-1.3-0.8-1.46
		c-0.11-0.16-0.19-0.17-0.29-0.14c-0.1,0.03-0.61,0.27-0.63,0.28c-0.02,0.01,0,0.06,0,0.06s-0.18,0.07-0.22,0.1
		c-0.05-0.08-0.11-0.09-0.2-0.04c-0.1,0.05-1.34,0.59-1.4,0.63c-0.06,0.04-0.08,0.07-0.06,0.15c0.02,0.07,0.07,0.19,0.07,0.19
		s-0.22,0.11-0.27,0.2c-0.04,0.09-0.03,0.54-0.03,0.54l-0.16,0.1c0,0-0.63-0.91-1.05-1.29c-0.42-0.38-6.27-2.09-8.4-1.63
		c-2.13,0.46-4.06,2.77-4.79,4.43c-0.39,0.06-1.4,0.03-3.79-0.28c-2.4-0.31-3.91-1.23-4.27-1.44c-0.36-0.2-0.52-0.27-0.58,0.05
		c-0.04-0.33-0.51-1.75-1.22-1.91c-0.71-0.16-5.69-0.63-5.98-0.63c-0.28,0-0.54,0.1-0.51,0.32c-0.22-0.02-0.27-0.06-0.85,0.54
		c-0.59,0.61,1.53,1.86,2.5,2.57c0.97,0.72,1.25,0.68,2.41,0.83c1.16,0.15,2.81,1.44,5.63,3.13c2.82,1.69,4.11,2.26,4.96,2.5
		c-0.1,0.25-0.39,0.48-0.84,0.47c-0.45-0.01-0.68-0.29-2.44-0.36c-0.83-0.27-1.32-0.52-2.64-1.09c-1.32-0.58-0.61,0.2-0.71,0.31
		l-0.44,0.45c-1.2-0.7-2.6-1.1-4.09-1.1c-4.52,0-8.18,3.66-8.18,8.18c0,4.52,3.66,8.18,8.18,8.18c4.04,0,7.39-2.93,8.06-6.78
		c0.46,0.29,1.13,0.89,1.02,1.87c-0.17,1.49,18.05,0.75,18.65,0.75c0.6,0,0.55-0.27,0.44-0.84c-0.11-0.57-0.1-1.91-0.02-3.01
		c0.04-0.62,0.43-1.12,0.77-1.43c-0.18,0.64-0.28,1.32-0.28,2.01c0,4.1,3.32,7.42,7.42,7.42c4.1,0,7.42-3.32,7.42-7.42
		C54.32,30.57,51,27.25,46.9,27.25z M10.86,39.35c-3,0-5.44-2.43-5.44-5.44c0-3,2.43-5.44,5.44-5.44c0.73,0,1.43,0.15,2.07,0.41
		l-2.39,2.42c-1.3,0.16-2.3,1.26-2.3,2.6c0,1.45,1.18,2.63,2.63,2.63c1.16,0,2.14-0.75,2.49-1.8l2.85,0.2
		C15.71,37.45,13.51,39.35,10.86,39.35z M46.9,39.89c-2.88,0-5.22-2.34-5.22-5.22c0-2.88,2.34-5.22,5.22-5.22
		c2.88,0,5.22,2.34,5.22,5.22C52.12,37.55,49.78,39.89,46.9,39.89z"/>
	<path class="st76" d="M46.9,30.67c-2.21,0-4.01,1.79-4.01,4.01c0,2.21,1.79,4.01,4.01,4.01c2.21,0,4.01-1.79,4.01-4.01
		C50.91,32.46,49.12,30.67,46.9,30.67z"/>
</g>
</svg>
