<?xml version="1.0" encoding="utf-8"?>
<!-- Generator: Adobe Illustrator 28.3.0, SVG Export Plug-In . SVG Version: 6.00 Build 0)  -->
<svg version="1.1" id="Layer_1" xmlns="http://www.w3.org/2000/svg" xmlns:xlink="http://www.w3.org/1999/xlink" x="0px" y="0px"
	 viewBox="0 0 57 57" style="enable-background:new 0 0 57 57;" xml:space="preserve">
<style type="text/css">
	.st0{fill:#00AEEF;}
	.st1{fill:#6D6E71;}
	.st2{fill:#1F2A44;}
	.st3{fill:#1C75BC;}
	.st4{fill:#414042;}
	.st5{fill:#FFFFFF;}
	.st6{fill:url(#SVGID_1_);}
	.st7{fill:url(#SVGID_00000017484768735439967060000007605730044140346506_);}
	.st8{fill:url(#SVGID_00000059278457856259002210000006474886305161718686_);}
	.st9{fill:url(#SVGID_00000064320957123968809620000009731320170120340631_);}
	.st10{fill:url(#SVGID_00000054255981698608278910000013598443205852675519_);}
	.st11{fill:url(#SVGID_00000083090776446221171880000001429347457575558827_);}
	.st12{fill:url(#SVGID_00000085955539542042471750000006604283523738506897_);}
	.st13{fill:url(#SVGID_00000025404112361224329980000010861144751508726971_);}
	.st14{fill:url(#SVGID_00000144332166075203820720000006138497762834574239_);}
	.st15{fill:url(#SVGID_00000111163440108353475890000016668253258516578697_);}
	.st16{fill:none;stroke:#C9A14A;stroke-width:0.75;stroke-miterlimit:10;}
	.st17{fill:#C9A14A;}
	.st18{fill:none;stroke:#000000;stroke-width:0.5;stroke-miterlimit:10;}
	.st19{fill:none;stroke:#A7A9AC;stroke-width:0.75;stroke-miterlimit:10;}
	.st20{fill:#808285;}
	.st21{fill:url(#SVGID_00000062151078176643553320000011667733320042985344_);}
	.st22{fill:url(#SVGID_00000062155625989911308700000012939015595057657505_);}
	.st23{fill:#F1F2F2;}
	.st24{fill:url(#SVGID_00000065773612739815920360000000098580146756729246_);}
	.st25{fill:url(#SVGID_00000155120638219375424090000001184733098739906698_);}
	.st26{fill:url(#SVGID_00000174563684531095794560000006935574396261448068_);}
	.st27{fill:url(#SVGID_00000047034493646729422380000014890932224110354604_);}
	.st28{fill:url(#SVGID_00000088111211372404080830000006913751883289088928_);}
	.st29{fill:url(#SVGID_00000018207241749792032540000006802170924679637126_);}
	.st30{fill:url(#SVGID_00000044897216073446369570000009663108532622393262_);}
	.st31{fill:url(#SVGID_00000158012946100553840210000016476139570654857397_);}
	.st32{fill:url(#SVGID_00000155121298715143545400000005188597610386491542_);}
	.st33{fill:url(#SVGID_00000176024153348006041130000009320225819852868759_);}
	.st34{fill:url(#SVGID_00000129912464519973150140000005971728680698752446_);}
	.st35{fill:url(#SVGID_00000034782787564280719030000008665853460005568384_);}
	.st36{fill:url(#SVGID_00000111871823269540835830000000510474677113130126_);}
	.st37{fill:url(#SVGID_00000071539846064871723760000005217972715095055527_);}
	.st38{fill:url(#SVGID_00000014597443724041171120000011353740274039961490_);}
	.st39{fill:url(#SVGID_00000001624209828476073060000015684081764994040225_);}
	.st40{fill:url(#SVGID_00000083767923459240858840000014950946409213282709_);}
	.st41{fill:url(#SVGID_00000026862026449852754380000007440747636359364795_);}
	.st42{fill:url(#SVGID_00000155138862701714739840000006071280596987767966_);}
	.st43{fill:url(#SVGID_00000129888296876792879930000012657589903142259586_);}
	.st44{fill:url(#SVGID_00000159459280294581117090000005134186441479125662_);}
	.st45{fill:url(#SVGID_00000028294309523981095930000014342828948888059827_);}
	.st46{fill:url(#SVGID_00000035500527832700163160000007515271590264231326_);}
	.st47{fill:url(#SVGID_00000006673182855420173080000017362867759117541782_);}
	.st48{fill:url(#SVGID_00000047052224100533956910000004719990041621522595_);}
	.st49{fill:url(#SVGID_00000075854782026611323610000014531098154842867646_);}
	.st50{fill:url(#SVGID_00000024681158371905174540000018382478748419798175_);}
	.st51{fill:url(#SVGID_00000160888605789199274640000008644323688487966893_);}
	.st52{fill:url(#SVGID_00000176761759174334334300000015460828448524925093_);}
	.st53{fill:url(#SVGID_00000152258468982268341260000018299403004547655319_);}
	.st54{fill:url(#SVGID_00000062184147259013911140000010031818408824591539_);}
	.st55{fill:url(#SVGID_00000011743578478853271770000013812488348947929769_);}
	.st56{clip-path:url(#XMLID_00000165918569044138587450000004800756562063156121_);fill:#414042;}
	.st57{fill:#808285;stroke:#E6E7E8;stroke-width:1.5;stroke-miterlimit:10;}
	.st58{fill:#414042;stroke:#E6E7E8;stroke-width:1.5;stroke-miterlimit:10;}
	.st59{fill:#A7A9AC;stroke:#E6E7E8;stroke-width:1.5;stroke-miterlimit:10;}
	.st60{fill:#6D6E71;stroke:#E6E7E8;stroke-miterlimit:10;}
	.st61{fill:#6D6E71;stroke:#E6E7E8;stroke-width:1.5;stroke-miterlimit:10;}
	.st62{fill:#808285;stroke:#E6E7E8;stroke-miterlimit:10;}
	.st63{fill:#E6E7E8;}
	.st64{fill:#6D6E71;stroke:#E6E7E8;stroke-width:2;stroke-miterlimit:10;}
	.st65{clip-path:url(#XMLID_00000109723619111760809110000008799718044722275770_);fill:#414042;}
	.st66{clip-path:url(#XMLID_00000062910425958997883990000007593280986326881935_);fill:#414042;}
	.st67{clip-path:url(#XMLID_00000047768489884799900970000016226771671500033712_);fill:#414042;}
	.st68{fill:#A7A9AC;}
	.st69{fill:#F7F8F8;}
	.st70{fill:#6F6D70;}
	.st71{clip-path:url(#XMLID_00000172419041614141004350000010973925252289932198_);fill:#414042;}
	.st72{clip-path:url(#XMLID_00000085951546343699543390000015925216719105422485_);fill:#414042;}
	.st73{clip-path:url(#XMLID_00000182529326926342316050000015414985198182830479_);fill:#414042;}
	.st74{fill:#939598;stroke:#E6E7E8;stroke-width:1.5;stroke-miterlimit:10;}
	.st75{fill:#FFFFFF;stroke:#939598;stroke-width:0.5;stroke-miterlimit:10;}
	.st76{fill:#939598;}
	.st77{fill-rule:evenodd;clip-rule:evenodd;fill:#939598;}
	.st78{fill:#050404;}
	.st79{fill:#82532B;}
	.st80{fill:#885222;}
	.st81{fill:#E1B082;}
	.st82{fill:#E1B183;}
	.st83{fill:#794D30;}
	.st84{fill:#895425;}
	.st85{fill:#E2B082;}
	.st86{fill:#5E2E11;}
	.st87{fill:#E3B48A;}
	.st88{fill:#895223;}
	.st89{fill:#895323;}
	.st90{fill:#613013;}
	.st91{fill:#5F2F12;}
	.st92{fill:#5D2F12;}
	.st93{fill:#5A2D10;}
	.st94{fill:#8E5727;}
	.st95{fill:#5C2F12;}
	.st96{fill:#010101;}
	.st97{fill:#8C5827;}
	.st98{fill:#0C0908;}
	.st99{fill:#090606;}
	.st100{fill:#100A09;}
	.st101{fill:#5D2E11;}
	.st102{fill:url(#SVGID_00000165234607219506274710000008909300917982300042_);}
	.st103{fill:url(#SVGID_00000104703910447166666200000009878812184335513990_);}
	.st104{fill:url(#SVGID_00000089557769150767130210000018158012801584486790_);}
	.st105{fill:url(#SVGID_00000179644859070266556790000014830883304744944286_);}
	.st106{fill:url(#SVGID_00000018955831451870573890000017080783095704253086_);}
	.st107{fill:url(#SVGID_00000017475699904227448280000000687749723655273608_);}
	.st108{fill:url(#SVGID_00000169555234615718454800000013276346155557785786_);}
	.st109{fill:url(#SVGID_00000031914041616373367030000000237291595676938906_);}
	.st110{fill:url(#SVGID_00000027575564062273911390000017805226949411789205_);}
	.st111{fill:url(#SVGID_00000089557016135579893450000010271665396175939749_);}
	.st112{fill:url(#SVGID_00000027563879557930042620000001591000748544005784_);}
	.st113{fill:url(#SVGID_00000018919270305982584450000010690160115428245175_);}
	.st114{fill:url(#SVGID_00000124848443247845252670000010117498637016184242_);}
	.st115{fill:url(#SVGID_00000006669865533168438410000004769543439572166299_);}
	.st116{fill:url(#SVGID_00000122686203620461004650000016285179282414673585_);}
	.st117{fill:url(#SVGID_00000096751136944990512660000006355775198342067902_);}
	.st118{fill:url(#SVGID_00000074417845173904984180000002683130038578199222_);}
	.st119{fill:url(#SVGID_00000012443337315168907430000008591109659805014411_);}
	.st120{fill:#ED1C24;stroke:#006838;stroke-width:0.25;stroke-miterlimit:10;}
	.st121{fill:#A7A9AC;stroke:#006838;stroke-width:0.25;stroke-miterlimit:10;}
	.st122{fill:#27AAE1;stroke:#006838;stroke-width:0.25;stroke-miterlimit:10;}
	.st123{fill:#F15A29;stroke:#006838;stroke-width:0.25;stroke-miterlimit:10;}
	.st124{fill:#939598;stroke:#006838;stroke-width:0.25;stroke-miterlimit:10;}
	.st125{fill:#9E1F63;stroke:#006838;stroke-width:0.25;stroke-miterlimit:10;}
	.st126{fill:#1C75BC;stroke:#006838;stroke-width:0.25;stroke-miterlimit:10;}
	.st127{fill:#2B3990;stroke:#006838;stroke-width:0.25;stroke-miterlimit:10;}
	.st128{fill:#603913;stroke:#006838;stroke-width:0.25;stroke-miterlimit:10;}
	.st129{fill:#C2B59B;stroke:#006838;stroke-width:0.25;stroke-miterlimit:10;}
	.st130{fill:#414042;stroke:#006838;stroke-width:0.25;stroke-miterlimit:10;}
	.st131{fill:#EC008C;stroke:#006838;stroke-width:0.25;stroke-miterlimit:10;}
	.st132{fill:#58595B;stroke:#006838;stroke-width:0.25;stroke-miterlimit:10;}
	.st133{fill:#5BCBF5;stroke:#006838;stroke-width:0.25;stroke-miterlimit:10;}
	.st134{fill:#39B54A;stroke:#006838;stroke-width:0.25;stroke-miterlimit:10;}
</style>
<g>
	<path class="st76" d="M35.66,18.8c-0.23-0.37-0.48-0.74-0.73-1.11c-1.75-2.53-3.92-4.79-6.09-6.77c-2.86,2.18-5.13,4.42-6.82,6.72
		c-0.26,0.36-0.51,0.72-0.75,1.07c-2.14,3.25-3.15,6.6-3.09,10c0.05,2.78,0.81,5.6,2.26,8.45c0.2,0.4,0.42,0.8,0.65,1.21
		c1.79,3.1,4.38,6.23,7.76,9.35c3.31-3.18,5.67-6.2,7.25-9.06c0.23-0.41,0.44-0.82,0.64-1.23c2.02-4.16,2.41-7.97,1.79-11.43
		C38.08,23.41,37.04,21.01,35.66,18.8z M28.5,15.41l1,1l-1,1l-1-1L28.5,15.41z M28.5,19.54l1.7,1.7l-1.7,1.7l-1.7-1.7L28.5,19.54z
		 M28.5,40.57l-1-1l1-1l1,1L28.5,40.57z M28.5,36.44l-1.7-1.7l1.7-1.7l1.7,1.7L28.5,36.44z M29.97,30.4l-1.23,1.23
		c-0.13,0.13-0.36,0.13-0.49,0l-1.23-1.23l-0.89-0.89l-0.99-0.99c-0.13-0.13-0.13-0.36,0-0.49l1.76-1.76l0.89-0.89l0.46-0.46
		c0.13-0.13,0.36-0.13,0.49,0l0.46,0.46l0.89,0.89l1.76,1.76c0.13,0.13,0.13,0.36,0,0.49l-0.99,0.99L29.97,30.4z"/>
	<polygon class="st76" points="28.79,25.95 28.5,25.66 28.21,25.95 27.32,26.84 25.88,28.28 26.56,28.95 27.45,29.84 28.5,30.89 
		29.55,29.84 30.44,28.95 31.12,28.28 29.68,26.84 	"/>
	<path class="st76" d="M37.91,38.99C37.91,38.99,37.91,38.99,37.91,38.99c1.71-3.42,2.56-6.85,2.51-10.21
		c-0.05-3.86-1.26-7.67-3.66-11.47l0.79-1.07c0.58,0.17,1.28,0.03,1.9-0.56c1.65-1.56,5.25-8.73,4.62-9.18
		c-0.63-0.46-6.46,5.09-7.47,7.11c-0.36,0.71-0.31,1.37-0.04,1.86l-0.54,0.73c-1.8-2.61-4.17-5.23-7.11-7.88l-0.02-0.02l-0.02,0.02
		c-3.33,2.51-5.99,5.12-7.98,7.81l-0.5-0.67c0.28-0.49,0.32-1.15-0.04-1.86c-1.02-2.02-6.85-7.57-7.47-7.11
		c-0.63,0.45,2.98,7.62,4.62,9.18c0.62,0.59,1.32,0.73,1.91,0.56l0.72,0.97c-2.2,3.32-3.4,6.77-3.57,10.33
		c-0.17,3.63,0.74,7.38,2.72,11.15l-6.35,8.53c-0.1,0.13-0.14,0.3-0.12,0.46c0.02,0.16,0.11,0.32,0.25,0.41
		c0.13,0.1,0.3,0.14,0.47,0.12c0.16-0.02,0.31-0.12,0.41-0.25l6.01-8.08c2.06,3.53,5.05,7.1,8.92,10.63l0.02,0.02l0.02-0.02
		c3.63-3.45,6.42-6.91,8.33-10.31l5.77,7.76c0.1,0.13,0.25,0.23,0.41,0.25c0.16,0.03,0.33-0.02,0.47-0.12
		c0.13-0.1,0.22-0.25,0.25-0.41c0.02-0.16-0.02-0.33-0.12-0.46L37.91,38.99z M36.56,39.26c-1.66,2.92-4.09,5.99-7.46,9.19
		l-0.23,0.22l-0.24-0.22c-3.44-3.14-6.12-6.31-7.99-9.48c-0.23-0.4-0.46-0.8-0.66-1.19c-1.59-3.04-2.44-6.07-2.49-9.07
		c-0.06-3.62,1.04-7.18,3.34-10.6c0.24-0.36,0.49-0.71,0.76-1.07c1.77-2.36,4.12-4.66,7.06-6.87l0.23-0.17l0.21,0.19
		c2.21,1.99,4.45,4.29,6.28,6.89c0.25,0.36,0.5,0.73,0.74,1.1c1.49,2.33,2.62,4.9,3.12,7.69c0.66,3.69,0.19,7.76-2.02,12.17
		C37.01,38.45,36.79,38.85,36.56,39.26z"/>
</g>
</svg>
