<?xml version="1.0" encoding="utf-8"?>
<!-- Generator: Adobe Illustrator 28.3.0, SVG Export Plug-In . SVG Version: 6.00 Build 0)  -->
<svg version="1.1" id="Layer_1" xmlns="http://www.w3.org/2000/svg" xmlns:xlink="http://www.w3.org/1999/xlink" x="0px" y="0px"
	 viewBox="0 0 57 57" style="enable-background:new 0 0 57 57;" xml:space="preserve">
<style type="text/css">
	.st0{fill:#00AEEF;}
	.st1{fill:#6D6E71;}
	.st2{fill:#1F2A44;}
	.st3{fill:#1C75BC;}
	.st4{fill:#414042;}
	.st5{fill:#FFFFFF;}
	.st6{fill:url(#SVGID_1_);}
	.st7{fill:url(#SVGID_00000124143578715358943220000004194459162145902783_);}
	.st8{fill:url(#SVGID_00000168112669417725769110000004993331340267247494_);}
	.st9{fill:url(#SVGID_00000041284368817581874930000000703963206746489525_);}
	.st10{fill:url(#SVGID_00000029748937807717786890000004674289851370454185_);}
	.st11{fill:url(#SVGID_00000029029424193053130180000013453622283467238304_);}
	.st12{fill:url(#SVGID_00000139291939182266678300000004542924780042497696_);}
	.st13{fill:url(#SVGID_00000088839626692027648860000015100210938473014159_);}
	.st14{fill:url(#SVGID_00000098901807664800804190000008304796341516852115_);}
	.st15{fill:url(#SVGID_00000060722520612248748750000005685501260583599258_);}
	.st16{fill:none;stroke:#C9A14A;stroke-width:0.75;stroke-miterlimit:10;}
	.st17{fill:#C9A14A;}
	.st18{fill:none;stroke:#000000;stroke-width:0.5;stroke-miterlimit:10;}
	.st19{fill:none;stroke:#A7A9AC;stroke-width:0.75;stroke-miterlimit:10;}
	.st20{fill:#808285;}
	.st21{fill:url(#SVGID_00000152246622075126488340000015959390760966578868_);}
	.st22{fill:url(#SVGID_00000014619560976114288680000016081659086262226566_);}
	.st23{fill:#F1F2F2;}
	.st24{fill:url(#SVGID_00000168096691011014670670000002240740772199904955_);}
	.st25{fill:url(#SVGID_00000176733282970968684570000013986116102945982638_);}
	.st26{fill:url(#SVGID_00000098196784692144304130000008490796728352856766_);}
	.st27{fill:url(#SVGID_00000090268739167367980860000011621183949165834371_);}
	.st28{fill:url(#SVGID_00000018238809961337884560000011875320648172326560_);}
	.st29{fill:url(#SVGID_00000011744063773306739760000001089777847775656366_);}
	.st30{fill:url(#SVGID_00000165918842391244655450000009685397499156479924_);}
	.st31{fill:url(#SVGID_00000086654442243518695890000015015206809699400103_);}
	.st32{fill:url(#SVGID_00000139287967366792914340000003920645761478388867_);}
	.st33{fill:url(#SVGID_00000048471531205321035860000012560678939145519749_);}
	.st34{fill:url(#SVGID_00000083053325976556901870000015772287116249175716_);}
	.st35{fill:url(#SVGID_00000087412771379725495010000008705666161561646764_);}
	.st36{fill:url(#SVGID_00000137109956414873636950000004950856616161131177_);}
	.st37{fill:url(#SVGID_00000116924158976467465820000016771198937883965313_);}
	.st38{fill:url(#SVGID_00000008107515141731229640000008748550990057102006_);}
	.st39{fill:url(#SVGID_00000067211683599980617420000010353836868540637103_);}
	.st40{fill:url(#SVGID_00000073721611817635548990000017468314777250712249_);}
	.st41{fill:url(#SVGID_00000140711621366046502020000017314861865856252052_);}
	.st42{fill:url(#SVGID_00000165206536302158123130000014136394706173993863_);}
	.st43{fill:url(#SVGID_00000088850888478728406250000011061790298333642121_);}
	.st44{fill:url(#SVGID_00000052815577929244491990000002358477783072979337_);}
	.st45{fill:url(#SVGID_00000139291586150903747440000018301103369565122210_);}
	.st46{fill:url(#SVGID_00000157987428081809133180000007715868749367513499_);}
	.st47{fill:url(#SVGID_00000119806486601364368290000013521144374645582503_);}
	.st48{fill:url(#SVGID_00000036215550635535359020000012974078839848370098_);}
	.st49{fill:url(#SVGID_00000029040157740686262680000002027495941419144884_);}
	.st50{fill:url(#SVGID_00000158013673529838751740000014553609552755769273_);}
	.st51{fill:url(#SVGID_00000022537224942432574220000000210434690270194054_);}
	.st52{fill:url(#SVGID_00000084488995166190379960000002716819078912935600_);}
	.st53{fill:url(#SVGID_00000098935678393290089890000010535607771112508034_);}
	.st54{fill:url(#SVGID_00000095340658710978155270000012017956149240265106_);}
	.st55{fill:url(#SVGID_00000096775834607538239280000016198497652483025305_);}
	.st56{clip-path:url(#XMLID_00000085947697224121555600000009448045785777987208_);fill:#414042;}
	.st57{fill:#808285;stroke:#E6E7E8;stroke-width:1.5;stroke-miterlimit:10;}
	.st58{fill:#414042;stroke:#E6E7E8;stroke-width:1.5;stroke-miterlimit:10;}
	.st59{fill:#A7A9AC;stroke:#E6E7E8;stroke-width:1.5;stroke-miterlimit:10;}
	.st60{fill:#6D6E71;stroke:#E6E7E8;stroke-miterlimit:10;}
	.st61{fill:#6D6E71;stroke:#E6E7E8;stroke-width:1.5;stroke-miterlimit:10;}
	.st62{fill:#808285;stroke:#E6E7E8;stroke-miterlimit:10;}
	.st63{fill:#E6E7E8;}
	.st64{fill:#6D6E71;stroke:#E6E7E8;stroke-width:2;stroke-miterlimit:10;}
	.st65{clip-path:url(#XMLID_00000170968470804724411620000011859422009099037374_);fill:#414042;}
	.st66{clip-path:url(#XMLID_00000176016146098406481110000008785436781813556139_);fill:#414042;}
	.st67{clip-path:url(#XMLID_00000002347371293046073040000011273301700657539220_);fill:#414042;}
	.st68{fill:#A7A9AC;}
	.st69{fill:#F7F8F8;}
	.st70{fill:#6F6D70;}
	.st71{clip-path:url(#XMLID_00000145781326692006323140000012677078194587623865_);fill:#414042;}
	.st72{clip-path:url(#XMLID_00000165943728244626759260000017198279402079464622_);fill:#414042;}
	.st73{clip-path:url(#XMLID_00000055665953127230550840000014233167670650036126_);fill:#414042;}
	.st74{fill:#939598;stroke:#E6E7E8;stroke-width:1.5;stroke-miterlimit:10;}
	.st75{fill:#FFFFFF;stroke:#939598;stroke-width:0.5;stroke-miterlimit:10;}
	.st76{fill:#939598;}
	.st77{fill-rule:evenodd;clip-rule:evenodd;fill:#939598;}
	.st78{fill:#050404;}
	.st79{fill:#82532B;}
	.st80{fill:#885222;}
	.st81{fill:#E1B082;}
	.st82{fill:#E1B183;}
	.st83{fill:#794D30;}
	.st84{fill:#895425;}
	.st85{fill:#E2B082;}
	.st86{fill:#5E2E11;}
	.st87{fill:#E3B48A;}
	.st88{fill:#895223;}
	.st89{fill:#895323;}
	.st90{fill:#613013;}
	.st91{fill:#5F2F12;}
	.st92{fill:#5D2F12;}
	.st93{fill:#5A2D10;}
	.st94{fill:#8E5727;}
	.st95{fill:#5C2F12;}
	.st96{fill:#010101;}
	.st97{fill:#8C5827;}
	.st98{fill:#0C0908;}
	.st99{fill:#090606;}
	.st100{fill:#100A09;}
	.st101{fill:#5D2E11;}
	.st102{fill:url(#SVGID_00000054259083887832079200000004314212485892326842_);}
	.st103{fill:url(#SVGID_00000000207245959393085350000004394734345750696127_);}
	.st104{fill:url(#SVGID_00000044156157287736570980000016898940267279176836_);}
	.st105{fill:url(#SVGID_00000005260061357592642350000002851238603265539763_);}
	.st106{fill:url(#SVGID_00000041987079347543115340000012590652071554297272_);}
	.st107{fill:url(#SVGID_00000119827584668779502300000015716623552052158129_);}
	.st108{fill:url(#SVGID_00000128459384099021228840000006963122795928438669_);}
	.st109{fill:url(#SVGID_00000094582321513699988930000007875467136010617771_);}
	.st110{fill:url(#SVGID_00000140712569958911545650000003381654770941203365_);}
	.st111{fill:url(#SVGID_00000075122678664442862220000005085328821450651031_);}
	.st112{fill:url(#SVGID_00000175308990847142645390000003537764955413005751_);}
	.st113{fill:url(#SVGID_00000070096107973038072610000014351771782058077615_);}
	.st114{fill:url(#SVGID_00000021800836303315236800000003023016056371189691_);}
	.st115{fill:url(#SVGID_00000041978126795012409840000002649320048779894191_);}
	.st116{fill:url(#SVGID_00000103260876010130421050000004314892855104502664_);}
	.st117{fill:url(#SVGID_00000057870486607793726340000015340981555016459451_);}
	.st118{fill:url(#SVGID_00000103225081060760675940000004242176807934551937_);}
	.st119{fill:url(#SVGID_00000176036412439740753120000000245332116599296156_);}
	.st120{fill:#ED1C24;stroke:#006838;stroke-width:0.25;stroke-miterlimit:10;}
	.st121{fill:#A7A9AC;stroke:#006838;stroke-width:0.25;stroke-miterlimit:10;}
	.st122{fill:#27AAE1;stroke:#006838;stroke-width:0.25;stroke-miterlimit:10;}
	.st123{fill:#F15A29;stroke:#006838;stroke-width:0.25;stroke-miterlimit:10;}
	.st124{fill:#939598;stroke:#006838;stroke-width:0.25;stroke-miterlimit:10;}
	.st125{fill:#9E1F63;stroke:#006838;stroke-width:0.25;stroke-miterlimit:10;}
	.st126{fill:#1C75BC;stroke:#006838;stroke-width:0.25;stroke-miterlimit:10;}
	.st127{fill:#2B3990;stroke:#006838;stroke-width:0.25;stroke-miterlimit:10;}
	.st128{fill:#603913;stroke:#006838;stroke-width:0.25;stroke-miterlimit:10;}
	.st129{fill:#C2B59B;stroke:#006838;stroke-width:0.25;stroke-miterlimit:10;}
	.st130{fill:#414042;stroke:#006838;stroke-width:0.25;stroke-miterlimit:10;}
	.st131{fill:#EC008C;stroke:#006838;stroke-width:0.25;stroke-miterlimit:10;}
	.st132{fill:#58595B;stroke:#006838;stroke-width:0.25;stroke-miterlimit:10;}
	.st133{fill:#5BCBF5;stroke:#006838;stroke-width:0.25;stroke-miterlimit:10;}
	.st134{fill:#39B54A;stroke:#006838;stroke-width:0.25;stroke-miterlimit:10;}
</style>
<g>
	<g>
		<path id="p1_00000034063950295282399630000002926252854307512704_" class="st5" d="M16.36,5.8c0.33,0.07,0.54,0.3,0.85,0.42
			c0.32,0.11,0.59,0.31,0.84,0.53c0.4,0.35,0.77,0.72,1.15,1.09c0.14-0.28,0.27-0.54,0.49-0.76c0.3-0.31,0.73-0.53,1.17-0.5
			c0.52,0.06,0.93,0.35,1.34,0.65c1.09,0.81,2.1,1.75,3.07,2.69c0.83,0.77,1.65,1.53,2.54,2.23c0.51,0.4,1.02,0.71,1.48,1.18
			c0.42,0.42,0.72,0.93,1.08,1.42c0.4,0.56,0.82,1.12,1.26,1.65c0.12-0.38,0.24-0.74,0.5-1.05c0.33-0.4,0.81-0.57,1.32-0.59
			c0.28,0,0.5,0.11,0.75,0.23c0.33-0.48,0.76-0.86,1.33-1c0.38-0.09,0.87-0.16,1.23,0.05c0.23,0.13,0.34,0.35,0.41,0.6
			c0.16,0.6,0.1,1.26,0.15,1.88c0.03,0.29,0.02,0.59,0.07,0.87c0.12,0.57,0.43,1.1,0.64,1.67c0.29,0.68,0.51,1.4,0.8,2.08
			c0.42,0.85,0.87,1.69,1.38,2.49c0.3,0.48,0.69,0.87,1.03,1.32c-0.1,0.19-0.18,0.39-0.25,0.6c-0.38-0.54-0.87-0.98-1.23-1.55
			c-0.53-0.85-1.04-1.74-1.43-2.67c-0.11-0.25-0.18-0.52-0.31-0.76c-0.07-0.18-0.33-0.21-0.5-0.26c-0.43-0.12-0.84-0.08-1.19-0.37
			c0.55-0.14,0.97,0.07,1.5,0.14c-0.08-0.2-0.12-0.49-0.36-0.56c-0.36-0.12-0.75-0.12-1.12-0.23c0.37-0.16,0.72-0.1,1.1-0.09
			c-0.17-0.57-0.45-1.09-0.59-1.67c-0.28-0.04-0.62-0.03-0.88-0.16c-0.19-0.15-0.26-0.46-0.31-0.68c-0.08-0.45-0.18-0.96-0.09-1.42
			c0.08-0.41,0.52-0.64,0.82-0.9c-0.55-0.11-0.99,0.02-1.41,0.38c-0.59,0.53-0.77,1.29-0.84,2.04c-0.14,0.82-0.1,1.61-0.09,2.44
			c0,0.29,0.12,0.51,0.31,0.72c0.5,0.54,1.04,1.01,1.48,1.63c0.36,0.49,0.52,1.02,0.98,1.44c0.5,0.46,0.95,0.97,1.46,1.42
			c0.19,0.18,0.41,0.17,0.65,0.2c0.25,0.03,0.52,0.07,0.7,0.27l-0.03,0.11c-0.15,0.03-0.31,0.05-0.46,0.07
			c0.25,0.28,0.52,0.55,0.77,0.83c0.44,0.52,0.82,1.08,1.09,1.71c0.14,0.31,0.28,0.66,0.27,1c0.01,0.09-0.03,0.12-0.12,0.08
			c-0.2-0.3-0.29-0.67-0.48-0.99c-0.49-0.88-1.15-1.67-1.92-2.33c-0.7-0.64-1.44-1.23-2.15-1.86c-0.04,0.36-0.02,0.76-0.14,1.1
			c-0.02,0.08-0.07,0.12-0.16,0.12c-0.11-0.38-0.04-0.81-0.09-1.2c-0.06-0.57-0.29-1.1-0.65-1.55c-0.5-0.64-1.14-1.2-1.69-1.8
			c-1.18-1.26-2.23-2.65-3.22-4.06c-0.46-0.61-0.88-1.25-1.31-1.88c-0.42-0.61-0.97-1.04-1.57-1.46c-0.8-0.55-1.5-1.21-2.21-1.88
			c-0.95-0.86-1.83-1.77-2.84-2.56c-0.1,0.22-0.19,0.46-0.35,0.64c-0.17,0.19-0.4,0.34-0.63,0.43c-0.23,0.09-0.51,0.05-0.75,0.05
			c-0.36-0.35-0.87-0.69-1.09-1.15c-0.17-0.32,0-0.7,0.07-1.02C19.78,7.6,19.49,8,19.7,8.34c0.31,0.44,0.75,0.81,1.13,1.18
			c0.83,0.88,1.67,1.74,2.52,2.6c0.48,0.48,0.99,0.94,1.51,1.37c0.65,0.52,1.26,1.05,1.77,1.72c1.13,1.49,2.18,3.05,3.2,4.61
			c0.36,0.53,0.7,1.12,1.15,1.58c0.23,0.25,0.52,0.39,0.8,0.57c0.12,0.07,0.13,0.18,0.19,0.29c-0.62-0.01-1.05-0.35-1.49-0.74
			c-0.66-0.61-1.16-1.45-1.69-2.18c-0.59-0.81-1.09-1.68-1.69-2.48c-0.32-0.44-0.61-0.91-0.93-1.35c-0.62-0.87-1.59-1.5-2.38-2.24
			c-0.86-0.81-1.69-1.65-2.48-2.52c-0.83-0.82-1.59-1.7-2.43-2.5c-0.07,0.29-0.13,0.55-0.36,0.76c-0.39,0.38-1,0.69-1.54,0.46
			c-0.41-0.19-0.74-0.6-0.99-0.97c-0.2-0.31-0.34-0.67-0.23-1.04c0.11-0.31,0.41-0.57,0.61-0.82c-0.48,0.17-0.85,0.56-0.99,1.05
			c-0.1,0.42,0.1,0.92,0.27,1.31c0.16,0.32,0.31,0.69,0.56,0.95c0.41,0.06,0.81-0.07,1.18,0.19c0.42,0.3,0.68,0.88,0.97,1.3
			c0.56,0.83,1.25,1.58,1.87,2.37c1.15,1.33,2.16,2.7,3.44,3.91c0.55,0.51,0.95,1.11,1.39,1.72c0.84,1.12,1.51,2.37,2.33,3.51
			c0.25,0.35,0.56,0.65,0.77,1.03c-0.23-0.02-0.38-0.12-0.54-0.28c-0.98-0.93-1.58-2.03-2.32-3.14c-0.42-0.67-0.77-1.37-1.29-1.97
			c-0.45-0.56-0.99-0.96-1.5-1.45c-1.05-0.98-1.88-2.1-2.79-3.2c-0.41-0.48-0.75-1-1.17-1.48c-0.19,0.28-0.35,0.54-0.67,0.69
			c-0.38,0.19-0.94,0.27-1.28-0.03c-0.32-0.26-0.57-0.62-0.75-0.99c-0.13-0.29-0.25-0.57-0.1-0.88c0.22-0.49,0.67-0.63,1.1-0.87
			c-0.43,0-0.81,0.07-1.12,0.39c-0.43,0.42-0.46,1-0.32,1.56c0.26,0.99,0.78,1.92,1.3,2.78c0.33,0.01,0.74-0.01,1.03,0.19
			c0.38,0.25,0.57,0.64,0.8,1.02c0.37,0.63,0.81,1.21,1.2,1.84c0.66,1.08,1.32,2.13,2.1,3.13c0.28,0.35,0.58,0.69,0.83,1.07
			c0.38,0.56,0.71,1.16,1.07,1.73c0.34,0.55,0.71,1.08,1,1.65c0.17,0.31,0.24,0.61,0.56,0.81c0.25,0.16,0.45,0.3,0.58,0.58
			c-0.21-0.09-0.41-0.2-0.61-0.32c0.04,0.34,0.09,0.71,0.05,1.05c-0.01,0.15-0.11,0.25-0.18,0.37c-0.07-0.45-0.05-0.86-0.22-1.29
			c-0.28-0.74-0.76-1.41-1.18-2.08c-0.56-0.83-1.02-1.75-1.63-2.54c-0.69-0.83-1.42-1.55-1.98-2.49c-0.47-0.8-0.95-1.6-1.47-2.38
			c-0.27,0.25-0.53,0.47-0.91,0.51c-0.33,0.05-0.62-0.04-0.83-0.31c-0.27-0.34-0.5-0.81-0.49-1.26c0.05-0.37,0.54-0.62,0.79-0.86
			c-0.32,0.1-0.61,0.19-0.83,0.45c-0.25,0.28-0.27,0.7-0.25,1.06c0.06,0.99,0.48,1.87,0.89,2.76c0.44,0.93,1,1.8,1.44,2.73
			c0.46,0.96,1.04,1.86,1.51,2.81c0.4,0.82,0.8,1.64,1.17,2.47c0.49,1.15,0.68,2.31,1.06,3.49c0.45,1.37,0.89,2.72,1.65,3.96
			c1.13,1.83,2.24,3.6,3.61,5.26c0.71,0.91,1.52,1.71,2.35,2.51c-0.15-0.09-0.3-0.17-0.46-0.26c-0.2,0.2-0.41,0.38-0.63,0.56
			c0.06-0.1,0.12-0.19,0.17-0.29c-0.75-0.8-1.52-1.57-2.19-2.44c-1.17-1.48-2.15-3.06-3.16-4.65c-0.53-0.85-1-1.74-1.32-2.7
			c-0.36-0.88-0.6-1.8-0.85-2.71c-0.19-0.78-0.37-1.54-0.68-2.28c-0.2-0.48-0.38-0.95-0.66-1.39c-0.34,0.16-0.65,0.29-1.03,0.25
			c0.28-0.23,0.59-0.41,0.9-0.59c-0.23-0.53-0.48-1.06-0.77-1.56c-0.49-0.86-0.92-1.76-1.38-2.64c-0.38-0.72-0.71-1.47-1.17-2.14
			c-0.09,0.17-0.24,0.36-0.2,0.56c0.04,0.29,0.15,0.57,0.2,0.86c0.14,0.8,0.14,1.61-0.06,2.39c-0.04,0.19-0.11,0.34,0.04,0.51
			c0.32,0.41,0.61,0.82,0.83,1.29c0.3,0.58,0.45,1.21,0.68,1.82c0.21,0.05,0.42,0.09,0.63,0.15c-0.02,0.07-0.03,0.14-0.06,0.21
			c-0.11,0.05-0.25,0.07-0.37,0.09l-0.12,0.02c-0.03,0.14-0.06,0.28-0.09,0.43c-0.03,0.15-0.06,0.29-0.11,0.44
			c-0.33,0.42-0.65,0.84-1.21,0.93l0.04-0.14c0.27-0.34,0.57-0.58,0.73-1c0.17-0.43,0.1-0.85-0.01-1.28
			c-0.19-0.74-0.5-1.43-0.87-2.09c-0.11-0.19-0.25-0.36-0.41-0.52c-0.13,0.07-0.26,0.15-0.39,0.22c-0.44,0.24-0.92,0.26-1.4,0.17
			c0.11-0.1,0.21-0.16,0.34-0.22c0.4-0.11,0.79-0.2,1.05-0.55c0.23-0.33,0.29-0.8,0.33-1.19c0.07-0.75,0.05-1.48-0.23-2.19
			c-0.33,0.06-0.67,0.09-1.01,0.08c-0.22-0.03-0.42-0.11-0.63-0.19c-0.01-0.06-0.02-0.11-0.03-0.17c0.28,0.02,0.56,0.03,0.85-0.01
			c0.3-0.08,0.61-0.15,0.79-0.43c0.17-0.28,0.33-0.63,0.36-0.96c-0.04-0.31-0.21-0.61-0.31-0.91c-0.19-0.55-0.34-1.08-0.31-1.67
			c0.01-0.39,0.15-0.72,0.3-1.08c-0.2-0.08-0.38-0.21-0.61-0.15c-0.39,0.09-0.6,0.46-0.73,0.8c-0.19,0.54-0.31,1.1-0.48,1.65
			c-0.22,0.79-0.52,1.62-0.59,2.43c-0.06,0.57-0.1,1.13-0.15,1.7c-0.09,0.99-0.31,1.99-0.3,2.99c-0.01,0.54,0.29,0.89,0.51,1.36
			c0.36,0.75,0.7,1.52,0.95,2.31c0.19,0.61,0.39,1.21,0.52,1.84c0.13,0.63,0.16,1.24,0.33,1.86c0.15,0.54,0.34,1.07,0.66,1.53
			c0.26,0.37,0.56,0.71,0.79,1.11c0.39,0.65,0.63,1.36,0.89,2.07c0.45,1.19,0.85,2.48,1.51,3.57c0.56,0.88,1.26,1.68,1.96,2.43
			c-0.28-0.22-0.51-0.45-0.89-0.44c0.01-0.29-0.06-0.49-0.25-0.71c-0.12,0.12-0.24,0.24-0.37,0.36c-0.44-0.54-0.89-1.09-1.24-1.7
			c-0.35-0.65-0.62-1.36-0.9-2.05c-0.35-0.86-0.62-1.75-0.95-2.62c-0.24-0.64-0.61-1.17-1.01-1.72c-0.25-0.34-0.44-0.71-0.56-1.11
			c-0.2-0.72-0.33-1.44-0.43-2.17c-0.06-0.47-0.21-0.91-0.36-1.36c-0.31-0.9-0.66-1.8-1.04-2.67c-0.22-0.53-0.58-0.91-0.68-1.45
			c-0.1-0.51,0.01-1.09,0.07-1.61c0.19-1.24,0.32-2.48,0.43-3.73c0.14-1.22,0.73-2.43,1-3.62c-0.02-0.29-0.13-0.57-0.16-0.86
			c-0.21-1.3-0.42-2.6-0.53-3.91c-0.05-0.5,0.07-1.05,0.36-1.47c0.25-0.37,0.62-0.57,1.03-0.71c-0.24-0.75-0.7-1.68-0.5-2.47
			c0.12-0.63,0.64-1.06,1.19-1.32C15.71,5.76,16.04,5.74,16.36,5.8z M15.6,9.93C15.35,9.44,15.08,9,14.97,8.45
			c-0.1-0.52-0.02-1.11,0.34-1.52c0.28-0.33,0.65-0.51,1-0.74c-0.5,0.03-0.91,0.19-1.25,0.56c-0.34,0.33-0.43,0.8-0.34,1.26
			c0.1,0.49,0.26,1.01,0.43,1.48C15.23,9.73,15.42,9.8,15.6,9.93z M17.02,6.67c-0.38,0.16-0.77,0.41-1,0.76
			c-0.18,0.26,0.07,0.6,0.21,0.82c0.24,0.34,0.55,0.79,0.95,0.94c0.49,0.11,1.14-0.31,1.28-0.79c-0.02-0.23-0.17-0.46-0.28-0.66
			c-0.21-0.33-0.44-0.67-0.7-0.96C17.34,6.65,17.21,6.59,17.02,6.67z M20.84,7.01c-0.36,0.17-0.71,0.52-0.75,0.93
			c0.04,0.33,0.28,0.58,0.51,0.79c0.2,0.17,0.43,0.37,0.68,0.46c0.21,0.06,0.46-0.09,0.63-0.2c0.16-0.12,0.38-0.3,0.39-0.51
			c-0.05-0.23-0.23-0.44-0.36-0.62c-0.22-0.27-0.44-0.58-0.72-0.79C21.09,6.97,20.98,6.96,20.84,7.01z M14.25,15.01
			c0.03,0.25,0.07,0.49,0.11,0.74c0.31-0.31,0.57-0.64,1.05-0.65c0.31,0.02,0.62,0.19,0.92,0.29c-0.15-0.4-0.39-0.74-0.61-1.1
			c-0.58-0.99-1.02-2.17-0.72-3.32c0.14-0.21,0.3-0.41,0.45-0.61c-0.18-0.06-0.39-0.18-0.58-0.14c-0.4,0.06-0.76,0.4-0.91,0.77
			c-0.16,0.43-0.09,0.96-0.06,1.41C13.99,13.27,14.13,14.14,14.25,15.01z M16.88,10.71c-0.34,0.12-0.69,0.33-0.88,0.64
			c-0.12,0.18,0.01,0.38,0.09,0.54c0.2,0.36,0.44,0.73,0.75,1c0.18,0.15,0.4,0.1,0.6,0.05c0.24-0.07,0.51-0.2,0.65-0.41
			c0.09-0.23-0.06-0.53-0.15-0.74c-0.17-0.35-0.33-0.72-0.56-1.03C17.28,10.57,17.03,10.67,16.88,10.71z M36.2,17.09
			c0.22,0,0.44,0.01,0.66,0.01c0.02-0.47,0.02-0.95-0.01-1.42c-0.02-0.39,0.01-0.74-0.11-1.12c-0.31,0.2-0.75,0.49-0.81,0.89
			C35.88,16,35.99,16.58,36.2,17.09z M32.28,16.1c-0.09,0.27-0.19,0.57-0.18,0.86c0.01,0.21,0.18,0.42,0.31,0.59
			c0.36,0.45,0.68,0.91,1.1,1.32c0.02-0.43,0.01-0.86,0.03-1.28c0.05-0.76,0.2-1.49,0.4-2.22C33.28,15.03,32.48,15.39,32.28,16.1z
			 M17.42,15.8c-0.28,0.11-0.62,0.29-0.75,0.57c0.06,0.4,0.28,0.85,0.52,1.16c0.17,0.2,0.4,0.15,0.62,0.09
			c0.18-0.05,0.44-0.16,0.51-0.36c0.01-0.28-0.1-0.57-0.2-0.82c-0.1-0.23-0.21-0.51-0.4-0.67C17.62,15.76,17.52,15.76,17.42,15.8z"
			/>
	</g>
	<g>
		<path id="p2_00000119798039334853932740000013333932195819730347_" class="st76" d="M16.31,6.19c-0.36,0.23-0.73,0.41-1,0.74
			c-0.35,0.41-0.44,1-0.34,1.52C15.08,9,15.35,9.44,15.6,9.93c-0.19-0.13-0.38-0.2-0.46-0.43c-0.18-0.47-0.34-0.99-0.43-1.48
			c-0.09-0.46,0.01-0.92,0.34-1.26C15.4,6.39,15.8,6.22,16.31,6.19z"/>
	</g>
	<g>
		<path id="p3_00000149360541184611525550000009283870509353802924_" class="st76" d="M16.37,6.64c-0.21,0.25-0.51,0.51-0.61,0.82
			c-0.11,0.37,0.03,0.73,0.23,1.04c0.25,0.37,0.58,0.78,0.99,0.97c0.54,0.23,1.15-0.08,1.54-0.46c0.23-0.2,0.29-0.47,0.36-0.76
			c0.84,0.8,1.6,1.68,2.43,2.5c0.79,0.87,1.63,1.71,2.48,2.52c0.79,0.74,1.76,1.37,2.38,2.24c0.32,0.44,0.6,0.91,0.93,1.35
			c0.59,0.81,1.1,1.67,1.69,2.48c0.53,0.73,1.03,1.57,1.69,2.18c0.43,0.4,0.87,0.73,1.49,0.74c-0.06-0.11-0.07-0.22-0.19-0.29
			c-0.28-0.18-0.57-0.32-0.8-0.57c-0.45-0.46-0.79-1.05-1.15-1.58c-1.02-1.56-2.07-3.12-3.2-4.61c-0.51-0.67-1.12-1.2-1.77-1.72
			c-0.53-0.43-1.03-0.89-1.51-1.37c-0.85-0.86-1.69-1.72-2.52-2.6c0.06-0.01,0.12-0.01,0.18-0.02c0.24-0.01,0.53,0.04,0.75-0.05
			C22,9.36,22.23,9.21,22.4,9.02c0.17-0.18,0.25-0.42,0.35-0.64c1.01,0.79,1.89,1.7,2.84,2.56c0.71,0.67,1.41,1.33,2.21,1.88
			c0.6,0.42,1.15,0.85,1.57,1.46c0.43,0.63,0.85,1.27,1.31,1.88c0.99,1.41,2.04,2.8,3.22,4.06c0.55,0.6,1.19,1.15,1.69,1.8
			c0.35,0.45,0.59,0.98,0.65,1.55c0.06,0.39-0.01,0.82,0.09,1.2c0.09,0,0.14-0.04,0.16-0.12c0.13-0.34,0.11-0.74,0.14-1.1
			c0.71,0.63,1.45,1.22,2.15,1.86c0.77,0.65,1.43,1.45,1.92,2.33c0.18,0.32,0.28,0.68,0.48,0.99c0.09,0.04,0.13,0.01,0.12-0.08
			c0-0.34-0.14-0.69-0.27-1c-0.28-0.63-0.66-1.19-1.09-1.71c-0.25-0.28-0.52-0.55-0.77-0.83c0.15-0.02,0.31-0.04,0.46-0.07
			l0.03-0.11c-0.17-0.2-0.45-0.23-0.7-0.27c-0.37-0.49-0.8-0.93-1.18-1.41c-0.51-0.61-1.08-1.15-1.52-1.82
			c-0.45-0.66-0.9-1.31-1.22-2.05c-0.36-0.84-0.7-1.67-0.89-2.57c0.07-0.76,0.25-1.52,0.84-2.04c0.42-0.36,0.86-0.49,1.41-0.38
			c-0.3,0.25-0.74,0.48-0.82,0.9c-0.09,0.46,0.01,0.97,0.09,1.42c0.05,0.22,0.11,0.54,0.31,0.68c0.26,0.13,0.6,0.13,0.88,0.16
			c0.14,0.58,0.42,1.1,0.59,1.67c-0.38-0.01-0.73-0.07-1.1,0.09c0.37,0.1,0.76,0.11,1.12,0.23c0.23,0.07,0.27,0.37,0.36,0.56
			c-0.53-0.08-0.96-0.28-1.5-0.14c0.35,0.29,0.75,0.26,1.19,0.37c0.16,0.05,0.42,0.08,0.5,0.26c0.12,0.24,0.2,0.51,0.31,0.76
			c0.39,0.93,0.9,1.81,1.43,2.67c0.36,0.57,0.85,1,1.23,1.55c0.64,0.9,0.65,1.9,0.69,2.96c0.11,1.68,0.09,3.36,0.2,5.04
			c0.06,1.3-0.03,2.73,0.26,4c0.19,0.88,0.64,1.66,1.22,2.34c0.36,0.44,0.79,0.81,1.15,1.26c-0.48,0.32-0.96,0.62-1.4,0.98
			c-0.46,0.35-0.85,0.77-1.28,1.14c-0.5,0.44-0.96,0.97-1.42,1.47c-0.66,0.71-1.24,1.48-1.87,2.22c-0.26,0.02-0.51,0.04-0.77,0.06
			c-0.82-0.09-1.64-0.71-1.79-1.55c-0.07-0.38-0.01-0.81,0.02-1.19c-0.06,0.02-0.12,0.04-0.18,0.06c-0.23,0.4-0.27,0.87-0.17,1.32
			c0.07,0.31,0.23,0.62,0.39,0.89c-0.18-0.06-0.36-0.11-0.53-0.21c-0.43-0.26-0.85-0.52-1.25-0.81c0.2-0.09,0.39-0.21,0.56-0.34
			c-0.52-0.1-0.98,0.17-1.5,0.06c-0.44-0.08-0.85-0.42-1.23-0.65c-0.78-0.47-1.53-0.99-2.26-1.53c-0.82-0.8-1.64-1.6-2.35-2.51
			c-1.37-1.66-2.48-3.43-3.61-5.26c-0.77-1.24-1.2-2.58-1.65-3.96c-0.38-1.18-0.57-2.34-1.06-3.49c-0.37-0.84-0.76-1.65-1.17-2.47
			c-0.47-0.96-1.05-1.85-1.51-2.81c-0.44-0.93-1-1.79-1.44-2.73c-0.41-0.89-0.83-1.77-0.89-2.76c-0.02-0.36,0-0.78,0.25-1.06
			c0.22-0.26,0.52-0.35,0.83-0.45c-0.25,0.24-0.74,0.49-0.79,0.86c-0.02,0.44,0.22,0.92,0.49,1.26c0.21,0.26,0.5,0.36,0.83,0.31
			c0.38-0.04,0.64-0.26,0.91-0.51c0.51,0.78,0.99,1.58,1.47,2.38c0.56,0.94,1.28,1.67,1.98,2.49c0.61,0.79,1.07,1.71,1.63,2.54
			c0.41,0.67,0.89,1.35,1.18,2.08c0.17,0.43,0.15,0.84,0.22,1.29c0.08-0.12,0.17-0.22,0.18-0.37c0.04-0.34-0.02-0.71-0.05-1.05
			c0.2,0.11,0.4,0.22,0.61,0.32c-0.13-0.28-0.33-0.42-0.58-0.58c-0.32-0.19-0.39-0.5-0.56-0.81c-0.3-0.57-0.67-1.1-1-1.65
			c-0.36-0.57-0.7-1.17-1.07-1.73c-0.25-0.38-0.55-0.71-0.83-1.07c-0.78-1-1.44-2.06-2.1-3.13c-0.38-0.62-0.83-1.2-1.2-1.84
			c-0.23-0.38-0.42-0.77-0.8-1.02c-0.29-0.2-0.69-0.18-1.03-0.19c-0.53-0.87-1.05-1.8-1.3-2.78c-0.14-0.56-0.11-1.13,0.32-1.56
			c0.31-0.32,0.69-0.39,1.12-0.39c-0.44,0.23-0.88,0.38-1.1,0.87c-0.15,0.31-0.03,0.59,0.1,0.88c0.18,0.37,0.43,0.73,0.75,0.99
			c0.35,0.3,0.9,0.22,1.28,0.03c0.32-0.15,0.48-0.41,0.67-0.69c0.41,0.47,0.76,1,1.17,1.48c0.91,1.1,1.74,2.21,2.79,3.2
			c0.52,0.49,1.05,0.9,1.5,1.45c0.52,0.6,0.87,1.3,1.29,1.97c0.74,1.11,1.34,2.21,2.32,3.14c0.17,0.16,0.31,0.26,0.54,0.28
			c-0.22-0.38-0.52-0.68-0.77-1.03c-0.82-1.13-1.49-2.39-2.33-3.51c-0.44-0.6-0.84-1.2-1.39-1.72c-1.28-1.21-2.3-2.58-3.44-3.91
			c-0.62-0.79-1.31-1.54-1.87-2.37c-0.29-0.42-0.55-1-0.97-1.3c-0.36-0.26-0.77-0.13-1.18-0.19c-0.25-0.26-0.4-0.63-0.56-0.95
			c-0.17-0.39-0.37-0.88-0.27-1.31C15.52,7.19,15.89,6.81,16.37,6.64z"/>
	</g>
	<g>
		<path id="p4_00000065762704254438982020000011326562885147007105_" class="st5" d="M17.02,6.67c0.19-0.08,0.32-0.02,0.45,0.11
			c0.27,0.29,0.49,0.63,0.7,0.96c0.11,0.2,0.26,0.43,0.28,0.66c-0.14,0.48-0.78,0.91-1.28,0.79c-0.4-0.15-0.71-0.61-0.95-0.94
			c-0.13-0.22-0.39-0.56-0.21-0.82C16.26,7.08,16.65,6.83,17.02,6.67z"/>
	</g>
	<g>
		<path id="p5_00000048492856810226409570000004252964410953707393_" class="st5" d="M20.84,7.01c0.14-0.06,0.25-0.04,0.37,0.05
			c0.28,0.22,0.5,0.52,0.72,0.79c0.13,0.18,0.31,0.39,0.36,0.62c-0.01,0.21-0.23,0.4-0.39,0.51c-0.17,0.12-0.41,0.26-0.63,0.2
			C21.03,9.1,20.8,8.91,20.6,8.73c-0.23-0.21-0.48-0.46-0.51-0.79C20.13,7.53,20.48,7.18,20.84,7.01z"/>
	</g>
	<g>
		<path id="p6_00000037691004577165311950000018441622234342077330_" class="st76" d="M19.99,7.33C19.92,7.66,19.88,8,20.05,8.32
			c0.22,0.46,0.92,0.86,1.28,1.21c-0.06,0.01-0.44-0.01-0.5-0.01c-0.38-0.38-0.82-0.74-1.13-1.18C19.49,8,19.78,7.6,19.99,7.33z"/>
	</g>
	<g>
		<path id="p7_00000161598411239409952890000002834656172309909928_" class="st76" d="M14.88,10.22c0.19-0.04,0.4,0.08,0.58,0.14
			c-0.15,0.21-0.31,0.4-0.45,0.61c-0.24,0.33-0.34,0.72-0.33,1.13c0.03,0.75,0.19,1.46,0.32,2.18c-0.31,0.21-0.53,0.43-0.75,0.73
			c-0.12-0.87-0.26-1.74-0.33-2.61c-0.04-0.45-0.11-0.98,0.06-1.41C14.12,10.61,14.48,10.27,14.88,10.22z"/>
	</g>
	<g>
		<path id="p11_00000128453875922369887150000012227203422684480403_" class="st5" d="M16.88,10.71c0.15-0.04,0.4-0.14,0.5,0.03
			c0.23,0.31,0.38,0.69,0.56,1.03c0.09,0.21,0.24,0.51,0.15,0.74c-0.14,0.21-0.42,0.34-0.65,0.41c-0.2,0.05-0.42,0.1-0.6-0.05
			c-0.31-0.27-0.55-0.64-0.75-1c-0.08-0.17-0.21-0.37-0.09-0.54C16.19,11.03,16.54,10.82,16.88,10.71z"/>
	</g>
	<g>
		<path id="p13_00000152981675803027500040000015561149027910490501_" class="st76" d="M15.01,10.97c-0.3,1.15,0.14,2.33,0.72,3.32
			c0.21,0.37,0.46,0.7,0.61,1.1c-0.3-0.09-0.61-0.26-0.92-0.29c-0.48,0.01-0.74,0.33-1.05,0.65c-0.04-0.25-0.07-0.49-0.11-0.74
			c0.22-0.3,0.44-0.52,0.75-0.73c-0.13-0.72-0.29-1.44-0.32-2.18C14.67,11.69,14.77,11.3,15.01,10.97z"/>
	</g>
	<g>
		<path id="p19_00000125565072515431256720000006876197929094591138_" class="st5" d="M36.74,14.56c0.12,0.37,0.09,0.73,0.11,1.12
			c0.03,0.47,0.03,0.95,0.01,1.42c-0.22,0-0.44,0-0.66-0.01c-0.21-0.51-0.33-1.09-0.28-1.64C35.99,15.05,36.42,14.76,36.74,14.56z"
			/>
	</g>
	<g>
		<path id="p22_00000102542194759528406220000006331365309914558132_" class="st76" d="M33.94,15.36c-0.2,0.73-0.36,1.47-0.4,2.22
			c-0.26-0.16-0.5-0.3-0.7-0.54c-0.23-0.27-0.38-0.64-0.55-0.95C32.48,15.39,33.28,15.03,33.94,15.36z"/>
	</g>
	<g>
		<path id="p23_00000135675831565307857410000009661285365537689506_" class="st76" d="M18.08,34.27c-0.17,0.05-0.3,0.14-0.43,0.26
			c0.62,0.06,1.15-0.16,1.68-0.45c0.35-0.2,0.69-0.44,1.01-0.69c0.2,0.09,0.45,0.16,0.6,0.32c0.17,0.25,0.23,0.59,0.35,0.87
			c0.19,0.43,0.43,0.83,0.65,1.24c0.36,0.65,0.82,1.19,1.23,1.8c0.38,0.54,0.73,1.09,1.11,1.62c0.37,0.52,0.76,0.97,1.07,1.51
			c0.34,0.57,0.58,1.18,0.76,1.81c0.13,0.47,0.2,1.02,0.08,1.5c-0.05,0.21-0.15,0.38-0.35,0.47c-1.21,0.53-2.6,0.33-3.73-0.29
			c-0.32-0.32-0.59-0.69-0.92-1c-0.7-0.76-1.41-1.56-1.96-2.43c-0.66-1.09-1.06-2.38-1.51-3.57c-0.26-0.71-0.49-1.42-0.89-2.07
			c-0.23-0.4-0.53-0.73-0.79-1.11c-0.32-0.46-0.52-1-0.66-1.53c-0.17-0.62-0.2-1.24-0.33-1.86c-0.13-0.63-0.33-1.22-0.52-1.84
			c-0.24-0.79-0.59-1.56-0.95-2.31c-0.22-0.47-0.51-0.82-0.51-1.36c-0.01-0.99,0.21-1.99,0.3-2.99c0.05-0.57,0.1-1.14,0.15-1.7
			c0.07-0.81,0.37-1.64,0.59-2.43c0.16-0.55,0.29-1.11,0.48-1.65c0.13-0.35,0.34-0.72,0.73-0.8c0.23-0.06,0.4,0.07,0.61,0.15
			c-0.15,0.35-0.29,0.69-0.3,1.08c-0.03,0.58,0.12,1.12,0.31,1.67c-0.08,0.85-0.42,1.57-0.83,2.31c-0.28,0.04-0.56,0.02-0.85,0.01
			c0.01,0.06,0.02,0.11,0.03,0.17c0.21,0.08,0.4,0.16,0.63,0.19c0.2,0.03,0.4,0.05,0.59,0.07c0.24,0.9,0.32,1.82,0.04,2.72
			c-0.15,0.43-0.34,0.84-0.77,1.05c-0.13,0.05-0.24,0.12-0.34,0.22c0.48,0.09,0.96,0.08,1.4-0.17c0.4,0.52,0.68,1.1,0.91,1.71
			c0.22,0.59,0.33,1.24,0.28,1.87c-0.03,0.37-0.15,0.74-0.24,1.1l-0.04,0.14c0.57-0.09,0.88-0.5,1.21-0.93
			c0.42,0.29,0.86,0.34,1.36,0.34c0.42,0.62,0.66,1.3,0.86,2.02c0.08,0.3,0.21,0.65,0.16,0.97c-0.03,0.22-0.07,0.44-0.1,0.66"/>
	</g>
	<g>
		<path id="p24_00000105389224673785735170000007459632731689530519_" class="st5" d="M17.42,15.8c0.1-0.03,0.2-0.04,0.3-0.03
			c0.19,0.16,0.3,0.44,0.4,0.67c0.1,0.25,0.21,0.55,0.2,0.82c-0.07,0.19-0.33,0.3-0.51,0.36c-0.22,0.06-0.45,0.11-0.62-0.09
			c-0.25-0.32-0.46-0.77-0.52-1.16C16.8,16.08,17.14,15.9,17.42,15.8z"/>
	</g>
	<g>
		<path id="p27_00000176724839800942563070000004551460320890145196_" class="st76" d="M32.28,16.1c0.17,0.31,0.32,0.68,0.55,0.95
			c0.2,0.23,0.45,0.38,0.7,0.54c-0.02,0.43-0.02,0.86-0.03,1.28c-0.41-0.4-0.74-0.87-1.1-1.32c-0.12-0.17-0.3-0.37-0.31-0.59
			C32.1,16.67,32.19,16.37,32.28,16.1z"/>
	</g>
	<g>
		<path id="p29_00000183234414439099477480000013032712129323768500_" class="st76" d="M34.18,16.79c0.18,0.9,0.53,1.73,0.89,2.57
			c0.32,0.74,0.76,1.39,1.22,2.05c0.44,0.67,1.01,1.21,1.52,1.82c0.39,0.48,0.82,0.92,1.18,1.41c-0.24-0.03-0.46-0.03-0.65-0.2
			c-0.51-0.44-0.96-0.96-1.46-1.42c-0.46-0.42-0.62-0.96-0.98-1.44c-0.44-0.61-0.98-1.08-1.48-1.63c-0.2-0.21-0.31-0.43-0.31-0.72
			C34.08,18.4,34.03,17.61,34.18,16.79z"/>
	</g>
	<g>
		<path id="p30_00000164478069217398671190000010317444845858086305_" class="st76" d="M15.95,18.48c0.1,0.3,0.28,0.6,0.31,0.91
			c-0.02,0.33-0.18,0.68-0.36,0.96c-0.18,0.28-0.49,0.36-0.79,0.43C15.53,20.05,15.87,19.33,15.95,18.48z"/>
	</g>
	<g>
		<path id="p36_00000003065371263473698780000007354592270460722594_" class="st76" d="M16.61,20.18c0.46,0.67,0.79,1.43,1.17,2.14
			c0.46,0.88,0.88,1.78,1.38,2.64c0.28,0.51,0.53,1.03,0.77,1.56c-0.31,0.18-0.62,0.36-0.9,0.59c0.38,0.04,0.7-0.09,1.03-0.25
			c0.28,0.44,0.46,0.92,0.66,1.39c0.31,0.74,0.49,1.51,0.68,2.28c0.24,0.92,0.49,1.83,0.85,2.71c0.32,0.96,0.79,1.84,1.32,2.7
			c1.01,1.59,1.99,3.17,3.16,4.65c0.67,0.87,1.45,1.64,2.19,2.44c-0.06,0.1-0.11,0.2-0.17,0.29c-0.16,0.15-0.28,0.3-0.39,0.49
			c0.38-0.03,0.6-0.25,0.88-0.49c0.34,0.24,0.66,0.49,0.99,0.74c0.14,0.11,0.27,0.2,0.3,0.39c0.06,0.3,0.03,0.64-0.02,0.94
			c-0.13,0.77-0.35,1.51-0.82,2.14c-0.45,0.61-1.06,1.14-1.67,1.59c-0.61,0.44-1.22,0.85-1.91,1.13c0.44-0.98,0.92-1.85,0.92-2.97
			c0.02-0.49-0.09-0.89-0.33-1.31c0.24-0.06,0.38-0.12,0.5-0.35c-0.62-0.03-1.17,0.19-1.78,0.23c-0.83,0.06-1.72,0-2.51-0.29
			c0.11-0.05,0.22-0.1,0.33-0.14c0.51,0.09,0.97,0.22,1.49,0.2c0.78-0.02,1.62-0.17,2.29-0.6c0.16-0.09,0.22-0.24,0.31-0.39
			c-0.23,0.01-0.46,0.02-0.67,0.11c-0.75,0.28-1.57,0.56-2.38,0.51c-0.54-0.01-1.01-0.22-1.55-0.18c-0.23-0.16-0.47-0.29-0.71-0.42
			c0.03-0.14,0.07-0.27,0.1-0.41c1.13,0.62,2.53,0.82,3.73,0.29c0.2-0.09,0.3-0.27,0.35-0.47c0.12-0.48,0.05-1.02-0.08-1.5
			c-0.18-0.64-0.42-1.24-0.76-1.81c-0.32-0.54-0.7-0.99-1.07-1.51c-0.38-0.53-0.73-1.08-1.11-1.62c-0.42-0.61-0.87-1.15-1.23-1.8
			c-0.22-0.41-0.46-0.81-0.65-1.24c-0.13-0.28-0.18-0.61-0.35-0.87c-0.15-0.16-0.4-0.24-0.6-0.32c0.35-0.27,0.66-0.58,0.94-0.93
			c0.14-0.17,0.21-0.37,0.27-0.57c-0.48,0.25-0.85,0.7-1.29,1.03c0.02-0.22,0.07-0.44,0.1-0.66c0.05-0.32-0.08-0.67-0.16-0.97
			c-0.2-0.71-0.44-1.4-0.86-2.02c-0.5,0-0.94-0.04-1.36-0.34c0.04-0.14,0.08-0.29,0.11-0.44c0.33,0.28,0.71,0.34,1.11,0.44
			c-0.11-0.24-0.23-0.53-0.41-0.73c-0.11-0.14-0.34-0.14-0.5-0.15c0.12-0.02,0.26-0.03,0.37-0.09c0.03-0.07,0.05-0.14,0.06-0.21
			c0.04-0.32,0.06-0.66-0.03-0.96c-0.1-0.3-0.26-0.6-0.41-0.88c-0.33-0.59-0.71-1.13-1.2-1.6c-0.15-0.15-0.33-0.25-0.53-0.33
			c0.2-0.79,0.2-1.6,0.06-2.39c-0.05-0.29-0.15-0.57-0.2-0.86C16.37,20.54,16.51,20.34,16.61,20.18z"/>
	</g>
	<g>
		<path id="p37_00000017502186481841725150000016293696728882045611_" class="st76" d="M15.94,21.07c0.28,0.7,0.3,1.44,0.23,2.19
			c-0.05,0.39-0.11,0.86-0.33,1.19c-0.26,0.35-0.65,0.44-1.05,0.55c0.43-0.21,0.62-0.62,0.77-1.05c0.28-0.9,0.21-1.82-0.04-2.72
			c-0.2-0.02-0.4-0.05-0.59-0.07C15.27,21.17,15.61,21.13,15.94,21.07z"/>
	</g>
	<g>
		<path id="p44_00000094600606880967858590000006511175930044671108_" class="st76" d="M16.55,23.99c0.19,0.08,0.37,0.18,0.53,0.33
			c0.49,0.47,0.88,1.01,1.2,1.6c0.15,0.28,0.31,0.57,0.41,0.88c0.1,0.31,0.07,0.65,0.03,0.96c-0.21-0.05-0.42-0.1-0.63-0.15
			c-0.23-0.61-0.38-1.23-0.68-1.82c-0.22-0.47-0.51-0.89-0.83-1.29C16.44,24.33,16.51,24.18,16.55,23.99z"/>
	</g>
	<g>
		<path id="p45_00000160165145274553597660000004413186645265802115_" class="st76" d="M16.24,24.83c0.16,0.15,0.3,0.32,0.41,0.52
			c0.36,0.67,0.68,1.36,0.87,2.09c0.11,0.43,0.18,0.85,0.01,1.28c-0.16,0.42-0.46,0.66-0.73,1c0.09-0.36,0.21-0.73,0.24-1.1
			c0.04-0.63-0.06-1.28-0.28-1.87c-0.23-0.61-0.51-1.19-0.91-1.71C15.98,24.97,16.11,24.9,16.24,24.83z"/>
	</g>
	<g>
		<path id="p49_00000161605919939414114100000011501110566297324721_" class="st76" d="M18.17,28.07l0.12-0.02
			c0.16,0.02,0.39,0.01,0.5,0.15c0.18,0.2,0.29,0.49,0.41,0.73c-0.4-0.1-0.78-0.16-1.11-0.44C18.11,28.35,18.14,28.21,18.17,28.07z"
			/>
	</g>
	<g>
		<path id="p61_00000178177028732900231670000017517515643577088128_" class="st76" d="M21.28,44.25c0.24,0.14,0.48,0.27,0.72,0.4
			c0.25,0.13,0.49,0.26,0.71,0.42c0.17,0.12,0.34,0.25,0.52,0.35c-0.11,0.04-0.22,0.09-0.33,0.14c-0.25-0.09-0.48-0.2-0.73-0.29
			c-0.04,0.03-0.07,0.06-0.11,0.1c0.62,0.45,1.33,0.62,2.08,0.72c0.85,0.07,1.71,0.03,2.55-0.12c0.24,0.42,0.35,0.82,0.33,1.31
			c-0.01,1.12-0.48,1.99-0.92,2.97c-0.36,0.17-0.73,0.34-1.11,0.46c-0.7,0.24-1.4,0.33-2.13,0.44c-0.41,0.05-0.86,0.12-1.27,0.02
			c-0.2-0.05-0.39-0.15-0.46-0.36c-0.11-0.34-0.07-0.75-0.03-1.11c0.16-1.21,0.34-2.5,0.23-3.72
			C21.27,45.41,21.27,44.83,21.28,44.25z"/>
	</g>
	<g>
		<path id="p62_00000116929970413432119980000002960564431380731546_" class="st5" d="M35.82,44.29c0.06-0.02,0.12-0.04,0.18-0.06
			c-0.03,0.39-0.09,0.81-0.02,1.19c0.15,0.84,0.98,1.46,1.79,1.55c0.02,0.08,0.04,0.17,0.06,0.25c-0.34,0.08-0.59,0.06-0.91-0.08
			c-0.36-0.15-0.6-0.4-0.89-0.64c-0.16-0.28-0.32-0.58-0.39-0.89C35.55,45.16,35.59,44.69,35.82,44.29z"/>
	</g>
	<g>
		<path id="p63_00000159427645472445308230000015003777191730540948_" class="st5" d="M27.33,44.63c-0.09,0.15-0.15,0.3-0.31,0.39
			c-0.66,0.43-1.51,0.58-2.29,0.6c-0.52,0.01-0.99-0.11-1.49-0.2c-0.18-0.1-0.35-0.22-0.52-0.35c0.54-0.05,1.01,0.16,1.55,0.18
			c0.81,0.05,1.63-0.23,2.38-0.51C26.87,44.65,27.1,44.64,27.33,44.63z"/>
	</g>
	<g>
		<path id="p64_00000067956949236457011380000006700265125695563165_" class="st5" d="M22.17,45.27c0.25,0.08,0.49,0.2,0.73,0.29
			c0.79,0.29,1.68,0.35,2.51,0.29c0.61-0.04,1.16-0.25,1.78-0.23c-0.12,0.23-0.26,0.29-0.5,0.35c-0.84,0.15-1.7,0.19-2.55,0.12
			c-0.75-0.1-1.46-0.28-2.08-0.72C22.1,45.34,22.14,45.31,22.17,45.27z"/>
	</g>
	<g>
		<path id="p65_00000160150431224241854870000008435728700013515955_" class="st76" d="M34.25,45.48c0.4,0.29,0.82,0.56,1.25,0.81
			c0.17,0.1,0.35,0.15,0.53,0.21c0.29,0.25,0.53,0.49,0.89,0.64c0.32,0.15,0.57,0.16,0.91,0.08c-0.02-0.08-0.04-0.17-0.06-0.25
			c0.26-0.01,0.51-0.04,0.77-0.06c-0.45,0.59-0.91,1.18-1.32,1.79c-0.16,0.23-0.33,0.45-0.51,0.66c-0.33-0.38-0.6-0.8-0.91-1.19
			c-0.42-0.54-0.89-1.02-1.33-1.55c-0.3-0.36-0.64-0.67-0.9-1.06C33.8,45.54,34.03,45.51,34.25,45.48z"/>
	</g>
</g>
</svg>
