<?xml version="1.0" encoding="utf-8"?>
<!-- Generator: Adobe Illustrator 28.3.0, SVG Export Plug-In . SVG Version: 6.00 Build 0)  -->
<svg version="1.1" id="Layer_1" xmlns="http://www.w3.org/2000/svg" xmlns:xlink="http://www.w3.org/1999/xlink" x="0px" y="0px"
	 viewBox="0 0 57 57" style="enable-background:new 0 0 57 57;" xml:space="preserve">
<style type="text/css">
	.st0{fill:#00AEEF;}
	.st1{fill:#6D6E71;}
	.st2{fill:#1F2A44;}
	.st3{fill:#1C75BC;}
	.st4{fill:#414042;}
	.st5{fill:#FFFFFF;}
	.st6{fill:url(#SVGID_1_);}
	.st7{fill:url(#SVGID_00000132055948162268954180000012252355365716444035_);}
	.st8{fill:url(#SVGID_00000162322205289174325960000016093313567371044994_);}
	.st9{fill:url(#SVGID_00000003097770819996522390000006724273920941711807_);}
	.st10{fill:url(#SVGID_00000076579972607841969040000004815335437169441445_);}
	.st11{fill:url(#SVGID_00000036227200765442743070000011064977560900923564_);}
	.st12{fill:url(#SVGID_00000013178824564270073570000016046007898390761406_);}
	.st13{fill:url(#SVGID_00000051379991265509568380000004620666978805082545_);}
	.st14{fill:url(#SVGID_00000076592705461379702320000015626031871276846247_);}
	.st15{fill:url(#SVGID_00000103254943648951556980000013276747746832695950_);}
	.st16{fill:none;stroke:#C9A14A;stroke-width:0.75;stroke-miterlimit:10;}
	.st17{fill:#C9A14A;}
	.st18{fill:none;stroke:#000000;stroke-width:0.5;stroke-miterlimit:10;}
	.st19{fill:none;stroke:#A7A9AC;stroke-width:0.75;stroke-miterlimit:10;}
	.st20{fill:#808285;}
	.st21{fill:url(#SVGID_00000029039435274131400400000000006270618384514236_);}
	.st22{fill:url(#SVGID_00000002351779492339365420000017738148757051824525_);}
	.st23{fill:#F1F2F2;}
	.st24{fill:url(#SVGID_00000182520006799909425270000006278592270264538282_);}
	.st25{fill:url(#SVGID_00000075152334940252784130000017152510142498966451_);}
	.st26{fill:url(#SVGID_00000163033998040934283970000017115016608246684303_);}
	.st27{fill:url(#SVGID_00000134952357512149995920000010893347547983942557_);}
	.st28{fill:url(#SVGID_00000165924093342354897400000007456813663145289880_);}
	.st29{fill:url(#SVGID_00000124884809832427093460000006278263893702413991_);}
	.st30{fill:url(#SVGID_00000015356195169083775020000010202010452466978204_);}
	.st31{fill:url(#SVGID_00000085947859887201289380000006027610688107551401_);}
	.st32{fill:url(#SVGID_00000061468974692305101980000004155571545189516940_);}
	.st33{fill:url(#SVGID_00000093165756668720283750000013539042185791389852_);}
	.st34{fill:url(#SVGID_00000153698915282668158830000014417872357157960374_);}
	.st35{fill:url(#SVGID_00000095304911120253142650000014202960658460137393_);}
	.st36{fill:url(#SVGID_00000059273874851886584000000005119978731306750890_);}
	.st37{fill:url(#SVGID_00000003818009878065255950000018191990612576063634_);}
	.st38{fill:url(#SVGID_00000170255192524599177120000007915875777234130090_);}
	.st39{fill:url(#SVGID_00000010310304087336337080000014929261633198839458_);}
	.st40{fill:url(#SVGID_00000134209890402049226270000006436698898941081529_);}
	.st41{fill:url(#SVGID_00000141442941148559844950000008846423320230584494_);}
	.st42{fill:url(#SVGID_00000002379313213264827840000008481954856665179828_);}
	.st43{fill:url(#SVGID_00000143596180469706175190000012769030155225327294_);}
	.st44{fill:url(#SVGID_00000088849085719054683610000016658883138282102194_);}
	.st45{fill:url(#SVGID_00000183956118334661682330000014007825670824710804_);}
	.st46{fill:url(#SVGID_00000075861998033482897580000016923421401119817103_);}
	.st47{fill:url(#SVGID_00000040567150174061932180000002970364765212386734_);}
	.st48{fill:url(#SVGID_00000140705085154331659480000002750278301802836885_);}
	.st49{fill:url(#SVGID_00000026864618540006350240000003620523631054648487_);}
	.st50{fill:url(#SVGID_00000037667340192631289590000005490979231140522917_);}
	.st51{fill:url(#SVGID_00000165225507810169543480000018420740192759050630_);}
	.st52{fill:url(#SVGID_00000136405083704552646850000010234231020672362913_);}
	.st53{fill:url(#SVGID_00000082332629065327574840000010322036831637546112_);}
	.st54{fill:url(#SVGID_00000114772230620503572590000011112487619330282424_);}
	.st55{fill:url(#SVGID_00000148622863820787586610000006640114840546857356_);}
	.st56{clip-path:url(#XMLID_00000117665394516740380120000007820603255946610365_);fill:#414042;}
	.st57{fill:#808285;stroke:#E6E7E8;stroke-width:1.5;stroke-miterlimit:10;}
	.st58{fill:#414042;stroke:#E6E7E8;stroke-width:1.5;stroke-miterlimit:10;}
	.st59{fill:#A7A9AC;stroke:#E6E7E8;stroke-width:1.5;stroke-miterlimit:10;}
	.st60{fill:#6D6E71;stroke:#E6E7E8;stroke-miterlimit:10;}
	.st61{fill:#6D6E71;stroke:#E6E7E8;stroke-width:1.5;stroke-miterlimit:10;}
	.st62{fill:#808285;stroke:#E6E7E8;stroke-miterlimit:10;}
	.st63{fill:#E6E7E8;}
	.st64{fill:#6D6E71;stroke:#E6E7E8;stroke-width:2;stroke-miterlimit:10;}
	.st65{clip-path:url(#XMLID_00000037672627905969659520000006393649166123045805_);fill:#414042;}
	.st66{clip-path:url(#XMLID_00000127723103865989791910000000761232297268927367_);fill:#414042;}
	.st67{clip-path:url(#XMLID_00000133494440665863574250000013611704699246018179_);fill:#414042;}
	.st68{fill:#A7A9AC;}
	.st69{fill:#F7F8F8;}
	.st70{fill:#6F6D70;}
	.st71{clip-path:url(#XMLID_00000001663056225225062540000007996759685425178516_);fill:#414042;}
	.st72{clip-path:url(#XMLID_00000070817217841189776880000005275124680478055048_);fill:#414042;}
	.st73{clip-path:url(#XMLID_00000008857455553030540300000015267684190990646966_);fill:#414042;}
	.st74{fill:#939598;stroke:#E6E7E8;stroke-width:1.5;stroke-miterlimit:10;}
	.st75{fill:#FFFFFF;stroke:#939598;stroke-width:0.5;stroke-miterlimit:10;}
	.st76{fill:#939598;}
	.st77{fill-rule:evenodd;clip-rule:evenodd;fill:#939598;}
	.st78{fill:#050404;}
	.st79{fill:#82532B;}
	.st80{fill:#885222;}
	.st81{fill:#E1B082;}
	.st82{fill:#E1B183;}
	.st83{fill:#794D30;}
	.st84{fill:#895425;}
	.st85{fill:#E2B082;}
	.st86{fill:#5E2E11;}
	.st87{fill:#E3B48A;}
	.st88{fill:#895223;}
	.st89{fill:#895323;}
	.st90{fill:#613013;}
	.st91{fill:#5F2F12;}
	.st92{fill:#5D2F12;}
	.st93{fill:#5A2D10;}
	.st94{fill:#8E5727;}
	.st95{fill:#5C2F12;}
	.st96{fill:#010101;}
	.st97{fill:#8C5827;}
	.st98{fill:#0C0908;}
	.st99{fill:#090606;}
	.st100{fill:#100A09;}
	.st101{fill:#5D2E11;}
	.st102{fill:url(#SVGID_00000159433932139723423530000015463784814184850603_);}
	.st103{fill:url(#SVGID_00000026864748486864628660000014521479279524375475_);}
	.st104{fill:url(#SVGID_00000147220140497048208050000012010435397343112595_);}
	.st105{fill:url(#SVGID_00000015320490356265060080000005050494548636535960_);}
	.st106{fill:url(#SVGID_00000087379829416673673070000004420548632704399807_);}
	.st107{fill:url(#SVGID_00000085251753293116543990000004450064929988793273_);}
	.st108{fill:url(#SVGID_00000133518751043376384710000000513137086551356548_);}
	.st109{fill:url(#SVGID_00000072271861485662631230000007451283115241632661_);}
	.st110{fill:url(#SVGID_00000144319559671545990230000010703633165146152850_);}
	.st111{fill:url(#SVGID_00000146462890141129095730000015724574923804489372_);}
	.st112{fill:url(#SVGID_00000142176607556828759900000005022202976698478247_);}
	.st113{fill:url(#SVGID_00000150089588879728351660000002685695027595646870_);}
	.st114{fill:url(#SVGID_00000167383379819453592010000006669085302972556205_);}
	.st115{fill:url(#SVGID_00000056405915534031360180000008265074333029939073_);}
	.st116{fill:url(#SVGID_00000057124470766381520070000010996007219997878942_);}
	.st117{fill:url(#SVGID_00000116928325798355101220000015260221318896575893_);}
	.st118{fill:url(#SVGID_00000040562987562769216370000015824086134542526648_);}
	.st119{fill:url(#SVGID_00000011714703233950247860000009640999930474339007_);}
	.st120{fill:#ED1C24;stroke:#006838;stroke-width:0.25;stroke-miterlimit:10;}
	.st121{fill:#A7A9AC;stroke:#006838;stroke-width:0.25;stroke-miterlimit:10;}
	.st122{fill:#27AAE1;stroke:#006838;stroke-width:0.25;stroke-miterlimit:10;}
	.st123{fill:#F15A29;stroke:#006838;stroke-width:0.25;stroke-miterlimit:10;}
	.st124{fill:#939598;stroke:#006838;stroke-width:0.25;stroke-miterlimit:10;}
	.st125{fill:#9E1F63;stroke:#006838;stroke-width:0.25;stroke-miterlimit:10;}
	.st126{fill:#1C75BC;stroke:#006838;stroke-width:0.25;stroke-miterlimit:10;}
	.st127{fill:#2B3990;stroke:#006838;stroke-width:0.25;stroke-miterlimit:10;}
	.st128{fill:#603913;stroke:#006838;stroke-width:0.25;stroke-miterlimit:10;}
	.st129{fill:#C2B59B;stroke:#006838;stroke-width:0.25;stroke-miterlimit:10;}
	.st130{fill:#414042;stroke:#006838;stroke-width:0.25;stroke-miterlimit:10;}
	.st131{fill:#EC008C;stroke:#006838;stroke-width:0.25;stroke-miterlimit:10;}
	.st132{fill:#58595B;stroke:#006838;stroke-width:0.25;stroke-miterlimit:10;}
	.st133{fill:#5BCBF5;stroke:#006838;stroke-width:0.25;stroke-miterlimit:10;}
	.st134{fill:#39B54A;stroke:#006838;stroke-width:0.25;stroke-miterlimit:10;}
</style>
<g>
	<g>
		<path class="st76" d="M31.76,15.01c2.31,0,4.18-1.88,4.18-4.19c0-2.31-1.88-4.18-4.19-4.17c-2.31,0-4.18,1.88-4.18,4.19
			C27.57,13.15,29.45,15.01,31.76,15.01z"/>
		<path class="st76" d="M31.75,15.17c-1.16,0-2.25-0.45-3.07-1.27c-0.82-0.82-1.28-1.91-1.28-3.07c0-1.16,0.45-2.25,1.27-3.07
			c0.82-0.82,1.91-1.27,3.07-1.28c0,0,0,0,0.01,0c2.39,0,4.34,1.94,4.35,4.34c0,1.16-0.45,2.25-1.27,3.07
			C34.01,14.72,32.92,15.17,31.75,15.17L31.75,15.17C31.75,15.17,31.75,15.17,31.75,15.17z M31.75,6.81
			C31.75,6.81,31.75,6.81,31.75,6.81c-1.08,0-2.09,0.42-2.85,1.18c-0.76,0.76-1.17,1.77-1.17,2.84c0,1.07,0.42,2.08,1.18,2.84
			c0.76,0.76,1.77,1.17,2.84,1.17c0,0,0,0,0.01,0l0,0c1.07,0,2.08-0.42,2.84-1.18c0.76-0.76,1.18-1.77,1.17-2.84
			C35.77,8.61,33.96,6.81,31.75,6.81z"/>
	</g>
	<g>
		<path class="st76" d="M34.85,24.93c0.55,0.38,1.26,0.44,1.87,0.17l8.37-3.8c0.62-0.28,1.04-0.87,1.11-1.54
			c0.07-0.68-0.23-1.34-0.78-1.73c-0.55-0.4-1.27-0.47-1.89-0.19l-7.39,3.35l-1.05-0.74l-3.44-2.4c-1.66-0.02-3.25-0.62-4.52-1.68
			l-7.19,1.54l-2.65,0.57c-0.39,0.08-0.75,0.29-1.02,0.58l-6.84,7.6c-0.69,0.78-0.62,1.97,0.16,2.67c0.78,0.7,1.97,0.64,2.67-0.13
			l6.43-7.14l1.29-0.05l2.25-0.09v0.02l-2.38,5.94l-0.02,0.06l-0.61,1.51h0.01l-2.93,5.37l-0.81,1.48l-8.19,9.67
			c-0.61,0.73-0.79,1.72-0.47,2.62c0.32,0.89,1.1,1.55,2.03,1.72c0.93,0.17,1.89-0.17,2.5-0.9l8.37-9.88
			c0.11-0.14,0.21-0.29,0.3-0.44l1.18-2.15l1.11-2.03c0.59-1.08,1.93-1.49,3.03-0.94l3.55,1.78l1.45,0.72L31,47.85
			c0.08,1.41,1.24,2.5,2.65,2.5c0.05,0,0.11,0,0.16-0.01c0.7-0.04,1.36-0.36,1.83-0.89c0.47-0.53,0.71-1.22,0.67-1.92l-0.76-12.92
			c-0.06-0.95-0.61-1.79-1.46-2.22l-1.24-0.62l-4.63-2.31c-0.1-0.05-0.1-0.05-0.1-0.05l-0.09-0.05l3.64-6.67l1.13,0.79v0.01
			L34.85,24.93z"/>
		<path class="st76" d="M33.68,50.51c-0.01,0-0.02,0-0.03,0c0,0,0,0,0,0c-1.49,0-2.72-1.17-2.81-2.66l-0.67-11.29l-4.91-2.46
			c-1.02-0.52-2.26-0.13-2.81,0.87l-2.28,4.18c-0.09,0.17-0.2,0.32-0.32,0.47l-8.37,9.88c-0.65,0.77-1.67,1.13-2.66,0.95
			C7.82,50.29,7,49.59,6.66,48.64c-0.34-0.95-0.15-2.01,0.5-2.78l8.18-9.66l3.7-6.78l0.01-0.04l0.63-1.57l2.3-5.73l-3.22,0.13
			l-6.39,7.09c-0.76,0.83-2.06,0.89-2.9,0.14c-0.84-0.75-0.91-2.05-0.17-2.9l6.84-7.6c0.3-0.32,0.68-0.54,1.1-0.63l2.65-0.57
			l7.27-1.56l0.06,0.05c1.24,1.04,2.81,1.62,4.42,1.64l0.05,0l3.48,2.43L36.15,21l7.31-3.31c0.67-0.3,1.46-0.22,2.05,0.2
			c0.6,0.43,0.92,1.15,0.85,1.88c-0.07,0.73-0.53,1.37-1.2,1.68l-8.37,3.8c-0.66,0.29-1.44,0.22-2.03-0.19l0,0l-2.12-1.48v-0.01
			l-0.91-0.64l-3.47,6.36l0.03,0.01l5.87,2.93c0.9,0.45,1.49,1.36,1.55,2.36l0.76,12.92c0.05,0.75-0.21,1.48-0.71,2.04
			c-0.5,0.56-1.19,0.9-1.94,0.94C33.77,50.51,33.73,50.51,33.68,50.51z M33.65,50.19c0.05,0,0.09,0,0.14-0.01l0.01,0
			c0.67-0.04,1.28-0.33,1.72-0.83c0.44-0.5,0.67-1.14,0.63-1.81l-0.76-12.92c-0.05-0.89-0.58-1.69-1.37-2.09l-6.21-3.1l3.81-6.98
			l1.35,0.94v0.01l1.98,1.38c0.5,0.34,1.15,0.4,1.71,0.16l8.37-3.8c0.56-0.25,0.95-0.8,1.01-1.41c0.06-0.62-0.21-1.22-0.72-1.58
			c-0.5-0.36-1.17-0.43-1.73-0.17l-7.48,3.39l-1.12-0.79l-3.4-2.37c-1.64-0.04-3.24-0.63-4.51-1.67l-7.11,1.53l-2.65,0.57
			c-0.36,0.08-0.68,0.26-0.93,0.53l-6.84,7.6c-0.63,0.71-0.56,1.8,0.14,2.44c0.71,0.63,1.8,0.58,2.44-0.12l6.48-7.19l3.77-0.15v0.22
			l-0.01,0.03l-2.38,5.94l-0.02,0.06l-0.52,1.29h0.03l-0.12,0.24l-3.74,6.86L15.6,36.4l-8.19,9.67c-0.57,0.68-0.74,1.62-0.44,2.46
			c0.3,0.84,1.03,1.45,1.91,1.61c0.87,0.16,1.78-0.17,2.35-0.84l8.37-9.88c0.1-0.13,0.2-0.27,0.28-0.42l2.28-4.18
			c0.64-1.16,2.06-1.6,3.25-1.01l5.08,2.54l0.68,11.48C31.24,49.16,32.33,50.19,33.65,50.19z"/>
	</g>
	<g>
		<path class="st76" d="M45.83,41.31c-2.5,0-4.52,2.02-4.52,4.52c0,2.5,2.02,4.52,4.52,4.52c2.5,0,4.52-2.02,4.52-4.52
			C50.35,43.33,48.32,41.31,45.83,41.31z"/>
		<path class="st76" d="M45.83,50.51c-2.58,0-4.68-2.1-4.68-4.68c0-2.58,2.1-4.68,4.68-4.68c2.58,0,4.68,2.1,4.68,4.68
			C50.51,48.41,48.41,50.51,45.83,50.51z M45.83,41.47c-2.4,0-4.36,1.95-4.36,4.36c0,2.4,1.95,4.36,4.36,4.36
			c2.4,0,4.36-1.95,4.36-4.36C50.18,43.43,48.23,41.47,45.83,41.47z"/>
	</g>
</g>
</svg>
