<?xml version="1.0" encoding="utf-8"?>
<!-- Generator: Adobe Illustrator 28.3.0, SVG Export Plug-In . SVG Version: 6.00 Build 0)  -->
<svg version="1.1" id="Layer_1" xmlns="http://www.w3.org/2000/svg" xmlns:xlink="http://www.w3.org/1999/xlink" x="0px" y="0px"
	 viewBox="0 0 57 57" style="enable-background:new 0 0 57 57;" xml:space="preserve">
<style type="text/css">
	.st0{fill:#00AEEF;}
	.st1{fill:#6D6E71;}
	.st2{fill:#1F2A44;}
	.st3{fill:#1C75BC;}
	.st4{fill:#414042;}
	.st5{fill:#FFFFFF;}
	.st6{fill:url(#SVGID_1_);}
	.st7{fill:url(#SVGID_00000161593909620260639840000015477915614092530874_);}
	.st8{fill:url(#SVGID_00000178180418863736420770000018218594079823491746_);}
	.st9{fill:url(#SVGID_00000117649180671777399930000017539877471381601950_);}
	.st10{fill:url(#SVGID_00000140715722706627501610000010509295215673470907_);}
	.st11{fill:url(#SVGID_00000065074535187538785210000017376268892407619469_);}
	.st12{fill:url(#SVGID_00000016758275784284864380000016038884529680490169_);}
	.st13{fill:url(#SVGID_00000163763887218898884160000007420785784394583437_);}
	.st14{fill:url(#SVGID_00000103232464035504984210000001998670749989882294_);}
	.st15{fill:url(#SVGID_00000093879562226651548650000005000394846891483839_);}
	.st16{fill:none;stroke:#C9A14A;stroke-width:0.75;stroke-miterlimit:10;}
	.st17{fill:#C9A14A;}
	.st18{fill:none;stroke:#000000;stroke-width:0.5;stroke-miterlimit:10;}
	.st19{fill:none;stroke:#A7A9AC;stroke-width:0.75;stroke-miterlimit:10;}
	.st20{fill:#808285;}
	.st21{fill:url(#SVGID_00000063614011497968746570000003730429067913970844_);}
	.st22{fill:url(#SVGID_00000036215530186591899920000017008725730665140117_);}
	.st23{fill:#F1F2F2;}
	.st24{fill:url(#SVGID_00000114039832105449886870000008870103982449338503_);}
	.st25{fill:url(#SVGID_00000179614874921488703360000007454478905875329727_);}
	.st26{fill:url(#SVGID_00000158001224052259690340000004256860386336680093_);}
	.st27{fill:url(#SVGID_00000030484578817611082440000008230127274068593595_);}
	.st28{fill:url(#SVGID_00000110462876432692581540000009755333443196879773_);}
	.st29{fill:url(#SVGID_00000040549397220588793540000004184528635653982130_);}
	.st30{fill:url(#SVGID_00000146465389022599240790000012436595186862829222_);}
	.st31{fill:url(#SVGID_00000142876631775754624380000007988329567549069985_);}
	.st32{fill:url(#SVGID_00000100381082283006167410000015445339601862672009_);}
	.st33{fill:url(#SVGID_00000039096623297356566070000017828061198728273074_);}
	.st34{fill:url(#SVGID_00000072275960160115482850000010886523883404638380_);}
	.st35{fill:url(#SVGID_00000027585266308890179810000009592935107775032226_);}
	.st36{fill:url(#SVGID_00000106851685509694629300000003324717797968629122_);}
	.st37{fill:url(#SVGID_00000181068574784243214520000001142696568878291854_);}
	.st38{fill:url(#SVGID_00000154416368554151126810000016675843454121767359_);}
	.st39{fill:url(#SVGID_00000032620951075554095560000005342268866072918689_);}
	.st40{fill:url(#SVGID_00000033358252692211442960000000982452234734172071_);}
	.st41{fill:url(#SVGID_00000065075379482549663570000017368427004840713110_);}
	.st42{fill:url(#SVGID_00000097465791212172229080000005568650628266886558_);}
	.st43{fill:url(#SVGID_00000127032255366354798200000011477370618846549676_);}
	.st44{fill:url(#SVGID_00000013895111766727383130000018074500793531096241_);}
	.st45{fill:url(#SVGID_00000164514960955905399150000002767877073771445946_);}
	.st46{fill:url(#SVGID_00000003791392354121905070000013963737635224448156_);}
	.st47{fill:url(#SVGID_00000023984889550858913000000007431444405520065438_);}
	.st48{fill:url(#SVGID_00000013192096817303266480000004121518812070293635_);}
	.st49{fill:url(#SVGID_00000013883774873747227370000010687356237151418503_);}
	.st50{fill:url(#SVGID_00000067925738095257642170000003771267021486679697_);}
	.st51{fill:url(#SVGID_00000115500550473543428780000004993633837432342196_);}
	.st52{fill:url(#SVGID_00000161622722855562713070000013286383097428322211_);}
	.st53{fill:url(#SVGID_00000107572579626766524630000004981438419853508281_);}
	.st54{fill:url(#SVGID_00000105395058741552819220000015432011410857543053_);}
	.st55{fill:url(#SVGID_00000005976459874403108400000006813855043786524073_);}
	.st56{clip-path:url(#XMLID_00000013156303805872334150000010510846585703468222_);fill:#414042;}
	.st57{fill:#808285;stroke:#E6E7E8;stroke-width:1.5;stroke-miterlimit:10;}
	.st58{fill:#414042;stroke:#E6E7E8;stroke-width:1.5;stroke-miterlimit:10;}
	.st59{fill:#A7A9AC;stroke:#E6E7E8;stroke-width:1.5;stroke-miterlimit:10;}
	.st60{fill:#6D6E71;stroke:#E6E7E8;stroke-miterlimit:10;}
	.st61{fill:#6D6E71;stroke:#E6E7E8;stroke-width:1.5;stroke-miterlimit:10;}
	.st62{fill:#808285;stroke:#E6E7E8;stroke-miterlimit:10;}
	.st63{fill:#E6E7E8;}
	.st64{fill:#6D6E71;stroke:#E6E7E8;stroke-width:2;stroke-miterlimit:10;}
	.st65{clip-path:url(#XMLID_00000181074811827654378830000005134727663909244858_);fill:#414042;}
	.st66{clip-path:url(#XMLID_00000005974475085869782860000003523303871562125750_);fill:#414042;}
	.st67{clip-path:url(#XMLID_00000083087795112321538010000007607884085363496366_);fill:#414042;}
	.st68{fill:#A7A9AC;}
	.st69{fill:#F7F8F8;}
	.st70{fill:#6F6D70;}
	.st71{clip-path:url(#XMLID_00000157269138351731183830000012634805795181927327_);fill:#414042;}
	.st72{clip-path:url(#XMLID_00000159465639462083774570000013581950717406411666_);fill:#414042;}
	.st73{clip-path:url(#XMLID_00000077285021556509921310000017264182433718825088_);fill:#414042;}
	.st74{fill:#939598;stroke:#E6E7E8;stroke-width:1.5;stroke-miterlimit:10;}
	.st75{fill:#FFFFFF;stroke:#939598;stroke-width:0.5;stroke-miterlimit:10;}
	.st76{fill:#939598;}
	.st77{fill-rule:evenodd;clip-rule:evenodd;fill:#939598;}
	.st78{fill:#050404;}
	.st79{fill:#82532B;}
	.st80{fill:#885222;}
	.st81{fill:#E1B082;}
	.st82{fill:#E1B183;}
	.st83{fill:#794D30;}
	.st84{fill:#895425;}
	.st85{fill:#E2B082;}
	.st86{fill:#5E2E11;}
	.st87{fill:#E3B48A;}
	.st88{fill:#895223;}
	.st89{fill:#895323;}
	.st90{fill:#613013;}
	.st91{fill:#5F2F12;}
	.st92{fill:#5D2F12;}
	.st93{fill:#5A2D10;}
	.st94{fill:#8E5727;}
	.st95{fill:#5C2F12;}
	.st96{fill:#010101;}
	.st97{fill:#8C5827;}
	.st98{fill:#0C0908;}
	.st99{fill:#090606;}
	.st100{fill:#100A09;}
	.st101{fill:#5D2E11;}
	.st102{fill:url(#SVGID_00000024695942434582743260000012416532571391655569_);}
	.st103{fill:url(#SVGID_00000127739572185186928260000007135599713551508917_);}
	.st104{fill:url(#SVGID_00000134964491735456243150000014717565549426856083_);}
	.st105{fill:url(#SVGID_00000013191810482213963240000016504413141493613471_);}
	.st106{fill:url(#SVGID_00000029014623154266411970000016002673920379032750_);}
	.st107{fill:url(#SVGID_00000072962189779426307290000013273506585389933998_);}
	.st108{fill:url(#SVGID_00000111169781106023318900000004994720791836355729_);}
	.st109{fill:url(#SVGID_00000141449463573632755050000008720123278845450682_);}
	.st110{fill:url(#SVGID_00000152968814130031248080000017031815574349976722_);}
	.st111{fill:url(#SVGID_00000069383909923493379370000008576903789412072377_);}
	.st112{fill:url(#SVGID_00000056421313872457882330000016437562409085974206_);}
	.st113{fill:url(#SVGID_00000135648842030059227930000014571695030669038512_);}
	.st114{fill:url(#SVGID_00000063597906680971109820000003150454188205217202_);}
	.st115{fill:url(#SVGID_00000005237845319109011020000002123307908656654772_);}
	.st116{fill:url(#SVGID_00000029751306159837789570000008058569835697211542_);}
	.st117{fill:url(#SVGID_00000180364683542719429870000001820563992148873348_);}
	.st118{fill:url(#SVGID_00000060008852197512370130000014060324618420927383_);}
	.st119{fill:url(#SVGID_00000003088727431052280010000005947782921124363926_);}
	.st120{fill:#ED1C24;stroke:#006838;stroke-width:0.25;stroke-miterlimit:10;}
	.st121{fill:#A7A9AC;stroke:#006838;stroke-width:0.25;stroke-miterlimit:10;}
	.st122{fill:#27AAE1;stroke:#006838;stroke-width:0.25;stroke-miterlimit:10;}
	.st123{fill:#F15A29;stroke:#006838;stroke-width:0.25;stroke-miterlimit:10;}
	.st124{fill:#939598;stroke:#006838;stroke-width:0.25;stroke-miterlimit:10;}
	.st125{fill:#9E1F63;stroke:#006838;stroke-width:0.25;stroke-miterlimit:10;}
	.st126{fill:#1C75BC;stroke:#006838;stroke-width:0.25;stroke-miterlimit:10;}
	.st127{fill:#2B3990;stroke:#006838;stroke-width:0.25;stroke-miterlimit:10;}
	.st128{fill:#603913;stroke:#006838;stroke-width:0.25;stroke-miterlimit:10;}
	.st129{fill:#C2B59B;stroke:#006838;stroke-width:0.25;stroke-miterlimit:10;}
	.st130{fill:#414042;stroke:#006838;stroke-width:0.25;stroke-miterlimit:10;}
	.st131{fill:#EC008C;stroke:#006838;stroke-width:0.25;stroke-miterlimit:10;}
	.st132{fill:#58595B;stroke:#006838;stroke-width:0.25;stroke-miterlimit:10;}
	.st133{fill:#5BCBF5;stroke:#006838;stroke-width:0.25;stroke-miterlimit:10;}
	.st134{fill:#39B54A;stroke:#006838;stroke-width:0.25;stroke-miterlimit:10;}
</style>
<g>
	<g>
		<path class="st76" d="M17.93,21.91c-1.14-0.48-2.51-0.98-2.98-2.24c1.55,0.97,3.24,1.99,5.11,2.09c-1.44-0.46-2.91-0.99-4.18-1.85
			c-0.66-0.48-1.33-1.02-1.64-1.79c-0.13-0.34,0.25-0.6,0.52-0.4c1.21,1.24,2.72,2.23,4.47,2.43c-1.85-0.87-3.66-1.86-4.93-3.48
			c-0.42-0.42-2.42-3.6-0.55-2.57c-0.28-0.61-1.85-3.17-1.18-3.61c0.3-0.06,0.34,0.35,0.47,0.53c0.57,1.15,1.22,2.45,2.37,3.1
			c-0.85-0.96-1.58-1.99-1.98-3.21c-0.41-1.43-0.7-3-0.43-4.48c0.14-0.41,0.57-0.27,0.69,0.04c1.12,2.23,2.99,3.97,5.06,5.31
			c1.42,1.11,2.79,2.35,3.91,3.76c0.57,0.81,0.56,1.83,0.95,2.73c0.9-3.4-1.3-4.23-3.57-6.02c2,0.88,4.54,2.03,4.31,4.6
			c0.53-0.36,1.09-0.7,1.75-0.82c0.29-0.08,0.6-0.15,0.86-0.31c0.32-0.21,0.46-0.51,0.39-0.89c-0.05-0.15,0.01-0.38-0.21-0.4
			c-1.02-0.1-1.4-1.5-0.66-2.16c0.13-0.13,0.18-0.24,0.14-0.41c-0.08-0.36,0.03-0.68,0.34-0.89c0.17-0.12,0.44-0.12,0.61-0.26
			c0.53-0.61,1.44-0.61,2.13-0.3c0.73,0.35,0.48,0.91,0.92,1.2c0.47,0.25,0.78,0.81,0.62,1.34c-0.04,0.13-0.07,0.27-0.05,0.4
			c0.09,0.67-0.39,1.15-1.1,1.13c-0.07,0.37-0.24,0.8,0.08,1.1c0.22,0.22,0.46,0.38,0.79,0.42c0.75,0.07,1.38,0.4,1.96,0.85
			c-0.24-2.63,2.34-3.73,4.36-4.6c-2.29,1.71-4.55,2.65-3.61,6.01c0.45-1.25,0.51-2.47,1.54-3.44c1.3-1.48,2.84-2.7,4.43-3.84
			c1.55-1.18,2.8-2.75,3.7-4.47c0.1-0.29,0.49-0.48,0.64-0.13c0.26,0.73,0.05,1.54,0.05,2.3c-0.03,0.56-0.14,1.12-0.28,1.67
			c-0.35,1.48-1.16,2.74-2.13,3.89c1.19-0.77,1.81-2.1,2.41-3.33c0.11-0.14,0.18-0.45,0.39-0.4c0.54,0.23-0.31,1.82-0.47,2.22
			c-0.2,0.49-0.56,0.91-0.69,1.42c0.16-0.1,0.31-0.27,0.52-0.21c0.78,0.27-0.8,2.49-1.14,2.88c-1.23,1.53-2.99,2.48-4.68,3.37
			c1.7-0.21,3.16-1.17,4.28-2.42c0.22-0.19,0.59,0.02,0.52,0.3c-0.15,0.65-0.68,1.11-1.16,1.53c-1.28,1.12-2.96,1.64-4.49,2.24
			c1.87-0.14,3.41-1.26,5.01-2.1c-0.58,1.24-1.86,1.7-3.02,2.24c0.5-0.05,1.35-0.52,1.77-0.34c0.37,0.19,0.07,0.56-0.16,0.71
			c-1.24,0.88-2.76,1.24-4.24,1.43c0.59,0.01,1.29,0.01,1.89-0.1c0.65-0.1,1.28-0.34,1.94-0.39c0.22,0,0.36,0.25,0.27,0.45
			c-0.18,0.55-1.89,0.73-2.44,0.86c0.47,0.16,0.96,0.26,1.32,0.64c-0.2,0.31-0.99,0.14-1.34,0.19c-0.56,0-1.13,0-1.7,0.03
			c0.73,0.26,1.52,0.26,2.26,0.5c0.18,0.06,0.14,0.19,0.02,0.27c-1,0.48-2.05,0.48-3.1,0.31c0.74,0.32,1.57,0.48,2.24,0.93
			c0.34,0.31-0.09,0.6-0.41,0.6c-0.74,0.09-1.43-0.17-2.15-0.28c0.42,0.29,0.84,0.57,1.23,0.91c0.28,0.21,0.12,0.51-0.21,0.49
			c-0.71,0.04-1.33-0.19-1.99-0.46c0.35,0.37,0.68,0.66,0.99,1.03c0.32,0.6-1.22,0.06-1.47,0c0.11,0.25,0.95,0.92,0.84,1.11
			c-0.39,0.38-1.46-0.34-1.83-0.61c0.29,3.61,0.51,7.21,0.77,10.83c0.12,1.52,0.24,3.03,0.35,4.55c0.16,1.3-0.03,2.85,1.12,3.74
			c0.23,0.19,0.43,0.42,0.56,0.69c0.06,0.12,0.14,0.17,0.28,0.18c0.72,0.02-0.3,0.05,0.42,0.07c1.95,0.06-0.9,0.15,1.04,0.24
			c0,0.02,0,0.04,0,0.06c-5.06,0.44-3.64,0.18-8.72,0.25c-5.38-0.1-3.86,0.26-9.21-0.27c2.1-0.26-0.77-0.19,1.34-0.26
			c0.63-0.01-0.7-0.03-0.07-0.05c0.24-0.05,0.65,0.03,0.79-0.19c0.19-0.34,0.47-0.61,0.76-0.87c0.96-0.8,0.89-2.18,1.02-3.32
			c0.14-1.4,0.24-2.81,0.36-4.21c0.28-3.84,0.54-7.66,0.81-11.5c-0.42,0.3-0.82,0.53-1.3,0.69c-0.19,0.06-0.78,0.16-0.54-0.2
			c0.28-0.34,0.55-0.62,0.83-0.96c-0.48,0.14-0.88,0.3-1.36,0.3c-0.18-0.05-0.31-0.18-0.12-0.32c0.31-0.34,0.71-0.59,0.96-0.98
			c-0.5,0.22-1.01,0.42-1.56,0.45c-0.25,0.01-1.01,0.06-0.69-0.39c0.37-0.41,0.86-0.66,1.28-1.03c-0.75,0.17-1.51,0.4-2.29,0.28
			c-0.51-0.1-0.44-0.58,0-0.74c0.61-0.27,1.24-0.46,1.83-0.76c-0.9,0.14-1.79,0.16-2.65-0.15c-0.15-0.06-0.68-0.22-0.36-0.4
			c0.76-0.25,1.56-0.34,2.33-0.53c-0.22-0.04-0.7,0.01-1.02-0.01c-1.29-0.04-3.46,0.12-0.78-0.85c-0.81-0.2-1.93-0.14-2.49-0.82
			c-0.23-0.45,0.3-0.56,0.63-0.46c0.56,0.12,1.11,0.26,1.68,0.37c0.58,0.11,1.17,0.14,1.81,0.12c-1.54-0.23-3.01-0.57-4.28-1.49
			c-0.14-0.13-0.41-0.3-0.29-0.52c0.07-0.11,0.15-0.22,0.3-0.21c0.55,0.05,1.05,0.29,1.59,0.38C17.93,21.92,17.93,21.92,17.93,21.91
			z M31.7,45.01c0.01,0,0.02,0.01,0.04,0.01c0.16,1.1,0.17,2.23,0.55,3.28c0.09,0.24,0.37,1,0.7,0.83c-0.94-1.81-0.72-3.9-0.75-5.88
			c0.03-5.13,0-10.27-0.51-15.38c-0.14,0.19-0.1,0.34-0.12,0.55c-0.02,1.23,0.02,2.47-0.06,3.7c-0.2-1.24-0.25-2.49-0.46-3.74
			c-1.1,0.46-1-1.18-1.09-1.84c-0.08-0.93-0.18-1.85-0.35-2.77c-0.28,2.27-0.01,4.63-0.07,6.93c0.1,3.45,0.13,6.91,0.18,10.37
			c0.03,2.45-0.01,4.91-0.03,7.36c-0.02,0.64,0.04,1.33,0.66,1.71c0.11-6.63,0.27-13.27,0.35-19.9c0.3,3.92,0.32,7.86,0.47,11.79
			c0.1,2.25,0,4.52,0.41,6.75c0.01,0,0.02,0,0.03,0C31.66,47.52,31.68,46.26,31.7,45.01z M27.4,48.13c0.02,0,0.03,0,0.05,0.01
			c0.66-1.81,0.85-3.75,1.04-5.65c0.24-2.71,0.3-5.43,0.46-8.15c0.01,0,0.02,0,0.03,0c0.02,1.52,0.05,3.03,0.07,4.6
			c0.22-1.66,0.18-3.34,0.21-5.01c-0.01-3.49,0.02-6.99-0.28-10.46c-0.15,1.06-0.11,2.3-0.32,3.27c-0.09-1.07-0.13-2.16-0.35-3.22
			c-0.3,2.32-0.26,4.67-0.53,7.03c-0.25-2.03-0.03-4.1-0.19-6.13c-0.02,0-0.03,0-0.05,0c-0.06,0.7-0.14,1.4-0.22,2.1
			c-0.13,0.64,0.03,1.66-0.68,1.98c0.06,4.8,0.09,9.59,0.35,14.38c0.35-3.42,0.24-6.81,0.49-10.23c0.11,2.81,0.1,5.63,0.18,8.45
			C27.69,43.45,27.71,45.81,27.4,48.13z M32.5,20.97c0.38,0.52,1.03,0.42,1.4,1.39c-0.39-0.43-0.9-0.69-1.52-0.65
			c1.29,0.9,1.21,2.15,1.18,3.54c0.56-0.76,0.62-1.57,0.27-2.43c0.02,0,0.03-0.01,0.05-0.01c0.16,0.3,0.33,0.6,0.51,0.93
			c0.02-1.42-0.59-2.71-0.89-4.08c-0.45-1.56-0.54-2.71-2.32-3.22c-0.17-0.06-0.28-0.02-0.41,0.09c-0.85,0.7-1.83,0.87-2.88,0.7
			c-0.58-0.1-1.07-0.39-1.54-0.73c-0.11-0.08-0.21-0.13-0.35-0.06c-0.7,0.24-1.37,0.61-1.66,1.34c-0.41,1.05-0.63,2.16-0.94,3.25
			c-0.17,0.89-0.59,1.77-0.46,2.69c0.12-0.26,0.21-0.52,0.41-0.77c-0.28,1.07-0.02,2,0.4,2.28c-0.15-1.27-0.03-2.72,1.13-3.49
			c-0.01-0.02-0.02-0.03-0.03-0.05c-0.56,0.03-1.13,0.28-1.5,0.7c0.43-1.05,1.08-0.82,1.42-1.41c0.13,0.05,0.24,0.1,0.4,0.16
			c-0.1-0.94-0.19-1.83-0.28-2.73c0.02,0,0.03-0.01,0.05-0.01c0.38,0.83,0.51,1.75,0.74,2.63c0.02,0.08,0.03,0.15,0.14,0.23
			c0.01-0.8,0-1.5-0.05-2.28c0.02,0,0.04,0,0.06-0.01c0.15,0.69,0.3,1.39,0.45,2.08c1.47-0.35,1.15-0.27,1.48-1.66
			c0.14-0.46,0.3-1.76,0.9-1.74c0.25-0.01,0.38,0.09,0.47,0.29c0.26,0.6,0.4,1.24,0.52,1.88c0.16,1.13,0.44,0.93,1.39,1.24
			c0.12-0.74,0.25-1.45,0.49-2.13c0,0.73-0.05,1.45,0.04,2.18c0.04-0.01,0.05-0.01,0.05-0.01c0.09-0.44,0.18-0.88,0.26-1.32
			c0.11-0.43,0.21-1.12,0.52-1.43c-0.09,0.95-0.18,1.84-0.27,2.74C32.27,21.14,32.38,21.01,32.5,20.97z M25.67,25.26
			c0.29,0.66,0.38,1.24,0.87,1.77c-0.11-1.86-0.54-3.77-0.1-5.63c-0.96,0.12-0.92,2.49-0.94,3.25c-0.02,0-0.04,0-0.05,0
			c-0.15-0.94-0.14-1.88,0.11-2.81c-0.5,0.02-0.75,0.44-1.1,0.72c-1,0.98-0.63,2.52,0.11,3.53c0.02-0.01,0.03-0.02,0.05-0.02
			c-0.39-1.13-0.54-2.53,0.32-3.49c-0.45,1.37-0.29,3,0.74,4.08C25.61,26.2,25.64,25.76,25.67,25.26z M31.88,24.27
			c-0.02,0-0.04,0-0.06,0c-0.15-0.89,0.08-2.6-0.99-2.93c0.53,1.84,0.16,3.79,0,5.66c0.44-0.51,0.9-0.99,1.16-1.62
			c-0.05,0.31-0.1,0.62-0.16,0.96c0.78-1.17,0.94-2.4,0.57-3.72c0.88,1,0.63,2.4,0.21,3.54c0.48-0.39,0.65-1.04,0.79-1.62
			c0.23-1.14-0.56-2.33-1.62-2.71C31.93,22.67,31.96,23.44,31.88,24.27z M26.12,43.75c0.23-4.31,0.02-8.66,0.05-12.98
			c-0.01-0.73-0.05-1.45-0.08-2.17c-0.01-0.2-0.11-0.36-0.27-0.5c-0.22,3.56-0.08,7.15-0.02,10.73
			C25.85,40.46,25.8,42.12,26.12,43.75z M25.26,31.14c-0.02,0-0.03,0-0.05,0.01c-0.36,3.78-0.36,7.58-0.53,11.37
			c-0.06,1.71-0.09,3.43-0.2,5.14c-0.04,0.49-0.06,0.99-0.41,1.39c-0.03,0.03-0.03,0.1-0.01,0.13c0.1,0.08,0.23-0.04,0.3-0.11
			c0.48-0.61,0.55-1.4,0.61-2.15c0.06-1.43,0.09-2.87,0.13-4.3C25.08,38.79,25.47,34.96,25.26,31.14z M28.44,13.83
			c-0.12,0.45-0.57,0.04-0.85,0.07c0.07,0.71,0.71,2.37,1.61,1.45c0.43-0.48,0.65-1.06,0.69-1.75c-0.13,0.27-0.71,0.71-0.9,0.31
			c0.23-0.22,0.56-0.09,0.8-0.37c-0.4-0.07-0.66-0.32-0.88-0.66c-0.19,0.48-0.55,0.68-1,0.78C28.08,13.71,28.25,13.77,28.44,13.83z
			 M28.53,18.39c-0.02-0.01-0.03-0.01-0.05-0.02c-0.25,0.62-0.34,1.28-0.47,1.93c-0.3,1.42-1.38,0.36-1.33,2.21
			c0.48-0.36,0.93-0.73,1.39-1.09c0.28-0.22,0.41-0.51,0.43-0.85C28.55,19.84,28.53,19.12,28.53,18.39z M30.66,22.47
			c-0.04-0.29-0.08-0.53-0.11-0.78c-0.12-0.56-1.06-0.42-1.18-1.27c-0.09-0.65-0.26-1.29-0.43-1.92c-0.01-0.05-0.06-0.09-0.1-0.14
			C28.92,21.1,28.35,20.76,30.66,22.47z M18.59,17.04c-1.33-0.87-2.55-1.87-3.77-2.87C15.5,15.46,17.29,16.87,18.59,17.04z
			 M38.64,17.08c1.58-0.46,2.7-1.48,3.55-2.84C41.01,15.19,39.83,16.13,38.64,17.08z M35.61,19.09c0,0.01,0.01,0.02,0.01,0.04
			c1.64-0.45,3.35-0.94,4.69-2.04C38.76,17.81,37.17,18.41,35.61,19.09z M28.57,17.08c0.81,0.03,1.64-0.3,1.85-0.7
			c-0.22-0.18-0.44-0.36-0.68-0.55C29.47,16.33,29.05,16.7,28.57,17.08z M16.87,17.11c1.4,1.05,3,1.6,4.68,1.97
			C20,18.44,18.45,17.78,16.87,17.11z M17.63,13.06c-0.93-1.16-1.89-2.31-2.77-3.52C15.52,10.92,16.34,12.17,17.63,13.06z
			 M39.52,13.16c1.27-0.87,2.07-2.09,2.66-3.48C41.39,10.91,40.43,12.01,39.52,13.16z M36.86,16.11c1.01-0.15,2.73-1.18,3.14-1.95
			C38.95,14.81,37.9,15.46,36.86,16.11z M17.09,14.07c0.56,0.92,2.39,1.98,3.34,2.02C19.25,15.54,18.2,14.8,17.09,14.07z
			 M29.09,11.37c-0.14,0.92,1.06,1.43,1.54,0.74C30.15,11.6,29.87,12.4,29.09,11.37z M37.82,13.89c-0.99,0.68-1.95,1.34-2.9,2
			C36.06,15.49,37.07,14.91,37.82,13.89z M22.2,15.86c-0.92-0.75-2.01-1.25-2.87-2.06C20.01,14.74,21.39,15.73,22.2,15.86z
			 M16.95,13.55c-0.73-0.75-1.4-1.52-2.04-2.34C15.35,12.19,15.94,13.05,16.95,13.55z M40.2,13.53c0.93-0.5,1.53-1.28,1.95-2.22
			C41.55,12.09,40.86,12.81,40.2,13.53z M34.61,17.82c0.89-0.23,1.67-0.56,1.92-0.99C35.84,17.05,35.25,17.42,34.61,17.82z
			 M20.73,16.82c0.52,0.57,1,0.82,1.77,0.93C21.9,17.41,21.34,17.06,20.73,16.82z M29.95,11.44c-0.02-0.55-0.59-0.93-1.11-0.68
			c0.2,0.11,0.39,0.19,0.56,0.3C29.58,11.17,29.7,11.37,29.95,11.44z M26.65,23.95c-0.12,0.59-0.02,1.94,0.17,2.26
			C26.76,25.44,26.71,24.72,26.65,23.95z M28.12,12.79c0.5-0.01,0.81-0.55,0.53-1.05c-0.09,0.17-0.19,0.35-0.29,0.53
			c0.01,0.01,0.02,0.01,0.03,0.02c0.08-0.05,0.16-0.09,0.25-0.15C28.6,12.48,28.36,12.63,28.12,12.79z M30.67,24.23
			c-0.02,0-0.04,0.01-0.05,0.01c-0.03,0.65-0.05,1.31-0.08,1.96c0.02,0,0.04,0,0.05,0C30.73,25.55,30.68,24.89,30.67,24.23z
			 M43.09,15.15c-0.01-0.01-0.03-0.02-0.04-0.03c-0.29,0.34-0.58,0.69-0.86,1.03c-0.01,0.01,0,0.03,0,0.07
			C42.56,15.91,42.84,15.54,43.09,15.15z M14.85,16.19c-0.27-0.33-0.5-0.69-0.82-0.96C14.25,15.59,14.51,15.92,14.85,16.19z"/>
		<path class="st76" d="M28.88,15.2c-0.11,0.06-0.22,0.1-0.37,0.05C28.73,15.14,28.73,15.14,28.88,15.2z"/>
		<path class="st76" d="M28.53,14.73c0.12,0,0.21,0,0.31,0C28.74,14.9,28.68,14.91,28.53,14.73z"/>
	</g>
	<polygon class="st76" points="32.2,27.69 33.34,48.28 34.11,50.27 29.85,50.55 22.6,50.27 23.89,48.08 25.19,28.13 26.81,27.48 
		27.18,25.25 27.83,22.46 29.89,23.02 30.7,23.43 30.14,27.12 31.43,27.52 	"/>
	<path class="st76" d="M16.39,20.74c0,0,5.33,3.31,4.64,0.86l-0.71-1.06c0,0-6.14-3.01-6.47-4.81s0.55-0.95,0.55-0.95l-0.28-1.14
		l1.77,0.87c0,0-2.56-3.99-2.6-6.07c-0.04-2.08,2.81,2.05,2.81,2.05l1.16,0.29l-1.32-1.18c0,0,2.19,1.8,5.78,3.5
		c1.84,0.87,2.2,2.45,2.2,2.45l0.04,2.31l-2.51,6.65l-0.55-1.51l-4.04-1.88L16.39,20.74z"/>
	<path class="st76" d="M28.69,10.6c0,0,0.95-0.3,1.51,0.74s0.71,0.71,0.71,0.71l-0.12,1.12l-1.15,1.6l-0.62,1.12l-1.15-0.06
		l-0.65-1.75l0.3-1.66L28.69,10.6z"/>
	<path class="st76" d="M28.84,18.05l0.77,2.63l1.01,0.71l0.27,0.92l-0.12,0.8l-0.71,1.45l-0.12,3.7l5.44-3.34l0.53-3.64l-2.84-3.85
		c0,0-1.09-1.01-1.48-1.12c-0.38-0.12-1.66-0.44-2.16-0.95s-3.55,1.01-3.55,1.01s-2.78,1.09-2.81,3.05s-0.95,7.81-0.95,7.81
		l4.55,0.95l0.68-4.64l-0.56-0.77c0,0-0.86-0.68-0.06-1.39c0.8-0.71,0.83-0.56,0.83-0.56l0.35-1.18l0.41-1.51L28.84,18.05z"/>
	<path class="st76" d="M43.24,8.76c0,0-0.86,3.52-1.72,4.47c-0.86,0.95-0.77,1.66-0.77,1.66l1.89-1.15l0.09,1.09l0.74-0.09
		l-0.89,1.48l-2.22,1.86l-3.58,2.04l-1.84,1.44l-1.85-4.43c0,0-0.21-2.54,2.04-3.82c2.25-1.27,3.86-1.86,4.66-2.5
		c0.8-0.64,2.54-2.6,2.54-2.6L43.24,8.76z"/>
	<polygon class="st76" points="28.37,16.83 32.63,22.15 31.48,23.93 27.66,24.12 25.37,22.86 25.8,20.65 	"/>
	<path class="st76" d="M26.69,9.1c0.4-0.19,1.18-0.32,2.08-0.32s1.68,0.13,2.08,0.32c0.18-0.08,0.29-0.18,0.29-0.28
		c0-0.33-1.06-0.59-2.37-0.59S26.4,8.5,26.4,8.83C26.4,8.93,26.51,9.02,26.69,9.1z"/>
</g>
</svg>
