<?xml version="1.0" encoding="utf-8"?>
<!-- Generator: Adobe Illustrator 28.3.0, SVG Export Plug-In . SVG Version: 6.00 Build 0)  -->
<svg version="1.1" id="Layer_1" xmlns="http://www.w3.org/2000/svg" xmlns:xlink="http://www.w3.org/1999/xlink" x="0px" y="0px"
	 viewBox="0 0 57 57" style="enable-background:new 0 0 57 57;" xml:space="preserve">
<style type="text/css">
	.st0{fill:#00AEEF;}
	.st1{fill:#6D6E71;}
	.st2{fill:#1F2A44;}
	.st3{fill:#1C75BC;}
	.st4{fill:#414042;}
	.st5{fill:#FFFFFF;}
	.st6{fill:url(#SVGID_1_);}
	.st7{fill:url(#SVGID_00000011713868550201563070000008960184471252709766_);}
	.st8{fill:url(#SVGID_00000018200407250663551080000009643680733738674083_);}
	.st9{fill:url(#SVGID_00000073717037841494558410000000067179057680678538_);}
	.st10{fill:url(#SVGID_00000010272672233951829900000004303528727451187640_);}
	.st11{fill:url(#SVGID_00000016780193243445026170000000777109129203728257_);}
	.st12{fill:url(#SVGID_00000114042334709966924960000007018848685611959214_);}
	.st13{fill:url(#SVGID_00000047024682629723741570000013074295836626255766_);}
	.st14{fill:url(#SVGID_00000121275673396946359840000004582736616437820090_);}
	.st15{fill:url(#SVGID_00000158737518490668112170000014821259115897553041_);}
	.st16{fill:none;stroke:#C9A14A;stroke-width:0.75;stroke-miterlimit:10;}
	.st17{fill:#C9A14A;}
	.st18{fill:none;stroke:#000000;stroke-width:0.5;stroke-miterlimit:10;}
	.st19{fill:none;stroke:#A7A9AC;stroke-width:0.75;stroke-miterlimit:10;}
	.st20{fill:#808285;}
	.st21{fill:url(#SVGID_00000181088667357255229780000007804147723248759722_);}
	.st22{fill:url(#SVGID_00000174583121146131583480000014995930778739689128_);}
	.st23{fill:#F1F2F2;}
	.st24{fill:url(#SVGID_00000120527121715303599180000003229133005896886429_);}
	.st25{fill:url(#SVGID_00000085216050469793442370000007600428339959842464_);}
	.st26{fill:url(#SVGID_00000085937246409849537940000007924728008166845844_);}
	.st27{fill:url(#SVGID_00000035516330570366808960000007431006960980622256_);}
	.st28{fill:url(#SVGID_00000043442653558195662780000000556212443730198180_);}
	.st29{fill:url(#SVGID_00000135689007060173075060000012106273094733668773_);}
	.st30{fill:url(#SVGID_00000068646514246140873140000003146690888572935856_);}
	.st31{fill:url(#SVGID_00000008838974548515971150000004112220852097109889_);}
	.st32{fill:url(#SVGID_00000108270756714391845000000012804428975189803671_);}
	.st33{fill:url(#SVGID_00000047780666472844692490000006250080766535787933_);}
	.st34{fill:url(#SVGID_00000181072616227021528710000007439611146800846746_);}
	.st35{fill:url(#SVGID_00000077289174557907289440000007794148615487356318_);}
	.st36{fill:url(#SVGID_00000124881105850917114730000001150433432094599862_);}
	.st37{fill:url(#SVGID_00000035520768397876408990000017826820023589811610_);}
	.st38{fill:url(#SVGID_00000142140854150141607980000012491496352935498133_);}
	.st39{fill:url(#SVGID_00000138534035620770223220000002456379738033827740_);}
	.st40{fill:url(#SVGID_00000099635163522270250590000015214039542422602663_);}
	.st41{fill:url(#SVGID_00000180335324782011229330000011014813591020992902_);}
	.st42{fill:url(#SVGID_00000111895520280624150850000005766972542624404354_);}
	.st43{fill:url(#SVGID_00000168797403551057244730000009781313785674672522_);}
	.st44{fill:url(#SVGID_00000181081533557376691270000008033261370124072618_);}
	.st45{fill:url(#SVGID_00000055666143069205609880000005047420619996856975_);}
	.st46{fill:url(#SVGID_00000134953225414640695040000004167125457297880990_);}
	.st47{fill:url(#SVGID_00000142860488033878349550000014353661704521829248_);}
	.st48{fill:url(#SVGID_00000022522989978864045290000004871063267955139468_);}
	.st49{fill:url(#SVGID_00000166659870249533238750000015984974844574426789_);}
	.st50{fill:url(#SVGID_00000178908284652639242110000001478268061992499898_);}
	.st51{fill:url(#SVGID_00000145745113818790847670000009737136972012721078_);}
	.st52{fill:url(#SVGID_00000068644048601293678570000002083468006743659137_);}
	.st53{fill:url(#SVGID_00000064317424302345173330000016078972116062021280_);}
	.st54{fill:url(#SVGID_00000098202701672924450380000006349334562986609802_);}
	.st55{fill:url(#SVGID_00000160877481356792963480000013439095612789298323_);}
	.st56{clip-path:url(#XMLID_00000087404151284524094250000003253491301730963102_);fill:#414042;}
	.st57{fill:#808285;stroke:#E6E7E8;stroke-width:1.5;stroke-miterlimit:10;}
	.st58{fill:#414042;stroke:#E6E7E8;stroke-width:1.5;stroke-miterlimit:10;}
	.st59{fill:#A7A9AC;stroke:#E6E7E8;stroke-width:1.5;stroke-miterlimit:10;}
	.st60{fill:#6D6E71;stroke:#E6E7E8;stroke-miterlimit:10;}
	.st61{fill:#6D6E71;stroke:#E6E7E8;stroke-width:1.5;stroke-miterlimit:10;}
	.st62{fill:#808285;stroke:#E6E7E8;stroke-miterlimit:10;}
	.st63{fill:#E6E7E8;}
	.st64{fill:#6D6E71;stroke:#E6E7E8;stroke-width:2;stroke-miterlimit:10;}
	.st65{clip-path:url(#XMLID_00000129897577160690461550000018014462638186083215_);fill:#414042;}
	.st66{clip-path:url(#XMLID_00000056397481385976958850000006154954122007465606_);fill:#414042;}
	.st67{clip-path:url(#XMLID_00000101825344848391924930000009036780803038617259_);fill:#414042;}
	.st68{fill:#A7A9AC;}
	.st69{fill:#F7F8F8;}
	.st70{fill:#6F6D70;}
	.st71{clip-path:url(#XMLID_00000165929274890665921680000008872806790569842827_);fill:#414042;}
	.st72{clip-path:url(#XMLID_00000068651785961147836220000011209509516989907079_);fill:#414042;}
	.st73{clip-path:url(#XMLID_00000131336093562791664380000009399160277027160704_);fill:#414042;}
	.st74{fill:#939598;stroke:#E6E7E8;stroke-width:1.5;stroke-miterlimit:10;}
	.st75{fill:#FFFFFF;stroke:#939598;stroke-width:0.5;stroke-miterlimit:10;}
	.st76{fill:#939598;}
	.st77{fill-rule:evenodd;clip-rule:evenodd;fill:#939598;}
	.st78{fill:#050404;}
	.st79{fill:#82532B;}
	.st80{fill:#885222;}
	.st81{fill:#E1B082;}
	.st82{fill:#E1B183;}
	.st83{fill:#794D30;}
	.st84{fill:#895425;}
	.st85{fill:#E2B082;}
	.st86{fill:#5E2E11;}
	.st87{fill:#E3B48A;}
	.st88{fill:#895223;}
	.st89{fill:#895323;}
	.st90{fill:#613013;}
	.st91{fill:#5F2F12;}
	.st92{fill:#5D2F12;}
	.st93{fill:#5A2D10;}
	.st94{fill:#8E5727;}
	.st95{fill:#5C2F12;}
	.st96{fill:#010101;}
	.st97{fill:#8C5827;}
	.st98{fill:#0C0908;}
	.st99{fill:#090606;}
	.st100{fill:#100A09;}
	.st101{fill:#5D2E11;}
	.st102{fill:url(#SVGID_00000090275821879129414460000010907250499595603903_);}
	.st103{fill:url(#SVGID_00000009592531264939476670000002082604725008535452_);}
	.st104{fill:url(#SVGID_00000181068793138013734160000016953845120424005296_);}
	.st105{fill:url(#SVGID_00000176737648575493958680000012900359622287858090_);}
	.st106{fill:url(#SVGID_00000096054770036275069410000008737032294351480508_);}
	.st107{fill:url(#SVGID_00000011719732726552627550000011632632113654538395_);}
	.st108{fill:url(#SVGID_00000110461174816862759090000015366509859542079104_);}
	.st109{fill:url(#SVGID_00000044143435348704001630000001826124949219266733_);}
	.st110{fill:url(#SVGID_00000073000232927269195130000011357307269149676945_);}
	.st111{fill:url(#SVGID_00000027575612262603574030000007784593378643919036_);}
	.st112{fill:url(#SVGID_00000111901023605045931040000006357080185533144766_);}
	.st113{fill:url(#SVGID_00000100357038056393327750000004734305676435038879_);}
	.st114{fill:url(#SVGID_00000064323267256227196250000007248738795548418483_);}
	.st115{fill:url(#SVGID_00000133495988040070114090000003288374682661078457_);}
	.st116{fill:url(#SVGID_00000085213745321253522720000007227925631209310624_);}
	.st117{fill:url(#SVGID_00000142134756540932476910000014255963485246334639_);}
	.st118{fill:url(#SVGID_00000107561658710173777420000001631820942494295459_);}
	.st119{fill:url(#SVGID_00000086663004548922843880000000017978956774149516_);}
	.st120{fill:#ED1C24;stroke:#006838;stroke-width:0.25;stroke-miterlimit:10;}
	.st121{fill:#A7A9AC;stroke:#006838;stroke-width:0.25;stroke-miterlimit:10;}
	.st122{fill:#27AAE1;stroke:#006838;stroke-width:0.25;stroke-miterlimit:10;}
	.st123{fill:#F15A29;stroke:#006838;stroke-width:0.25;stroke-miterlimit:10;}
	.st124{fill:#939598;stroke:#006838;stroke-width:0.25;stroke-miterlimit:10;}
	.st125{fill:#9E1F63;stroke:#006838;stroke-width:0.25;stroke-miterlimit:10;}
	.st126{fill:#1C75BC;stroke:#006838;stroke-width:0.25;stroke-miterlimit:10;}
	.st127{fill:#2B3990;stroke:#006838;stroke-width:0.25;stroke-miterlimit:10;}
	.st128{fill:#603913;stroke:#006838;stroke-width:0.25;stroke-miterlimit:10;}
	.st129{fill:#C2B59B;stroke:#006838;stroke-width:0.25;stroke-miterlimit:10;}
	.st130{fill:#414042;stroke:#006838;stroke-width:0.25;stroke-miterlimit:10;}
	.st131{fill:#EC008C;stroke:#006838;stroke-width:0.25;stroke-miterlimit:10;}
	.st132{fill:#58595B;stroke:#006838;stroke-width:0.25;stroke-miterlimit:10;}
	.st133{fill:#5BCBF5;stroke:#006838;stroke-width:0.25;stroke-miterlimit:10;}
	.st134{fill:#39B54A;stroke:#006838;stroke-width:0.25;stroke-miterlimit:10;}
</style>
<g id="XMLID_00000121265562547408760340000007218494755250684072_">
	<path id="XMLID_00000162353556780754123690000009722351757831445949_" class="st76" d="M52.34,39.18c1.95-2.1,0.83-14.2,0.23-15.25
		c-0.42-0.74-3.03-1.27-4.52-1.52c0.31-0.2,0.67-0.31,1.04-0.31h3.2c0.23,0,0.41-0.18,0.41-0.41v-0.7c0-0.87-0.77-1.54-1.62-1.42
		l-1.89,0.26c-0.52,0.07-1,0.34-1.33,0.75l-1.05,1.31c-2.29-4.34-4.46-6.01-5.97-6.8c-0.98-0.52-5.71-1.88-12.32-1.88
		s-11.33,1.36-12.32,1.88c-1.51,0.79-3.69,2.46-5.97,6.8l-1.05-1.31c-0.33-0.41-0.81-0.68-1.33-0.75l-1.89-0.26
		c-0.86-0.12-1.62,0.55-1.62,1.42v0.7c0,0.23,0.18,0.41,0.41,0.41h3.2c0.37,0,0.73,0.11,1.04,0.31c-1.5,0.25-4.1,0.78-4.52,1.52
		c-0.6,1.05-1.73,13.15,0.23,15.25l0,2.32c-0.05,1.24,0.94,2.28,2.19,2.28h4.9c1.12,0,2.03-0.91,2.03-2.03v-1.73H28.5h14.72v1.73
		c0,1.12,0.91,2.03,2.03,2.03h4.9c1.25,0,2.24-1.04,2.19-2.28L52.34,39.18z M16.87,16.35c1.1-0.3,6.52-1.41,11.63-1.41
		s10.53,1.11,11.63,1.41c1.1,0.3,4.45,4.35,4.8,5.86c0,0-12.32,0-16.43,0s-16.43,0-16.43,0C12.42,20.7,15.77,16.65,16.87,16.35z
		 M9.87,28.67c-1.6-0.55-2.68-2.05-2.72-3.74c0,0,2.81,0.7,6.84,1.35c0.01,1.05,0.33,2.36,1.09,3.58
		C13.18,29.58,11.37,29.19,9.87,28.67z M13.51,36.16c-0.62,0-1.12-0.5-1.12-1.12s0.5-1.12,1.12-1.12h2.1l2.16,2.25H13.51z
		 M35.6,36.23c-0.39,0.07-0.71,0.06-1.11,0.07c-2.63,0-9.34,0-11.98,0c-0.4,0-0.72,0-1.11-0.07c-1.17-0.26-2.22-1.24-2.37-2.4h18.94
		C37.81,34.99,36.77,35.97,35.6,36.23z M28.5,30.83c-3.88,0-5.13-0.09-10.5-0.61c-1.23-1.07-1.71-2.38-1.87-3.62
		c3.61,0.41,7.89,0.73,12.37,0.73s8.76-0.32,12.37-0.73c-0.17,1.23-0.64,2.55-1.87,3.62C33.63,30.75,32.38,30.83,28.5,30.83z
		 M43.49,36.16h-4.26l2.16-2.25h2.1c0.62,0,1.12,0.5,1.12,1.12S44.11,36.16,43.49,36.16z M47.13,28.67c-1.5,0.52-3.31,0.9-5.21,1.19
		c0.76-1.22,1.08-2.53,1.09-3.58c4.03-0.65,6.84-1.35,6.84-1.35C49.82,26.62,48.73,28.12,47.13,28.67z"/>
</g>
</svg>
