<?xml version="1.0" encoding="utf-8"?>
<!-- Generator: Adobe Illustrator 28.3.0, SVG Export Plug-In . SVG Version: 6.00 Build 0)  -->
<svg version="1.1" id="Layer_1" xmlns="http://www.w3.org/2000/svg" xmlns:xlink="http://www.w3.org/1999/xlink" x="0px" y="0px"
	 viewBox="0 0 57 57" style="enable-background:new 0 0 57 57;" xml:space="preserve">
<style type="text/css">
	.st0{fill:#00AEEF;}
	.st1{fill:#6D6E71;}
	.st2{fill:#1F2A44;}
	.st3{fill:#1C75BC;}
	.st4{fill:#414042;}
	.st5{fill:#FFFFFF;}
	.st6{fill:url(#SVGID_1_);}
	.st7{fill:url(#SVGID_00000004539782899113412100000010066301491147940486_);}
	.st8{fill:url(#SVGID_00000102544088304462700370000004558849450982252987_);}
	.st9{fill:url(#SVGID_00000070111064478980823290000008870822978712828308_);}
	.st10{fill:url(#SVGID_00000121971187903848865150000017240370900852590237_);}
	.st11{fill:url(#SVGID_00000137113900691495463310000010162446189817161129_);}
	.st12{fill:url(#SVGID_00000088831620767439755460000002506448725156483251_);}
	.st13{fill:url(#SVGID_00000177462999511167267870000015479258635909685692_);}
	.st14{fill:url(#SVGID_00000029755567796114942000000006011505129269123743_);}
	.st15{fill:url(#SVGID_00000049224307672431444640000015203530884343753634_);}
	.st16{fill:none;stroke:#C9A14A;stroke-width:0.75;stroke-miterlimit:10;}
	.st17{fill:#C9A14A;}
	.st18{fill:none;stroke:#000000;stroke-width:0.5;stroke-miterlimit:10;}
	.st19{fill:none;stroke:#A7A9AC;stroke-width:0.75;stroke-miterlimit:10;}
	.st20{fill:#808285;}
	.st21{fill:url(#SVGID_00000145779667197860046740000003018093008099656081_);}
	.st22{fill:url(#SVGID_00000057831908539836439740000000021509579114834619_);}
	.st23{fill:#F1F2F2;}
	.st24{fill:url(#SVGID_00000178167857329708431890000002056781012097415041_);}
	.st25{fill:url(#SVGID_00000010996158675908412340000001230757668377041537_);}
	.st26{fill:url(#SVGID_00000039105774222174409660000014419334304575429015_);}
	.st27{fill:url(#SVGID_00000017481637926327485470000010996632382559942061_);}
	.st28{fill:url(#SVGID_00000033338721760507517470000009958240251400308645_);}
	.st29{fill:url(#SVGID_00000054235722419565964200000002664824822663331747_);}
	.st30{fill:url(#SVGID_00000060724193936514026540000015449843931484448956_);}
	.st31{fill:url(#SVGID_00000046340226806793459580000007787831460572744881_);}
	.st32{fill:url(#SVGID_00000041254147071019936320000013073433123214389942_);}
	.st33{fill:url(#SVGID_00000114052511060104282940000006065831059219281054_);}
	.st34{fill:url(#SVGID_00000060748314403176278270000001698256014392674954_);}
	.st35{fill:url(#SVGID_00000126293825245798414430000012348946821219522728_);}
	.st36{fill:url(#SVGID_00000100367389693645782380000002447528876035196339_);}
	.st37{fill:url(#SVGID_00000058586097824824911250000016875716235877290884_);}
	.st38{fill:url(#SVGID_00000088826948993836911630000007408256113006033076_);}
	.st39{fill:url(#SVGID_00000155826636059209132920000011060273291493961641_);}
	.st40{fill:url(#SVGID_00000013912018921063052180000003779711338746313608_);}
	.st41{fill:url(#SVGID_00000005960620056922874600000015279368165109388699_);}
	.st42{fill:url(#SVGID_00000000938292220362516820000018000137370077878676_);}
	.st43{fill:url(#SVGID_00000029732644813498127200000017453901613175094691_);}
	.st44{fill:url(#SVGID_00000039841819552209116010000012044736111874168487_);}
	.st45{fill:url(#SVGID_00000059304813038385275670000018135306696122365087_);}
	.st46{fill:url(#SVGID_00000014621497597083763080000001245629821835910809_);}
	.st47{fill:url(#SVGID_00000025441128916077518120000000148026659489406898_);}
	.st48{fill:url(#SVGID_00000101094016586656821500000004471810136147606413_);}
	.st49{fill:url(#SVGID_00000101075227867301544190000011562821210903039131_);}
	.st50{fill:url(#SVGID_00000021078999729001591930000000019824734321406903_);}
	.st51{fill:url(#SVGID_00000052094113735726568060000015432159636460442554_);}
	.st52{fill:url(#SVGID_00000142171473930396827310000012392761874297876922_);}
	.st53{fill:url(#SVGID_00000047021650517277516720000017498042781357524139_);}
	.st54{fill:url(#SVGID_00000063591831126381068320000011277454560956655289_);}
	.st55{fill:url(#SVGID_00000160880592747974858230000009702053352026806699_);}
	.st56{clip-path:url(#XMLID_00000096031062077790762960000007842484086826445714_);fill:#414042;}
	.st57{fill:#808285;stroke:#E6E7E8;stroke-width:1.5;stroke-miterlimit:10;}
	.st58{fill:#414042;stroke:#E6E7E8;stroke-width:1.5;stroke-miterlimit:10;}
	.st59{fill:#A7A9AC;stroke:#E6E7E8;stroke-width:1.5;stroke-miterlimit:10;}
	.st60{fill:#6D6E71;stroke:#E6E7E8;stroke-miterlimit:10;}
	.st61{fill:#6D6E71;stroke:#E6E7E8;stroke-width:1.5;stroke-miterlimit:10;}
	.st62{fill:#808285;stroke:#E6E7E8;stroke-miterlimit:10;}
	.st63{fill:#E6E7E8;}
	.st64{fill:#6D6E71;stroke:#E6E7E8;stroke-width:2;stroke-miterlimit:10;}
	.st65{clip-path:url(#XMLID_00000093878726897948695100000003170309248616447128_);fill:#414042;}
	.st66{clip-path:url(#XMLID_00000016795209486282460580000008984266997347772800_);fill:#414042;}
	.st67{clip-path:url(#XMLID_00000173840684812891215730000015402095384755720093_);fill:#414042;}
	.st68{fill:#A7A9AC;}
	.st69{fill:#F7F8F8;}
	.st70{fill:#6F6D70;}
	.st71{clip-path:url(#XMLID_00000127032021242504556630000007674828243746601097_);fill:#414042;}
	.st72{clip-path:url(#XMLID_00000145771986542337324770000011305405065691565478_);fill:#414042;}
	.st73{clip-path:url(#XMLID_00000118360038880592746400000016648966238549116582_);fill:#414042;}
	.st74{fill:#939598;stroke:#E6E7E8;stroke-width:1.5;stroke-miterlimit:10;}
	.st75{fill:#FFFFFF;stroke:#939598;stroke-width:0.5;stroke-miterlimit:10;}
	.st76{fill:#939598;}
	.st77{fill-rule:evenodd;clip-rule:evenodd;fill:#939598;}
	.st78{fill:#050404;}
	.st79{fill:#82532B;}
	.st80{fill:#885222;}
	.st81{fill:#E1B082;}
	.st82{fill:#E1B183;}
	.st83{fill:#794D30;}
	.st84{fill:#895425;}
	.st85{fill:#E2B082;}
	.st86{fill:#5E2E11;}
	.st87{fill:#E3B48A;}
	.st88{fill:#895223;}
	.st89{fill:#895323;}
	.st90{fill:#613013;}
	.st91{fill:#5F2F12;}
	.st92{fill:#5D2F12;}
	.st93{fill:#5A2D10;}
	.st94{fill:#8E5727;}
	.st95{fill:#5C2F12;}
	.st96{fill:#010101;}
	.st97{fill:#8C5827;}
	.st98{fill:#0C0908;}
	.st99{fill:#090606;}
	.st100{fill:#100A09;}
	.st101{fill:#5D2E11;}
	.st102{fill:url(#SVGID_00000119075916172962849940000015585119317147910793_);}
	.st103{fill:url(#SVGID_00000039098706529903285870000015778187578702528422_);}
	.st104{fill:url(#SVGID_00000061456764711478946150000010359903571077620618_);}
	.st105{fill:url(#SVGID_00000127726654300073691860000008421973101784684711_);}
	.st106{fill:url(#SVGID_00000155120124780231343430000001100754647231694751_);}
	.st107{fill:url(#SVGID_00000170266791242490013930000014436343349448868487_);}
	.st108{fill:url(#SVGID_00000052811984386929795510000016985865135352118162_);}
	.st109{fill:url(#SVGID_00000039821032905553691370000016692029135780283822_);}
	.st110{fill:url(#SVGID_00000161631502548682231450000013614351029076860858_);}
	.st111{fill:url(#SVGID_00000005946189316412141170000014440287889185764531_);}
	.st112{fill:url(#SVGID_00000072260375085789381970000004880620749271193502_);}
	.st113{fill:url(#SVGID_00000070106749129210174750000014456816340742268046_);}
	.st114{fill:url(#SVGID_00000154414156302510915460000010811697557425106866_);}
	.st115{fill:url(#SVGID_00000177478298357962773160000003027014082270385824_);}
	.st116{fill:url(#SVGID_00000034052964284258677200000015921108293895631778_);}
	.st117{fill:url(#SVGID_00000179645008403338706710000004722446831006613402_);}
	.st118{fill:url(#SVGID_00000123423431442951905510000003270956770105157563_);}
	.st119{fill:url(#SVGID_00000017506575515506884650000013757959766615222441_);}
	.st120{fill:#ED1C24;stroke:#006838;stroke-width:0.25;stroke-miterlimit:10;}
	.st121{fill:#A7A9AC;stroke:#006838;stroke-width:0.25;stroke-miterlimit:10;}
	.st122{fill:#27AAE1;stroke:#006838;stroke-width:0.25;stroke-miterlimit:10;}
	.st123{fill:#F15A29;stroke:#006838;stroke-width:0.25;stroke-miterlimit:10;}
	.st124{fill:#939598;stroke:#006838;stroke-width:0.25;stroke-miterlimit:10;}
	.st125{fill:#9E1F63;stroke:#006838;stroke-width:0.25;stroke-miterlimit:10;}
	.st126{fill:#1C75BC;stroke:#006838;stroke-width:0.25;stroke-miterlimit:10;}
	.st127{fill:#2B3990;stroke:#006838;stroke-width:0.25;stroke-miterlimit:10;}
	.st128{fill:#603913;stroke:#006838;stroke-width:0.25;stroke-miterlimit:10;}
	.st129{fill:#C2B59B;stroke:#006838;stroke-width:0.25;stroke-miterlimit:10;}
	.st130{fill:#414042;stroke:#006838;stroke-width:0.25;stroke-miterlimit:10;}
	.st131{fill:#EC008C;stroke:#006838;stroke-width:0.25;stroke-miterlimit:10;}
	.st132{fill:#58595B;stroke:#006838;stroke-width:0.25;stroke-miterlimit:10;}
	.st133{fill:#5BCBF5;stroke:#006838;stroke-width:0.25;stroke-miterlimit:10;}
	.st134{fill:#39B54A;stroke:#006838;stroke-width:0.25;stroke-miterlimit:10;}
</style>
<path class="st76" d="M44.64,34.97c-0.81-2.67-5.75-5.92-8.19-7.24c0.96-0.83,1.74-1.57,2.34-2.7c1.21-2.25,1.2-4.68,0.49-7.07
	c1.01-0.29,1.81-0.91,2.32-1.84c0.55-0.99,0.69-2.21,0.36-3.29c-0.36-1.19-1.29-2.2-2.38-2.78c-0.92-0.49-1.94-0.6-2.93-0.29
	c-1.16,0.37-1.82,1.14-2.36,2.19c-0.75-0.36-1.43-0.77-2.23-1.02c-2.36-0.76-5.23-0.71-7.57,0.07c-0.68,0.22-1.3,0.53-1.93,0.85
	c-0.53-0.83-1.17-1.51-2.1-1.88c-1.02-0.4-2.16-0.31-3.16,0.12c-1.08,0.47-1.89,1.37-2.31,2.47c-0.41,1.08-0.31,2.22,0.17,3.26
	c0.46,1,1.31,1.73,2.33,2.11c-0.3,1.26-0.46,2.47-0.29,3.76c0.32,2.46,1.54,4.59,3.5,6.11c-0.99,0.59-1.99,1.13-2.95,1.78
	c-1.42,0.96-4.56,3.54-5.25,5.07c-0.33,0.72-0.41,1.64-0.12,2.39c0.4,1.02,1.53,1.74,2.5,2.15c-0.25,0.48-0.5,0.95-0.66,1.47
	c-0.49,1.56-0.22,3.19,0.53,4.61c-0.01,0-0.02,0.01-0.03,0.01c0,0,1.37,2.15,3.97,2.15c2.6,0,4.29-2.13,4.29-2.13
	s3.66,0.79,5.87,0.79s5.31-0.87,5.31-0.87s1.02,2.2,4.21,2.2c2.76,0,3.95-2.17,3.95-2.17c0.37-0.69,0.68-1.37,0.82-2.15
	c0.26-1.48-0.12-2.9-0.97-4.12c0.08-0.02,0.17-0.04,0.25-0.07c0.81-0.24,1.6-0.7,2.02-1.47C44.86,36.7,44.88,35.77,44.64,34.97z
	 M24.51,19.64c-0.65,0-1.18-0.53-1.18-1.18c0-0.65,0.53-1.18,1.18-1.18c0.65,0,1.18,0.53,1.18,1.18
	C25.69,19.11,25.17,19.64,24.51,19.64z M32.49,19.64c-0.65,0-1.18-0.53-1.18-1.18c0-0.65,0.53-1.18,1.18-1.18
	c0.65,0,1.18,0.53,1.18,1.18C33.67,19.11,33.14,19.64,32.49,19.64z"/>
</svg>
