<?xml version="1.0" encoding="utf-8"?>
<!-- Generator: Adobe Illustrator 28.3.0, SVG Export Plug-In . SVG Version: 6.00 Build 0)  -->
<svg version="1.1" id="Layer_1" xmlns="http://www.w3.org/2000/svg" xmlns:xlink="http://www.w3.org/1999/xlink" x="0px" y="0px"
	 viewBox="0 0 57 57" style="enable-background:new 0 0 57 57;" xml:space="preserve">
<style type="text/css">
	.st0{fill:#00AEEF;}
	.st1{fill:#6D6E71;}
	.st2{fill:#1F2A44;}
	.st3{fill:#1C75BC;}
	.st4{fill:#414042;}
	.st5{fill:#FFFFFF;}
	.st6{fill:url(#SVGID_1_);}
	.st7{fill:url(#SVGID_00000019656099181384857480000000192660047356956844_);}
	.st8{fill:url(#SVGID_00000154388676906964277240000015355211228243857030_);}
	.st9{fill:url(#SVGID_00000110447579608977911500000013745496536298088369_);}
	.st10{fill:url(#SVGID_00000078008308834756783720000008674810744295279518_);}
	.st11{fill:url(#SVGID_00000024701369061749641440000015360640618968366256_);}
	.st12{fill:url(#SVGID_00000126310928643178238420000012301292246110764445_);}
	.st13{fill:url(#SVGID_00000173855845266331086280000016463008602474335883_);}
	.st14{fill:url(#SVGID_00000079478871096793758340000002785162700125930641_);}
	.st15{fill:url(#SVGID_00000095322478558077147410000015132201173660674959_);}
	.st16{fill:none;stroke:#C9A14A;stroke-width:0.75;stroke-miterlimit:10;}
	.st17{fill:#C9A14A;}
	.st18{fill:none;stroke:#000000;stroke-width:0.5;stroke-miterlimit:10;}
	.st19{fill:none;stroke:#A7A9AC;stroke-width:0.75;stroke-miterlimit:10;}
	.st20{fill:#808285;}
	.st21{fill:url(#SVGID_00000141439146127518912400000003950090159234561679_);}
	.st22{fill:url(#SVGID_00000141446112903132236800000012967711083171167159_);}
	.st23{fill:#F1F2F2;}
	.st24{fill:url(#SVGID_00000175287894726447776250000001330860864848564388_);}
	.st25{fill:url(#SVGID_00000060738858600381392780000010649233937737934736_);}
	.st26{fill:url(#SVGID_00000169546648996808848360000010705364942223301021_);}
	.st27{fill:url(#SVGID_00000161623119846493816840000009195767914688866729_);}
	.st28{fill:url(#SVGID_00000058568640738448221430000005989798063926168763_);}
	.st29{fill:url(#SVGID_00000114055674186559516880000000305990870898650783_);}
	.st30{fill:url(#SVGID_00000165229713934356193480000017659666766181407917_);}
	.st31{fill:url(#SVGID_00000023242709695322109170000008623784609352615584_);}
	.st32{fill:url(#SVGID_00000036244579472908273950000016155802052182369435_);}
	.st33{fill:url(#SVGID_00000130606071194597723150000010157991190888642435_);}
	.st34{fill:url(#SVGID_00000003092707703034772350000012948857566720583596_);}
	.st35{fill:url(#SVGID_00000181061989449419729000000015299154243392950418_);}
	.st36{fill:url(#SVGID_00000175297200888719902740000007918329166544316599_);}
	.st37{fill:url(#SVGID_00000013901073783421193460000008312504547494691743_);}
	.st38{fill:url(#SVGID_00000065037029890045126570000007108628080047789978_);}
	.st39{fill:url(#SVGID_00000144309908945123689700000009507098243968838279_);}
	.st40{fill:url(#SVGID_00000083087551796155980030000011329870693771982988_);}
	.st41{fill:url(#SVGID_00000057109179114317439090000014419808791468571831_);}
	.st42{fill:url(#SVGID_00000137101083331923248160000008816284776149672609_);}
	.st43{fill:url(#SVGID_00000090973517895387167820000011048096584378117053_);}
	.st44{fill:url(#SVGID_00000076584908398681949560000012625680543577353359_);}
	.st45{fill:url(#SVGID_00000008827216676535683870000011957067746089813665_);}
	.st46{fill:url(#SVGID_00000008118671890244489830000001985526129990164384_);}
	.st47{fill:url(#SVGID_00000047025953230047916900000017434172582139754679_);}
	.st48{fill:url(#SVGID_00000023990118355559273590000016362236941938985659_);}
	.st49{fill:url(#SVGID_00000103955522364806804070000001454702691041619385_);}
	.st50{fill:url(#SVGID_00000137091353512834879680000002992820188097172401_);}
	.st51{fill:url(#SVGID_00000151532161578280091830000010412292540534364857_);}
	.st52{fill:url(#SVGID_00000002342688223990324770000006162633945394098355_);}
	.st53{fill:url(#SVGID_00000078033460870528072140000013116126738669468314_);}
	.st54{fill:url(#SVGID_00000068662475788557244830000016172683185685530260_);}
	.st55{fill:url(#SVGID_00000031188642984956058610000008470426503304741541_);}
	.st56{clip-path:url(#XMLID_00000003070895980787389280000000577451076803093917_);fill:#414042;}
	.st57{fill:#808285;stroke:#E6E7E8;stroke-width:1.5;stroke-miterlimit:10;}
	.st58{fill:#414042;stroke:#E6E7E8;stroke-width:1.5;stroke-miterlimit:10;}
	.st59{fill:#A7A9AC;stroke:#E6E7E8;stroke-width:1.5;stroke-miterlimit:10;}
	.st60{fill:#6D6E71;stroke:#E6E7E8;stroke-miterlimit:10;}
	.st61{fill:#6D6E71;stroke:#E6E7E8;stroke-width:1.5;stroke-miterlimit:10;}
	.st62{fill:#808285;stroke:#E6E7E8;stroke-miterlimit:10;}
	.st63{fill:#E6E7E8;}
	.st64{fill:#6D6E71;stroke:#E6E7E8;stroke-width:2;stroke-miterlimit:10;}
	.st65{clip-path:url(#XMLID_00000163047954290701754040000000393481281500460980_);fill:#414042;}
	.st66{clip-path:url(#XMLID_00000038376420306826668620000016385859812561694087_);fill:#414042;}
	.st67{clip-path:url(#XMLID_00000039120341053757712410000006130256531117538976_);fill:#414042;}
	.st68{fill:#A7A9AC;}
	.st69{fill:#F7F8F8;}
	.st70{fill:#6F6D70;}
	.st71{clip-path:url(#XMLID_00000170973184703795905120000015487475831508566176_);fill:#414042;}
	.st72{clip-path:url(#XMLID_00000071552625656072848010000005445609606679388832_);fill:#414042;}
	.st73{clip-path:url(#XMLID_00000006668697013398059020000005351847831520989330_);fill:#414042;}
	.st74{fill:#939598;stroke:#E6E7E8;stroke-width:1.5;stroke-miterlimit:10;}
	.st75{fill:#FFFFFF;stroke:#939598;stroke-width:0.5;stroke-miterlimit:10;}
	.st76{fill:#939598;}
	.st77{fill-rule:evenodd;clip-rule:evenodd;fill:#939598;}
	.st78{fill:#050404;}
	.st79{fill:#82532B;}
	.st80{fill:#885222;}
	.st81{fill:#E1B082;}
	.st82{fill:#E1B183;}
	.st83{fill:#794D30;}
	.st84{fill:#895425;}
	.st85{fill:#E2B082;}
	.st86{fill:#5E2E11;}
	.st87{fill:#E3B48A;}
	.st88{fill:#895223;}
	.st89{fill:#895323;}
	.st90{fill:#613013;}
	.st91{fill:#5F2F12;}
	.st92{fill:#5D2F12;}
	.st93{fill:#5A2D10;}
	.st94{fill:#8E5727;}
	.st95{fill:#5C2F12;}
	.st96{fill:#010101;}
	.st97{fill:#8C5827;}
	.st98{fill:#0C0908;}
	.st99{fill:#090606;}
	.st100{fill:#100A09;}
	.st101{fill:#5D2E11;}
	.st102{fill:url(#SVGID_00000118397599782955749940000010507012918549634178_);}
	.st103{fill:url(#SVGID_00000008830852258594996340000000511207565345956250_);}
	.st104{fill:url(#SVGID_00000040538240760704199700000013468684146446660025_);}
	.st105{fill:url(#SVGID_00000098905047430065778800000016252543680818957954_);}
	.st106{fill:url(#SVGID_00000085214203190124008730000017271304024467174550_);}
	.st107{fill:url(#SVGID_00000009557315124739302500000009712556724176535966_);}
	.st108{fill:url(#SVGID_00000171721838349488537540000017956381236774603165_);}
	.st109{fill:url(#SVGID_00000026151800643582994240000003290821552440023725_);}
	.st110{fill:url(#SVGID_00000018943154339324351200000002883841689744426402_);}
	.st111{fill:url(#SVGID_00000181048016631449659870000012213904440096693684_);}
	.st112{fill:url(#SVGID_00000021818412676953041870000011803146314964242076_);}
	.st113{fill:url(#SVGID_00000118354741296612148850000012657908661224793270_);}
	.st114{fill:url(#SVGID_00000018949487275290921360000003635668375012926140_);}
	.st115{fill:url(#SVGID_00000046299264697694205310000000285743574459399574_);}
	.st116{fill:url(#SVGID_00000010309463467819203840000002823672224062207400_);}
	.st117{fill:url(#SVGID_00000176001815202723362480000002057935417087070125_);}
	.st118{fill:url(#SVGID_00000178197983922951861730000011934681990027916476_);}
	.st119{fill:url(#SVGID_00000173155899324464885880000008818091544307111324_);}
	.st120{fill:#ED1C24;stroke:#006838;stroke-width:0.25;stroke-miterlimit:10;}
	.st121{fill:#A7A9AC;stroke:#006838;stroke-width:0.25;stroke-miterlimit:10;}
	.st122{fill:#27AAE1;stroke:#006838;stroke-width:0.25;stroke-miterlimit:10;}
	.st123{fill:#F15A29;stroke:#006838;stroke-width:0.25;stroke-miterlimit:10;}
	.st124{fill:#939598;stroke:#006838;stroke-width:0.25;stroke-miterlimit:10;}
	.st125{fill:#9E1F63;stroke:#006838;stroke-width:0.25;stroke-miterlimit:10;}
	.st126{fill:#1C75BC;stroke:#006838;stroke-width:0.25;stroke-miterlimit:10;}
	.st127{fill:#2B3990;stroke:#006838;stroke-width:0.25;stroke-miterlimit:10;}
	.st128{fill:#603913;stroke:#006838;stroke-width:0.25;stroke-miterlimit:10;}
	.st129{fill:#C2B59B;stroke:#006838;stroke-width:0.25;stroke-miterlimit:10;}
	.st130{fill:#414042;stroke:#006838;stroke-width:0.25;stroke-miterlimit:10;}
	.st131{fill:#EC008C;stroke:#006838;stroke-width:0.25;stroke-miterlimit:10;}
	.st132{fill:#58595B;stroke:#006838;stroke-width:0.25;stroke-miterlimit:10;}
	.st133{fill:#5BCBF5;stroke:#006838;stroke-width:0.25;stroke-miterlimit:10;}
	.st134{fill:#39B54A;stroke:#006838;stroke-width:0.25;stroke-miterlimit:10;}
</style>
<path class="st76" d="M43.78,22.28l-7-7c-0.37,0.32-0.73,0.66-1.07,1.01c-0.1,0.1-0.19,0.2-0.28,0.3c-0.24,0.26-0.48,0.53-0.71,0.81
	c-0.05,0.06-0.1,0.11-0.15,0.17v0c0,0-0.01,0.01-0.01,0.01c-0.08,0.1-0.15,0.2-0.23,0.3c0,0,0,0,0,0c0,0.01-0.01,0.01-0.01,0.02
	c-0.04,0.05-0.07,0.1-0.11,0.14c-0.03,0.05-0.07,0.09-0.1,0.14c-0.01,0.02-0.03,0.04-0.04,0.06c-0.03,0.05-0.07,0.09-0.1,0.14
	c-0.13,0.19-0.26,0.37-0.39,0.56c-0.01,0.02-0.03,0.04-0.04,0.06c-0.01,0.02-0.02,0.04-0.04,0.06c-0.01,0.01-0.01,0.02-0.02,0.03
	c-0.01,0.02-0.02,0.03-0.03,0.05c-0.04,0.07-0.09,0.14-0.13,0.21c-0.09,0.15-0.19,0.3-0.27,0.45c-0.01,0.02-0.02,0.04-0.03,0.06
	c-0.06,0.1-0.11,0.2-0.16,0.3c-0.05,0.1-0.11,0.19-0.16,0.29c-0.01,0.02-0.02,0.04-0.04,0.07c-0.01,0.01-0.01,0.02-0.02,0.03
	c-0.02,0.04-0.04,0.09-0.07,0.13c-0.01,0.01-0.01,0.02-0.02,0.04c-0.1,0.21-0.2,0.41-0.3,0.62c-0.02,0.05-0.04,0.09-0.06,0.14
	c0,0.01-0.01,0.02-0.01,0.03c-0.01,0.03-0.02,0.05-0.03,0.08c-0.02,0.04-0.04,0.08-0.05,0.13c0-0.01,0-0.02,0.01-0.03
	c0.16-0.67,0.36-1.32,0.58-1.96c0.07-0.2,0.13-0.41,0.21-0.61c0.24-0.65,0.5-1.29,0.8-1.9c0.04-0.09,0.09-0.18,0.13-0.26
	c0.2-0.41,0.42-0.8,0.64-1.19c0.07-0.12,0.13-0.23,0.2-0.35c0.28-0.47,0.58-0.93,0.9-1.36L28.5,6.99L16.66,18.83
	c-0.06,0.68-0.09,1.37-0.09,2.07c0,0.31,0.01,0.63,0.02,0.94c0,0.09,0.01,0.19,0.01,0.28c0,0.05,0.01,0.09,0.01,0.14
	c0.01,0.11,0.01,0.22,0.02,0.34c0,0.07,0.01,0.14,0.01,0.21c0,0.04,0.01,0.08,0.01,0.12c0,0.03,0.01,0.07,0.01,0.1
	c0,0.01,0,0.03,0,0.04c0.02,0.26,0.05,0.51,0.08,0.76c0,0.03,0.01,0.06,0.01,0.09c0,0.01,0,0.01,0,0.02
	c0.01,0.09,0.03,0.18,0.04,0.28c0.03,0.21,0.06,0.41,0.1,0.61c0.01,0.03,0.01,0.06,0.02,0.09c0.01,0.06,0.02,0.12,0.03,0.17
	c0.01,0.03,0.01,0.06,0.02,0.1c0.01,0.03,0.01,0.05,0.02,0.08c0.01,0.07,0.03,0.15,0.04,0.22c0.02,0.09,0.03,0.18,0.05,0.27
	c0.03,0.11,0.05,0.23,0.07,0.34c0.05,0.23,0.11,0.46,0.17,0.68c0,0,0,0,0,0c0,0.02,0.01,0.04,0.02,0.06
	c0.36,1.39,0.85,2.72,1.45,3.99c0.04,0.09,0.09,0.17,0.13,0.25c0.26,0.54,0.54,1.06,0.84,1.57c0.1,0.16,0.2,0.32,0.3,0.48
	c0.26,0.42,0.53,0.84,0.82,1.24c0.13,0.18,0.27,0.35,0.4,0.53c0.28,0.37,0.56,0.73,0.87,1.08c0.15,0.18,0.31,0.35,0.47,0.52
	c0.3,0.33,0.61,0.66,0.93,0.97c0.17,0.17,0.35,0.33,0.52,0.49c0.33,0.3,0.67,0.59,1.01,0.87c0.18,0.15,0.37,0.3,0.56,0.44
	c0.36,0.27,0.73,0.53,1.11,0.79c0.1,0.07,0.19,0.14,0.29,0.21c-0.24-0.1-0.48-0.19-0.72-0.3c-0.19-0.09-0.38-0.18-0.57-0.28
	c-0.31-0.16-0.62-0.33-0.93-0.51c-0.17-0.1-0.35-0.2-0.52-0.31c-0.35-0.22-0.68-0.46-1.01-0.7c-0.11-0.08-0.23-0.16-0.35-0.25
	c-0.43-0.33-0.85-0.69-1.26-1.07c-0.12-0.11-0.23-0.23-0.35-0.35c-0.28-0.28-0.57-0.56-0.83-0.86c-0.14-0.16-0.28-0.32-0.41-0.48
	c-0.23-0.28-0.46-0.56-0.68-0.85c-0.13-0.18-0.26-0.35-0.39-0.53c-0.22-0.31-0.42-0.62-0.62-0.95c-0.11-0.17-0.22-0.34-0.32-0.52
	c-0.25-0.42-0.47-0.85-0.69-1.29c-0.04-0.09-0.09-0.17-0.13-0.26c-0.25-0.53-0.48-1.08-0.69-1.63c-0.06-0.17-0.12-0.34-0.18-0.51
	c-0.14-0.4-0.27-0.8-0.39-1.21c-0.06-0.21-0.12-0.43-0.17-0.65c-0.1-0.39-0.19-0.78-0.27-1.17c-0.04-0.22-0.09-0.45-0.13-0.67
	c-0.07-0.42-0.12-0.85-0.17-1.28c-0.02-0.2-0.05-0.4-0.07-0.6c-0.05-0.63-0.09-1.27-0.09-1.92c0-0.26,0-0.51,0.01-0.77l-1.13,1.13
	c0,0,0,0,0,0l-0.78,0.78c-0.22,0.22-0.43,0.46-0.62,0.7c-0.05,0.07-0.1,0.14-0.15,0.21c-0.14,0.18-0.27,0.36-0.39,0.54
	c-0.05,0.08-0.09,0.16-0.14,0.24c-0.11,0.18-0.22,0.37-0.32,0.56c-0.04,0.08-0.08,0.16-0.11,0.25c-0.09,0.19-0.17,0.38-0.25,0.57
	c-0.01,0.03-0.02,0.05-0.03,0.08c0,0,0,0,0,0c-0.01,0.04-0.02,0.08-0.03,0.12c-0.11,0.32-0.21,0.64-0.28,0.96
	c-0.01,0.04-0.03,0.08-0.03,0.12c0,0,0,0,0,0c0,0.02,0,0.04-0.01,0.06c-0.08,0.36-0.13,0.73-0.16,1.1c0,0.02-0.01,0.03-0.01,0.05
	c0,0,0,0.01,0,0.01c0,0,0,0.01,0,0.01c0,0,0,0.01,0,0.01c0,0.04,0,0.07,0,0.11c-0.02,0.32-0.02,0.64-0.01,0.96c0,0.05,0,0.09,0,0.14
	c0,0,0,0.01,0,0.01c0,0.01,0,0.01,0,0.02c0,0.01,0,0.01,0,0.02c0,0.03,0.01,0.07,0.01,0.1c0.01,0.1,0.02,0.2,0.03,0.3
	c0.01,0.05,0.01,0.11,0.02,0.16c0,0.01,0,0.02,0,0.02c0.01,0.11,0.04,0.22,0.06,0.34c0.01,0.07,0.02,0.13,0.03,0.2
	c0,0.01,0,0.03,0.01,0.04c0,0.01,0,0.01,0,0.02c0,0,0,0.01,0,0.01c0,0.01,0.01,0.03,0.01,0.04c0.04,0.17,0.08,0.34,0.12,0.51
	c0.01,0.03,0.01,0.05,0.02,0.08c0,0.01,0,0.01,0.01,0.02c0.02,0.07,0.05,0.15,0.07,0.22c0.03,0.1,0.06,0.2,0.1,0.3c0,0,0,0,0,0
	c0.01,0.02,0.01,0.03,0.02,0.05c0,0.01,0.01,0.02,0.01,0.02c0.02,0.04,0.03,0.08,0.05,0.12c0.03,0.08,0.07,0.17,0.1,0.25
	c0.01,0.03,0.02,0.06,0.03,0.09c0.02,0.04,0.03,0.07,0.05,0.11c0.05,0.12,0.11,0.24,0.17,0.36c0.02,0.05,0.04,0.1,0.07,0.14
	c0,0,0,0.01,0,0.01c0,0,0,0,0,0c0.01,0.01,0.01,0.03,0.02,0.04c0.01,0.01,0.01,0.02,0.02,0.03c0.08,0.14,0.16,0.29,0.25,0.43
	c0.03,0.04,0.05,0.08,0.08,0.12c0.01,0.01,0.02,0.02,0.02,0.03c0.04,0.06,0.08,0.12,0.12,0.18c0.06,0.08,0.11,0.17,0.17,0.25
	c0.01,0.01,0.01,0.02,0.02,0.03c0.01,0.01,0.01,0.01,0.02,0.02c0.04,0.06,0.09,0.11,0.14,0.17c0.05,0.06,0.1,0.13,0.15,0.19
	c0.01,0.02,0.02,0.03,0.04,0.05c0.03,0.04,0.07,0.08,0.1,0.12c0.13,0.15,0.26,0.29,0.4,0.43L28.5,50.01l9.3-9.3l5.99-5.99
	C47.22,31.28,47.22,25.71,43.78,22.28z M23.36,26.42l5.13-5.13l2.8,2.8l2.33,2.33c1.15,1.15,1.15,3.01,0,4.16l-1.64,1.64l-0.79,0.79
	l-2.7,2.7l-5.13-5.13C22.21,29.43,22.21,27.57,23.36,26.42z"/>
</svg>
